<?xml version="1.0" encoding="UTF-8"?>
<!DOCTYPE svg PUBLIC "-//W3C//DTD SVG 1.1//EN" "http://www.w3.org/Graphics/SVG/1.1/DTD/svg11.dtd">
<svg xmlns="http://www.w3.org/2000/svg" version="1.1" width="900px" height="900px" style="shape-rendering:geometricPrecision; text-rendering:geometricPrecision; image-rendering:optimizeQuality; fill-rule:evenodd; clip-rule:evenodd" xmlns:xlink="http://www.w3.org/1999/xlink">
<g><path style="opacity:0.954" fill="#fed62f" d="M 374.5,58.5 C 384.083,58.1816 393.583,58.5149 403,59.5C 408.691,82.2645 414.691,104.931 421,127.5C 426.994,104.523 432.827,81.5235 438.5,58.5C 447.5,58.5 456.5,58.5 465.5,58.5C 470.859,81.6021 476.692,104.602 483,127.5C 488.975,104.599 494.475,81.599 499.5,58.5C 508.167,58.5 516.833,58.5 525.5,58.5C 516.314,92.2294 506.814,125.896 497,159.5C 487.227,160.818 477.394,160.818 467.5,159.5C 461.811,138.405 455.978,117.405 450,96.5C 444.182,117.773 438.682,139.106 433.5,160.5C 423.5,160.5 413.5,160.5 403.5,160.5C 393.833,126.5 384.167,92.5 374.5,58.5 Z"/></g>
<g><path style="opacity:0.947" fill="#fed62f" d="M 573.5,72.5 C 582.092,75.586 590.426,79.2527 598.5,83.5C 593.629,95.4061 588.629,107.239 583.5,119C 596.751,124.471 610.084,129.638 623.5,134.5C 627.673,122.819 632.339,111.319 637.5,100C 639.553,99.6753 641.553,100.009 643.5,101C 649.864,103.443 655.864,106.443 661.5,110C 648.896,141.369 635.896,172.536 622.5,203.5C 614.259,200.478 606.259,196.978 598.5,193C 604.416,180.354 609.583,167.52 614,154.5C 601.573,149.038 589.073,143.704 576.5,138.5C 570.667,151.5 564.833,164.5 559,177.5C 551.251,174.361 543.584,171.028 536,167.5C 548.452,135.912 560.952,104.245 573.5,72.5 Z"/></g>
<g><path style="opacity:0.941" fill="#fed62f" d="M 267.5,100.5 C 282.897,100.221 293.563,107.221 299.5,121.5C 292.833,125.167 286.167,128.833 279.5,132.5C 276.622,128.458 272.955,125.291 268.5,123C 258.137,122.596 249.637,126.43 243,134.5C 239.354,142.871 241.854,148.204 250.5,150.5C 263.251,146.972 275.917,143.139 288.5,139C 310.13,135.105 321.796,144.271 323.5,166.5C 323.364,172.708 321.531,178.375 318,183.5C 304.386,198.808 287.386,207.808 267,210.5C 253.994,209.819 244.328,203.819 238,192.5C 237.333,191.5 237.333,190.5 238,189.5C 244.349,186.159 250.682,182.826 257,179.5C 259.434,181.934 261.934,184.434 264.5,187C 269.773,190.028 275.106,190.028 280.5,187C 286.272,184.366 291.439,180.866 296,176.5C 299.699,170.653 298.865,165.486 293.5,161C 290.833,160.333 288.167,160.333 285.5,161C 274.229,164.868 262.895,168.535 251.5,172C 230.066,175.917 218.399,166.917 216.5,145C 216.363,139.049 217.863,133.549 221,128.5C 233.241,113.635 248.741,104.301 267.5,100.5 Z"/></g>
<g><path style="opacity:0.951" fill="#fed62f" d="M 701.5,151.5 C 728.902,152.749 748.402,165.749 760,190.5C 767.68,216.985 760.18,238.152 737.5,254C 707.806,267.774 682.973,261.608 663,235.5C 645.874,204.134 652.041,178.3 681.5,158C 688,154.888 694.667,152.721 701.5,151.5 Z M 705.5,176.5 C 720.274,175.122 730.774,181.122 737,194.5C 739.641,204.274 737.975,213.274 732,221.5C 725.126,230.893 715.96,236.227 704.5,237.5C 688.753,235.587 679.753,226.754 677.5,211C 680.445,194.23 689.778,182.73 705.5,176.5 Z"/></g>
<g><path style="opacity:0.937" fill="#fed62f" d="M 174.5,154.5 C 180.242,158.735 185.575,163.568 190.5,169C 179.626,180.042 168.626,190.875 157.5,201.5C 162.152,206.652 166.985,211.652 172,216.5C 180.651,208.683 189.151,200.683 197.5,192.5C 201.652,196.151 205.652,199.984 209.5,204C 201.137,212.697 192.47,221.031 183.5,229C 188.667,234.167 193.833,239.333 199,244.5C 210.137,234.363 220.971,223.863 231.5,213C 232.5,212.333 233.5,212.333 234.5,213C 239.015,217.348 243.349,221.848 247.5,226.5C 230.47,244.53 212.803,261.864 194.5,278.5C 170.861,253.86 147.194,229.193 123.5,204.5C 140.521,187.812 157.521,171.145 174.5,154.5 Z"/></g>
<g><path style="opacity:0.954" fill="#fed62f" d="M 427.5,198.5 C 544.501,193.416 635.334,239.082 700,335.5C 745.095,411.593 755.429,492.26 731,577.5C 701.912,664.252 645.412,725.752 561.5,762C 467.505,796.833 377.838,788.167 292.5,736C 214.712,682.761 170.879,608.927 161,514.5C 155.36,399.956 199.193,310.123 292.5,245C 333.865,218.823 378.865,203.323 427.5,198.5 Z M 443.5,219.5 C 546.351,220.327 625.851,263.327 682,348.5C 726.156,423.907 733.822,502.907 705,585.5C 694.394,614.073 679.227,639.74 659.5,662.5C 653.952,603.309 639.786,546.309 617,491.5C 603.312,459.168 583.479,431.335 557.5,408C 533.873,388.027 506.54,377.194 475.5,375.5C 473.353,353.178 471.353,330.845 469.5,308.5C 423.477,312.569 377.477,316.902 331.5,321.5C 331.385,365.816 333.385,409.983 337.5,454C 323.504,454.5 309.504,454.667 295.5,454.5C 295.566,482.536 296.233,510.536 297.5,538.5C 311.51,538.5 325.51,538.834 339.5,539.5C 339.528,583.005 331.694,625.005 316,665.5C 309.657,680.807 301.324,694.807 291,707.5C 220.596,652.695 184.096,580.362 181.5,490.5C 183.817,404.375 217.817,333.875 283.5,279C 330.489,242.279 383.823,222.446 443.5,219.5 Z M 446.5,331.5 C 447.5,331.5 448.5,331.5 449.5,331.5C 451.94,353.127 453.94,374.794 455.5,396.5C 498.309,394.486 533.475,409.819 561,442.5C 578.225,463.597 591.892,486.93 602,512.5C 623.738,568.522 635.738,626.522 638,686.5C 567.135,750.664 484.635,773.164 390.5,754C 361.561,747.136 334.561,735.803 309.5,720C 334.77,684.886 350.27,645.72 356,602.5C 358.554,581.506 360.721,560.506 362.5,539.5C 375.45,540.481 388.45,540.814 401.5,540.5C 401.5,527.5 401.5,514.5 401.5,501.5C 405.167,501.5 408.833,501.5 412.5,501.5C 412.227,513.871 412.56,526.204 413.5,538.5C 448.163,539.342 482.83,540.009 517.5,540.5C 517.5,526.5 517.5,512.5 517.5,498.5C 527.565,496.317 537.565,493.817 547.5,491C 551.305,486.909 552.472,482.076 551,476.5C 546.86,471.789 541.694,470.289 535.5,472C 529.784,473.345 524.118,474.845 518.5,476.5C 517.503,469.197 517.169,461.863 517.5,454.5C 482.167,454.5 446.833,454.5 411.5,454.5C 411.5,463.167 411.5,471.833 411.5,480.5C 408.167,480.5 404.833,480.5 401.5,480.5C 401.5,471.833 401.5,463.167 401.5,454.5C 387.167,454.5 372.833,454.5 358.5,454.5C 356.292,416.842 354.292,379.175 352.5,341.5C 384.017,338.549 415.35,335.216 446.5,331.5 Z M 317.5,475.5 C 338.5,475.5 359.5,475.5 380.5,475.5C 380.5,489.833 380.5,504.167 380.5,518.5C 359.836,518.049 339.169,517.716 318.5,517.5C 317.911,503.508 317.577,489.508 317.5,475.5 Z M 433.5,475.5 C 454.5,475.5 475.5,475.5 496.5,475.5C 496.5,489.833 496.5,504.167 496.5,518.5C 475.836,518.049 455.169,517.716 434.5,517.5C 433.911,503.508 433.577,489.508 433.5,475.5 Z"/></g>
<g><path style="opacity:0.949" fill="#fed62f" d="M 95.5,237.5 C 125.699,253.76 155.365,270.76 184.5,288.5C 179.977,297.043 175.31,305.543 170.5,314C 141.148,314.778 111.814,315.778 82.5,317C 104.5,329.333 126.5,341.667 148.5,354C 144.873,360.085 141.373,366.252 138,372.5C 137.261,373.574 136.261,374.241 135,374.5C 107.102,359.134 79.2686,343.634 51.5,328C 49.6734,327.101 48.34,325.767 47.5,324C 53.0328,313.769 58.6995,303.602 64.5,293.5C 90.1542,292.317 115.821,291.483 141.5,291C 122.993,280.579 104.327,270.413 85.5,260.5C 84.3861,259.277 84.2195,257.944 85,256.5C 88.7288,250.277 92.2288,243.943 95.5,237.5 Z"/></g>
<g><path style="opacity:0.945" fill="#fed62f" d="M 832.5,281.5 C 835.05,281.561 836.55,282.894 837,285.5C 840.088,292.332 842.588,299.332 844.5,306.5C 829.49,311.838 814.823,318.005 800.5,325C 820.87,331.735 841.204,338.568 861.5,345.5C 865.692,354.742 869.692,364.075 873.5,373.5C 873.167,373.833 872.833,374.167 872.5,374.5C 853.278,367.593 834.112,360.593 815,353.5C 803.738,374.363 792.238,395.03 780.5,415.5C 775.631,405.759 771.297,395.759 767.5,385.5C 775.189,371.29 783.523,357.456 792.5,344C 786.082,340.806 779.415,338.306 772.5,336.5C 765.183,339.339 757.85,341.839 750.5,344C 747.074,336.559 743.74,329.059 740.5,321.5C 771.079,307.973 801.746,294.64 832.5,281.5 Z"/></g>
<g><path style="opacity:0.951" fill="#fed62f" d="M 66.5,375.5 C 108.551,377.713 127.385,399.713 123,441.5C 115.365,474.075 94.8653,488.575 61.5,485C 37.7573,480.923 23.5906,467.09 19,443.5C 16.0247,421.532 22.1913,402.699 37.5,387C 46.1312,380.344 55.7979,376.51 66.5,375.5 Z M 60.5,403.5 C 76.0097,401.387 88.843,406.054 99,417.5C 105.629,431.575 103.129,443.742 91.5,454C 73.5999,462.233 57.7666,459.4 44,445.5C 35.1119,425.643 40.6119,411.643 60.5,403.5 Z"/></g>
<g><path style="opacity:0.954" fill="#fed62f" d="M 877.5,417.5 C 879.5,417.5 881.5,417.5 883.5,417.5C 884.583,430.153 885.083,442.819 885,455.5C 864.253,469.457 843.419,483.291 822.5,497C 844.49,495.977 866.49,494.811 888.5,493.5C 888.731,501.505 889.065,509.505 889.5,517.5C 855.53,519.93 821.53,521.93 787.5,523.5C 787.02,514.322 786.353,505.155 785.5,496C 785.833,494.833 786.167,493.667 786.5,492.5C 810.673,476.581 834.673,460.414 858.5,444C 833.173,445.255 807.84,446.755 782.5,448.5C 782.309,440.16 781.976,431.826 781.5,423.5C 813.688,422.078 845.688,420.078 877.5,417.5 Z"/></g>
<g><path style="opacity:0.944" fill="#fed62f" d="M 113.5,537.5 C 115.167,537.5 116.833,537.5 118.5,537.5C 123.851,561.571 129.518,585.571 135.5,609.5C 102.167,617.5 68.8333,625.5 35.5,633.5C 30.4645,610.024 24.7979,586.691 18.5,563.5C 25.2715,560.945 32.2715,559.278 39.5,558.5C 43.1492,573.097 46.4826,587.763 49.5,602.5C 56.529,601.326 63.529,599.993 70.5,598.5C 68.6002,586.669 65.9335,575.002 62.5,563.5C 67.7989,560.793 73.2989,559.793 79,560.5C 81.6062,571.426 84.4395,582.259 87.5,593C 93.8612,592.163 100.195,590.829 106.5,589C 107.428,588.612 108.095,587.945 108.5,587C 104.752,571.84 101.085,556.673 97.5,541.5C 103.094,540.768 108.427,539.435 113.5,537.5 Z"/></g>
<g><path style="opacity:0.952" fill="#fed62f" d="M 810.5,547.5 C 832.362,545.172 850.529,552.172 865,568.5C 873.05,581.043 875.716,594.709 873,609.5C 864.748,646.863 841.915,662.03 804.5,655C 774.895,644.004 763.062,622.837 769,591.5C 774.214,568.459 788.047,553.792 810.5,547.5 Z M 809.5,574.5 C 821.093,573.232 831.76,575.732 841.5,582C 853.154,592.453 855.32,604.62 848,618.5C 838.979,629.637 827.479,633.137 813.5,629C 792.641,622.532 785.474,609.032 792,588.5C 796.237,581.755 802.071,577.088 809.5,574.5 Z"/></g>
<g><path style="opacity:0.944" fill="#fed62f" d="M 137.5,621.5 C 143.25,628.132 147.916,635.632 151.5,644C 139.863,651.824 127.863,659.157 115.5,666C 123.065,677.906 130.232,690.073 137,702.5C 148.751,695.085 160.751,688.085 173,681.5C 178.241,688.303 182.741,695.636 186.5,703.5C 157.167,720.833 127.833,738.167 98.5,755.5C 93.9508,748.119 89.6174,740.619 85.5,733C 96.3493,725.996 107.349,719.163 118.5,712.5C 111.585,700.335 104.418,688.335 97,676.5C 86.4129,683.212 75.5796,689.545 64.5,695.5C 59.3477,688.542 54.6811,681.208 50.5,673.5C 79.7289,656.392 108.729,639.059 137.5,621.5 Z"/></g>
<g><path style="opacity:0.945" fill="#fed62f" d="M 738.5,668.5 C 772.075,680.971 805.408,694.138 838.5,708C 832.609,715.63 826.609,723.13 820.5,730.5C 799.5,721.167 778.5,711.833 757.5,702.5C 757.167,702.833 756.833,703.167 756.5,703.5C 770.5,721.833 784.5,740.167 798.5,758.5C 793.191,765.644 787.691,772.644 782,779.5C 760.693,769.589 739.193,760.422 717.5,752C 731.546,769.924 745.713,787.758 760,805.5C 760.667,806.5 760.667,807.5 760,808.5C 754.992,815.003 749.826,821.336 744.5,827.5C 723.711,798.755 703.044,769.921 682.5,741C 687.788,734.256 692.955,727.423 698,720.5C 698.804,719.196 699.971,718.529 701.5,718.5C 720.279,726.389 738.945,734.556 757.5,743C 758.5,743.667 759.5,743.667 760.5,743C 748.366,725.899 735.866,709.066 723,692.5C 722.333,691.167 722.333,689.833 723,688.5C 728.417,681.984 733.584,675.317 738.5,668.5 Z"/></g>
<g><path style="opacity:0.938" fill="#fed62f" d="M 212.5,730.5 C 213.552,730.351 214.552,730.517 215.5,731C 221.233,736.733 226.9,742.4 232.5,748C 215.048,767.788 197.215,787.288 179,806.5C 178.333,807.167 178.333,807.833 179,808.5C 185.983,814.316 192.483,820.65 198.5,827.5C 193.805,832.526 189.139,837.526 184.5,842.5C 163.839,823.839 143.506,804.839 123.5,785.5C 127.48,779.887 132.146,774.887 137.5,770.5C 144.784,776.282 151.618,782.615 158,789.5C 176.372,769.963 194.539,750.297 212.5,730.5 Z"/></g>
</svg>
