<?xml version="1.0" encoding="UTF-8"?>
<!DOCTYPE svg PUBLIC "-//W3C//DTD SVG 1.1//EN" "http://www.w3.org/Graphics/SVG/1.1/DTD/svg11.dtd">
<svg xmlns="http://www.w3.org/2000/svg" version="1.1" width="2048px" height="2048px" style="shape-rendering:geometricPrecision; text-rendering:geometricPrecision; image-rendering:optimizeQuality; fill-rule:evenodd; clip-rule:evenodd" xmlns:xlink="http://www.w3.org/1999/xlink">
<g><path style="opacity:0.944" fill="#020201" d="M 1243.5,1242.5 C 1236.97,1245.01 1230.47,1247.68 1224,1250.5C 1221.55,1249.51 1219.05,1249.34 1216.5,1250C 1200.45,1262.39 1184.11,1274.39 1167.5,1286C 1160.71,1291.4 1155.21,1297.9 1151,1305.5C 1150.86,1309.23 1151.36,1312.9 1152.5,1316.5C 1141.98,1323.26 1131.98,1330.76 1122.5,1339C 1106.72,1348.55 1092.05,1359.55 1078.5,1372C 1077.17,1372.17 1075.83,1372.33 1074.5,1372.5C 1063.31,1368.91 1052.31,1364.74 1041.5,1360C 1020.41,1348.46 999.411,1336.96 978.5,1325.5C 978.208,1322.23 978.875,1319.23 980.5,1316.5C 980.363,1314.89 979.696,1313.56 978.5,1312.5C 962.131,1301.97 946.464,1290.47 931.5,1278C 917.664,1269.58 903.998,1260.92 890.5,1252C 889.87,1250.11 888.87,1248.44 887.5,1247C 879.81,1247.66 872.143,1247.49 864.5,1246.5C 826.736,1212.51 795.569,1172.84 771,1127.5C 770.005,1126.93 769.172,1126.27 768.5,1125.5C 776.99,1126.07 785.324,1127.4 793.5,1129.5C 829.105,1189.53 876.105,1238.7 934.5,1277C 977.186,1304.09 1021.69,1327.93 1068,1348.5C 1073.86,1347.32 1079.36,1345.15 1084.5,1342C 1132.59,1308.25 1179.26,1272.58 1224.5,1235C 1265.3,1196.54 1297.63,1152.04 1321.5,1101.5C 1329.15,1095.37 1336.98,1089.37 1345,1083.5C 1355.85,1063.44 1361.68,1042.1 1362.5,1019.5C 1357.92,1017.57 1353.58,1015.24 1349.5,1012.5C 1349.5,1010.83 1349.5,1009.17 1349.5,1007.5C 1351.15,995.716 1350.48,984.049 1347.5,972.5C 1341.21,946.375 1326.87,925.875 1304.5,911C 1301.53,909.734 1298.53,908.567 1295.5,907.5C 1247.02,929.3 1196.35,943.466 1143.5,950C 1104.11,982.578 1075.95,1023.08 1059,1071.5C 1052.92,1078.1 1046.92,1078.1 1041,1071.5C 1035,1057.5 1029,1043.5 1023,1029.5C 1009.6,998.101 989.432,971.935 962.5,951C 917.181,943.805 873.015,932.305 830,916.5C 774.204,928.705 749.204,963.372 755,1020.5C 755.548,1024.17 756.048,1027.84 756.5,1031.5C 757.621,1036.1 755.955,1038.94 751.5,1040C 750.299,1040.9 749.465,1042.07 749,1043.5C 747.223,1050.88 746.056,1058.21 745.5,1065.5C 734.221,1033.03 732.721,1000.03 741,966.5C 752.188,936.492 772.688,915.659 802.5,904C 766.849,887.011 738.016,862.178 716,829.5C 694.707,786.469 699.707,746.802 731,710.5C 740.75,699.913 751.25,690.246 762.5,681.5C 743.47,652.479 741.636,622.479 757,591.5C 763.349,583.489 771.182,577.322 780.5,573C 817.724,555.874 853.724,558.208 888.5,580C 899.846,588.674 909.013,599.174 916,611.5C 918.171,613.454 920.171,615.454 922,617.5C 999.867,602.332 1078.03,600.666 1156.5,612.5C 1157.5,612.167 1158.5,611.833 1159.5,611.5C 1171.81,576.238 1196.81,558.905 1234.5,559.5C 1273.35,560.228 1300.52,578.228 1316,613.5C 1319.55,624.235 1320.88,635.235 1320,646.5C 1319.11,652.611 1318.11,658.611 1317,664.5C 1347.75,680.919 1372.42,703.919 1391,733.5C 1410.73,773.714 1406.73,811.38 1379,846.5C 1369.83,855.667 1360.67,864.833 1351.5,874C 1340.86,882.657 1329.52,890.324 1317.5,897C 1357.05,926.664 1373.88,966.498 1368,1016.5C 1354.89,1085.38 1326.22,1146.71 1282,1200.5C 1269.56,1215.1 1256.72,1229.1 1243.5,1242.5 Z"/></g>
<g><path style="opacity:1" fill="#64d672" d="M 974.5,937.5 C 969.731,936.111 964.731,935.444 959.5,935.5C 897.476,928.214 839.476,909.047 785.5,878C 764.84,865.343 747.34,849.176 733,829.5C 709.219,789.473 712.885,752.14 744,717.5C 755.119,706.206 766.952,695.872 779.5,686.5C 760.155,665.298 753.321,640.631 759,612.5C 765.81,593.695 778.976,581.861 798.5,577C 828.856,567.667 857.189,572 883.5,590C 896.545,602.285 907.545,616.118 916.5,631.5C 917.5,631.833 918.5,632.167 919.5,632.5C 929.085,630.354 938.752,628.687 948.5,627.5C 958.054,626.802 967.388,625.468 976.5,623.5C 1031.5,617.798 1086.5,618.298 1141.5,625C 1148.72,625.876 1155.89,627.043 1163,628.5C 1164.33,628.245 1165.33,627.578 1166,626.5C 1171.02,598.98 1186.86,580.813 1213.5,572C 1240.66,565.801 1264.99,571.467 1286.5,589C 1308.29,610.07 1315.29,635.404 1307.5,665C 1307.83,668.833 1308.17,672.667 1308.5,676.5C 1336.57,691.409 1359.41,712.076 1377,738.5C 1391.98,765.96 1392.32,793.626 1378,821.5C 1364.21,842.956 1346.71,860.789 1325.5,875C 1286.48,899.172 1244.48,916.172 1199.5,926C 1125.1,942.704 1050.1,946.537 974.5,937.5 Z"/></g>
<g><path style="opacity:1" fill="#010201" d="M 1232.5,592.5 C 1260.48,591.886 1279.31,604.553 1289,630.5C 1292.28,653.43 1284.12,670.93 1264.5,683C 1238.43,695.907 1214.93,692.407 1194,672.5C 1175.57,643.806 1180.41,619.64 1208.5,600C 1216.13,595.932 1224.13,593.432 1232.5,592.5 Z"/></g>
<g><path style="opacity:1" fill="#010201" d="M 835.5,597.5 C 863.48,596.886 882.313,609.553 892,635.5C 895.283,658.43 887.116,675.93 867.5,688C 841.425,700.907 817.925,697.407 797,677.5C 778.572,648.806 783.405,624.64 811.5,605C 819.133,600.932 827.133,598.432 835.5,597.5 Z"/></g>
<g><path style="opacity:1" fill="#e2e1da" d="M 1197.5,611.5 C 1200.95,610.756 1202.62,612.09 1202.5,615.5C 1201.01,617.28 1199.01,617.946 1196.5,617.5C 1196.21,615.265 1196.54,613.265 1197.5,611.5 Z"/></g>
<g><path style="opacity:1" fill="#f1f0e8" d="M 1229.5,618.5 C 1229.67,622.658 1229,626.658 1227.5,630.5C 1224.71,632.113 1222.05,633.946 1219.5,636C 1213.87,637.755 1209.54,636.255 1206.5,631.5C 1206.5,627.5 1206.5,623.5 1206.5,619.5C 1211.26,611.214 1217.92,609.38 1226.5,614C 1228.14,615.129 1229.14,616.629 1229.5,618.5 Z"/></g>
<g><path style="opacity:1" fill="#7f7f7b" d="M 1197.5,611.5 C 1198.95,610.387 1200.61,610.22 1202.5,611C 1203.8,612.616 1203.8,614.116 1202.5,615.5C 1202.62,612.09 1200.95,610.756 1197.5,611.5 Z"/></g>
<g><path style="opacity:1" fill="#dbdad3" d="M 801.5,616.5 C 807.488,616.664 808.821,619.164 805.5,624C 799.403,624.147 798.07,621.647 801.5,616.5 Z"/></g>
<g><path style="opacity:1" fill="#f5f4ec" d="M 821.5,617.5 C 833.965,617.411 838.465,623.411 835,635.5C 830.014,643.161 823.181,645.661 814.5,643C 808.961,637.529 808.128,631.362 812,624.5C 814.529,621.115 817.696,618.782 821.5,617.5 Z"/></g>
<g><path style="opacity:1" fill="#656561" d="M 1229.5,618.5 C 1230.63,620.966 1230.8,623.633 1230,626.5C 1229.8,628.32 1228.97,629.653 1227.5,630.5C 1229,626.658 1229.67,622.658 1229.5,618.5 Z"/></g>
<g><path style="opacity:1" fill="#479751" d="M 976.5,623.5 C 967.388,625.468 958.054,626.802 948.5,627.5C 957.584,625.345 966.918,624.012 976.5,623.5 Z"/></g>
<g><path style="opacity:1" fill="#9d9c97" d="M 1206.5,619.5 C 1206.5,623.5 1206.5,627.5 1206.5,631.5C 1203.92,627.47 1203.92,623.47 1206.5,619.5 Z"/></g>
<g><path style="opacity:1" fill="#252d26" d="M 1034.5,893.5 C 1039.26,894.942 1044.26,895.608 1049.5,895.5C 1052.69,895.498 1055.69,895.165 1058.5,894.5C 1101.38,888.12 1126.21,863.454 1133,820.5C 1137.25,815.579 1141.75,815.246 1146.5,819.5C 1147.27,822.096 1147.6,824.763 1147.5,827.5C 1138.42,873.083 1111.08,900.583 1065.5,910C 1055.84,910.5 1046.17,910.666 1036.5,910.5C 1034.49,909.076 1032.15,908.41 1029.5,908.5C 989.328,897.156 965.828,870.822 959,829.5C 958.333,824.833 958.333,820.167 959,815.5C 963.3,810.554 967.967,810.221 973,814.5C 973.987,840.161 983.821,861.661 1002.5,879C 1012.05,886.277 1022.72,891.11 1034.5,893.5 Z"/></g>
<g><path style="opacity:1" fill="#417747" d="M 1146.5,819.5 C 1148.03,820.492 1148.69,821.992 1148.5,824C 1148.49,825.385 1148.15,826.551 1147.5,827.5C 1147.6,824.763 1147.27,822.096 1146.5,819.5 Z"/></g>
<g><path style="opacity:1" fill="#4e9b58" d="M 1034.5,893.5 C 1042.48,894.166 1050.48,894.499 1058.5,894.5C 1055.69,895.165 1052.69,895.498 1049.5,895.5C 1044.26,895.608 1039.26,894.942 1034.5,893.5 Z"/></g>
<g><path style="opacity:1" fill="#d5648f" d="M 1347.5,972.5 C 1349.05,984.105 1349.72,995.771 1349.5,1007.5C 1349.5,1009.17 1349.5,1010.83 1349.5,1012.5C 1336.2,1006.24 1322.2,1003.74 1307.5,1005C 1295,1006.83 1290.84,1013.66 1295,1025.5C 1300.49,1031.33 1306.65,1036.33 1313.5,1040.5C 1302.43,1045.2 1291.76,1050.7 1281.5,1057C 1274.91,1061.79 1273.91,1067.46 1278.5,1074C 1283.24,1076.07 1288.24,1077.07 1293.5,1077C 1287.18,1082.98 1282.01,1089.82 1278,1097.5C 1276.27,1106.26 1279.77,1111.26 1288.5,1112.5C 1300.22,1110.98 1311.06,1106.98 1321,1100.5C 1321.4,1100.73 1321.57,1101.06 1321.5,1101.5C 1297.63,1152.04 1265.3,1196.54 1224.5,1235C 1179.26,1272.58 1132.59,1308.25 1084.5,1342C 1079.36,1345.15 1073.86,1347.32 1068,1348.5C 1021.69,1327.93 977.186,1304.09 934.5,1277C 876.105,1238.7 829.105,1189.53 793.5,1129.5C 805.518,1131.62 817.185,1130.46 828.5,1126C 843.128,1114.17 843.128,1102.17 828.5,1090C 824.065,1087.45 819.399,1085.45 814.5,1084C 820.75,1080.75 825.25,1075.92 828,1069.5C 828.656,1062.97 826.156,1057.81 820.5,1054C 815.452,1051.46 810.119,1049.79 804.5,1049C 809.226,1042.99 811.893,1036.16 812.5,1028.5C 811.055,1018.92 805.388,1014.25 795.5,1014.5C 787.893,1015.3 780.893,1017.8 774.5,1022C 768.551,1025.56 763.051,1029.73 758,1034.5C 757.768,1033.26 757.268,1032.26 756.5,1031.5C 756.048,1027.84 755.548,1024.17 755,1020.5C 749.204,963.372 774.204,928.705 830,916.5C 873.015,932.305 917.181,943.805 962.5,951C 989.432,971.935 1009.6,998.101 1023,1029.5C 1029,1043.5 1035,1057.5 1041,1071.5C 1046.92,1078.1 1052.92,1078.1 1059,1071.5C 1075.95,1023.08 1104.11,982.578 1143.5,950C 1196.35,943.466 1247.02,929.3 1295.5,907.5C 1298.53,908.567 1301.53,909.734 1304.5,911C 1326.87,925.875 1341.21,946.375 1347.5,972.5 Z"/></g>
<g><path style="opacity:1" fill="#48894f" d="M 1029.5,908.5 C 1032.15,908.41 1034.49,909.076 1036.5,910.5C 1033.85,910.59 1031.51,909.924 1029.5,908.5 Z"/></g>
<g><path style="opacity:1" fill="#428c4b" d="M 959.5,935.5 C 964.731,935.444 969.731,936.111 974.5,937.5C 969.269,937.556 964.269,936.889 959.5,935.5 Z"/></g>
<g><path style="opacity:1" fill="#64d572" d="M 1104.5,951.5 C 1107.19,951.336 1109.85,951.503 1112.5,952C 1113.55,953.388 1113.72,954.888 1113,956.5C 1085.51,981.473 1065.51,1011.47 1053,1046.5C 1049.28,1049.48 1046.95,1048.48 1046,1043.5C 1036.06,1009.93 1018.39,981.265 993,957.5C 992.506,955.866 992.34,954.199 992.5,952.5C 1020.82,955.227 1049.16,955.561 1077.5,953.5C 1086.81,955.168 1095.81,954.502 1104.5,951.5 Z"/></g>
<g><path style="opacity:1" fill="#9d4a69" d="M 1347.5,972.5 C 1350.48,984.049 1351.15,995.716 1349.5,1007.5C 1349.72,995.771 1349.05,984.105 1347.5,972.5 Z"/></g>
<g><path style="opacity:1" fill="#252a26" d="M 1349.5,1012.5 C 1353.58,1015.24 1357.92,1017.57 1362.5,1019.5C 1361.68,1042.1 1355.85,1063.44 1345,1083.5C 1336.98,1089.37 1329.15,1095.37 1321.5,1101.5C 1321.57,1101.06 1321.4,1100.73 1321,1100.5C 1311.06,1106.98 1300.22,1110.98 1288.5,1112.5C 1279.77,1111.26 1276.27,1106.26 1278,1097.5C 1282.01,1089.82 1287.18,1082.98 1293.5,1077C 1288.24,1077.07 1283.24,1076.07 1278.5,1074C 1273.91,1067.46 1274.91,1061.79 1281.5,1057C 1291.76,1050.7 1302.43,1045.2 1313.5,1040.5C 1306.65,1036.33 1300.49,1031.33 1295,1025.5C 1290.84,1013.66 1295,1006.83 1307.5,1005C 1322.2,1003.74 1336.2,1006.24 1349.5,1012.5 Z"/></g>
<g><path style="opacity:1" fill="#45d27d" d="M 1306.5,1014.5 C 1319.3,1013.26 1331.64,1015.09 1343.5,1020C 1347.27,1021.3 1350.44,1023.47 1353,1026.5C 1351.31,1044.9 1345.98,1062.23 1337,1078.5C 1335.6,1079.23 1334.1,1079.73 1332.5,1080C 1319.9,1092.3 1304.9,1099.8 1287.5,1102.5C 1288.15,1098.86 1289.65,1095.53 1292,1092.5C 1298.7,1085.47 1305.7,1078.8 1313,1072.5C 1316.12,1066.67 1314.45,1063.67 1308,1063.5C 1304.05,1063.78 1300.21,1064.61 1296.5,1066C 1293.17,1066.67 1289.83,1066.67 1286.5,1066C 1288.21,1063.96 1290.21,1062.29 1292.5,1061C 1302.5,1056.33 1312.5,1051.67 1322.5,1047C 1325.77,1043.55 1326.27,1039.71 1324,1035.5C 1316.44,1031.28 1309.44,1026.28 1303,1020.5C 1302.65,1017.67 1303.82,1015.67 1306.5,1014.5 Z"/></g>
<g><path style="opacity:0.99" fill="#242a25" d="M 793.5,1129.5 C 785.324,1127.4 776.99,1126.07 768.5,1125.5C 766.871,1124.37 765.371,1123.04 764,1121.5C 757.495,1107.99 752.162,1093.99 748,1079.5C 746.842,1074.88 746.008,1070.22 745.5,1065.5C 746.056,1058.21 747.223,1050.88 749,1043.5C 749.465,1042.07 750.299,1040.9 751.5,1040C 755.955,1038.94 757.621,1036.1 756.5,1031.5C 757.268,1032.26 757.768,1033.26 758,1034.5C 763.051,1029.73 768.551,1025.56 774.5,1022C 780.893,1017.8 787.893,1015.3 795.5,1014.5C 805.388,1014.25 811.055,1018.92 812.5,1028.5C 811.893,1036.16 809.226,1042.99 804.5,1049C 810.119,1049.79 815.452,1051.46 820.5,1054C 826.156,1057.81 828.656,1062.97 828,1069.5C 825.25,1075.92 820.75,1080.75 814.5,1084C 819.399,1085.45 824.065,1087.45 828.5,1090C 843.128,1102.17 843.128,1114.17 828.5,1126C 817.185,1130.46 805.518,1131.62 793.5,1129.5 Z"/></g>
<g><path style="opacity:1" fill="#45d37e" d="M 792.5,1023.5 C 800.829,1022.66 803.995,1026.33 802,1034.5C 800.416,1038.67 798.082,1042.34 795,1045.5C 789.924,1049.62 784.757,1053.62 779.5,1057.5C 777.663,1061.49 778.829,1064.15 783,1065.5C 787.766,1063.54 792.6,1061.7 797.5,1060C 802.921,1059.16 808.254,1059.49 813.5,1061C 819.201,1063.83 819.867,1067.5 815.5,1072C 808.675,1076.61 801.342,1080.28 793.5,1083C 790.689,1086.29 791.022,1089.29 794.5,1092C 804.793,1091.24 814.46,1093.24 823.5,1098C 830.14,1103.14 831.14,1109.14 826.5,1116C 824.668,1116.75 823.001,1117.75 821.5,1119C 805.851,1121.81 790.518,1120.64 775.5,1115.5C 762.796,1096.01 756.63,1074.68 757,1051.5C 766.072,1038.59 777.906,1029.25 792.5,1023.5 Z"/></g>
<g><path style="opacity:1" fill="#272926" d="M 1144.5,1049.5 C 1150.47,1048.3 1154.3,1050.63 1156,1056.5C 1163.76,1081.88 1170.09,1107.54 1175,1133.5C 1171.71,1136.31 1168.71,1135.98 1166,1132.5C 1160.77,1108.93 1154.61,1085.6 1147.5,1062.5C 1145.51,1065.96 1144.01,1069.62 1143,1073.5C 1138.54,1092.14 1134.21,1110.81 1130,1129.5C 1124.94,1134.08 1121.28,1133.08 1119,1126.5C 1115.37,1105.96 1109.87,1085.96 1102.5,1066.5C 1100.47,1071.66 1098.97,1077 1098,1082.5C 1095.65,1099.96 1092.65,1117.29 1089,1134.5C 1084.22,1137.88 1081.38,1136.72 1080.5,1131C 1082.84,1115.49 1085.34,1099.99 1088,1084.5C 1089.61,1074.01 1092.61,1064.01 1097,1054.5C 1100.94,1051.69 1104.6,1052.02 1108,1055.5C 1115.17,1072.65 1120.83,1090.31 1125,1108.5C 1128.1,1092.67 1132.1,1077.01 1137,1061.5C 1138.76,1056.96 1141.26,1052.96 1144.5,1049.5 Z"/></g>
<g><path style="opacity:1" fill="#262926" d="M 913.5,1124.5 C 912.216,1106.83 912.216,1089.16 913.5,1071.5C 911.901,1071.23 910.568,1071.57 909.5,1072.5C 895.409,1075.56 881.243,1078.23 867,1080.5C 861.07,1081.54 858.404,1079.2 859,1073.5C 862.097,1070.26 865.764,1069.59 870,1071.5C 899.029,1064.28 928.195,1058.11 957.5,1053C 962.167,1052.33 966.833,1052.33 971.5,1053C 975.769,1057 975.103,1060.33 969.5,1063C 964.525,1062.67 959.525,1062.67 954.5,1063C 944.167,1065.23 933.834,1067.4 923.5,1069.5C 922.043,1078.1 921.377,1086.76 921.5,1095.5C 921.78,1111.3 922.946,1126.97 925,1142.5C 922.177,1147.4 918.843,1147.73 915,1143.5C 915.824,1137.09 915.324,1130.76 913.5,1124.5 Z"/></g>
<g><path style="opacity:1" fill="#272926" d="M 1033.5,1075.5 C 1038.57,1075.05 1042.4,1077.05 1045,1081.5C 1051.8,1098.25 1058.8,1114.91 1066,1131.5C 1068.17,1139.32 1065.33,1142.82 1057.5,1142C 1057,1141.5 1056.5,1141 1056,1140.5C 1055.75,1137.8 1055.75,1135.13 1056,1132.5C 1052.89,1125.29 1049.56,1118.29 1046,1111.5C 1039.17,1114 1032.33,1116.5 1025.5,1119C 1022.5,1124.82 1020.33,1130.99 1019,1137.5C 1015.97,1140.36 1013.3,1140.03 1011,1136.5C 1012.16,1128.86 1013.49,1121.19 1015,1113.5C 1015.67,1112.83 1016.33,1112.17 1017,1111.5C 1019.92,1098.21 1025.42,1086.21 1033.5,1075.5 Z"/></g>
<g><path style="opacity:1" fill="#262926" d="M 983.5,1081.5 C 986.249,1081.27 988.916,1081.61 991.5,1082.5C 992.769,1084.69 992.769,1086.86 991.5,1089C 980.166,1093.05 968.499,1095.72 956.5,1097C 954.705,1101.06 954.372,1105.23 955.5,1109.5C 966.627,1105.97 977.96,1103.81 989.5,1103C 991.984,1105.28 992.151,1107.78 990,1110.5C 977.389,1113.11 964.889,1116.28 952.5,1120C 951.059,1124.69 950.392,1129.52 950.5,1134.5C 962.508,1131.33 974.674,1129 987,1127.5C 993.581,1125.79 996.914,1128.12 997,1134.5C 996.5,1135 996,1135.5 995.5,1136C 989.137,1136.39 982.803,1137.06 976.5,1138C 966.41,1141.44 956.077,1143.11 945.5,1143C 943.951,1141.79 942.785,1140.29 942,1138.5C 942.03,1121.95 944.03,1105.62 948,1089.5C 948.5,1089 949,1088.5 949.5,1088C 961.267,1087.41 972.6,1085.25 983.5,1081.5 Z"/></g>
<g><path style="opacity:1" fill="#ca6088" d="M 1036.5,1086.5 C 1039.75,1091.34 1041.58,1096.67 1042,1102.5C 1037.54,1104.32 1033.04,1105.98 1028.5,1107.5C 1030.38,1100.19 1033.05,1093.19 1036.5,1086.5 Z"/></g>
<g><path style="opacity:1" fill="#934e67" d="M 909.5,1072.5 C 910.568,1071.57 911.901,1071.23 913.5,1071.5C 912.216,1089.16 912.216,1106.83 913.5,1124.5C 912.691,1122.71 912.191,1120.71 912,1118.5C 911.214,1103.13 911.381,1087.8 912.5,1072.5C 911.5,1072.5 910.5,1072.5 909.5,1072.5 Z"/></g>
<g><path style="opacity:1" fill="#252925" d="M 1134.5,1220.5 C 1136.49,1200.37 1137.49,1180.04 1137.5,1159.5C 1137.68,1157.11 1139.02,1156.11 1141.5,1156.5C 1143.37,1156.39 1144.87,1157.06 1146,1158.5C 1146.78,1185.6 1145.44,1212.6 1142,1239.5C 1139.7,1243.03 1137.03,1243.36 1134,1240.5C 1133.95,1233.84 1134.12,1227.18 1134.5,1220.5 Z"/></g>
<g><path style="opacity:1" fill="#272926" d="M 1053.5,1165.5 C 1062.92,1164.75 1067.08,1169.08 1066,1178.5C 1061.25,1183.02 1058.08,1182.02 1056.5,1175.5C 1051.11,1182.14 1047.95,1189.8 1047,1198.5C 1046.33,1206.17 1046.33,1213.83 1047,1221.5C 1047.62,1226.8 1050.45,1228.97 1055.5,1228C 1062.79,1224.09 1064.29,1218.59 1060,1211.5C 1057.5,1209.67 1055.17,1207.67 1053,1205.5C 1052.08,1202.69 1052.91,1200.53 1055.5,1199C 1061.16,1198.2 1066.83,1197.87 1072.5,1198C 1074.32,1199.47 1074.82,1201.3 1074,1203.5C 1072.58,1205.42 1070.75,1206.76 1068.5,1207.5C 1074.06,1218.43 1072.06,1227.6 1062.5,1235C 1048.74,1241.54 1040.57,1237.37 1038,1222.5C 1034.89,1204.9 1037.56,1188.23 1046,1172.5C 1048.4,1169.93 1050.9,1167.6 1053.5,1165.5 Z"/></g>
<g><path style="opacity:1" fill="#272926" d="M 1100.5,1164.5 C 1109.87,1164.01 1112.54,1167.84 1108.5,1176C 1106.62,1176.58 1104.79,1176.41 1103,1175.5C 1101.74,1175.76 1100.74,1176.43 1100,1177.5C 1092.51,1192.58 1090.84,1208.25 1095,1224.5C 1096.13,1226.21 1097.63,1226.71 1099.5,1226C 1106.38,1222.12 1109.21,1216.29 1108,1208.5C 1100.9,1200.93 1102.4,1195.76 1112.5,1193C 1117.3,1190.8 1122.3,1190.13 1127.5,1191C 1130.17,1193.33 1130.17,1195.67 1127.5,1198C 1123.73,1198.98 1120.23,1200.48 1117,1202.5C 1120.1,1214.87 1116.6,1225.03 1106.5,1233C 1093.5,1238.91 1086,1234.75 1084,1220.5C 1081.33,1202.19 1084.66,1185.19 1094,1169.5C 1096.33,1167.93 1098.49,1166.27 1100.5,1164.5 Z"/></g>
<g><path style="opacity:1" fill="#272926" d="M 1002.5,1168.5 C 1012.71,1167.86 1019.21,1172.53 1022,1182.5C 1025.4,1197.6 1023.4,1211.94 1016,1225.5C 1007.89,1234.67 999.888,1234.67 992,1225.5C 984.186,1207.97 985.186,1190.97 995,1174.5C 997.478,1172.36 999.978,1170.36 1002.5,1168.5 Z"/></g>
<g><path style="opacity:1" fill="#272926" d="M 1206.5,1142.5 C 1212.1,1142.38 1214.27,1145.05 1213,1150.5C 1212.17,1151.33 1211.33,1152.17 1210.5,1153C 1198.63,1157.4 1186.63,1161.4 1174.5,1165C 1170.49,1166.34 1166.82,1168.17 1163.5,1170.5C 1164.53,1171.7 1165.36,1173.03 1166,1174.5C 1166.17,1181.19 1166.67,1187.86 1167.5,1194.5C 1176.12,1191.53 1183.79,1187.03 1190.5,1181C 1196.5,1180.01 1198.67,1182.51 1197,1188.5C 1187.9,1195.3 1178.07,1200.97 1167.5,1205.5C 1165.99,1211.32 1166.32,1216.99 1168.5,1222.5C 1173.9,1223.39 1179.23,1222.89 1184.5,1221C 1189.86,1218.99 1194.86,1216.49 1199.5,1213.5C 1200.77,1213.57 1201.94,1213.9 1203,1214.5C 1203.67,1216.5 1203.67,1218.5 1203,1220.5C 1196.44,1226.8 1188.61,1230.64 1179.5,1232C 1174.83,1232.67 1170.17,1232.67 1165.5,1232C 1161.51,1230.01 1159.01,1226.84 1158,1222.5C 1157.78,1206.98 1157.28,1191.48 1156.5,1176C 1156.4,1173.85 1157.06,1172.02 1158.5,1170.5C 1156.6,1168.13 1156.1,1165.47 1157,1162.5C 1160.64,1160.27 1164.47,1158.43 1168.5,1157C 1179.88,1153.46 1191.22,1149.79 1202.5,1146C 1204.32,1145.34 1205.66,1144.17 1206.5,1142.5 Z"/></g>
<g><path style="opacity:1" fill="#272926" d="M 915.5,1174.5 C 919.308,1174.16 922.974,1174.66 926.5,1176C 928.478,1178.5 928.978,1181.33 928,1184.5C 927.044,1185.89 925.711,1186.56 924,1186.5C 920.736,1184.7 917.236,1184.2 913.5,1185C 907.415,1186.19 901.415,1187.69 895.5,1189.5C 895.167,1190.33 894.833,1191.17 894.5,1192C 895.426,1196.2 896.426,1200.37 897.5,1204.5C 904.097,1201.8 910.93,1199.8 918,1198.5C 925.126,1198.92 926.959,1202.08 923.5,1208C 914.869,1207.82 907.203,1210.32 900.5,1215.5C 904.223,1223.16 906.39,1231.16 907,1239.5C 904.582,1241.68 901.916,1242.01 899,1240.5C 893.553,1225.61 887.553,1210.94 881,1196.5C 879.753,1190.51 881.253,1185.34 885.5,1181C 895.762,1179.51 905.762,1177.34 915.5,1174.5 Z"/></g>
<g><path style="opacity:1" fill="#272926" d="M 948.5,1175.5 C 961.798,1175.75 964.964,1181.75 958,1193.5C 955.273,1196.73 952.106,1199.4 948.5,1201.5C 955.792,1210.79 963.458,1219.79 971.5,1228.5C 978.102,1229.37 980.269,1233.04 978,1239.5C 976.136,1242.21 973.636,1243.04 970.5,1242C 962.667,1232.83 954.833,1223.67 947,1214.5C 947.479,1221.48 947.812,1228.48 948,1235.5C 946.334,1238.38 943.834,1239.21 940.5,1238C 939.874,1237.25 939.374,1236.42 939,1235.5C 935.789,1218.32 934.789,1200.98 936,1183.5C 936.309,1182.23 936.809,1181.07 937.5,1180C 942.066,1180.35 945.733,1178.85 948.5,1175.5 Z"/></g>
<g><path style="opacity:1" fill="#d0628b" d="M 1004.5,1177.5 C 1006.72,1177.18 1008.56,1177.84 1010,1179.5C 1016.02,1192.58 1015.69,1205.58 1009,1218.5C 1005.47,1223.74 1002.14,1223.74 999,1218.5C 996.077,1208.96 995.744,1199.29 998,1189.5C 999.415,1185 1001.58,1181 1004.5,1177.5 Z"/></g>
<g><path style="opacity:1" fill="#9d516d" d="M 1137.5,1159.5 C 1137.49,1180.04 1136.49,1200.37 1134.5,1220.5C 1134.93,1199.98 1135.93,1179.65 1137.5,1159.5 Z"/></g>
<g><path style="opacity:0.954" fill="#232924" d="M 1243.5,1242.5 C 1250.77,1241.22 1256.93,1243.22 1262,1248.5C 1266.96,1255.37 1269.96,1263.03 1271,1271.5C 1272.58,1287.44 1271.24,1303.11 1267,1318.5C 1261.02,1337.63 1252.52,1355.46 1241.5,1372C 1249.32,1377.82 1256.48,1384.32 1263,1391.5C 1268.13,1399.69 1268.63,1408.02 1264.5,1416.5C 1259.55,1419.33 1254.22,1420.17 1248.5,1419C 1242.34,1417.59 1236.68,1415.09 1231.5,1411.5C 1229.06,1424.11 1221.56,1431.44 1209,1433.5C 1205.93,1433.48 1203.26,1432.48 1201,1430.5C 1198.92,1425.03 1197.59,1419.36 1197,1413.5C 1192.79,1417.38 1188.29,1420.88 1183.5,1424C 1179.26,1425.46 1174.93,1425.79 1170.5,1425C 1168.62,1423.46 1167.12,1421.62 1166,1419.5C 1165.76,1402.63 1172.1,1388.63 1185,1377.5C 1186.07,1372.63 1187.73,1367.97 1190,1363.5C 1198.83,1348.5 1207.67,1333.5 1216.5,1318.5C 1213.08,1319.39 1209.75,1321.22 1206.5,1324C 1195.11,1330.93 1182.78,1333.93 1169.5,1333C 1161.06,1330.16 1155.39,1324.66 1152.5,1316.5C 1151.36,1312.9 1150.86,1309.23 1151,1305.5C 1155.21,1297.9 1160.71,1291.4 1167.5,1286C 1184.11,1274.39 1200.45,1262.39 1216.5,1250C 1219.05,1249.34 1221.55,1249.51 1224,1250.5C 1230.47,1247.68 1236.97,1245.01 1243.5,1242.5 Z"/></g>
<g><path style="opacity:0.956" fill="#222824" d="M 864.5,1246.5 C 872.143,1247.49 879.81,1247.66 887.5,1247C 888.87,1248.44 889.87,1250.11 890.5,1252C 903.998,1260.92 917.664,1269.58 931.5,1278C 946.464,1290.47 962.131,1301.97 978.5,1312.5C 979.696,1313.56 980.363,1314.89 980.5,1316.5C 978.875,1319.23 978.208,1322.23 978.5,1325.5C 977.308,1330.12 974.308,1332.95 969.5,1334C 949.898,1340.48 931.731,1337.65 915,1325.5C 914.833,1325.83 914.667,1326.17 914.5,1326.5C 922.909,1336.99 931.076,1347.65 939,1358.5C 949.526,1378.53 951.193,1399.19 944,1420.5C 938.925,1426.47 932.758,1427.97 925.5,1425C 920.249,1419.25 917.749,1412.42 918,1404.5C 914.618,1412.1 910.118,1418.94 904.5,1425C 900.195,1426.92 895.862,1426.92 891.5,1425C 889.116,1421.2 888.116,1417.03 888.5,1412.5C 888.699,1407.71 889.199,1403.05 890,1398.5C 882.241,1404.8 873.407,1408.46 863.5,1409.5C 855.766,1410.27 852.099,1406.77 852.5,1399C 854.117,1387.43 859.783,1378.43 869.5,1372C 874.833,1368.67 880.167,1365.33 885.5,1362C 873.703,1344.24 861.536,1326.74 849,1309.5C 843.946,1302.06 839.946,1294.06 837,1285.5C 832.466,1262.51 841.633,1249.51 864.5,1246.5 Z"/></g>
<g><path style="opacity:1" fill="#45d37e" d="M 1260.5,1275.5 C 1261.03,1286.99 1260.03,1298.32 1257.5,1309.5C 1252.19,1330.45 1243.36,1349.78 1231,1367.5C 1229,1370.83 1229,1374.17 1231,1377.5C 1237.71,1383.87 1244.71,1389.87 1252,1395.5C 1255.21,1399.25 1256.71,1403.58 1256.5,1408.5C 1251.92,1408.89 1247.59,1408.05 1243.5,1406C 1236.26,1401.43 1229.59,1396.09 1223.5,1390C 1219.57,1389.01 1217.24,1390.51 1216.5,1394.5C 1217.03,1397.58 1217.86,1400.58 1219,1403.5C 1221.58,1412.33 1218.75,1418.66 1210.5,1422.5C 1209.81,1421.97 1209.31,1421.31 1209,1420.5C 1208.5,1412.47 1207.66,1404.47 1206.5,1396.5C 1205.84,1391.85 1203.18,1390.35 1198.5,1392C 1193.74,1401.59 1186.74,1409.09 1177.5,1414.5C 1176.44,1409.9 1177.28,1405.56 1180,1401.5C 1184.57,1394.26 1189.91,1387.59 1196,1381.5C 1195.96,1376.74 1197.3,1372.41 1200,1368.5C 1209.67,1351.83 1219.33,1335.17 1229,1318.5C 1231.89,1313.5 1232.89,1308.17 1232,1302.5C 1229.49,1298.79 1225.99,1297.62 1221.5,1299C 1214.17,1304.33 1206.83,1309.67 1199.5,1315C 1192.19,1318.66 1184.52,1321.16 1176.5,1322.5C 1167.71,1321.59 1162.38,1316.76 1160.5,1308C 1163.74,1302.76 1167.74,1298.09 1172.5,1294C 1185.11,1285.44 1197.28,1276.27 1209,1266.5C 1210.86,1269.21 1213.36,1270.04 1216.5,1269C 1225.08,1259.38 1235.74,1254.04 1248.5,1253C 1251.1,1253.88 1253.27,1255.38 1255,1257.5C 1258.35,1263.06 1260.19,1269.06 1260.5,1275.5 Z"/></g>
<g><path style="opacity:1" fill="#45d37e" d="M 863.5,1256.5 C 868.913,1256.23 874.246,1256.73 879.5,1258C 906.774,1271.98 932.108,1288.98 955.5,1309C 960.5,1312.17 965.5,1315.33 970.5,1318.5C 967.687,1322.75 963.687,1325.25 958.5,1326C 952.833,1326.67 947.167,1326.67 941.5,1326C 925.803,1321.17 912.47,1312.83 901.5,1301C 894.24,1299.97 891.407,1303.13 893,1310.5C 894.726,1314.95 896.726,1319.29 899,1323.5C 909,1336.83 919,1350.17 929,1363.5C 937.964,1378.58 940.298,1394.58 936,1411.5C 935.155,1414.41 933.488,1415.41 931,1414.5C 930.012,1411.58 929.346,1408.58 929,1405.5C 928.667,1398.5 928.333,1391.5 928,1384.5C 925.787,1379.33 922.454,1378.33 918,1381.5C 912,1392.17 906,1402.83 900,1413.5C 899.333,1410.5 899.333,1407.5 900,1404.5C 901.912,1397.02 903.745,1389.52 905.5,1382C 904.458,1376.98 901.458,1375.31 896.5,1377C 888.49,1386.35 878.823,1393.35 867.5,1398C 866.056,1398.78 864.723,1398.61 863.5,1397.5C 865.828,1392 869.161,1387.17 873.5,1383C 880.495,1377.83 887.828,1373.17 895.5,1369C 898.864,1365.97 899.364,1362.47 897,1358.5C 883.333,1338.83 869.667,1319.17 856,1299.5C 849.48,1290.49 846.48,1280.49 847,1269.5C 850.381,1262.27 855.881,1257.93 863.5,1256.5 Z"/></g>
<g><path style="opacity:1" fill="#3eac69" d="M 1260.5,1275.5 C 1261.65,1282.32 1261.82,1289.32 1261,1296.5C 1260.39,1301.11 1259.22,1305.44 1257.5,1309.5C 1260.03,1298.32 1261.03,1286.99 1260.5,1275.5 Z"/></g>
</svg>
