<?xml version="1.0" encoding="UTF-8"?>
<!DOCTYPE svg PUBLIC "-//W3C//DTD SVG 1.1//EN" "http://www.w3.org/Graphics/SVG/1.1/DTD/svg11.dtd">
<svg xmlns="http://www.w3.org/2000/svg" version="1.1" width="2048px" height="2048px" style="shape-rendering:geometricPrecision; text-rendering:geometricPrecision; image-rendering:optimizeQuality; fill-rule:evenodd; clip-rule:evenodd" xmlns:xlink="http://www.w3.org/1999/xlink">
<g><path style="opacity:0.934" fill="#040301" d="M 687.5,706.5 C 690.542,706.267 693.208,705.267 695.5,703.5C 699.772,701.909 704.106,700.409 708.5,699C 615.287,694.716 529.954,667.05 452.5,616C 437.413,605.581 424.246,593.081 413,578.5C 407.351,569.869 403.351,560.535 401,550.5C 399.353,536.623 404.853,526.79 417.5,521C 423.749,519.464 430.083,519.13 436.5,520C 470.476,530.27 504.476,540.437 538.5,550.5C 545.211,546.813 552.211,543.647 559.5,541C 568.405,539.076 577.405,537.742 586.5,537C 615.457,538.794 644.457,539.461 673.5,539C 710.426,536.765 747.093,532.431 783.5,526C 822.014,516.242 858.347,501.242 892.5,481C 895.656,478.843 898.489,476.343 901,473.5C 916.918,444.996 931.252,415.662 944,385.5C 950.667,374.833 957.333,364.167 964,353.5C 970,340.167 976,326.833 982,313.5C 1000.67,285.172 1021.5,258.506 1044.5,233.5C 1045.46,233.047 1046.29,232.381 1047,231.5C 1049.48,233.09 1051.31,232.59 1052.5,230C 1052.36,228.699 1051.69,227.866 1050.5,227.5C 1080.79,197.734 1114.45,172.234 1151.5,151C 1188.29,133.513 1225.96,118.18 1264.5,105C 1274.04,102.377 1283.7,100.377 1293.5,99C 1292.12,96.306 1291.62,93.4726 1292,90.5C 1297.8,77.4499 1303.8,64.4499 1310,51.5C 1312.78,47.0493 1315.95,42.8826 1319.5,39C 1321.09,38.1376 1322.75,37.4709 1324.5,37C 1335.62,35.9614 1346.62,36.628 1357.5,39C 1360.86,40.1176 1364.02,41.6176 1367,43.5C 1368.04,45.8701 1368.54,48.3701 1368.5,51C 1367.79,58.1805 1366.96,65.3472 1366,72.5C 1362.88,83.5303 1360.38,94.697 1358.5,106C 1358.83,106.833 1359.17,107.667 1359.5,108.5C 1368,112.579 1376,117.413 1383.5,123C 1394.05,135.211 1404.88,147.044 1416,158.5C 1429.73,182.426 1435.73,208.093 1434,235.5C 1430.18,255.948 1425.84,276.281 1421,296.5C 1415.84,340.987 1406.84,384.654 1394,427.5C 1388.47,441.088 1383.14,454.754 1378,468.5C 1376.07,474.204 1375.23,479.871 1375.5,485.5C 1378.81,491.59 1381.64,497.923 1384,504.5C 1401.47,559.588 1422.47,613.254 1447,665.5C 1459.94,693.063 1475.28,719.063 1493,743.5C 1498.5,749.667 1504,755.833 1509.5,762C 1534.97,760.589 1559.97,756.255 1584.5,749C 1667.94,721.473 1751.94,695.806 1836.5,672C 1866.94,663.723 1897.61,656.389 1928.5,650C 1957.4,644.919 1986.4,642.586 2015.5,643C 2017.17,644.167 2018.83,645.333 2020.5,646.5C 2023.48,669.053 2016.98,688.387 2001,704.5C 1994.46,710.708 1987.63,716.541 1980.5,722C 1956.47,736.014 1932.47,750.014 1908.5,764C 1834.41,799.692 1766.41,844.359 1704.5,898C 1676.47,918.703 1645.47,933.703 1611.5,943C 1598.74,945.237 1586.08,947.904 1573.5,951C 1569.29,952.222 1565.29,953.888 1561.5,956C 1569.85,965.012 1578.85,973.346 1588.5,981C 1622.84,1003.66 1655.17,1029 1685.5,1057C 1701.98,1069.08 1718.98,1080.41 1736.5,1091C 1774.42,1120.57 1810.25,1152.74 1844,1187.5C 1877.89,1223.92 1902.55,1265.92 1918,1313.5C 1928.63,1354.8 1928.96,1396.13 1919,1437.5C 1910.47,1462.34 1892.97,1475.51 1866.5,1477C 1818.19,1478.87 1772.53,1468.87 1729.5,1447C 1720.65,1442.08 1712.31,1436.41 1704.5,1430C 1661.17,1391.34 1617.17,1353.34 1572.5,1316C 1538.31,1280.47 1503.47,1245.64 1468,1211.5C 1457.44,1199.39 1447.11,1187.06 1437,1174.5C 1418.6,1155.13 1396.44,1141.96 1370.5,1135C 1346.42,1129.35 1322.09,1126.18 1297.5,1125.5C 1291.78,1132.58 1286.28,1139.91 1281,1147.5C 1273.08,1167.34 1264.08,1186.68 1254,1205.5C 1252.54,1210.89 1250.87,1216.23 1249,1221.5C 1226.91,1267.68 1207.58,1315.01 1191,1363.5C 1184.78,1380.62 1181.11,1398.29 1180,1416.5C 1180.45,1492.15 1175.78,1567.49 1166,1642.5C 1165.1,1654.48 1164.6,1666.48 1164.5,1678.5C 1166.5,1705.81 1168.33,1733.14 1170,1760.5C 1172.56,1767.51 1173.06,1774.67 1171.5,1782C 1173.88,1796.52 1175.71,1811.02 1177,1825.5C 1173.73,1831.97 1168.9,1833.64 1162.5,1830.5C 1161.81,1829.97 1161.31,1829.31 1161,1828.5C 1160.24,1824.18 1159.57,1819.85 1159,1815.5C 1158.61,1814.57 1157.95,1813.91 1157,1813.5C 1148.9,1821.6 1140.73,1829.77 1132.5,1838C 1119.75,1846.21 1106.08,1852.54 1091.5,1857C 1084.5,1857.67 1077.5,1857.67 1070.5,1857C 1065.2,1856.38 1063.03,1853.55 1064,1848.5C 1077.05,1837.45 1089.05,1825.45 1100,1812.5C 1110.02,1792.77 1116.19,1771.93 1118.5,1750C 1116.56,1706.74 1113.39,1663.57 1109,1620.5C 1097.77,1547.77 1086.1,1475.1 1074,1402.5C 1064.85,1343.39 1064.19,1284.06 1072,1224.5C 1078.59,1190.63 1084.42,1156.63 1089.5,1122.5C 1089.06,1120.01 1088.72,1117.51 1088.5,1115C 1089.26,1100.18 1089.76,1085.35 1090,1070.5C 1093.08,1054.94 1094.25,1039.27 1093.5,1023.5C 1061.42,1049.16 1025.42,1067.32 985.5,1078C 961.969,1082.25 938.302,1083.59 914.5,1082C 909.167,1086 903.833,1090 898.5,1094C 890.5,1102.67 882.167,1111 873.5,1119C 863.659,1125.42 853.993,1132.09 844.5,1139C 839.966,1143.2 835.799,1147.7 832,1152.5C 830.882,1156.94 830.049,1161.44 829.5,1166C 829.069,1198.52 832.569,1230.68 840,1262.5C 851.913,1310.63 862.746,1358.8 872.5,1407C 880.656,1451.37 881.489,1495.87 875,1540.5C 867.338,1578.15 857.338,1615.15 845,1651.5C 841.448,1679.48 838.781,1707.48 837,1735.5C 835.915,1736.29 834.748,1736.96 833.5,1737.5C 830.604,1737.29 827.604,1737.13 824.5,1737C 822.212,1732.83 820.712,1728.33 820,1723.5C 818.214,1720.1 815.714,1719.6 812.5,1722C 806.059,1728.71 799.059,1734.71 791.5,1740C 779.779,1746.53 767.779,1752.53 755.5,1758C 746.506,1761.52 737.506,1762.36 728.5,1760.5C 726.422,1758.61 725.089,1756.28 724.5,1753.5C 725.194,1750.91 726.36,1748.58 728,1746.5C 741.041,1735.16 754.041,1723.82 767,1712.5C 773.168,1705.84 778.335,1698.5 782.5,1690.5C 782.291,1689.91 781.957,1689.41 781.5,1689C 784.729,1683.68 786.062,1678.01 785.5,1672C 786.616,1669.59 787.616,1667.09 788.5,1664.5C 788.004,1662.53 787.67,1660.53 787.5,1658.5C 789.129,1649.96 789.963,1641.29 790,1632.5C 790.242,1618.63 790.409,1604.8 790.5,1591C 788.316,1565.55 786.816,1540.05 786,1514.5C 783.433,1495.76 780.433,1477.1 777,1458.5C 764.571,1401.93 752.571,1345.26 741,1288.5C 732.749,1256.08 723.082,1224.08 712,1192.5C 699.937,1151.99 695.27,1110.66 698,1068.5C 699.395,1051.2 706.895,1037.37 720.5,1027C 729.851,1020.32 739.851,1014.65 750.5,1010C 772.054,1001.06 793.721,992.39 815.5,984C 752.124,956.508 687.457,953.174 621.5,974C 570.275,992.448 521.275,1015.45 474.5,1043C 447.772,1061.39 420.772,1079.39 393.5,1097C 385.991,1101.26 378.324,1105.26 370.5,1109C 352.917,1116.08 335.584,1123.75 318.5,1132C 303.001,1141.92 287.334,1151.58 271.5,1161C 265.066,1163.61 258.399,1165.28 251.5,1166C 236.822,1166.88 222.156,1167.88 207.5,1169C 198.888,1170.76 190.388,1172.93 182,1175.5C 176.872,1175.86 174.705,1173.53 175.5,1168.5C 176.517,1161.28 179.017,1154.62 183,1148.5C 203.579,1119.67 223.913,1090.67 244,1061.5C 270.46,1027.38 299.96,996.209 332.5,968C 363.864,947.31 396.531,928.643 430.5,912C 440.671,907.277 451.004,902.943 461.5,899C 496.923,889.194 530.923,875.861 563.5,859C 554.971,856.85 546.305,855.517 537.5,855C 490.83,854.649 444.164,854.649 397.5,855C 343.36,851.503 289.693,844.503 236.5,834C 214.298,827.95 192.298,821.284 170.5,814C 168.333,812.5 166.167,811 164,809.5C 162.48,805.625 162.146,801.625 163,797.5C 166.366,794.632 169.2,791.299 171.5,787.5C 177.856,786.436 184.189,785.27 190.5,784C 361.25,789.985 526.916,764.152 687.5,706.5 Z M 856.5,551.5 C 855.474,554.372 853.808,556.872 851.5,559C 832.007,566.955 811.674,571.622 790.5,573C 742.08,573.943 693.747,572.277 645.5,568C 638.644,567.649 631.978,566.649 625.5,565C 632.568,561.453 640.068,559.953 648,560.5C 693.047,565.232 738.214,567.399 783.5,567C 808.702,565.691 833.035,560.524 856.5,551.5 Z M 1363.5,576.5 C 1373.14,599.447 1384.64,621.447 1398,642.5C 1413.37,661.225 1426.37,681.558 1437,703.5C 1445.11,723.171 1451.61,743.338 1456.5,764C 1445.83,764.433 1435.16,764.266 1424.5,763.5C 1424.7,761.61 1424.04,760.11 1422.5,759C 1420,758.843 1417.67,758.676 1415.5,758.5C 1401.7,741.196 1388.86,723.196 1377,704.5C 1372.94,697.321 1370.27,689.655 1369,681.5C 1367.17,657.819 1365.17,634.152 1363,610.5C 1362.83,599.169 1363,587.836 1363.5,576.5 Z"/></g>
<g><path style="opacity:1" fill="#e4c637" d="M 1359.5,207.5 C 1359.38,213.069 1360.04,218.402 1361.5,223.5C 1362.99,308.608 1353.82,392.608 1334,475.5C 1328.36,496.112 1321.03,516.112 1312,535.5C 1297.3,561.899 1285.63,589.566 1277,618.5C 1265.84,642.487 1255.51,666.82 1246,691.5C 1232.36,717.783 1216.36,742.45 1198,765.5C 1191.5,775.169 1185.5,785.169 1180,795.5C 1173.13,812.233 1167.13,829.233 1162,846.5C 1156.37,857.48 1150.7,868.48 1145,879.5C 1136.93,909.77 1127.93,939.77 1118,969.5C 1106.89,995.6 1089.39,1016.1 1065.5,1031C 1044.18,1044.66 1021.51,1055.66 997.5,1064C 972.029,1071.73 946.029,1074.4 919.5,1072C 912.071,1070.62 905.404,1067.62 899.5,1063C 893.301,1057.14 887.468,1050.97 882,1044.5C 867.952,1027.45 854.286,1010.12 841,992.5C 830,979.249 816.167,970.416 799.5,966C 730.436,943.583 662.103,945.583 594.5,972C 548.796,990.852 504.796,1012.85 462.5,1038C 438.684,1055.08 414.351,1071.41 389.5,1087C 380.657,1091.92 371.657,1096.59 362.5,1101C 346.933,1107.12 331.6,1113.78 316.5,1121C 300.833,1130.67 285.167,1140.33 269.5,1150C 263.186,1153.16 256.519,1155.16 249.5,1156C 237.175,1156.82 224.842,1157.49 212.5,1158C 204.209,1158.66 196.209,1160.49 188.5,1163.5C 188.167,1163.17 187.833,1162.83 187.5,1162.5C 190.831,1155.83 194.664,1149.5 199,1143.5C 218,1116.83 237,1090.17 256,1063.5C 281.025,1031.8 308.859,1002.64 339.5,976C 379.607,949.443 421.94,926.776 466.5,908C 503.6,897.615 539.267,883.615 573.5,866C 586.163,862.671 598.163,857.671 609.5,851C 626.683,837.573 643.683,823.907 660.5,810C 674.167,795 687.833,780 701.5,765C 709.93,765.437 712.596,761.937 709.5,754.5C 736.01,728.133 759.177,699.133 779,667.5C 786.816,658.53 794.149,649.196 801,639.5C 828.675,611.05 852.675,580.05 873,546.5C 876.422,541.322 880.089,536.322 884,531.5C 899.79,498.379 916.457,465.712 934,433.5C 943.801,407.561 956.467,383.228 972,360.5C 978.473,346.082 985.14,331.748 992,317.5C 1039.06,244.103 1101.56,187.936 1179.5,149C 1201.5,140 1223.5,131 1245.5,122C 1262.1,115.39 1279.27,111.224 1297,109.5C 1300.17,109.667 1303.33,109.833 1306.5,110C 1320.08,124.677 1332.58,140.177 1344,156.5C 1353.03,172.287 1358.2,189.287 1359.5,207.5 Z"/></g>
<g><path style="opacity:1" fill="#e3c637" d="M 1368.5,319.5 C 1370.08,314.417 1370.75,309.084 1370.5,303.5C 1371.5,278.174 1371.67,252.841 1371,227.5C 1370.1,205.447 1365.77,184.113 1358,163.5C 1355,158.167 1352,152.833 1349,147.5C 1339.21,134.71 1329.05,122.21 1318.5,110C 1325.91,109.11 1333.25,109.443 1340.5,111C 1352.61,116.556 1364.28,122.89 1375.5,130C 1387.06,142.885 1398.56,155.718 1410,168.5C 1419.25,187.156 1424.25,206.823 1425,227.5C 1421.08,249.356 1416.41,271.023 1411,292.5C 1409.33,308.207 1407.33,323.874 1405,339.5C 1399.18,363.795 1393.51,388.128 1388,412.5C 1381.94,428.945 1375.61,445.278 1369,461.5C 1364.41,478.442 1360.08,495.442 1356,512.5C 1355,541.67 1353.83,570.837 1352.5,600C 1354.39,631.259 1357.22,662.426 1361,693.5C 1364.61,703.391 1369.28,712.724 1375,721.5C 1388,739.167 1401,756.833 1414,774.5C 1413.84,781.012 1415.5,787.012 1419,792.5C 1427.38,801.875 1435.38,811.542 1443,821.5C 1459.7,849.566 1478.36,876.233 1499,901.5C 1514.74,917.906 1529.74,934.906 1544,952.5C 1545.04,954.715 1545.71,957.048 1546,959.5C 1547.83,961.074 1549.99,961.907 1552.5,962C 1561.51,971.678 1571.18,980.678 1581.5,989C 1615.84,1011.66 1648.17,1037 1678.5,1065C 1701.17,1080.67 1723.83,1096.33 1746.5,1112C 1777.23,1137.65 1806.73,1164.82 1835,1193.5C 1867.99,1228.8 1892.33,1269.46 1908,1315.5C 1918.05,1352.6 1919.05,1389.93 1911,1427.5C 1908.15,1438.88 1902.48,1448.55 1894,1456.5C 1893.67,1454.5 1893.33,1452.5 1893,1450.5C 1886.36,1444.87 1880.03,1438.87 1874,1432.5C 1862.16,1413.49 1849.83,1394.82 1837,1376.5C 1789.51,1322.48 1744.18,1266.82 1701,1209.5C 1672.99,1176.79 1641.16,1148.62 1605.5,1125C 1569.91,1100.36 1532.24,1079.03 1492.5,1061C 1422.31,1033.4 1353.97,1001.74 1287.5,966C 1257.61,950.736 1237.11,927.236 1226,895.5C 1211.93,855.911 1204.59,815.244 1204,773.5C 1216.06,757.11 1227.72,740.443 1239,723.5C 1244.84,713.817 1250.18,703.817 1255,693.5C 1263.17,672.152 1272.17,651.152 1282,630.5C 1292.3,597.566 1305.63,565.9 1322,535.5C 1336.68,501.464 1347.01,466.131 1353,429.5C 1359.24,392.974 1364.41,356.307 1368.5,319.5 Z"/></g>
<g><path style="opacity:1" fill="#998425" d="M 1359.5,207.5 C 1360.81,212.616 1361.47,217.949 1361.5,223.5C 1360.04,218.402 1359.38,213.069 1359.5,207.5 Z"/></g>
<g><path style="opacity:0.953" fill="#5f3e14" d="M 1050.5,227.5 C 1051.69,227.866 1052.36,228.699 1052.5,230C 1051.31,232.59 1049.48,233.09 1047,231.5C 1046.29,232.381 1045.46,233.047 1044.5,233.5C 1045.5,230.5 1047.5,228.5 1050.5,227.5 Z"/></g>
<g><path style="opacity:1" fill="#9d8826" d="M 1370.5,303.5 C 1370.75,309.084 1370.08,314.417 1368.5,319.5C 1368.53,313.949 1369.19,308.616 1370.5,303.5 Z"/></g>
<g><path style="opacity:1" fill="#0b0802" d="M 1066.5,387.5 C 1080.16,388.048 1091.83,393.048 1101.5,402.5C 1100.64,403.583 1099.64,403.749 1098.5,403C 1088.69,395.671 1077.69,391.171 1065.5,389.5C 1065.86,388.817 1066.2,388.15 1066.5,387.5 Z"/></g>
<g><path style="opacity:1" fill="#050401" d="M 1039.5,395.5 C 1042.26,395.744 1044.43,397.077 1046,399.5C 1052.27,407.723 1058.77,415.723 1065.5,423.5C 1068.03,418.806 1071.69,415.306 1076.5,413C 1081.73,411.534 1085.9,413.034 1089,417.5C 1093.45,436.526 1089.62,453.693 1077.5,469C 1074.63,470.457 1071.63,470.79 1068.5,470C 1065.47,467.441 1063.3,464.274 1062,460.5C 1060.54,452.797 1060.04,445.13 1060.5,437.5C 1044.07,449.091 1028.07,461.258 1012.5,474C 1010.98,475.009 1009.31,475.509 1007.5,475.5C 1008.44,472.041 1010.44,469.207 1013.5,467C 1028.99,455.09 1044.65,443.423 1060.5,432C 1046.53,430.683 1032.53,430.183 1018.5,430.5C 1018.33,429.178 1018.66,428.011 1019.5,427C 1033.87,426.404 1048.21,426.404 1062.5,427C 1056,419.167 1049.5,411.333 1043,403.5C 1041.01,401.182 1039.84,398.516 1039.5,395.5 Z"/></g>
<g><path style="opacity:1" fill="#0c0902" d="M 1161.5,402.5 C 1165.51,402.334 1169.51,402.501 1173.5,403C 1176.02,403.518 1178.02,404.852 1179.5,407C 1178.97,407.692 1178.31,408.192 1177.5,408.5C 1168.21,404.328 1159.21,404.994 1150.5,410.5C 1149.25,408.741 1149.58,407.241 1151.5,406C 1154.94,404.816 1158.28,403.65 1161.5,402.5 Z"/></g>
<g><path style="opacity:1" fill="#060502" d="M 1199.5,412.5 C 1201,412.415 1202,413.081 1202.5,414.5C 1191.08,424.383 1179.08,433.549 1166.5,442C 1175.83,442.333 1185.17,442.667 1194.5,443C 1195.83,444 1195.83,445 1194.5,446C 1185.49,446.319 1176.49,446.819 1167.5,447.5C 1164.99,447.712 1162.82,447.045 1161,445.5C 1159.98,446.354 1159.14,447.354 1158.5,448.5C 1172.16,459.99 1184.66,472.657 1196,486.5C 1197.13,488.345 1197.63,490.345 1197.5,492.5C 1196.45,492.649 1195.45,492.483 1194.5,492C 1184.06,478.055 1172.06,465.555 1158.5,454.5C 1156.3,461.262 1153.8,467.929 1151,474.5C 1148.55,478.615 1145.72,482.448 1142.5,486C 1136.18,490.205 1131.34,489.039 1128,482.5C 1125.09,466.233 1127.75,450.899 1136,436.5C 1140.01,431.583 1144.85,427.75 1150.5,425C 1155.12,423.944 1157.96,425.777 1159,430.5C 1159.33,434.167 1159.67,437.833 1160,441.5C 1173.5,432.179 1186.67,422.512 1199.5,412.5 Z"/></g>
<g><path style="opacity:1" fill="#edecec" d="M 1072.5,433.5 C 1079.28,433.458 1081.78,436.792 1080,443.5C 1078.28,449.098 1075.61,449.765 1072,445.5C 1069.99,441.392 1070.16,437.392 1072.5,433.5 Z"/></g>
<g><path style="opacity:1" fill="#f4f3f3" d="M 1141.5,446.5 C 1145.35,446.681 1147.01,448.681 1146.5,452.5C 1146.32,455.226 1145.82,457.893 1145,460.5C 1139.97,463.915 1136.8,462.582 1135.5,456.5C 1136,452.139 1138,448.805 1141.5,446.5 Z"/></g>
<g><path style="opacity:1" fill="#0a0802" d="M 1092.5,481.5 C 1093.69,481.97 1094.36,482.97 1094.5,484.5C 1092.03,492.755 1088.86,500.755 1085,508.5C 1083.44,512.014 1082.6,515.681 1082.5,519.5C 1087.89,518.954 1092.56,516.787 1096.5,513C 1097.45,512.517 1098.45,512.351 1099.5,512.5C 1099.65,513.552 1099.48,514.552 1099,515.5C 1094.93,519.616 1090.1,522.282 1084.5,523.5C 1079.21,522.696 1077.38,519.696 1079,514.5C 1083.21,503.35 1087.71,492.35 1092.5,481.5 Z"/></g>
<g><path style="opacity:1" fill="#e4c637" d="M 423.5,524.5 C 428.248,524.275 432.915,524.775 437.5,526C 469.167,535.667 500.833,545.333 532.5,555C 533.346,557.782 533.513,560.616 533,563.5C 541.933,568.084 551.1,568.584 560.5,565C 564.5,564.833 568.5,564.667 572.5,564.5C 578.612,564.337 584.612,565.003 590.5,566.5C 587,571.5 583.5,576.5 580,581.5C 579.313,583.92 579.813,586.087 581.5,588C 590.216,589.87 597.883,587.87 604.5,582C 608.167,578.333 611.833,574.667 615.5,571C 663.032,575.492 710.699,577.992 758.5,578.5C 789.476,580.146 819.643,576.146 849,566.5C 826.777,595.762 804.777,625.429 783,655.5C 756.715,687.712 722.882,699.545 681.5,691C 599.175,683.477 523.842,656.811 455.5,611C 438.289,599.456 424.122,584.956 413,567.5C 407.831,558.826 405.831,549.492 407,539.5C 410.173,531.822 415.673,526.822 423.5,524.5 Z"/></g>
<g><path style="opacity:1" fill="#130301" d="M 1067.5,545.5 C 1075.08,545.376 1080.58,548.709 1084,555.5C 1089.39,550.881 1095.55,548.714 1102.5,549C 1105.96,553.879 1108.96,559.046 1111.5,564.5C 1107.37,568.8 1103.37,573.3 1099.5,578C 1085.91,585.27 1073.75,583.436 1063,572.5C 1061.72,570.283 1060.72,567.949 1060,565.5C 1059.8,560.914 1059.3,556.414 1058.5,552C 1060.82,548.845 1063.82,546.678 1067.5,545.5 Z"/></g>
<g><path style="opacity:1" fill="#ed1515" d="M 1067.5,548.5 C 1074.09,548.378 1078.59,551.378 1081,557.5C 1081.72,558.059 1082.56,558.392 1083.5,558.5C 1086.96,556.937 1090.29,555.104 1093.5,553C 1096.08,551.75 1098.74,551.416 1101.5,552C 1104.49,555.625 1105.82,559.625 1105.5,564C 1092.43,566.372 1080.1,564.372 1068.5,558C 1066.67,556.167 1064.83,554.333 1063,552.5C 1062.31,551.668 1062.48,551.002 1063.5,550.5C 1065.03,550.006 1066.36,549.339 1067.5,548.5 Z"/></g>
<g><path style="opacity:1" fill="#ee1515" d="M 1062.5,557.5 C 1075.09,566.123 1089.09,569.623 1104.5,568C 1094.96,580.461 1083.3,582.794 1069.5,575C 1063.94,570.497 1061.61,564.663 1062.5,557.5 Z"/></g>
<g><path style="opacity:1" fill="#e2c537" d="M 1966.5,651.5 C 1975.84,651.334 1985.17,651.5 1994.5,652C 1987.05,659.225 1978.72,665.225 1969.5,670C 1938.9,680.534 1908.23,690.868 1877.5,701C 1838.51,715.334 1800.51,732.001 1763.5,751C 1721.92,774.874 1679.59,797.54 1636.5,819C 1596,838.167 1553.67,851.5 1509.5,859C 1502.17,859.333 1494.83,859.667 1487.5,860C 1486,860.833 1484.83,862 1484,863.5C 1463.71,837.529 1445.37,810.196 1429,781.5C 1428.67,779.5 1428.33,777.5 1428,775.5C 1426.07,774.12 1424.24,772.62 1422.5,771C 1434.47,771.387 1446.47,771.887 1458.5,772.5C 1459.23,778.198 1461.07,783.531 1464,788.5C 1467.85,792.671 1472.35,793.504 1477.5,791C 1479.34,788.114 1481.17,785.281 1483,782.5C 1492.21,790.19 1502.04,797.024 1512.5,803C 1521.02,807.381 1530.02,809.048 1539.5,808C 1546.07,805.53 1547.24,801.363 1543,795.5C 1534.47,786.636 1525.64,778.136 1516.5,770C 1540.49,767.001 1564.16,762.335 1587.5,756C 1672.23,727.978 1757.56,701.978 1843.5,678C 1884.08,666.519 1925.08,657.686 1966.5,651.5 Z"/></g>
<g><path style="opacity:1" fill="#e3c537" d="M 2013.5,652.5 C 2014.4,668.291 2009.57,682.291 1999,694.5C 1986.21,707.967 1971.71,719.134 1955.5,728C 1910.09,753.734 1864.42,779.068 1818.5,804C 1772.67,832.584 1729.34,864.584 1688.5,900C 1652.83,922.159 1614.16,936.493 1572.5,943C 1566.51,944.828 1560.84,947.328 1555.5,950.5C 1548.18,943.01 1541.01,935.344 1534,927.5C 1519.17,908.667 1504.33,889.833 1489.5,871C 1524.93,868.913 1559.27,861.58 1592.5,849C 1624.12,837.192 1654.79,823.192 1684.5,807C 1725.77,783.425 1767.77,761.092 1810.5,740C 1833.26,730.08 1856.26,720.747 1879.5,712C 1910.24,701.864 1940.91,691.531 1971.5,681C 1981.05,677.065 1989.38,671.398 1996.5,664C 2002.58,660.639 2008.24,656.805 2013.5,652.5 Z"/></g>
<g><path style="opacity:1" fill="#e1c337" d="M 359.5,811.5 C 350.05,809.86 340.384,809.193 330.5,809.5C 287.809,806.872 245.475,801.539 203.5,793.5C 220.833,792.833 238.167,792.167 255.5,791.5C 255.833,791.5 256.167,791.5 256.5,791.5C 275.361,791.847 294.028,791.181 312.5,789.5C 383.033,787.634 452.7,778.801 521.5,763C 598.522,746.214 673.689,723.381 747,694.5C 748.257,694.85 748.591,695.517 748,696.5C 740.52,704.801 733.52,713.467 727,722.5C 716.718,732.904 706.552,743.404 696.5,754C 690.121,755.089 683.788,756.423 677.5,758C 662.61,763.408 647.61,768.408 632.5,773C 592.657,782.961 552.657,792.294 512.5,801C 461.773,810.855 410.773,814.355 359.5,811.5 Z"/></g>
<g><path style="opacity:0.098" fill="#663b11" d="M 695.5,703.5 C 693.208,705.267 690.542,706.267 687.5,706.5C 686.737,705.732 685.737,705.232 684.5,705C 686.481,704.395 686.815,703.395 685.5,702C 688.701,703.026 692.034,703.526 695.5,703.5 Z"/></g>
<g><path style="opacity:0.004" fill="#000000" d="M 618.5,718.5 C 617.833,717.167 617.833,717.167 618.5,718.5 Z"/></g>
<g><path style="opacity:0.004" fill="#7a1a0c" d="M 615.5,719.5 C 615.842,718.662 616.508,718.328 617.5,718.5C 617.591,720.698 616.925,721.031 615.5,719.5 Z"/></g>
<g><path style="opacity:0.004" fill="#000000" d="M 618.5,718.5 C 619.833,719.167 619.833,719.167 618.5,718.5 Z"/></g>
<g><path style="opacity:0.016" fill="#542d0f" d="M 610.5,718.5 C 611.289,718.783 611.956,719.283 612.5,720C 608.674,722.144 608.007,721.644 610.5,718.5 Z"/></g>
<g><path style="opacity:0.004" fill="#a41a0a" d="M 615.5,719.5 C 615.103,720.525 614.437,720.692 613.5,720C 614.094,719.536 614.761,719.369 615.5,719.5 Z"/></g>
<g><path style="opacity:1" fill="#e1c337" d="M 679.5,768.5 C 680.239,768.369 680.906,768.536 681.5,769C 663.446,787.054 645.446,805.054 627.5,823C 611.402,835.138 594.235,845.638 576,854.5C 571.05,852.072 565.883,850.239 560.5,849C 550.206,847.588 539.873,846.588 529.5,846C 483.167,845.99 436.833,845.99 390.5,846C 341.461,842.43 292.795,836.096 244.5,827C 222.441,820.869 200.441,814.536 178.5,808C 175.607,807.059 173.274,805.393 171.5,803C 172.333,800.833 173.833,799.333 176,798.5C 257.85,816.631 340.683,824.798 424.5,823C 461.468,820.172 498.135,815.172 534.5,808C 570.712,798.53 607.045,789.53 643.5,781C 655.85,777.496 667.85,773.329 679.5,768.5 Z"/></g>
<g><path style="opacity:1" fill="#e4c637" d="M 1866.5,1466.5 C 1851.45,1466.72 1836.45,1466.05 1821.5,1464.5C 1782.54,1460.69 1747.21,1447.52 1715.5,1425C 1669.79,1384.96 1623.79,1345.29 1577.5,1306C 1540.97,1268.47 1504.14,1231.31 1467,1194.5C 1460,1185.83 1453,1177.17 1446,1168.5C 1421.07,1142.28 1390.57,1126.45 1354.5,1121C 1344.66,1119.71 1334.99,1118.21 1325.5,1116.5C 1319.06,1115.01 1312.4,1114.35 1305.5,1114.5C 1300.99,1114.5 1296.65,1114.83 1292.5,1115.5C 1275.01,1117.21 1257.51,1118.88 1240,1120.5C 1228.23,1120.1 1217.07,1117.27 1206.5,1112C 1188.84,1104.59 1173.34,1094.09 1160,1080.5C 1157.94,1078.1 1156.27,1075.43 1155,1072.5C 1152.3,1057.61 1150.46,1042.61 1149.5,1027.5C 1150.94,1005.18 1152.11,982.847 1153,960.5C 1154.87,958.09 1154.87,955.756 1153,953.5C 1150.82,936.893 1150.15,920.226 1151,903.5C 1156.08,884.264 1162.75,865.597 1171,847.5C 1176.8,825.76 1185.13,805.093 1196,785.5C 1197.8,827.506 1206.13,868.173 1221,907.5C 1230.62,929.563 1245.12,947.729 1264.5,962C 1277.01,970.423 1290.01,978.089 1303.5,985C 1364.52,1016.35 1426.86,1044.68 1490.5,1070C 1555.7,1099.59 1614.7,1138.26 1667.5,1186C 1675.67,1194.83 1683.83,1203.67 1692,1212.5C 1736.06,1271.24 1782.39,1328.24 1831,1383.5C 1842.75,1399.99 1853.75,1416.99 1864,1434.5C 1871.14,1442.64 1878.64,1450.47 1886.5,1458C 1887.83,1458.33 1889.17,1458.67 1890.5,1459C 1883.17,1463.57 1875.17,1466.07 1866.5,1466.5 Z"/></g>
<g><path style="opacity:1" fill="#8f7c23" d="M 312.5,789.5 C 294.028,791.181 275.361,791.847 256.5,791.5C 274.991,790.338 293.657,789.671 312.5,789.5 Z"/></g>
<g><path style="opacity:1" fill="#ac962a" d="M 255.5,791.5 C 238.167,792.167 220.833,792.833 203.5,793.5C 201.146,793.162 198.813,792.662 196.5,792C 216.164,791.5 235.831,791.333 255.5,791.5 Z"/></g>
<g><path style="opacity:1" fill="#a38e28" d="M 330.5,809.5 C 340.384,809.193 350.05,809.86 359.5,811.5C 349.63,811.613 339.963,810.947 330.5,809.5 Z"/></g>
<g><path style="opacity:0.004" fill="#fe0000" d="M 1704.5,907.5 C 1704.9,906.475 1705.56,906.308 1706.5,907C 1705.91,907.464 1705.24,907.631 1704.5,907.5 Z"/></g>
<g><path style="opacity:0.043" fill="#664318" d="M 1701.5,908.5 C 1703.61,909.052 1704.44,910.386 1704,912.5C 1701.97,914.693 1699.47,915.693 1696.5,915.5C 1697.7,912.944 1699.37,910.611 1701.5,908.5 Z"/></g>
<g><path style="opacity:1" fill="#ead77c" d="M 1131.5,974.5 C 1133.58,974.472 1135.42,975.139 1137,976.5C 1137.71,979.595 1138.71,982.595 1140,985.5C 1139.93,1009.03 1140.1,1032.7 1140.5,1056.5C 1130.25,1054.59 1119.92,1053.09 1109.5,1052C 1106.36,1051.4 1103.36,1050.4 1100.5,1049C 1100.79,1036.82 1102.29,1024.65 1105,1012.5C 1110.23,1003.93 1116.23,995.934 1123,988.5C 1126.1,983.972 1128.93,979.305 1131.5,974.5 Z"/></g>
<g><path style="opacity:1" fill="#e9d67b" d="M 800.5,999.5 C 811.462,1026.54 821.962,1053.87 832,1081.5C 832.749,1082.64 832.583,1083.64 831.5,1084.5C 806.21,1062.88 781.543,1040.54 757.5,1017.5C 771.642,1011.12 785.975,1005.12 800.5,999.5 Z"/></g>
<g><path style="opacity:1" fill="#e4d178" d="M 806.5,1006.5 C 817.463,1017.73 825.963,1030.73 832,1045.5C 841.142,1064.6 848.475,1084.27 854,1104.5C 848.333,1099.5 842.667,1094.5 837,1089.5C 826.82,1061.81 816.653,1034.15 806.5,1006.5 Z"/></g>
<g><path style="opacity:1" fill="#ead77c" d="M 753.5,1018.5 C 754.794,1019.29 755.961,1020.29 757,1021.5C 769.756,1046.01 782.256,1070.68 794.5,1095.5C 794.167,1095.83 793.833,1096.17 793.5,1096.5C 765.204,1087.31 736.204,1081.97 706.5,1080.5C 706.921,1082.91 708.254,1084.74 710.5,1086C 733.012,1102.42 755.345,1119.09 777.5,1136C 754.887,1135.83 732.887,1139.33 711.5,1146.5C 710.749,1145.62 710.249,1144.62 710,1143.5C 705.864,1118.27 704.864,1092.94 707,1067.5C 708.896,1054.81 714.729,1044.31 724.5,1036C 733.812,1029.51 743.479,1023.68 753.5,1018.5 Z"/></g>
<g><path style="opacity:1" fill="#ead77b" d="M 762.5,1026.5 C 786.795,1047.63 810.962,1068.96 835,1090.5C 838.817,1099.11 841.651,1107.78 843.5,1116.5C 828.925,1108.7 813.758,1102.37 798,1097.5C 786.14,1073.78 774.307,1050.11 762.5,1026.5 Z"/></g>
<g><path style="opacity:1" fill="#ead77c" d="M 710.5,1083.5 C 739.534,1084.74 768.034,1090.07 796,1099.5C 803.997,1113.49 811.497,1127.82 818.5,1142.5C 818.167,1142.83 817.833,1143.17 817.5,1143.5C 806.047,1140.26 794.38,1138.09 782.5,1137C 758.623,1118.95 734.623,1101.12 710.5,1083.5 Z"/></g>
<g><path style="opacity:1" fill="#e3d178" d="M 839.5,1094.5 C 845.725,1099.04 851.225,1104.37 856,1110.5C 856.306,1112.91 857.139,1115.07 858.5,1117C 856.561,1119.31 854.228,1121.14 851.5,1122.5C 849.282,1121.08 847.782,1119.08 847,1116.5C 844.2,1109.24 841.7,1101.91 839.5,1094.5 Z"/></g>
<g><path style="opacity:1" fill="#e8d57b" d="M 799.5,1101.5 C 812.847,1104.47 825.847,1109.3 838.5,1116C 841.341,1117.59 844.007,1119.42 846.5,1121.5C 847.428,1122.77 847.595,1124.1 847,1125.5C 839.184,1131.32 832.017,1137.82 825.5,1145C 824.451,1145.49 823.451,1145.33 822.5,1144.5C 815.059,1129.95 807.392,1115.61 799.5,1101.5 Z"/></g>
<g><path style="opacity:1" fill="#9a8526" d="M 1292.5,1115.5 C 1296.65,1114.83 1300.99,1114.5 1305.5,1114.5C 1312.4,1114.35 1319.06,1115.01 1325.5,1116.5C 1314.52,1115.71 1303.52,1115.38 1292.5,1115.5 Z"/></g>
<g><path style="opacity:1" fill="#e5d279" d="M 1096.5,1123.5 C 1096.92,1122.88 1097.58,1122.54 1098.5,1122.5C 1113.41,1126.14 1128.41,1129.31 1143.5,1132C 1167.11,1140.2 1190.77,1148.2 1214.5,1156C 1207.55,1157.48 1200.55,1158.14 1193.5,1158C 1161.25,1146.19 1128.91,1134.69 1096.5,1123.5 Z"/></g>
<g><path style="opacity:1" fill="#e9d67b" d="M 1093.5,1126.5 C 1124.71,1136.63 1155.71,1147.46 1186.5,1159C 1153.8,1162.68 1121.13,1166.52 1088.5,1170.5C 1088.17,1169.67 1087.83,1168.83 1087.5,1168C 1090.42,1154.29 1092.42,1140.45 1093.5,1126.5 Z"/></g>
<g><path style="opacity:1" fill="#ead77c" d="M 748.5,1139.5 C 759.838,1139.33 771.172,1139.5 782.5,1140C 794.601,1148.47 806.435,1157.3 818,1166.5C 818.667,1167.5 818.667,1168.5 818,1169.5C 806.582,1188 795.415,1206.67 784.5,1225.5C 760.494,1200.16 736.827,1174.49 713.5,1148.5C 724.917,1144.09 736.583,1141.09 748.5,1139.5 Z"/></g>
<g><path style="opacity:1" fill="#e6d47a" d="M 786.5,1140.5 C 797.483,1140.79 808.483,1142.62 819.5,1146C 821.152,1147.47 822.152,1149.3 822.5,1151.5C 821.79,1155.8 821.29,1160.14 821,1164.5C 820.667,1164.83 820.333,1165.17 820,1165.5C 808.956,1156.95 797.789,1148.62 786.5,1140.5 Z"/></g>
<g><path style="opacity:1" fill="#e9d67b" d="M 711.5,1153.5 C 735.117,1178.79 758.784,1204.12 782.5,1229.5C 772.086,1248 761.419,1266.33 750.5,1284.5C 749.914,1284.29 749.414,1283.96 749,1283.5C 746.959,1272.67 744.292,1262 741,1251.5C 730.036,1219.11 720.203,1186.45 711.5,1153.5 Z"/></g>
<g><path style="opacity:1" fill="#e3d178" d="M 1211.5,1159.5 C 1226.88,1159.85 1239.88,1165.69 1250.5,1177C 1234.19,1172.9 1218.19,1167.56 1202.5,1161C 1205.69,1160.82 1208.69,1160.32 1211.5,1159.5 Z"/></g>
<g><path style="opacity:1" fill="#e9d67b" d="M 1183.5,1162.5 C 1188.18,1162.33 1192.85,1162.5 1197.5,1163C 1212.17,1168.33 1226.83,1173.67 1241.5,1179C 1229.98,1182.8 1218.31,1186.13 1206.5,1189C 1191.15,1193.33 1175.65,1197.5 1160,1201.5C 1137.45,1192.14 1114.95,1182.64 1092.5,1173C 1123,1169.62 1153.33,1166.12 1183.5,1162.5 Z"/></g>
<g><path style="opacity:1" fill="#e7d47a" d="M 818.5,1176.5 C 819.5,1176.5 820.5,1176.5 821.5,1176.5C 821.248,1188.87 821.748,1201.2 823,1213.5C 826.035,1235.66 829.701,1257.66 834,1279.5C 818.315,1262.65 802.815,1245.65 787.5,1228.5C 797.367,1210.74 807.701,1193.41 818.5,1176.5 Z"/></g>
<g><path style="opacity:1" fill="#e9d67b" d="M 1086.5,1175.5 C 1108.34,1184.45 1130.01,1193.78 1151.5,1203.5C 1126.96,1210.43 1102.46,1217.43 1078,1224.5C 1080.12,1208.06 1082.95,1191.72 1086.5,1175.5 Z"/></g>
<g><path style="opacity:1" fill="#e9d67b" d="M 1248.5,1181.5 C 1249.5,1181.47 1250.16,1181.97 1250.5,1183C 1248.01,1201.14 1242.51,1218.3 1234,1234.5C 1211.89,1224.41 1189.73,1214.41 1167.5,1204.5C 1194.56,1196.65 1221.56,1188.99 1248.5,1181.5 Z"/></g>
<g><path style="opacity:1" fill="#ead77b" d="M 1156.5,1206.5 C 1181.46,1215.81 1206.13,1225.98 1230.5,1237C 1196.13,1242.43 1162.79,1251.59 1130.5,1264.5C 1112.87,1252.68 1095.21,1240.85 1077.5,1229C 1103.89,1221.32 1130.23,1213.82 1156.5,1206.5 Z"/></g>
<g><path style="opacity:1" fill="#ead77c" d="M 784.5,1233.5 C 789.406,1236.9 793.906,1240.9 798,1245.5C 810.649,1259.65 823.482,1273.65 836.5,1287.5C 834.476,1289.69 832.643,1292.02 831,1294.5C 824.012,1309.15 816.012,1323.15 807,1336.5C 806.261,1337.57 805.261,1338.24 804,1338.5C 787.035,1321.7 770.202,1304.7 753.5,1287.5C 763.845,1269.47 774.178,1251.47 784.5,1233.5 Z"/></g>
<g><path style="opacity:1" fill="#e8d57b" d="M 1075.5,1233.5 C 1092.28,1244.4 1108.95,1255.57 1125.5,1267C 1106.34,1274.49 1088.84,1284.66 1073,1297.5C 1072.57,1276.12 1073.4,1254.78 1075.5,1233.5 Z"/></g>
<g><path style="opacity:1" fill="#e9d67b" d="M 1225.5,1241.5 C 1227.29,1241.21 1228.95,1241.55 1230.5,1242.5C 1219.9,1264.37 1210.4,1286.7 1202,1309.5C 1201.63,1310.91 1200.8,1311.91 1199.5,1312.5C 1177.83,1297.67 1156.17,1282.83 1134.5,1268C 1164.09,1256.19 1194.42,1247.36 1225.5,1241.5 Z"/></g>
<g><path style="opacity:1" fill="#ead77c" d="M 1128.5,1269.5 C 1150.62,1284.07 1172.62,1298.9 1194.5,1314C 1171.72,1321.04 1148.89,1327.87 1126,1334.5C 1108.81,1325.82 1091.65,1316.99 1074.5,1308C 1072.79,1306.87 1072.29,1305.37 1073,1303.5C 1077.5,1299.67 1082,1295.83 1086.5,1292C 1100.12,1283.69 1114.12,1276.19 1128.5,1269.5 Z"/></g>
<g><path style="opacity:0.513" fill="#000000" d="M 1322.5,1292.5 C 1324.3,1293.89 1324.63,1295.56 1323.5,1297.5C 1321.58,1296.03 1321.24,1294.37 1322.5,1292.5 Z"/></g>
<g><path style="opacity:1" fill="#e9d67b" d="M 751.5,1292.5 C 768.632,1309.13 785.632,1325.96 802.5,1343C 791.382,1357.46 781.882,1372.96 774,1389.5C 771.391,1387.89 770.058,1385.56 770,1382.5C 763.512,1352.55 757.346,1322.55 751.5,1292.5 Z"/></g>
<g><path style="opacity:1" fill="#e6d47a" d="M 836.5,1292.5 C 837.586,1292.62 838.253,1293.29 838.5,1294.5C 847.098,1328.33 854.598,1362.33 861,1396.5C 842.986,1378.65 825.153,1360.65 807.5,1342.5C 818.705,1326.76 828.372,1310.09 836.5,1292.5 Z"/></g>
<g><path style="opacity:1" fill="#e8d57b" d="M 1072.5,1311.5 C 1088.14,1319.99 1103.81,1328.49 1119.5,1337C 1104.6,1341.64 1089.6,1345.81 1074.5,1349.5C 1073.04,1336.88 1072.38,1324.21 1072.5,1311.5 Z"/></g>
<g><path style="opacity:1" fill="#e9d67b" d="M 1195.5,1317.5 C 1196.68,1317.28 1197.68,1317.61 1198.5,1318.5C 1192.83,1333.84 1187.16,1349.18 1181.5,1364.5C 1164.67,1355.92 1148.01,1347.09 1131.5,1338C 1152.91,1331.03 1174.24,1324.2 1195.5,1317.5 Z"/></g>
<g><path style="opacity:1" fill="#e9d67b" d="M 1123.5,1339.5 C 1141.43,1348.13 1159.09,1357.3 1176.5,1367C 1160.51,1371.58 1145.01,1377.41 1130,1384.5C 1113.92,1373.88 1097.75,1363.38 1081.5,1353C 1095.63,1348.57 1109.63,1344.07 1123.5,1339.5 Z"/></g>
<g><path style="opacity:1" fill="#ead77c" d="M 804.5,1345.5 C 824.132,1364.63 843.632,1383.96 863,1403.5C 863.79,1406.63 863.457,1409.63 862,1412.5C 851.667,1425.5 841.333,1438.5 831,1451.5C 813.333,1432.5 795.667,1413.5 778,1394.5C 777.333,1393.17 777.333,1391.83 778,1390.5C 785.848,1374.79 794.681,1359.79 804.5,1345.5 Z"/></g>
<g><path style="opacity:1" fill="#e8d57b" d="M 1075.5,1354.5 C 1091.98,1364.91 1108.31,1375.57 1124.5,1386.5C 1110.83,1394.33 1097.5,1402.67 1084.5,1411.5C 1080.85,1392.62 1077.85,1373.62 1075.5,1354.5 Z"/></g>
<g><path style="opacity:1" fill="#e8d57a" d="M 1175.5,1371.5 C 1176.83,1371.5 1178.17,1371.5 1179.5,1371.5C 1177.97,1380.94 1174.97,1389.77 1170.5,1398C 1170.83,1398.33 1171.17,1398.67 1171.5,1399C 1169.68,1402.74 1169.18,1406.57 1170,1410.5C 1158.08,1402.79 1146.25,1394.96 1134.5,1387C 1147.83,1380.65 1161.5,1375.49 1175.5,1371.5 Z"/></g>
<g><path style="opacity:1" fill="#ead77c" d="M 1127.5,1389.5 C 1129.31,1389.49 1130.98,1389.99 1132.5,1391C 1145.88,1399.35 1158.88,1408.18 1171.5,1417.5C 1160.33,1429.83 1149.17,1442.17 1138,1454.5C 1123.5,1444 1109,1433.5 1094.5,1423C 1091.98,1420.65 1089.65,1418.15 1087.5,1415.5C 1091.95,1411.77 1096.62,1408.27 1101.5,1405C 1110.4,1400.06 1119.06,1394.89 1127.5,1389.5 Z"/></g>
<g><path style="opacity:1" fill="#e9d67b" d="M 772.5,1394.5 C 791.64,1414.14 810.307,1434.31 828.5,1455C 818.12,1468.26 807.62,1481.42 797,1494.5C 794.201,1492.38 792.201,1489.71 791,1486.5C 789.796,1478.15 788.463,1469.81 787,1461.5C 781.687,1439.25 776.854,1416.92 772.5,1394.5 Z"/></g>
<g><path style="opacity:1" fill="#e8d57a" d="M 864.5,1414.5 C 869.561,1440.8 871.394,1467.47 870,1494.5C 857.717,1481.43 845.55,1468.26 833.5,1455C 844.206,1441.74 854.539,1428.24 864.5,1414.5 Z"/></g>
<g><path style="opacity:1" fill="#e9d67b" d="M 1085.5,1421.5 C 1102.58,1432.76 1118.91,1444.92 1134.5,1458C 1122.35,1471.49 1110.18,1484.99 1098,1498.5C 1093.61,1472.86 1089.45,1447.19 1085.5,1421.5 Z"/></g>
<g><path style="opacity:1" fill="#ead77b" d="M 1170.5,1424.5 C 1171.5,1442.33 1171.83,1460.33 1171.5,1478.5C 1161.17,1471.66 1151.17,1464.33 1141.5,1456.5C 1151.19,1445.81 1160.86,1435.15 1170.5,1424.5 Z"/></g>
<g><path style="opacity:1" fill="#7c7241" d="M 1171.5,1478.5 C 1171.83,1460.33 1171.5,1442.33 1170.5,1424.5C 1170.78,1423.71 1171.28,1423.04 1172,1422.5C 1172.83,1441.34 1172.66,1460 1171.5,1478.5 Z"/></g>
<g><path style="opacity:1" fill="#ead77c" d="M 830.5,1458.5 C 842.756,1470.6 854.589,1483.26 866,1496.5C 867.11,1498.04 868.61,1498.7 870.5,1498.5C 870.998,1502.22 870.164,1505.55 868,1508.5C 857.631,1519.2 847.631,1530.2 838,1541.5C 825.519,1526.72 812.686,1512.22 799.5,1498C 810.048,1484.96 820.381,1471.79 830.5,1458.5 Z"/></g>
<g><path style="opacity:1" fill="#ead77c" d="M 1137.5,1460.5 C 1148.59,1467.23 1159.25,1474.73 1169.5,1483C 1156.94,1499.96 1144.28,1516.79 1131.5,1533.5C 1119.97,1524.14 1109.64,1513.64 1100.5,1502C 1113.03,1488.31 1125.36,1474.47 1137.5,1460.5 Z"/></g>
<g><path style="opacity:1" fill="#a79129" d="M 1821.5,1464.5 C 1836.45,1466.05 1851.45,1466.72 1866.5,1466.5C 1857.01,1467.66 1847.34,1467.82 1837.5,1467C 1831.94,1466.75 1826.6,1465.92 1821.5,1464.5 Z"/></g>
<g><path style="opacity:1" fill="#e8d57b" d="M 1170.5,1487.5 C 1171.15,1488.27 1171.48,1489.27 1171.5,1490.5C 1170.15,1516.21 1168.32,1541.87 1166,1567.5C 1155.02,1557.68 1144.52,1547.35 1134.5,1536.5C 1146.52,1520.15 1158.52,1503.81 1170.5,1487.5 Z"/></g>
<g><path style="opacity:1" fill="#e8d67b" d="M 792.5,1496.5 C 806.7,1512.35 821.033,1528.19 835.5,1544C 825.035,1556.13 814.202,1567.97 803,1579.5C 799.499,1575.52 797.499,1570.85 797,1565.5C 797.347,1542.35 795.847,1519.35 792.5,1496.5 Z"/></g>
<g><path style="opacity:1" fill="#e7d47a" d="M 1101.5,1511.5 C 1110.96,1519.79 1120.3,1528.29 1129.5,1537C 1122.79,1546.26 1115.96,1555.42 1109,1564.5C 1106.66,1549.31 1104.16,1534.14 1101.5,1519C 1102.41,1516.42 1102.41,1513.92 1101.5,1511.5 Z"/></g>
<g><path style="opacity:1" fill="#e6d47a" d="M 868.5,1512.5 C 867.999,1530.37 864.999,1548.04 859.5,1565.5C 853.353,1558.18 847.019,1551.02 840.5,1544C 850.413,1533.93 859.746,1523.43 868.5,1512.5 Z"/></g>
<g><path style="opacity:1" fill="#ead77b" d="M 1131.5,1540.5 C 1142.93,1550.43 1153.93,1560.93 1164.5,1572C 1158.71,1581.74 1152.55,1591.24 1146,1600.5C 1134.32,1589.65 1122.82,1578.65 1111.5,1567.5C 1118.19,1558.48 1124.86,1549.48 1131.5,1540.5 Z"/></g>
<g><path style="opacity:1" fill="#e9d67b" d="M 836.5,1547.5 C 839.731,1549.22 842.564,1551.55 845,1554.5C 849.892,1559.72 854.392,1565.22 858.5,1571C 858.158,1575.85 856.324,1580.02 853,1583.5C 844.625,1591.71 836.458,1600.04 828.5,1608.5C 820.821,1600.15 813.487,1591.49 806.5,1582.5C 816.545,1570.79 826.545,1559.13 836.5,1547.5 Z"/></g>
<g><path style="opacity:1" fill="#e8d57b" d="M 1110.5,1571.5 C 1121.96,1581.79 1133.3,1592.29 1144.5,1603C 1136.33,1615.33 1128,1627.49 1119.5,1639.5C 1116.28,1616.86 1113.28,1594.19 1110.5,1571.5 Z"/></g>
<g><path style="opacity:1" fill="#e2d078" d="M 1164.5,1579.5 C 1165.04,1579.56 1165.38,1579.89 1165.5,1580.5C 1163.87,1592.13 1162.37,1603.8 1161,1615.5C 1156.79,1611.62 1152.95,1607.45 1149.5,1603C 1154.63,1595.24 1159.63,1587.41 1164.5,1579.5 Z"/></g>
<g><path style="opacity:1" fill="#e6d47a" d="M 802.5,1585.5 C 810.859,1593.53 818.526,1602.19 825.5,1611.5C 817.882,1620.62 809.716,1629.29 801,1637.5C 801.229,1620.21 801.729,1602.87 802.5,1585.5 Z"/></g>
<g><path style="opacity:1" fill="#e5d379" d="M 852.5,1588.5 C 849.907,1600.43 845.741,1612.09 840,1623.5C 837.333,1620.17 834.667,1616.83 832,1613.5C 831.333,1612.5 831.333,1611.5 832,1610.5C 839.406,1603.6 846.239,1596.26 852.5,1588.5 Z"/></g>
<g><path style="opacity:1" fill="#e9d67b" d="M 1146.5,1606.5 C 1152.36,1610.2 1157.03,1615.03 1160.5,1621C 1158.77,1634.45 1157.61,1647.95 1157,1661.5C 1156.59,1661.96 1156.09,1662.29 1155.5,1662.5C 1143.84,1657.01 1132.84,1650.51 1122.5,1643C 1130.72,1630.95 1138.72,1618.78 1146.5,1606.5 Z"/></g>
<g><path style="opacity:1" fill="#e8d67b" d="M 827.5,1615.5 C 832.189,1618.86 835.856,1623.2 838.5,1628.5C 835.247,1635.84 833.081,1643.51 832,1651.5C 831.5,1652 831,1652.5 830.5,1653C 820.042,1654.22 810.042,1652.55 800.5,1648C 799.483,1646.95 799.316,1645.78 800,1644.5C 809.006,1634.66 818.172,1624.99 827.5,1615.5 Z"/></g>
<g><path style="opacity:1" fill="#e9d67b" d="M 1120.5,1646.5 C 1131.94,1652.72 1143.27,1659.22 1154.5,1666C 1148.53,1676.78 1142.2,1687.28 1135.5,1697.5C 1131.19,1694.36 1127.02,1691.02 1123,1687.5C 1122.07,1673.83 1121.24,1660.17 1120.5,1646.5 Z"/></g>
<g><path style="opacity:1" fill="#e7d47a" d="M 1155.5,1671.5 C 1156.17,1677.5 1156.83,1683.5 1157.5,1689.5C 1157.83,1697.86 1157.5,1706.19 1156.5,1714.5C 1150.62,1709.78 1144.96,1704.95 1139.5,1700C 1144.71,1690.41 1150.04,1680.91 1155.5,1671.5 Z"/></g>
<g><path style="opacity:1" fill="#6c6439" d="M 1157.5,1689.5 C 1156.83,1683.5 1156.17,1677.5 1155.5,1671.5C 1155.78,1670.71 1156.28,1670.04 1157,1669.5C 1157.5,1676.16 1157.67,1682.83 1157.5,1689.5 Z"/></g>
<g><path style="opacity:1" fill="#e9d67b" d="M 790.5,1681.5 C 793.326,1684.42 796.66,1686.58 800.5,1688C 808.472,1689.67 816.472,1690 824.5,1689C 822.811,1694.03 819.644,1697.86 815,1700.5C 808.248,1710.59 800.082,1719.42 790.5,1727C 781.785,1733.24 772.118,1736.24 761.5,1736C 758.621,1734.16 757.121,1731.66 757,1728.5C 768.098,1718.74 777.765,1707.74 786,1695.5C 788.007,1690.98 789.507,1686.31 790.5,1681.5 Z"/></g>
<g><path style="opacity:1" fill="#decc75" d="M 1123.5,1692.5 C 1127.47,1694.83 1131.13,1697.67 1134.5,1701C 1132.12,1704.92 1129.62,1708.75 1127,1712.5C 1125.25,1705.92 1124.08,1699.26 1123.5,1692.5 Z"/></g>
<g><path style="opacity:1" fill="#e5d279" d="M 1136.5,1703.5 C 1144.05,1708.21 1151.22,1713.54 1158,1719.5C 1158.78,1722.43 1158.61,1725.26 1157.5,1728C 1148.08,1731.62 1138.91,1731.12 1130,1726.5C 1129.13,1723.51 1128.8,1720.51 1129,1717.5C 1131.78,1712.94 1134.28,1708.27 1136.5,1703.5 Z"/></g>
<g><path style="opacity:1" fill="#e9d67b" d="M 1121.5,1762.5 C 1128.17,1763.56 1134.84,1764.72 1141.5,1766C 1147.26,1766.28 1152.93,1766.44 1158.5,1766.5C 1152.94,1788.14 1141.94,1806.31 1125.5,1821C 1120.64,1824.4 1115.31,1825.73 1109.5,1825C 1105.97,1822.42 1104.81,1818.92 1106,1814.5C 1109.73,1800.97 1114.06,1787.64 1119,1774.5C 1120.03,1770.53 1120.86,1766.53 1121.5,1762.5 Z"/></g>
</svg>
