<?xml version="1.0" encoding="UTF-8"?>
<!DOCTYPE svg PUBLIC "-//W3C//DTD SVG 1.1//EN" "http://www.w3.org/Graphics/SVG/1.1/DTD/svg11.dtd">
<svg xmlns="http://www.w3.org/2000/svg" version="1.1" width="2048px" height="2048px" style="shape-rendering:geometricPrecision; text-rendering:geometricPrecision; image-rendering:optimizeQuality; fill-rule:evenodd; clip-rule:evenodd" xmlns:xlink="http://www.w3.org/1999/xlink">
<g><path style="opacity:0.984" fill="#010120" d="M 1654.5,1379.5 C 1651.07,1377.43 1647.4,1375.76 1643.5,1374.5C 1641.9,1372.93 1639.9,1372.26 1637.5,1372.5C 1637.92,1371.74 1638.26,1370.9 1638.5,1370C 1634.3,1364.7 1634.64,1359.7 1639.5,1355C 1637.04,1342.3 1636.04,1329.47 1636.5,1316.5C 1637.7,1285 1638.7,1253.5 1639.5,1222C 1641.27,1193.24 1638.11,1165.07 1630,1137.5C 1621.07,1108.03 1611.73,1078.7 1602,1049.5C 1590.28,1023 1578.94,996.33 1568,969.5C 1557.35,948.185 1545.68,927.518 1533,907.5C 1527.47,901.634 1521.64,896.134 1515.5,891C 1495.5,876.333 1475.5,861.667 1455.5,847C 1444.74,840.467 1433.07,837.3 1420.5,837.5C 1408.8,838.255 1397.13,839.421 1385.5,841C 1359.26,845.88 1333.26,851.713 1307.5,858.5C 1313.5,869.157 1319,880.157 1324,891.5C 1325.88,900.933 1324.21,909.6 1319,917.5C 1315.83,920.667 1312.67,923.833 1309.5,927C 1296,936.249 1282.34,945.249 1268.5,954C 1275.8,957.986 1283.13,961.986 1290.5,966C 1299.31,970.801 1305.14,977.968 1308,987.5C 1308.6,992.88 1308.26,998.213 1307,1003.5C 1305.33,1007.83 1303.67,1012.17 1302,1016.5C 1283.92,1052.32 1265.59,1087.99 1247,1123.5C 1218.75,1172.34 1190.75,1221.34 1163,1270.5C 1149.84,1296.16 1138.34,1322.49 1128.5,1349.5C 1122.97,1349.82 1117.64,1349.49 1112.5,1348.5C 1122.07,1320.36 1133.57,1293.03 1147,1266.5C 1174.75,1217.34 1202.75,1168.34 1231,1119.5C 1251.21,1081.08 1270.88,1042.42 1290,1003.5C 1292.66,998.256 1292.99,992.922 1291,987.5C 1288.13,984.296 1284.96,981.463 1281.5,979C 1271.98,974.407 1262.64,969.573 1253.5,964.5C 1249.77,960.541 1248.61,955.874 1250,950.5C 1253.17,946 1257,942.167 1261.5,939C 1275.17,930.831 1288.51,922.165 1301.5,913C 1305.7,909.608 1308.36,905.275 1309.5,900C 1304.68,886.35 1298.01,873.684 1289.5,862C 1269.36,861.881 1250.36,857.214 1232.5,848C 1221.77,840.751 1214.27,830.918 1210,818.5C 1206.52,808.39 1202.85,798.39 1199,788.5C 1198.75,798.576 1197.75,808.576 1196,818.5C 1191.26,833.054 1185.93,847.387 1180,861.5C 1177.62,878.207 1174.96,894.874 1172,911.5C 1165.48,930.011 1155.65,946.511 1142.5,961C 1151.67,962.846 1155.17,968.346 1153,977.5C 1151.43,979.923 1149.26,981.256 1146.5,981.5C 1142.37,997.346 1138.87,1013.35 1136,1029.5C 1132.07,1065.22 1127.74,1100.89 1123,1136.5C 1108.2,1207.36 1091.37,1277.7 1072.5,1347.5C 1066.97,1347.82 1061.64,1347.49 1056.5,1346.5C 1074.72,1278.6 1091.22,1210.27 1106,1141.5C 1107.75,1131.86 1109.41,1122.19 1111,1112.5C 1113.33,1075.52 1118,1038.86 1125,1002.5C 1127.21,992.321 1130.04,982.321 1133.5,972.5C 1133.17,972.167 1132.83,971.833 1132.5,971.5C 1120.02,985.817 1106.68,999.317 1092.5,1012C 1082.67,1017.41 1073,1023.08 1063.5,1029C 1054.39,1031.25 1045.39,1030.91 1036.5,1028C 1009.83,1014.48 986.165,996.817 965.5,975C 963.77,973.148 962.604,973.314 962,975.5C 960.839,984.424 961.839,993.091 965,1001.5C 967.649,1018.92 961.483,1032.09 946.5,1041C 952.896,1042.7 958.562,1045.7 963.5,1050C 981.497,1069.97 991.331,1093.47 993,1120.5C 993.667,1142.83 993.667,1165.17 993,1187.5C 990.853,1205.2 988.519,1222.87 986,1240.5C 986.473,1262.67 984.807,1284.67 981,1306.5C 977.767,1319.83 974.601,1333.17 971.5,1346.5C 966.167,1346.5 960.833,1346.5 955.5,1346.5C 959.984,1327.27 964.151,1307.94 968,1288.5C 969.053,1268.17 970.053,1247.84 971,1227.5C 973.518,1214.91 975.518,1202.25 977,1189.5C 977.667,1166.83 977.667,1144.17 977,1121.5C 975.564,1097.17 966.397,1076.33 949.5,1059C 939.573,1057.74 929.573,1057.08 919.5,1057C 914.722,1055.64 910.056,1053.97 905.5,1052C 894,1041.17 882.5,1030.33 871,1019.5C 868.223,1016.28 866.223,1012.62 865,1008.5C 863.09,999.948 862.09,991.281 862,982.5C 861.361,979.888 860.194,977.554 858.5,975.5C 842.88,972.87 827.213,970.37 811.5,968C 802.947,964.377 798.781,957.877 799,948.5C 793.664,939.49 791.33,929.824 792,919.5C 793.79,911.128 795.79,902.795 798,894.5C 797.951,878.754 798.951,863.087 801,847.5C 802.274,843.01 803.941,838.677 806,834.5C 810.58,828.34 814.914,822.007 819,815.5C 819.497,813.19 819.663,810.857 819.5,808.5C 754.739,813.575 697.905,837.241 649,879.5C 645.667,884.167 642.333,888.833 639,893.5C 622.682,926.136 606.349,958.802 590,991.5C 571.262,1034.11 558.262,1078.45 551,1124.5C 544.185,1202.57 531.185,1279.57 512,1355.5C 508.842,1370.79 506.009,1386.13 503.5,1401.5C 502.209,1401.26 501.209,1401.6 500.5,1402.5C 496.207,1402.38 492.04,1403.04 488,1404.5C 486.93,1404.47 486.097,1404.14 485.5,1403.5C 487.88,1388.1 490.714,1372.76 494,1357.5C 513.818,1279.93 527.151,1201.26 534,1121.5C 541.05,1076.63 553.383,1033.3 571,991.5C 588.605,956.623 605.938,921.623 623,886.5C 633.833,869 648,854.833 665.5,844C 689.656,828.422 715.323,815.756 742.5,806C 760.452,800.095 778.786,795.928 797.5,793.5C 794.886,778.739 797.719,765.072 806,752.5C 819.198,734.566 825.365,714.399 824.5,692C 822.788,671.861 822.288,651.694 823,631.5C 824.836,614.821 829.17,598.821 836,583.5C 843.825,567.847 852.158,552.514 861,537.5C 869.53,522.105 875.53,505.772 879,488.5C 883.681,432.77 902.348,382.437 935,337.5C 949.15,318.843 967.983,310.01 991.5,311C 996.691,302.137 1003.02,294.137 1010.5,287C 1015.42,283.873 1020.75,281.873 1026.5,281C 1033.19,280.715 1039.85,280.215 1046.5,279.5C 1072.48,280.307 1098.48,280.807 1124.5,281C 1140.96,281.366 1156.63,285.032 1171.5,292C 1199.27,305.443 1221.77,324.943 1239,350.5C 1243.26,358.009 1247.26,365.676 1251,373.5C 1258.17,395.84 1268.5,416.507 1282,435.5C 1323.96,480.323 1346.29,533.656 1349,595.5C 1350.95,617.479 1352.62,639.479 1354,661.5C 1354.3,676.416 1359.3,689.416 1369,700.5C 1379.97,709.797 1390.63,719.464 1401,729.5C 1411.71,743.015 1413.37,757.682 1406,773.5C 1405.33,775.5 1405.33,777.5 1406,779.5C 1409.67,783.833 1413.33,788.167 1417,792.5C 1422.18,802.241 1421.35,811.408 1414.5,820C 1436.53,818.567 1456.19,824.567 1473.5,838C 1494.17,853.667 1514.83,869.333 1535.5,885C 1544.52,893.35 1552.02,902.85 1558,913.5C 1571.25,935.997 1582.92,959.33 1593,983.5C 1602.06,1005.95 1611.39,1028.28 1621,1050.5C 1633.76,1088.01 1644.76,1126.01 1654,1164.5C 1654.91,1170.47 1655.57,1176.47 1656,1182.5C 1656.97,1230.87 1656.14,1279.2 1653.5,1327.5C 1653.92,1335.21 1654.76,1342.88 1656,1350.5C 1656.56,1352.73 1657.56,1354.73 1659,1356.5C 1659.17,1358.17 1659.33,1359.83 1659.5,1361.5C 1658.76,1364.91 1658.76,1368.24 1659.5,1371.5C 1658.57,1374.73 1656.9,1377.4 1654.5,1379.5 Z"/></g>
<g><path style="opacity:1" fill="#2b1907" d="M 1027.5,297.5 C 1060.5,297.333 1093.5,297.5 1126.5,298C 1147.3,300.139 1166.3,307.139 1183.5,319C 1204.66,332.821 1220.83,350.988 1232,373.5C 1239.38,392.653 1247.71,411.32 1257,429.5C 1271.33,448.833 1285.67,468.167 1300,487.5C 1315.01,512.875 1324.68,540.208 1329,569.5C 1332.5,597.063 1334.83,624.73 1336,652.5C 1337.1,664.995 1339.1,677.328 1342,689.5C 1344.5,695.99 1347.83,701.99 1352,707.5C 1364.67,719.5 1377.33,731.5 1390,743.5C 1391.88,746.424 1393.05,749.591 1393.5,753C 1392.12,759.277 1390.28,765.444 1388,771.5C 1386.54,778.468 1387.87,784.801 1392,790.5C 1396.92,794.236 1400.42,798.903 1402.5,804.5C 1402.24,807.271 1400.91,809.438 1398.5,811C 1375.06,820.257 1351.4,828.924 1327.5,837C 1314.73,839.696 1302.06,842.363 1289.5,845C 1272.55,846.276 1256.55,842.943 1241.5,835C 1238.04,832.537 1234.87,829.704 1232,826.5C 1227.38,818.991 1223.71,810.991 1221,802.5C 1209.44,766.063 1196.78,730.063 1183,694.5C 1181.27,687.142 1179.44,679.809 1177.5,672.5C 1185.81,663.235 1192.64,652.902 1198,641.5C 1202.76,628.121 1206.43,614.454 1209,600.5C 1217.04,557.865 1221.04,514.865 1221,471.5C 1219.85,447.555 1215.51,424.222 1208,401.5C 1202.22,390.717 1194.05,382.217 1183.5,376C 1162.89,365.529 1141.89,355.862 1120.5,347C 1104.74,343.144 1088.74,341.644 1072.5,342.5C 1053.49,341.87 1034.82,344.037 1016.5,349C 980.511,367.656 955.011,395.823 940,433.5C 931.088,458.724 925.755,484.724 924,511.5C 920.553,542.418 919.219,573.418 920,604.5C 921.542,617.045 923.375,629.545 925.5,642C 925.183,644.328 924.016,646.161 922,647.5C 921.333,653.5 921.333,659.5 922,665.5C 927.694,679.223 934.694,692.223 943,704.5C 946.366,712.785 950.199,720.785 954.5,728.5C 950.095,734.139 950.595,739.139 956,743.5C 956.268,755.192 956.934,766.859 958,778.5C 961.31,799.075 963.976,819.742 966,840.5C 968.242,860.31 975.908,877.643 989,892.5C 1000.11,901.31 1010.95,910.477 1021.5,920C 1015.51,921.408 1010.35,924.242 1006,928.5C 1005.24,932.355 1003.74,935.855 1001.5,939C 993.577,940.235 985.577,940.902 977.5,941C 969.426,941.283 963.259,944.783 959,951.5C 958.503,953.81 958.337,956.143 958.5,958.5C 953.742,959.414 950.242,962.081 948,966.5C 945.699,974.014 945.032,981.681 946,989.5C 947.593,995.605 948.76,1001.77 949.5,1008C 949.504,1018.01 944.838,1024.67 935.5,1028C 928.622,1028.53 921.955,1027.86 915.5,1026C 912.533,1028.1 910.7,1030.93 910,1034.5C 901,1026.17 892,1017.83 883,1009.5C 879.094,1002.02 877.428,994.018 878,985.5C 877.922,970.144 870.422,960.977 855.5,958C 842.218,956.583 829.051,954.75 816,952.5C 814.726,944.345 812.06,936.679 808,929.5C 807.833,927.667 807.667,925.833 807.5,924C 809.456,913.796 811.623,903.629 814,893.5C 814.333,881.5 814.667,869.5 815,857.5C 817.09,846.32 822.09,836.654 830,828.5C 836.422,818.791 837.088,808.791 832,798.5C 827.686,794.393 822.52,792.226 816.5,792C 814.635,788.934 813.635,785.601 813.5,782C 814.186,776.607 815.686,771.44 818,766.5C 823.935,756.295 829.602,745.962 835,735.5C 837.536,726.612 839.536,717.612 841,708.5C 841.703,688.134 841.203,667.801 839.5,647.5C 839.342,626.455 843.842,606.455 853,587.5C 862.065,570.371 871.398,553.371 881,536.5C 886.321,524.87 890.655,512.87 894,500.5C 897.87,477.739 902.204,455.073 907,432.5C 915.963,401.576 929.963,373.242 949,347.5C 955.163,339.326 962.996,333.493 972.5,330C 979.5,329.667 986.5,329.333 993.5,329C 1000.38,327.444 1005.55,323.611 1009,317.5C 1011.72,311.214 1015.56,305.714 1020.5,301C 1023.17,300.33 1025.51,299.163 1027.5,297.5 Z"/></g>
<g><path style="opacity:1" fill="#decea5" d="M 1002.5,449.5 C 1006.3,451.249 1009.63,453.749 1012.5,457C 1014.27,456.325 1016.11,456.491 1018,457.5C 1019.33,457.245 1020.33,456.578 1021,455.5C 1022.21,450.618 1021.05,446.452 1017.5,443C 1011.72,440.347 1005.72,438.514 999.5,437.5C 991.312,436.578 983.312,434.744 975.5,432C 970.22,430.905 964.887,430.405 959.5,430.5C 963.525,419.45 969.358,409.45 977,400.5C 987.882,388.617 999.716,377.784 1012.5,368C 1022.25,362.973 1032.58,359.973 1043.5,359C 1063.17,358.333 1082.83,358.333 1102.5,359C 1110,360.374 1117.33,362.374 1124.5,365C 1142.5,373.667 1160.5,382.333 1178.5,391C 1187.78,397.618 1193.94,406.451 1197,417.5C 1205.05,449.025 1207.71,481.025 1205,513.5C 1202.45,543.702 1198.45,573.702 1193,603.5C 1189.54,622.065 1182.54,639.065 1172,654.5C 1169.36,656.964 1166.19,658.464 1162.5,659C 1160.63,661.37 1158.96,663.87 1157.5,666.5C 1148.66,671.75 1140,677.25 1131.5,683C 1122.22,688.14 1112.55,692.473 1102.5,696C 1074.11,703.795 1045.78,711.795 1017.5,720C 1003.01,723.404 988.341,724.738 973.5,724C 970.898,723.117 968.731,721.617 967,719.5C 963.667,712.167 960.333,704.833 957,697.5C 950.41,687.992 944.576,677.992 939.5,667.5C 940.815,665.684 942.315,664.017 944,662.5C 944.167,661 944.333,659.5 944.5,658C 936.144,623.678 933.311,588.844 936,553.5C 937.655,524.623 940.988,495.956 946,467.5C 947.357,459.552 949.857,452.052 953.5,445C 970.146,443.484 986.48,444.984 1002.5,449.5 Z"/></g>
<g><path style="opacity:1" fill="#29190c" d="M 999.5,437.5 C 1005.72,438.514 1011.72,440.347 1017.5,443C 1021.05,446.452 1022.21,450.618 1021,455.5C 1020.33,456.578 1019.33,457.245 1018,457.5C 1016.11,456.491 1014.27,456.325 1012.5,457C 1009.63,453.749 1006.3,451.249 1002.5,449.5C 1001.43,448.115 1000.09,446.949 998.5,446C 987.365,443.142 976.032,441.809 964.5,442C 963.226,440.779 961.726,439.946 960,439.5C 958.185,441.848 956.018,442.515 953.5,441.5C 954.5,439.5 955.5,437.5 956.5,435.5C 965.353,432.207 973.686,433.04 981.5,438C 987.008,437.813 992.008,439.313 996.5,442.5C 997.32,440.681 998.32,439.014 999.5,437.5 Z"/></g>
<g><path style="opacity:1" fill="#0e0f26" d="M 1036.5,447.5 C 1039.16,448.479 1039.82,450.146 1038.5,452.5C 1037.91,452.291 1037.41,451.957 1037,451.5C 1031.9,471.696 1023.56,490.363 1012,507.5C 1005.08,514.083 998.579,520.917 992.5,528C 999.688,528.094 1005.35,531.094 1009.5,537C 1011.81,537.756 1013.81,537.256 1015.5,535.5C 1016.58,536.365 1016.75,537.365 1016,538.5C 1014.43,539.358 1012.76,540.025 1011,540.5C 1007.27,538.776 1004.1,536.276 1001.5,533C 997.719,531.173 993.719,530.173 989.5,530C 988.978,529.439 988.645,528.772 988.5,528C 996.232,520.597 1003.73,512.764 1011,504.5C 1015.59,496.996 1019.92,489.329 1024,481.5C 1027.89,469.978 1032.06,458.645 1036.5,447.5 Z"/></g>
<g><path style="opacity:1" fill="#0b0c24" d="M 956.5,451.5 C 968.394,453.989 980.394,456.156 992.5,458C 997.786,458.973 1002.12,461.473 1005.5,465.5C 1005.17,465.833 1004.83,466.167 1004.5,466.5C 1000.22,463.529 995.558,461.363 990.5,460C 979.809,458.497 969.142,456.83 958.5,455C 957.027,454.29 956.36,453.124 956.5,451.5 Z"/></g>
<g><path style="opacity:1" fill="#2a190a" d="M 1162.5,468.5 C 1164.93,470.38 1167.59,471.713 1170.5,472.5C 1170.28,473.675 1170.61,474.675 1171.5,475.5C 1173.51,478.006 1175.84,480.173 1178.5,482C 1178.94,486.104 1178.94,490.271 1178.5,494.5C 1175.19,494.851 1172.86,493.518 1171.5,490.5C 1171.55,487.033 1170.05,484.366 1167,482.5C 1166.51,481.207 1166.34,479.873 1166.5,478.5C 1162.15,478.68 1158.82,476.847 1156.5,473C 1152.47,470.545 1148.14,468.879 1143.5,468C 1124.96,464.682 1106.29,462.349 1087.5,461C 1103.74,458.396 1120.08,457.396 1136.5,458C 1140.28,458.592 1143.94,459.592 1147.5,461C 1152.34,463.919 1157.01,467.086 1161.5,470.5C 1162.3,470.043 1162.63,469.376 1162.5,468.5 Z"/></g>
<g><path style="opacity:1" fill="#090822" d="M 1162.5,468.5 C 1162.63,469.376 1162.3,470.043 1161.5,470.5C 1157.01,467.086 1152.34,463.919 1147.5,461C 1143.94,459.592 1140.28,458.592 1136.5,458C 1120.08,457.396 1103.74,458.396 1087.5,461C 1106.29,462.349 1124.96,464.682 1143.5,468C 1148.14,468.879 1152.47,470.545 1156.5,473C 1158.82,476.847 1162.15,478.68 1166.5,478.5C 1166.34,479.873 1166.51,481.207 1167,482.5C 1170.05,484.366 1171.55,487.033 1171.5,490.5C 1167.04,486.537 1162.7,482.37 1158.5,478C 1154.61,474.889 1150.28,472.556 1145.5,471C 1125.33,467.142 1104.99,464.642 1084.5,463.5C 1084.03,461.799 1084.03,460.299 1084.5,459C 1103.08,455.698 1121.75,454.698 1140.5,456C 1148.89,458.361 1156.23,462.528 1162.5,468.5 Z"/></g>
<g><path style="opacity:0.987" fill="#070721" d="M 992.5,484.5 C 989.038,483.518 985.371,483.185 981.5,483.5C 970.982,480.716 960.649,477.216 950.5,473C 949.62,471.644 949.286,470.144 949.5,468.5C 954.975,469.451 959.975,471.618 964.5,475C 968.653,475.384 972.653,476.384 976.5,478C 984.807,478.999 993.14,479.832 1001.5,480.5C 999.514,483.843 996.514,485.176 992.5,484.5 Z"/></g>
<g><path style="opacity:1" fill="#0d0e26" d="M 1107.5,474.5 C 1116.35,476.953 1125.02,480.12 1133.5,484C 1141.87,489.466 1146.53,496.966 1147.5,506.5C 1140.05,489.088 1126.72,479.754 1107.5,478.5C 1107.5,477.167 1107.5,475.833 1107.5,474.5 Z"/></g>
<g><path style="opacity:0.992" fill="#050522" d="M 1085.5,492.5 C 1090.52,496.344 1096.19,499.177 1102.5,501C 1113.79,502.829 1125.12,504.329 1136.5,505.5C 1136.5,504.5 1136.5,503.5 1136.5,502.5C 1137.5,502.5 1138.5,502.5 1139.5,502.5C 1139.24,503.978 1139.57,505.311 1140.5,506.5C 1143.74,507.622 1144.07,509.122 1141.5,511C 1120.86,514.006 1101.53,510.339 1083.5,500C 1082.64,499.311 1081.98,498.478 1081.5,497.5C 1082.86,495.814 1084.19,494.148 1085.5,492.5 Z"/></g>
<g><path style="opacity:1" fill="#0c0d25" d="M 994.5,498.5 C 996.103,498.312 997.437,498.812 998.5,500C 995.785,501.908 992.785,503.241 989.5,504C 980.955,506.209 972.288,507.709 963.5,508.5C 959.758,507.985 956.091,507.152 952.5,506C 949.408,505.066 949.075,503.9 951.5,502.5C 957.25,505.108 963.25,505.942 969.5,505C 978.268,504.02 986.602,501.853 994.5,498.5 Z"/></g>
<g><path style="opacity:1" fill="#0e0f26" d="M 1060.5,502.5 C 1061.5,502.5 1062.5,502.5 1063.5,502.5C 1063.57,515.547 1064.07,528.547 1065,541.5C 1063.2,545.235 1060.2,546.902 1056,546.5C 1048.91,544.474 1041.75,542.641 1034.5,541C 1029.37,537.487 1023.71,535.653 1017.5,535.5C 1018.69,534.16 1020.19,533.493 1022,533.5C 1033.15,537.624 1044.49,541.291 1056,544.5C 1060.98,543.851 1063.48,541.018 1063.5,536C 1061.08,524.96 1060.08,513.794 1060.5,502.5 Z"/></g>
<g><path style="opacity:1" fill="#0b0b24" d="M 1090.5,514.5 C 1094.62,517.068 1098.62,519.902 1102.5,523C 1109.87,526.531 1117.53,527.364 1125.5,525.5C 1125.5,526.5 1125.5,527.5 1125.5,528.5C 1111.86,531.566 1100.36,527.899 1091,517.5C 1090.52,516.552 1090.35,515.552 1090.5,514.5 Z"/></g>
<g><path style="opacity:1" fill="#0f1127" d="M 974.5,547.5 C 976.288,547.215 977.955,547.548 979.5,548.5C 974.771,552.739 970.938,557.739 968,563.5C 965.873,566.132 963.54,568.466 961,570.5C 959.743,570.15 959.409,569.483 960,568.5C 965.337,561.819 970.17,554.819 974.5,547.5 Z"/></g>
<g><path style="opacity:1" fill="#0a0b24" d="M 1016.5,553.5 C 1017.59,553.62 1018.25,554.287 1018.5,555.5C 1017.38,559.913 1017.71,564.247 1019.5,568.5C 1018.68,569.386 1017.68,569.719 1016.5,569.5C 1015.27,564.122 1015.27,558.789 1016.5,553.5 Z"/></g>
<g><path style="opacity:1" fill="#0d0d25" d="M 1007.5,555.5 C 1008.29,555.783 1008.96,556.283 1009.5,557C 1008.17,559.667 1008.17,562.333 1009.5,565C 1009,565.5 1008.5,566 1008,566.5C 1004.9,563.04 1004.73,559.374 1007.5,555.5 Z"/></g>
<g><path style="opacity:1" fill="#101228" d="M 1100.5,560.5 C 1106.49,564.977 1112.16,570.144 1117.5,576C 1127.44,584.255 1138.61,590.422 1151,594.5C 1152.83,595.886 1152.5,596.886 1150,597.5C 1133.22,591.444 1118.55,582.111 1106,569.5C 1103.52,566.861 1101.68,563.861 1100.5,560.5 Z"/></g>
<g><path style="opacity:1" fill="#060321" d="M 1023.5,575.5 C 1028.45,574.959 1033.12,575.792 1037.5,578C 1051.76,590.858 1061.43,606.525 1066.5,625C 1066.09,627.321 1065.26,629.487 1064,631.5C 1057.88,635.956 1052.04,640.789 1046.5,646C 1036.55,653.318 1025.38,657.485 1013,658.5C 1004.78,657.639 997.615,654.473 991.5,649C 983.667,639.833 975.167,631.333 966,623.5C 966.208,619.772 966.874,615.772 968,611.5C 971.079,603.425 974.245,595.425 977.5,587.5C 983.989,584.427 990.655,581.594 997.5,579C 1004.17,578.667 1010.83,578.333 1017.5,578C 1019.72,577.434 1021.72,576.6 1023.5,575.5 Z"/></g>
<g><path style="opacity:1" fill="#e5776f" d="M 1025.5,577.5 C 1029.13,577.16 1032.46,577.994 1035.5,580C 1048.88,592.052 1058.21,606.719 1063.5,624C 1063.17,624.833 1062.83,625.667 1062.5,626.5C 1051.7,619.529 1041.03,612.363 1030.5,605C 1014.93,598.19 999.267,597.856 983.5,604C 979,608.5 974.5,613 970,617.5C 971.247,609.43 973.913,601.763 978,594.5C 981.167,592.667 983.667,590.167 985.5,587C 996.393,581.256 1008.06,578.923 1020.5,580C 1022.31,579.243 1023.98,578.41 1025.5,577.5 Z"/></g>
<g><path style="opacity:1" fill="#e4776f" d="M 972.5,618.5 C 979.603,626.399 988.27,632.232 998.5,636C 1001.66,636.554 1004.82,637.054 1008,637.5C 1026.06,634.769 1043.89,632.102 1061.5,629.5C 1052.15,638.354 1041.81,645.854 1030.5,652C 1017.59,657.816 1005.59,656.482 994.5,648C 985.779,639.279 977.113,630.613 968.5,622C 970.324,621.34 971.657,620.173 972.5,618.5 Z"/></g>
<g><path style="opacity:1" fill="#decea5" d="M 972.5,765.5 C 972.344,757.471 972.677,749.471 973.5,741.5C 986.316,741.975 998.982,740.809 1011.5,738C 1012.06,737.617 1012.39,737.117 1012.5,736.5C 1048.73,727.274 1084.73,717.108 1120.5,706C 1135.16,698.665 1149.33,690.498 1163,681.5C 1167.51,716.048 1173.84,750.382 1182,784.5C 1183.34,797.053 1182.34,809.387 1179,821.5C 1173.16,834.177 1168.16,847.177 1164,860.5C 1161.74,875.143 1159.74,889.809 1158,904.5C 1153.67,918.175 1147,930.508 1138,941.5C 1120.87,961.627 1102.71,980.793 1083.5,999C 1074.51,1003.49 1065.84,1008.49 1057.5,1014C 1052.83,1014.67 1048.17,1014.67 1043.5,1014C 1029.03,1006.52 1015.36,997.852 1002.5,988C 992.624,978.621 982.624,969.454 972.5,960.5C 973.145,958.568 974.479,957.401 976.5,957C 983.5,956.667 990.5,956.333 997.5,956C 1009.17,954.833 1016.84,948.666 1020.5,937.5C 1035.92,933 1040.09,923.667 1033,909.5C 1025.42,901.914 1017.25,895.081 1008.5,889C 992.028,874.558 982.528,856.392 980,834.5C 978.267,811.406 975.767,788.406 972.5,765.5 Z"/></g>
<g><path style="opacity:1" fill="#9d917d" d="M 1012.5,736.5 C 1012.39,737.117 1012.06,737.617 1011.5,738C 998.982,740.809 986.316,741.975 973.5,741.5C 972.677,749.471 972.344,757.471 972.5,765.5C 971.172,757.432 971.172,749.265 972.5,741C 985.966,740.606 999.299,739.106 1012.5,736.5 Z"/></g>
<g><path style="opacity:1" fill="#2c2c2c" d="M 1112.5,1348.5 C 1099.15,1348.67 1085.82,1348.33 1072.5,1347.5C 1091.37,1277.7 1108.2,1207.36 1123,1136.5C 1127.74,1100.89 1132.07,1065.22 1136,1029.5C 1138.87,1013.35 1142.37,997.346 1146.5,981.5C 1149.26,981.256 1151.43,979.923 1153,977.5C 1155.17,968.346 1151.67,962.846 1142.5,961C 1155.65,946.511 1165.48,930.011 1172,911.5C 1174.96,894.874 1177.62,878.207 1180,861.5C 1185.93,847.387 1191.26,833.054 1196,818.5C 1197.75,808.576 1198.75,798.576 1199,788.5C 1202.85,798.39 1206.52,808.39 1210,818.5C 1214.27,830.918 1221.77,840.751 1232.5,848C 1250.36,857.214 1269.36,861.881 1289.5,862C 1298.01,873.684 1304.68,886.35 1309.5,900C 1308.36,905.275 1305.7,909.608 1301.5,913C 1288.51,922.165 1275.17,930.831 1261.5,939C 1257,942.167 1253.17,946 1250,950.5C 1248.61,955.874 1249.77,960.541 1253.5,964.5C 1262.64,969.573 1271.98,974.407 1281.5,979C 1284.96,981.463 1288.13,984.296 1291,987.5C 1292.99,992.922 1292.66,998.256 1290,1003.5C 1270.88,1042.42 1251.21,1081.08 1231,1119.5C 1202.75,1168.34 1174.75,1217.34 1147,1266.5C 1133.57,1293.03 1122.07,1320.36 1112.5,1348.5 Z"/></g>
<g><path style="opacity:1" fill="#2c2c2c" d="M 955.5,1346.5 C 950.833,1346.5 946.167,1346.5 941.5,1346.5C 919.67,1347.33 897.67,1347.83 875.5,1348C 870.5,1348.33 865.5,1348.67 860.5,1349C 858.68,1349.2 857.347,1350.03 856.5,1351.5C 853.383,1352.78 851.05,1354.95 849.5,1358C 839.884,1356.8 832.218,1359.97 826.5,1367.5C 795.861,1369.24 765.195,1369.9 734.5,1369.5C 750.06,1300.53 763.894,1231.2 776,1161.5C 778.37,1149.98 781.37,1138.65 785,1127.5C 785.954,1117.61 781.788,1114.28 772.5,1117.5C 769.135,1123.75 766.635,1130.42 765,1137.5C 750.895,1215.14 735.395,1292.47 718.5,1369.5C 707.503,1368.82 696.503,1368.66 685.5,1369C 684.672,1369.91 683.672,1370.58 682.5,1371C 673.783,1371.16 665.116,1371.83 656.5,1373C 653.334,1375 650.668,1377.5 648.5,1380.5C 639.864,1378.31 631.197,1378.14 622.5,1380C 616.963,1382.02 613.963,1385.85 613.5,1391.5C 614.873,1391.66 616.207,1391.49 617.5,1391C 619.601,1388.23 622.268,1386.23 625.5,1385C 632.528,1384.33 639.528,1384.49 646.5,1385.5C 646.5,1388.5 646.5,1391.5 646.5,1394.5C 621.683,1396.16 596.683,1397.16 571.5,1397.5C 550.905,1397.16 530.571,1398.5 510.5,1401.5C 507.14,1401.62 503.807,1401.95 500.5,1402.5C 501.209,1401.6 502.209,1401.26 503.5,1401.5C 506.009,1386.13 508.842,1370.79 512,1355.5C 531.185,1279.57 544.185,1202.57 551,1124.5C 558.262,1078.45 571.262,1034.11 590,991.5C 606.349,958.802 622.682,926.136 639,893.5C 642.333,888.833 645.667,884.167 649,879.5C 697.905,837.241 754.739,813.575 819.5,808.5C 819.663,810.857 819.497,813.19 819,815.5C 814.914,822.007 810.58,828.34 806,834.5C 803.941,838.677 802.274,843.01 801,847.5C 798.951,863.087 797.951,878.754 798,894.5C 795.79,902.795 793.79,911.128 792,919.5C 791.33,929.824 793.664,939.49 799,948.5C 798.781,957.877 802.947,964.377 811.5,968C 827.213,970.37 842.88,972.87 858.5,975.5C 860.194,977.554 861.361,979.888 862,982.5C 862.09,991.281 863.09,999.948 865,1008.5C 866.223,1012.62 868.223,1016.28 871,1019.5C 882.5,1030.33 894,1041.17 905.5,1052C 910.056,1053.97 914.722,1055.64 919.5,1057C 929.573,1057.08 939.573,1057.74 949.5,1059C 966.397,1076.33 975.564,1097.17 977,1121.5C 977.667,1144.17 977.667,1166.83 977,1189.5C 975.518,1202.25 973.518,1214.91 971,1227.5C 970.053,1247.84 969.053,1268.17 968,1288.5C 964.151,1307.94 959.984,1327.27 955.5,1346.5 Z"/></g>
<g><path style="opacity:1" fill="#2c2c2c" d="M 1637.5,1372.5 C 1604.5,1372.32 1571.5,1371.99 1538.5,1371.5C 1507.26,1370.17 1475.93,1370.17 1444.5,1371.5C 1433.97,1367.49 1423.14,1364.16 1412,1361.5C 1411.99,1346.77 1411.16,1332.1 1409.5,1317.5C 1410.05,1315.44 1411.21,1313.78 1413,1312.5C 1407.95,1270.76 1403.95,1228.76 1401,1186.5C 1399.14,1141.12 1397.14,1095.79 1395,1050.5C 1389.97,1046.22 1385.3,1046.55 1381,1051.5C 1381.24,1115.27 1384.07,1178.94 1389.5,1242.5C 1388.15,1248.57 1387.49,1254.74 1387.5,1261C 1388.74,1293.22 1390.74,1325.39 1393.5,1357.5C 1342.47,1348.53 1291.14,1346.36 1239.5,1351C 1236.22,1351.06 1233.22,1351.89 1230.5,1353.5C 1225.96,1347.59 1220.96,1347.09 1215.5,1352C 1216.06,1352.38 1216.39,1352.88 1216.5,1353.5C 1199.68,1351.11 1182.85,1348.78 1166,1346.5C 1163.83,1346.67 1161.67,1346.83 1159.5,1347C 1157.8,1348.18 1156.14,1349.34 1154.5,1350.5C 1145.78,1350.78 1137.11,1350.44 1128.5,1349.5C 1138.34,1322.49 1149.84,1296.16 1163,1270.5C 1190.75,1221.34 1218.75,1172.34 1247,1123.5C 1265.59,1087.99 1283.92,1052.32 1302,1016.5C 1303.67,1012.17 1305.33,1007.83 1307,1003.5C 1308.26,998.213 1308.6,992.88 1308,987.5C 1305.14,977.968 1299.31,970.801 1290.5,966C 1283.13,961.986 1275.8,957.986 1268.5,954C 1282.34,945.249 1296,936.249 1309.5,927C 1312.67,923.833 1315.83,920.667 1319,917.5C 1324.21,909.6 1325.88,900.933 1324,891.5C 1319,880.157 1313.5,869.157 1307.5,858.5C 1333.26,851.713 1359.26,845.88 1385.5,841C 1397.13,839.421 1408.8,838.255 1420.5,837.5C 1433.07,837.3 1444.74,840.467 1455.5,847C 1475.5,861.667 1495.5,876.333 1515.5,891C 1521.64,896.134 1527.47,901.634 1533,907.5C 1545.68,927.518 1557.35,948.185 1568,969.5C 1578.94,996.33 1590.28,1023 1602,1049.5C 1611.73,1078.7 1621.07,1108.03 1630,1137.5C 1638.11,1165.07 1641.27,1193.24 1639.5,1222C 1638.7,1253.5 1637.7,1285 1636.5,1316.5C 1636.04,1329.47 1637.04,1342.3 1639.5,1355C 1634.64,1359.7 1634.3,1364.7 1638.5,1370C 1638.26,1370.9 1637.92,1371.74 1637.5,1372.5 Z"/></g>
<g><path style="opacity:1" fill="#222723" d="M 1056.5,1346.5 C 1028.17,1346.5 999.833,1346.5 971.5,1346.5C 974.601,1333.17 977.767,1319.83 981,1306.5C 984.807,1284.67 986.473,1262.67 986,1240.5C 988.519,1222.87 990.853,1205.2 993,1187.5C 993.667,1165.17 993.667,1142.83 993,1120.5C 991.331,1093.47 981.497,1069.97 963.5,1050C 958.562,1045.7 952.896,1042.7 946.5,1041C 961.483,1032.09 967.649,1018.92 965,1001.5C 961.839,993.091 960.839,984.424 962,975.5C 962.604,973.314 963.77,973.148 965.5,975C 986.165,996.817 1009.83,1014.48 1036.5,1028C 1045.39,1030.91 1054.39,1031.25 1063.5,1029C 1073,1023.08 1082.67,1017.41 1092.5,1012C 1106.68,999.317 1120.02,985.817 1132.5,971.5C 1132.83,971.833 1133.17,972.167 1133.5,972.5C 1130.04,982.321 1127.21,992.321 1125,1002.5C 1118,1038.86 1113.33,1075.52 1111,1112.5C 1109.41,1122.19 1107.75,1131.86 1106,1141.5C 1091.22,1210.27 1074.72,1278.6 1056.5,1346.5 Z"/></g>
<g><path style="opacity:1" fill="#010120" d="M 1540.5,1008.5 C 1541.5,1008.5 1542.5,1008.5 1543.5,1008.5C 1541.43,1049.5 1541.26,1090.5 1543,1131.5C 1543.37,1136.3 1544.37,1140.97 1546,1145.5C 1549.25,1151.5 1552.09,1157.67 1554.5,1164C 1553.97,1164.69 1553.31,1165.19 1552.5,1165.5C 1548.78,1158.39 1545.28,1151.06 1542,1143.5C 1540.97,1138.22 1540.31,1132.88 1540,1127.5C 1538.43,1087.83 1538.6,1048.17 1540.5,1008.5 Z"/></g>
<g><path style="opacity:1" fill="#010120" d="M 941.5,1346.5 C 935.833,1346.5 930.167,1346.5 924.5,1346.5C 913.555,1306.5 899.721,1267.5 883,1229.5C 852.252,1168.73 810.919,1116.06 759,1071.5C 753.658,1063.25 754.492,1055.75 761.5,1049C 778.511,1038.83 795.844,1029.16 813.5,1020C 816.797,1017.7 819.797,1015.04 822.5,1012C 831.626,1009.65 835.459,1013.15 834,1022.5C 832.542,1024.96 830.709,1027.13 828.5,1029C 813.316,1038.43 797.649,1047.09 781.5,1055C 777.89,1056.94 774.557,1059.28 771.5,1062C 836.65,1117.1 884.483,1184.6 915,1264.5C 924.741,1291.56 933.574,1318.89 941.5,1346.5 Z"/></g>
<g><path style="opacity:1" fill="#020220" d="M 1444.5,1371.5 C 1429.99,1371.17 1415.66,1371.5 1401.5,1372.5C 1393.48,1372.61 1385.48,1372.28 1377.5,1371.5C 1347.17,1366.73 1316.5,1364.4 1285.5,1364.5C 1282.6,1363.11 1279.6,1361.94 1276.5,1361C 1256.31,1359.63 1236.31,1357.13 1216.5,1353.5C 1216.39,1352.88 1216.06,1352.38 1215.5,1352C 1220.96,1347.09 1225.96,1347.59 1230.5,1353.5C 1233.22,1351.89 1236.22,1351.06 1239.5,1351C 1291.14,1346.36 1342.47,1348.53 1393.5,1357.5C 1390.74,1325.39 1388.74,1293.22 1387.5,1261C 1387.49,1254.74 1388.15,1248.57 1389.5,1242.5C 1384.07,1178.94 1381.24,1115.27 1381,1051.5C 1385.3,1046.55 1389.97,1046.22 1395,1050.5C 1397.14,1095.79 1399.14,1141.12 1401,1186.5C 1403.95,1228.76 1407.95,1270.76 1413,1312.5C 1411.21,1313.78 1410.05,1315.44 1409.5,1317.5C 1411.16,1332.1 1411.99,1346.77 1412,1361.5C 1423.14,1364.16 1433.97,1367.49 1444.5,1371.5 Z"/></g>
<g><path style="opacity:1" fill="#020220" d="M 1598.5,1082.5 C 1599.5,1082.5 1600.5,1082.5 1601.5,1082.5C 1597.6,1103.05 1591.76,1123.05 1584,1142.5C 1581.33,1152.17 1578.83,1161.83 1576.5,1171.5C 1575.28,1171.11 1574.61,1170.28 1574.5,1169C 1578.92,1148.75 1584.75,1128.92 1592,1109.5C 1594.64,1100.6 1596.81,1091.6 1598.5,1082.5 Z"/></g>
<g><path style="opacity:1" fill="#010120" d="M 734.5,1369.5 C 729.167,1369.5 723.833,1369.5 718.5,1369.5C 735.395,1292.47 750.895,1215.14 765,1137.5C 766.635,1130.42 769.135,1123.75 772.5,1117.5C 781.788,1114.28 785.954,1117.61 785,1127.5C 781.37,1138.65 778.37,1149.98 776,1161.5C 763.894,1231.2 750.06,1300.53 734.5,1369.5 Z"/></g>
<g><path style="opacity:1" fill="#020220" d="M 1489.5,1321.5 C 1491.23,1321.84 1491.73,1322.84 1491,1324.5C 1474.68,1331.41 1458.18,1337.91 1441.5,1344C 1433.38,1346.85 1425.05,1347.85 1416.5,1347C 1413.39,1346.15 1413.05,1344.98 1415.5,1343.5C 1422.94,1344.97 1430.27,1344.47 1437.5,1342C 1455.21,1335.83 1472.54,1328.99 1489.5,1321.5 Z"/></g>
<g><path style="opacity:1" fill="#020220" d="M 1525.5,1339.5 C 1527.6,1339.2 1529.6,1339.53 1531.5,1340.5C 1518.67,1345.39 1505.67,1350.23 1492.5,1355C 1475.21,1356.16 1458.87,1360.66 1443.5,1368.5C 1442.69,1368.19 1442.03,1367.69 1441.5,1367C 1446.94,1362.95 1452.94,1359.95 1459.5,1358C 1471.5,1355.67 1483.5,1353.33 1495.5,1351C 1505.49,1346.84 1515.49,1343.01 1525.5,1339.5 Z"/></g>
<g><path style="opacity:1" fill="#c06f14" d="M 941.5,1346.5 C 946.167,1346.5 950.833,1346.5 955.5,1346.5C 960.833,1346.5 966.167,1346.5 971.5,1346.5C 999.833,1346.5 1028.17,1346.5 1056.5,1346.5C 1061.64,1347.49 1066.97,1347.82 1072.5,1347.5C 1085.82,1348.33 1099.15,1348.67 1112.5,1348.5C 1117.64,1349.49 1122.97,1349.82 1128.5,1349.5C 1137.11,1350.44 1145.78,1350.78 1154.5,1350.5C 1149.34,1351.17 1144.01,1351.5 1138.5,1351.5C 1083.7,1349.09 1028.87,1348.09 974,1348.5C 943.167,1348.67 912.333,1348.83 881.5,1349C 873.132,1349.76 864.799,1350.59 856.5,1351.5C 857.347,1350.03 858.68,1349.2 860.5,1349C 865.5,1348.67 870.5,1348.33 875.5,1348C 897.67,1347.83 919.67,1347.33 941.5,1346.5 Z"/></g>
<g><path style="opacity:0.993" fill="#ef850d" d="M 1216.5,1353.5 C 1236.31,1357.13 1256.31,1359.63 1276.5,1361C 1279.6,1361.94 1282.6,1363.11 1285.5,1364.5C 1285.95,1365.46 1286.62,1366.29 1287.5,1367C 1290.48,1367.5 1293.48,1367.66 1296.5,1367.5C 1314.98,1369.19 1333.64,1370.19 1352.5,1370.5C 1360.65,1371.49 1368.98,1371.83 1377.5,1371.5C 1385.48,1372.28 1393.48,1372.61 1401.5,1372.5C 1416.5,1372.5 1431.5,1372.5 1446.5,1372.5C 1512.17,1372.82 1577.84,1373.49 1643.5,1374.5C 1647.4,1375.76 1651.07,1377.43 1654.5,1379.5C 1658.77,1387.7 1658.43,1395.7 1653.5,1403.5C 1652.64,1404.43 1651.64,1405.09 1650.5,1405.5C 1647.17,1406.5 1643.83,1407.5 1640.5,1408.5C 1615.5,1408.5 1590.5,1408.5 1565.5,1408.5C 1560.69,1399.74 1553.69,1393.24 1544.5,1389C 1530.53,1386.3 1521.7,1391.8 1518,1405.5C 1516.97,1410.89 1517.97,1415.89 1521,1420.5C 1528.92,1428.41 1533.09,1438.08 1533.5,1449.5C 1533.5,1450.83 1533.5,1452.17 1533.5,1453.5C 1516.5,1453.5 1499.5,1453.5 1482.5,1453.5C 1463.58,1443.83 1443.58,1440.67 1422.5,1444C 1417.29,1446.25 1413.79,1450.08 1412,1455.5C 1402.92,1462.58 1395.25,1470.91 1389,1480.5C 1386.38,1485.98 1385.88,1491.65 1387.5,1497.5C 1383.29,1497.08 1379.29,1497.74 1375.5,1499.5C 1375.17,1499.17 1374.83,1498.83 1374.5,1498.5C 1368.55,1483.05 1361.05,1468.38 1352,1454.5C 1340.2,1442.11 1327.03,1440.28 1312.5,1449C 1303.41,1458.01 1297.58,1468.84 1295,1481.5C 1291.03,1498.37 1287.69,1515.37 1285,1532.5C 1282.94,1534.9 1281.27,1537.57 1280,1540.5C 1279.39,1547.25 1279.89,1553.91 1281.5,1560.5C 1281.13,1566.58 1280.29,1572.58 1279,1578.5C 1259.54,1526.79 1240.88,1474.79 1223,1422.5C 1220.09,1413.94 1215.25,1406.78 1208.5,1401C 1190.73,1393.63 1178.9,1399.13 1173,1417.5C 1170.52,1427.36 1169.02,1437.36 1168.5,1447.5C 1166.35,1463.64 1164.68,1479.97 1163.5,1496.5C 1162.72,1510.83 1161.89,1525.16 1161,1539.5C 1151.09,1511.44 1139.42,1484.11 1126,1457.5C 1121.97,1448.93 1115.81,1442.43 1107.5,1438C 1093.11,1433.35 1082.61,1437.85 1076,1451.5C 1074.27,1456.35 1073.27,1461.35 1073,1466.5C 1072.08,1504.86 1072.58,1543.19 1074.5,1581.5C 1074.69,1590.35 1075.36,1599.02 1076.5,1607.5C 1077.39,1620.38 1079.56,1633.05 1083,1645.5C 1090.33,1658.09 1100.5,1660.92 1113.5,1654C 1120.4,1649.36 1123.4,1642.86 1122.5,1634.5C 1121.37,1626.18 1120.37,1617.84 1119.5,1609.5C 1119.56,1604.27 1118.89,1599.27 1117.5,1594.5C 1117.5,1591.17 1117.5,1587.83 1117.5,1584.5C 1117.17,1570.99 1117.17,1557.65 1117.5,1544.5C 1127.29,1570.36 1136.79,1596.36 1146,1622.5C 1149.27,1632.22 1154.44,1640.72 1161.5,1648C 1181.82,1656.67 1194.49,1650.17 1199.5,1628.5C 1200.22,1628.08 1200.72,1627.42 1201,1626.5C 1202.11,1616.53 1202.61,1606.53 1202.5,1596.5C 1202.5,1591.83 1202.5,1587.17 1202.5,1582.5C 1204.2,1565.36 1204.87,1548.03 1204.5,1530.5C 1204.32,1521.13 1204.82,1511.8 1206,1502.5C 1216.33,1530.5 1226.67,1558.5 1237,1586.5C 1243.75,1605.18 1249.42,1624.18 1254,1643.5C 1259.01,1662.59 1270.51,1668.09 1288.5,1660C 1293.23,1656.7 1296.07,1652.2 1297,1646.5C 1297.67,1639.83 1297.67,1633.17 1297,1626.5C 1295.74,1622.98 1293.74,1619.98 1291,1617.5C 1289.33,1612.15 1288,1606.82 1287,1601.5C 1297.79,1608.85 1307.79,1607.85 1317,1598.5C 1319.15,1595.87 1320.48,1592.87 1321,1589.5C 1321.56,1580.54 1322.72,1571.71 1324.5,1563C 1333.75,1560.79 1343.08,1559.46 1352.5,1559C 1359.38,1575.33 1365.88,1591.83 1372,1608.5C 1379.66,1622.06 1390.49,1625.23 1404.5,1618C 1408.93,1614.91 1411.76,1610.74 1413,1605.5C 1414.72,1594.85 1413.05,1584.85 1408,1575.5C 1406.62,1573.79 1404.96,1572.45 1403,1571.5C 1399.44,1561.38 1395.61,1551.38 1391.5,1541.5C 1396.2,1536.96 1400.37,1531.96 1404,1526.5C 1405.7,1521.87 1405.86,1517.2 1404.5,1512.5C 1408.16,1511.69 1411.83,1511.02 1415.5,1510.5C 1415.5,1517.17 1415.5,1523.83 1415.5,1530.5C 1416.41,1556.51 1417.57,1582.51 1419,1608.5C 1419.83,1580.33 1419.66,1552.33 1418.5,1524.5C 1418.8,1517.41 1418.46,1510.41 1417.5,1503.5C 1417.56,1498.27 1416.89,1493.27 1415.5,1488.5C 1415.63,1484.11 1414.13,1480.44 1411,1477.5C 1409.83,1473.32 1411.33,1470.48 1415.5,1469C 1434.57,1461.94 1453.9,1460.94 1473.5,1466C 1488.46,1472.09 1493.63,1482.93 1489,1498.5C 1483.19,1512.31 1473.36,1522.14 1459.5,1528C 1453.9,1530.2 1448.23,1532.2 1442.5,1534C 1452.39,1539.89 1461.72,1546.56 1470.5,1554C 1495.1,1578.26 1518.6,1603.43 1541,1629.5C 1541.92,1637.25 1538.76,1639.75 1531.5,1637C 1511.9,1614.07 1491.57,1591.73 1470.5,1570C 1459.37,1558.61 1446.7,1549.44 1432.5,1542.5C 1432.44,1541.96 1432.11,1541.62 1431.5,1541.5C 1430.17,1565.66 1430.17,1589.66 1431.5,1613.5C 1433.31,1621.7 1430.31,1624.7 1422.5,1622.5C 1422.17,1623 1421.83,1623.5 1421.5,1624C 1428.79,1639.66 1440.13,1643.33 1455.5,1635C 1461.8,1629.06 1465.13,1621.73 1465.5,1613C 1465.33,1609.13 1464.16,1605.63 1462,1602.5C 1460.5,1593.51 1460.33,1584.51 1461.5,1575.5C 1484.72,1596.87 1505.55,1620.21 1524,1645.5C 1530.73,1653.9 1538.89,1660.4 1548.5,1665C 1559.35,1667.17 1568.52,1664.34 1576,1656.5C 1587.03,1666.75 1598.37,1667.09 1610,1657.5C 1613.01,1652.98 1614.51,1647.98 1614.5,1642.5C 1611.16,1627.49 1607.66,1612.49 1604,1597.5C 1602.67,1592.54 1602.01,1587.54 1602,1582.5C 1634.14,1608.81 1666.97,1634.15 1700.5,1658.5C 1702.68,1659.93 1705.18,1660.59 1708,1660.5C 1709.71,1660.49 1711.21,1660.16 1712.5,1659.5C 1721.96,1658.21 1727.8,1652.87 1730,1643.5C 1730.67,1639.5 1730.67,1635.5 1730,1631.5C 1727.68,1626.86 1725.35,1622.2 1723,1617.5C 1717.76,1610.96 1710.92,1607.8 1702.5,1608C 1669.97,1583.81 1638.3,1558.47 1607.5,1532C 1605.11,1529.95 1603.11,1527.62 1601.5,1525C 1612.36,1504.11 1623.86,1483.61 1636,1463.5C 1648.24,1458.56 1654.07,1449.4 1653.5,1436C 1653.32,1431.12 1651.99,1426.62 1649.5,1422.5C 1649.5,1421.83 1649.83,1421.5 1650.5,1421.5C 1683.63,1422.78 1716.63,1425.61 1749.5,1430C 1762.99,1430.5 1774.15,1435.67 1783,1445.5C 1784.74,1451.8 1784.91,1458.13 1783.5,1464.5C 1784.67,1464.83 1785.83,1465.17 1787,1465.5C 1815.43,1462.63 1843.93,1461.47 1872.5,1462C 1885.04,1468.6 1888.37,1478.44 1882.5,1491.5C 1880.1,1495.2 1876.77,1497.7 1872.5,1499C 1866.5,1499.33 1860.5,1499.67 1854.5,1500C 1860.86,1510.74 1859.52,1520.41 1850.5,1529C 1846.47,1531.45 1842.14,1533.12 1837.5,1534C 1847.71,1536.52 1857.71,1539.85 1867.5,1544C 1872.42,1546.92 1876.75,1550.58 1880.5,1555C 1888.85,1554.61 1897.18,1553.78 1905.5,1552.5C 1920.37,1554.19 1926.53,1562.53 1924,1577.5C 1921.9,1583.27 1918.07,1587.43 1912.5,1590C 1900.1,1592.15 1887.76,1594.48 1875.5,1597C 1858.05,1597.01 1840.72,1598.34 1823.5,1601C 1803.51,1601.82 1783.51,1602.49 1763.5,1603C 1772.79,1606.89 1780.96,1612.39 1788,1619.5C 1797.93,1636.33 1794.76,1650.16 1778.5,1661C 1760.25,1668.58 1741.25,1673.25 1721.5,1675C 1676.96,1679.93 1632.29,1683.26 1587.5,1685C 1596.82,1685.16 1602.82,1689.66 1605.5,1698.5C 1620.44,1699.78 1635.1,1702.44 1649.5,1706.5C 1657.04,1712.42 1659.54,1720.09 1657,1729.5C 1650.89,1741.08 1641.39,1744.91 1628.5,1741C 1616.87,1738.95 1605.2,1737.12 1593.5,1735.5C 1589.91,1737.3 1586.24,1739.13 1582.5,1741C 1580.17,1741.17 1577.83,1741.33 1575.5,1741.5C 1534.6,1734.97 1493.6,1729.13 1452.5,1724C 1398.51,1722.87 1344.51,1722.2 1290.5,1722C 1285.96,1719.8 1281.96,1716.8 1278.5,1713C 1255.5,1713.3 1232.5,1712.8 1209.5,1711.5C 1197.84,1712.67 1186.17,1713.83 1174.5,1715C 1189.51,1720.39 1194.35,1730.55 1189,1745.5C 1181.58,1754.63 1172.42,1756.8 1161.5,1752C 1122.67,1734.5 1083.01,1719.17 1042.5,1706C 1009.51,1704.52 976.511,1703.85 943.5,1704C 894.83,1707.64 846.163,1710.97 797.5,1714C 794.114,1712.97 791.448,1710.97 789.5,1708C 746.796,1709.72 704.129,1712.38 661.5,1716C 654.833,1716.67 648.167,1716.67 641.5,1716C 637.967,1714.39 634.967,1712.06 632.5,1709C 627.295,1708.76 622.128,1708.26 617,1707.5C 614.138,1705.4 611.471,1703.07 609,1700.5C 607.857,1692.08 606.691,1683.74 605.5,1675.5C 563.136,1676.46 520.803,1678.29 478.5,1681C 459.833,1681.67 441.167,1681.67 422.5,1681C 420.122,1680.49 417.788,1679.82 415.5,1679C 413.317,1676.65 410.984,1674.48 408.5,1672.5C 406.609,1669.06 405.609,1665.39 405.5,1661.5C 379.498,1661.67 353.498,1661.5 327.5,1661C 308.745,1658.22 302.245,1647.72 308,1629.5C 310.5,1627 313,1624.5 315.5,1622C 318.833,1620.67 322.167,1619.33 325.5,1618C 306.913,1617.56 288.58,1615.23 270.5,1611C 252.679,1605.54 245.179,1593.71 248,1575.5C 249.617,1571.1 252.117,1567.27 255.5,1564C 233.999,1565.38 212.666,1568.21 191.5,1572.5C 187.589,1572.7 183.922,1571.87 180.5,1570C 177.976,1567.55 175.643,1564.89 173.5,1562C 170.05,1551.32 172.717,1542.66 181.5,1536C 205.854,1530.16 230.52,1526.33 255.5,1524.5C 255.334,1520.49 255.501,1516.49 256,1512.5C 256.346,1510.15 257.513,1508.32 259.5,1507C 246.92,1509.72 237.754,1505.55 232,1494.5C 229.596,1477.9 236.763,1469.07 253.5,1468C 286.134,1465.28 318.8,1463.11 351.5,1461.5C 352.376,1461.37 353.043,1461.7 353.5,1462.5C 330.272,1499.08 322.106,1538.74 329,1581.5C 344.176,1638.49 380.676,1661.66 438.5,1651C 479.135,1637.28 504.302,1609.44 514,1567.5C 517.684,1543.72 517.184,1520.05 512.5,1496.5C 514.635,1494.63 517.302,1493.96 520.5,1494.5C 521.976,1526.7 521.476,1559.03 519,1591.5C 517.033,1600.4 514.866,1609.23 512.5,1618C 516.506,1636.84 527.506,1642.84 545.5,1636C 552.149,1629.54 556.316,1621.7 558,1612.5C 559.957,1600.75 561.457,1589.08 562.5,1577.5C 563.314,1575.37 563.814,1573.04 564,1570.5C 564.5,1561.51 564.666,1552.51 564.5,1543.5C 567.228,1543.83 569.562,1543.16 571.5,1541.5C 583.698,1538.37 596.031,1535.7 608.5,1533.5C 608.333,1559.5 608.5,1585.5 609,1611.5C 611.031,1621.36 616.864,1627.36 626.5,1629.5C 629.64,1630.64 632.973,1630.81 636.5,1630C 638.32,1629.8 639.653,1628.97 640.5,1627.5C 645.704,1624.13 649.204,1619.46 651,1613.5C 651.333,1580.17 651.667,1546.83 652,1513.5C 654.71,1505.29 653.71,1497.62 649,1490.5C 647.731,1473.08 645.731,1455.75 643,1438.5C 642.847,1430.83 642.847,1423.16 643,1415.5C 635.118,1400.09 623.618,1396.59 608.5,1405C 604.007,1408.83 601.174,1413.67 600,1419.5C 599.505,1428.88 600.005,1438.22 601.5,1447.5C 601.444,1452.73 602.111,1457.73 603.5,1462.5C 603.444,1467.73 604.111,1472.73 605.5,1477.5C 606.051,1480.81 606.384,1484.14 606.5,1487.5C 597.838,1487.93 589.171,1488.26 580.5,1488.5C 574.833,1488.5 569.167,1488.5 563.5,1488.5C 563.822,1482.64 563.489,1476.98 562.5,1471.5C 562.667,1455.5 562.5,1439.5 562,1423.5C 555.906,1410.8 546.072,1406.63 532.5,1411C 526.92,1413.98 523.087,1418.48 521,1424.5C 520.5,1446.5 520.333,1468.5 520.5,1490.5C 517.167,1490.5 513.833,1490.5 510.5,1490.5C 501.575,1458.96 484.408,1432.96 459,1412.5C 458.517,1411.55 458.351,1410.55 458.5,1409.5C 467.319,1406.71 476.319,1404.71 485.5,1403.5C 486.097,1404.14 486.93,1404.47 488,1404.5C 492.04,1403.04 496.207,1402.38 500.5,1402.5C 503.807,1401.95 507.14,1401.62 510.5,1401.5C 538.67,1400.51 566.67,1399.17 594.5,1397.5C 612.167,1397.5 629.833,1397.5 647.5,1397.5C 647.737,1396.21 647.404,1395.21 646.5,1394.5C 646.5,1391.5 646.5,1388.5 646.5,1385.5C 647.441,1383.95 648.107,1382.28 648.5,1380.5C 650.668,1377.5 653.334,1375 656.5,1373C 665.116,1371.83 673.783,1371.16 682.5,1371C 683.672,1370.58 684.672,1369.91 685.5,1369C 696.503,1368.66 707.503,1368.82 718.5,1369.5C 723.833,1369.5 729.167,1369.5 734.5,1369.5C 765.195,1369.9 795.861,1369.24 826.5,1367.5C 832.218,1359.97 839.884,1356.8 849.5,1358C 851.05,1354.95 853.383,1352.78 856.5,1351.5C 864.799,1350.59 873.132,1349.76 881.5,1349C 912.333,1348.83 943.167,1348.67 974,1348.5C 1028.87,1348.09 1083.7,1349.09 1138.5,1351.5C 1144.01,1351.5 1149.34,1351.17 1154.5,1350.5C 1156.14,1349.34 1157.8,1348.18 1159.5,1347C 1161.67,1346.83 1163.83,1346.67 1166,1346.5C 1182.85,1348.78 1199.68,1351.11 1216.5,1353.5 Z"/></g>
<g><path style="opacity:1" fill="#312d2b" d="M 1285.5,1364.5 C 1316.5,1364.4 1347.17,1366.73 1377.5,1371.5C 1368.98,1371.83 1360.65,1371.49 1352.5,1370.5C 1334.03,1368.78 1315.36,1367.78 1296.5,1367.5C 1293.48,1367.66 1290.48,1367.5 1287.5,1367C 1286.62,1366.29 1285.95,1365.46 1285.5,1364.5 Z"/></g>
<g><path style="opacity:1" fill="#694823" d="M 1296.5,1367.5 C 1315.36,1367.78 1334.03,1368.78 1352.5,1370.5C 1333.64,1370.19 1314.98,1369.19 1296.5,1367.5 Z"/></g>
<g><path style="opacity:1" fill="#624222" d="M 1538.5,1371.5 C 1507.66,1371.17 1477,1371.5 1446.5,1372.5C 1431.5,1372.5 1416.5,1372.5 1401.5,1372.5C 1415.66,1371.5 1429.99,1371.17 1444.5,1371.5C 1475.93,1370.17 1507.26,1370.17 1538.5,1371.5 Z"/></g>
<g><path style="opacity:1" fill="#d37810" d="M 1446.5,1372.5 C 1477,1371.5 1507.66,1371.17 1538.5,1371.5C 1571.5,1371.99 1604.5,1372.32 1637.5,1372.5C 1639.9,1372.26 1641.9,1372.93 1643.5,1374.5C 1577.84,1373.49 1512.17,1372.82 1446.5,1372.5 Z"/></g>
<g><path style="opacity:1" fill="#040320" d="M 648.5,1380.5 C 648.107,1382.28 647.441,1383.95 646.5,1385.5C 639.528,1384.49 632.528,1384.33 625.5,1385C 622.268,1386.23 619.601,1388.23 617.5,1391C 616.207,1391.49 614.873,1391.66 613.5,1391.5C 613.963,1385.85 616.963,1382.02 622.5,1380C 631.197,1378.14 639.864,1378.31 648.5,1380.5 Z"/></g>
<g><path style="opacity:1" fill="#1f0eec" d="M 1565.5,1408.5 C 1567.58,1412.42 1569.24,1416.42 1570.5,1420.5C 1574.96,1437.96 1578.46,1455.63 1581,1473.5C 1591.09,1455.63 1601.93,1438.3 1613.5,1421.5C 1616.9,1416.8 1621.56,1414.14 1627.5,1413.5C 1636.26,1412.98 1643.59,1415.98 1649.5,1422.5C 1651.99,1426.62 1653.32,1431.12 1653.5,1436C 1654.07,1449.4 1648.24,1458.56 1636,1463.5C 1623.86,1483.61 1612.36,1504.11 1601.5,1525C 1603.11,1527.62 1605.11,1529.95 1607.5,1532C 1638.3,1558.47 1669.97,1583.81 1702.5,1608C 1710.92,1607.8 1717.76,1610.96 1723,1617.5C 1725.35,1622.2 1727.68,1626.86 1730,1631.5C 1730.67,1635.5 1730.67,1639.5 1730,1643.5C 1727.8,1652.87 1721.96,1658.21 1712.5,1659.5C 1708.47,1659.5 1704.47,1659.16 1700.5,1658.5C 1666.97,1634.15 1634.14,1608.81 1602,1582.5C 1602.01,1587.54 1602.67,1592.54 1604,1597.5C 1607.66,1612.49 1611.16,1627.49 1614.5,1642.5C 1614.51,1647.98 1613.01,1652.98 1610,1657.5C 1598.37,1667.09 1587.03,1666.75 1576,1656.5C 1568.52,1664.34 1559.35,1667.17 1548.5,1665C 1538.89,1660.4 1530.73,1653.9 1524,1645.5C 1505.55,1620.21 1484.72,1596.87 1461.5,1575.5C 1460.33,1584.51 1460.5,1593.51 1462,1602.5C 1464.16,1605.63 1465.33,1609.13 1465.5,1613C 1465.13,1621.73 1461.8,1629.06 1455.5,1635C 1440.13,1643.33 1428.79,1639.66 1421.5,1624C 1421.83,1623.5 1422.17,1623 1422.5,1622.5C 1430.31,1624.7 1433.31,1621.7 1431.5,1613.5C 1431.17,1589.66 1431.5,1565.99 1432.5,1542.5C 1446.7,1549.44 1459.37,1558.61 1470.5,1570C 1491.57,1591.73 1511.9,1614.07 1531.5,1637C 1538.76,1639.75 1541.92,1637.25 1541,1629.5C 1518.6,1603.43 1495.1,1578.26 1470.5,1554C 1461.72,1546.56 1452.39,1539.89 1442.5,1534C 1448.23,1532.2 1453.9,1530.2 1459.5,1528C 1473.36,1522.14 1483.19,1512.31 1489,1498.5C 1493.63,1482.93 1488.46,1472.09 1473.5,1466C 1453.9,1460.94 1434.57,1461.94 1415.5,1469C 1411.33,1470.48 1409.83,1473.32 1411,1477.5C 1414.13,1480.44 1415.63,1484.11 1415.5,1488.5C 1415.75,1493.51 1416.08,1498.51 1416.5,1503.5C 1416.8,1506.06 1416.47,1508.39 1415.5,1510.5C 1411.83,1511.02 1408.16,1511.69 1404.5,1512.5C 1405.86,1517.2 1405.7,1521.87 1404,1526.5C 1400.37,1531.96 1396.2,1536.96 1391.5,1541.5C 1395.61,1551.38 1399.44,1561.38 1403,1571.5C 1404.96,1572.45 1406.62,1573.79 1408,1575.5C 1413.05,1584.85 1414.72,1594.85 1413,1605.5C 1411.76,1610.74 1408.93,1614.91 1404.5,1618C 1390.49,1625.23 1379.66,1622.06 1372,1608.5C 1365.88,1591.83 1359.38,1575.33 1352.5,1559C 1343.08,1559.46 1333.75,1560.79 1324.5,1563C 1322.72,1571.71 1321.56,1580.54 1321,1589.5C 1320.48,1592.87 1319.15,1595.87 1317,1598.5C 1307.79,1607.85 1297.79,1608.85 1287,1601.5C 1288,1606.82 1289.33,1612.15 1291,1617.5C 1293.74,1619.98 1295.74,1622.98 1297,1626.5C 1297.67,1633.17 1297.67,1639.83 1297,1646.5C 1296.07,1652.2 1293.23,1656.7 1288.5,1660C 1270.51,1668.09 1259.01,1662.59 1254,1643.5C 1249.42,1624.18 1243.75,1605.18 1237,1586.5C 1226.67,1558.5 1216.33,1530.5 1206,1502.5C 1204.82,1511.8 1204.32,1521.13 1204.5,1530.5C 1202.77,1547.63 1202.11,1564.97 1202.5,1582.5C 1202.5,1587.17 1202.5,1591.83 1202.5,1596.5C 1201.32,1607.01 1200.32,1617.67 1199.5,1628.5C 1194.49,1650.17 1181.82,1656.67 1161.5,1648C 1154.44,1640.72 1149.27,1632.22 1146,1622.5C 1136.79,1596.36 1127.29,1570.36 1117.5,1544.5C 1117.29,1543.08 1116.79,1541.74 1116,1540.5C 1115.35,1555.36 1115.85,1570.02 1117.5,1584.5C 1117.5,1587.83 1117.5,1591.17 1117.5,1594.5C 1117.3,1599.75 1117.97,1604.75 1119.5,1609.5C 1120.37,1617.84 1121.37,1626.18 1122.5,1634.5C 1123.4,1642.86 1120.4,1649.36 1113.5,1654C 1100.5,1660.92 1090.33,1658.09 1083,1645.5C 1079.56,1633.05 1077.39,1620.38 1076.5,1607.5C 1076.8,1598.61 1076.14,1589.94 1074.5,1581.5C 1072.58,1543.19 1072.08,1504.86 1073,1466.5C 1073.27,1461.35 1074.27,1456.35 1076,1451.5C 1082.61,1437.85 1093.11,1433.35 1107.5,1438C 1115.81,1442.43 1121.97,1448.93 1126,1457.5C 1139.42,1484.11 1151.09,1511.44 1161,1539.5C 1161.89,1525.16 1162.72,1510.83 1163.5,1496.5C 1164.26,1494.26 1165.1,1491.93 1166,1489.5C 1167.39,1475.53 1168.22,1461.53 1168.5,1447.5C 1169.02,1437.36 1170.52,1427.36 1173,1417.5C 1178.9,1399.13 1190.73,1393.63 1208.5,1401C 1215.25,1406.78 1220.09,1413.94 1223,1422.5C 1240.88,1474.79 1259.54,1526.79 1279,1578.5C 1280.29,1572.58 1281.13,1566.58 1281.5,1560.5C 1279.89,1553.91 1279.39,1547.25 1280,1540.5C 1281.27,1537.57 1282.94,1534.9 1285,1532.5C 1287.69,1515.37 1291.03,1498.37 1295,1481.5C 1297.58,1468.84 1303.41,1458.01 1312.5,1449C 1327.03,1440.28 1340.2,1442.11 1352,1454.5C 1361.05,1468.38 1368.55,1483.05 1374.5,1498.5C 1374.83,1498.83 1375.17,1499.17 1375.5,1499.5C 1379.29,1497.74 1383.29,1497.08 1387.5,1497.5C 1385.88,1491.65 1386.38,1485.98 1389,1480.5C 1395.25,1470.91 1402.92,1462.58 1412,1455.5C 1413.79,1450.08 1417.29,1446.25 1422.5,1444C 1443.58,1440.67 1463.58,1443.83 1482.5,1453.5C 1484.14,1454.8 1485.81,1456.14 1487.5,1457.5C 1508.12,1474.64 1512.62,1495.31 1501,1519.5C 1496.08,1526.43 1489.91,1531.93 1482.5,1536C 1503.08,1556.41 1522.75,1577.58 1541.5,1599.5C 1542.51,1600.87 1543.51,1602.2 1544.5,1603.5C 1548.83,1608.83 1553.17,1614.17 1557.5,1619.5C 1559.95,1620.47 1562.61,1620.81 1565.5,1620.5C 1565.77,1618.9 1565.43,1617.57 1564.5,1616.5C 1564.15,1612.09 1563.31,1607.75 1562,1603.5C 1561.62,1602.94 1561.12,1602.61 1560.5,1602.5C 1561.49,1600.67 1561.49,1599 1560.5,1597.5C 1558.99,1587.45 1557.16,1577.45 1555,1567.5C 1545.07,1558.47 1542.9,1547.81 1548.5,1535.5C 1545.42,1529.67 1542.59,1523.67 1540,1517.5C 1539.78,1511.52 1540.62,1505.69 1542.5,1500C 1540.65,1486.4 1538.32,1472.9 1535.5,1459.5C 1534.99,1456.02 1534.32,1452.68 1533.5,1449.5C 1533.09,1438.08 1528.92,1428.41 1521,1420.5C 1517.97,1415.89 1516.97,1410.89 1518,1405.5C 1521.7,1391.8 1530.53,1386.3 1544.5,1389C 1553.69,1393.24 1560.69,1399.74 1565.5,1408.5 Z"/></g>
<g><path style="opacity:1" fill="#80531e" d="M 646.5,1394.5 C 647.404,1395.21 647.737,1396.21 647.5,1397.5C 629.833,1397.5 612.167,1397.5 594.5,1397.5C 586.833,1397.5 579.167,1397.5 571.5,1397.5C 596.683,1397.16 621.683,1396.16 646.5,1394.5 Z"/></g>
<g><path style="opacity:0.997" fill="#210feb" d="M 458.5,1409.5 C 458.351,1410.55 458.517,1411.55 459,1412.5C 484.408,1432.96 501.575,1458.96 510.5,1490.5C 511.048,1492.63 511.715,1494.63 512.5,1496.5C 517.184,1520.05 517.684,1543.72 514,1567.5C 504.302,1609.44 479.135,1637.28 438.5,1651C 380.676,1661.66 344.176,1638.49 329,1581.5C 322.106,1538.74 330.272,1499.08 353.5,1462.5C 353.043,1461.7 352.376,1461.37 351.5,1461.5C 352.833,1459.5 354.167,1457.5 355.5,1455.5C 361.095,1451.06 365.928,1445.73 370,1439.5C 377.112,1431.38 385.112,1424.38 394,1418.5C 394.692,1417.56 394.525,1416.9 393.5,1416.5C 397.602,1413.61 401.935,1410.94 406.5,1408.5C 414.697,1397.62 425.364,1394.46 438.5,1399C 445.636,1401.73 452.302,1405.23 458.5,1409.5 Z M 419.5,1454.5 C 423.375,1454.08 427.042,1454.58 430.5,1456C 425.898,1457.12 421.232,1457.62 416.5,1457.5C 417.306,1456.27 418.306,1455.27 419.5,1454.5 Z"/></g>
<g><path style="opacity:1" fill="#c37115" d="M 571.5,1397.5 C 579.167,1397.5 586.833,1397.5 594.5,1397.5C 566.67,1399.17 538.67,1400.51 510.5,1401.5C 530.571,1398.5 550.905,1397.16 571.5,1397.5 Z"/></g>
<g><path style="opacity:1" fill="#2410ea" d="M 640.5,1627.5 C 635.993,1629.11 631.327,1629.78 626.5,1629.5C 616.864,1627.36 611.031,1621.36 609,1611.5C 608.5,1585.5 608.333,1559.5 608.5,1533.5C 596.031,1535.7 583.698,1538.37 571.5,1541.5C 568.833,1541.83 566.167,1542.17 563.5,1542.5C 563,1554.16 562.667,1565.83 562.5,1577.5C 561.457,1589.08 559.957,1600.75 558,1612.5C 556.316,1621.7 552.149,1629.54 545.5,1636C 527.506,1642.84 516.506,1636.84 512.5,1618C 514.866,1609.23 517.033,1600.4 519,1591.5C 521.476,1559.03 521.976,1526.7 520.5,1494.5C 520.5,1493.17 520.5,1491.83 520.5,1490.5C 520.333,1468.5 520.5,1446.5 521,1424.5C 523.087,1418.48 526.92,1413.98 532.5,1411C 546.072,1406.63 555.906,1410.8 562,1423.5C 562.5,1439.5 562.667,1455.5 562.5,1471.5C 562.174,1480.35 562.507,1489.02 563.5,1497.5C 563.962,1498.88 564.962,1499.55 566.5,1499.5C 573.729,1497.32 581.062,1495.65 588.5,1494.5C 590.117,1493.96 591.784,1493.63 593.5,1493.5C 597.031,1492.24 600.698,1491.41 604.5,1491C 605.973,1490.29 606.64,1489.12 606.5,1487.5C 606.384,1484.14 606.051,1480.81 605.5,1477.5C 605.556,1472.27 604.889,1467.27 603.5,1462.5C 603.556,1457.27 602.889,1452.27 601.5,1447.5C 600.005,1438.22 599.505,1428.88 600,1419.5C 601.174,1413.67 604.007,1408.83 608.5,1405C 623.618,1396.59 635.118,1400.09 643,1415.5C 642.847,1423.16 642.847,1430.83 643,1438.5C 645.731,1455.75 647.731,1473.08 649,1490.5C 653.71,1497.62 654.71,1505.29 652,1513.5C 651.667,1546.83 651.333,1580.17 651,1613.5C 649.204,1619.46 645.704,1624.13 640.5,1627.5 Z"/></g>
<g><path style="opacity:0.932" fill="#080426" d="M 1650.5,1405.5 C 1650.5,1410.83 1650.5,1416.17 1650.5,1421.5C 1649.83,1421.5 1649.5,1421.83 1649.5,1422.5C 1643.59,1415.98 1636.26,1412.98 1627.5,1413.5C 1629.26,1412.54 1631.26,1412.21 1633.5,1412.5C 1633.5,1411.5 1633.5,1410.5 1633.5,1409.5C 1636.06,1409.8 1638.39,1409.47 1640.5,1408.5C 1643.83,1407.5 1647.17,1406.5 1650.5,1405.5 Z"/></g>
<g><path style="opacity:1" fill="#312e2d" d="M 1565.5,1408.5 C 1590.5,1408.5 1615.5,1408.5 1640.5,1408.5C 1638.39,1409.47 1636.06,1409.8 1633.5,1409.5C 1633.5,1410.5 1633.5,1411.5 1633.5,1412.5C 1631.26,1412.21 1629.26,1412.54 1627.5,1413.5C 1621.56,1414.14 1616.9,1416.8 1613.5,1421.5C 1602.84,1420.52 1592.01,1419.85 1581,1419.5C 1577.32,1419.5 1573.82,1419.83 1570.5,1420.5C 1569.24,1416.42 1567.58,1412.42 1565.5,1408.5 Z"/></g>
<g><path style="opacity:1" fill="#210feb" d="M 767.5,1479.5 C 766.053,1488.96 765.387,1498.63 765.5,1508.5C 765.5,1509.5 765.5,1510.5 765.5,1511.5C 776.148,1511.77 786.481,1510.1 796.5,1506.5C 797.929,1493.71 798.595,1480.88 798.5,1468C 798.459,1455.77 797.959,1443.61 797,1431.5C 799.224,1422.11 805.057,1416.77 814.5,1415.5C 818.234,1415.32 821.901,1415.66 825.5,1416.5C 833.125,1419.63 837.625,1425.3 839,1433.5C 839.333,1436.83 839.667,1440.17 840,1443.5C 839.79,1490.17 838.956,1536.84 837.5,1583.5C 836.179,1592.01 836.179,1600.68 837.5,1609.5C 838.107,1609.38 838.44,1609.04 838.5,1608.5C 846.934,1605.26 854.934,1606.09 862.5,1611C 867.519,1611.5 872.519,1611.33 877.5,1610.5C 880.698,1609.96 883.365,1610.63 885.5,1612.5C 885.492,1615.54 885.159,1618.54 884.5,1621.5C 872.488,1623.5 860.488,1625.5 848.5,1627.5C 844.511,1627.12 840.845,1627.78 837.5,1629.5C 835.983,1629.51 834.816,1630.18 834,1631.5C 833.022,1634.67 833.522,1637.5 835.5,1640C 839.152,1640.5 842.818,1640.67 846.5,1640.5C 856.151,1639.89 865.484,1638.23 874.5,1635.5C 878.992,1633.71 882.659,1634.88 885.5,1639C 890.763,1639.75 893.763,1637.42 894.5,1632C 916.231,1628.32 937.898,1624.32 959.5,1620C 962.349,1617.44 963.183,1614.27 962,1610.5C 960.178,1608.95 958.011,1608.29 955.5,1608.5C 936.284,1612.48 916.95,1615.81 897.5,1618.5C 899.067,1604.11 900.733,1589.78 902.5,1575.5C 903.889,1570.73 904.556,1565.73 904.5,1560.5C 909.642,1527.62 916.642,1495.12 925.5,1463C 925.905,1462.05 926.572,1461.39 927.5,1461C 940.661,1457.38 953.994,1454.71 967.5,1453C 971.032,1449.61 971.366,1445.94 968.5,1442C 966.801,1441.04 964.967,1440.54 963,1440.5C 934.649,1447.38 906.149,1453.55 877.5,1459C 873.895,1462.32 873.561,1465.98 876.5,1470C 879.5,1470.67 882.5,1470.67 885.5,1470C 894.486,1468.06 903.486,1466.23 912.5,1464.5C 900.693,1508.2 892.36,1552.53 887.5,1597.5C 886.507,1588.68 886.173,1579.68 886.5,1570.5C 887.118,1559.82 887.952,1549.16 889,1538.5C 892.067,1521.19 894.901,1503.86 897.5,1486.5C 894.353,1486.74 891.353,1487.57 888.5,1489C 869.529,1490.36 861.029,1481.53 863,1462.5C 867.348,1452.73 874.848,1446.9 885.5,1445C 908.047,1442.19 930.38,1438.19 952.5,1433C 957.42,1430.8 962.42,1428.8 967.5,1427C 985.875,1425.71 994.708,1434.21 994,1452.5C 992.383,1456.9 989.883,1460.73 986.5,1464C 981.875,1467.1 976.875,1469.43 971.5,1471C 962.135,1473.84 952.802,1476.67 943.5,1479.5C 938.001,1498.83 934.334,1518.49 932.5,1538.5C 931.028,1542.92 930.362,1547.59 930.5,1552.5C 929.123,1560.73 928.457,1569.06 928.5,1577.5C 927.506,1587.32 927.173,1597.32 927.5,1607.5C 930.059,1607.8 932.393,1607.47 934.5,1606.5C 940.484,1606.56 945.817,1604.73 950.5,1601C 972.315,1598.48 981.482,1607.98 978,1629.5C 973.228,1637.26 966.395,1642.42 957.5,1645C 942.383,1648.48 927.05,1650.31 911.5,1650.5C 902.616,1650.26 893.949,1650.93 885.5,1652.5C 873.172,1653.26 860.839,1653.43 848.5,1653C 843.971,1651.49 839.805,1649.32 836,1646.5C 828.124,1659.01 817.29,1662.51 803.5,1657C 800.577,1654.58 798.243,1651.75 796.5,1648.5C 796.011,1647 795.345,1645.67 794.5,1644.5C 793.889,1637.53 793.556,1630.53 793.5,1623.5C 794.328,1599.5 794.994,1575.5 795.5,1551.5C 789.456,1551.84 783.456,1552.51 777.5,1553.5C 772.269,1553.44 767.269,1554.11 762.5,1555.5C 761.203,1570.32 760.537,1585.32 760.5,1600.5C 760.5,1604.17 760.5,1607.83 760.5,1611.5C 759.672,1617.65 759.172,1623.99 759,1630.5C 758.017,1637.62 754.517,1642.95 748.5,1646.5C 742.055,1650.1 735.388,1650.43 728.5,1647.5C 721.856,1644.21 718.189,1638.88 717.5,1631.5C 717.5,1622.5 717.5,1613.5 717.5,1604.5C 717.207,1597.74 717.54,1591.08 718.5,1584.5C 720.244,1573.86 720.578,1563.19 719.5,1552.5C 709.356,1544.89 706.856,1535.22 712,1523.5C 714.387,1519.45 717.72,1516.45 722,1514.5C 722.497,1512.19 722.663,1509.86 722.5,1507.5C 723.396,1500 724.063,1492.33 724.5,1484.5C 725.253,1475.85 725.587,1467.19 725.5,1458.5C 726.566,1449.01 727.233,1439.35 727.5,1429.5C 730.872,1415.98 739.539,1410.15 753.5,1412C 764.756,1415.5 770.089,1423.17 769.5,1435C 768.482,1449.82 767.816,1464.65 767.5,1479.5 Z"/></g>
<g><path style="opacity:1" fill="#a55862" d="M 814.5,1415.5 C 817.64,1414.36 820.973,1414.19 824.5,1415C 825.056,1415.38 825.389,1415.88 825.5,1416.5C 821.901,1415.66 818.234,1415.32 814.5,1415.5 Z"/></g>
<g><path style="opacity:0.962" fill="#f0850c" d="M 393.5,1416.5 C 394.525,1416.9 394.692,1417.56 394,1418.5C 385.112,1424.38 377.112,1431.38 370,1439.5C 365.928,1445.73 361.095,1451.06 355.5,1455.5C 329.492,1456.45 303.492,1457.28 277.5,1458C 266.476,1451.4 263.31,1441.9 268,1429.5C 271.316,1425.83 275.149,1423 279.5,1421C 317.45,1418.22 355.45,1416.72 393.5,1416.5 Z"/></g>
<g><path style="opacity:1" fill="#42362a" d="M 1261.5,1412.5 C 1266.17,1412.5 1270.83,1412.5 1275.5,1412.5C 1275.71,1414.14 1275.38,1415.64 1274.5,1417C 1270.18,1417.5 1265.85,1417.67 1261.5,1417.5C 1261.5,1415.83 1261.5,1414.17 1261.5,1412.5 Z"/></g>
<g><path style="opacity:1" fill="#ec8315" d="M 1582.5,1632.5 C 1581.98,1626.29 1580.98,1620.29 1579.5,1614.5C 1569.54,1564.61 1560.37,1514.61 1552,1464.5C 1549.41,1450.58 1545.91,1436.91 1541.5,1423.5C 1541.81,1419.99 1543.81,1418.32 1547.5,1418.5C 1551.83,1419.33 1554.33,1422 1555,1426.5C 1561.71,1455 1567.55,1483.66 1572.5,1512.5C 1588.57,1492.04 1603.4,1470.71 1617,1448.5C 1620.57,1444.06 1624.73,1443.4 1629.5,1446.5C 1631.58,1451.05 1630.42,1454.38 1626,1456.5C 1610.64,1481.22 1593.81,1504.89 1575.5,1527.5C 1588.61,1537.77 1601.27,1548.6 1613.5,1560C 1636.48,1576.83 1659.82,1593.16 1683.5,1609C 1687.68,1612.19 1691.52,1615.69 1695,1619.5C 1696.69,1628.3 1693.19,1631.97 1684.5,1630.5C 1683.03,1627.85 1682.03,1625.02 1681.5,1622C 1656.48,1605.16 1631.82,1587.83 1607.5,1570C 1597.37,1561.54 1587.54,1552.7 1578,1543.5C 1581.27,1562.17 1584.93,1580.84 1589,1599.5C 1591.54,1611.06 1592.87,1622.73 1593,1634.5C 1590.79,1637.29 1587.96,1638.12 1584.5,1637C 1583.42,1635.67 1582.75,1634.17 1582.5,1632.5 Z"/></g>
<g><path style="opacity:1" fill="#ea8213" d="M 1613.5,1421.5 C 1601.93,1438.3 1591.09,1455.63 1581,1473.5C 1578.46,1455.63 1574.96,1437.96 1570.5,1420.5C 1573.82,1419.83 1577.32,1419.5 1581,1419.5C 1592.01,1419.85 1602.84,1420.52 1613.5,1421.5 Z"/></g>
<g><path style="opacity:1" fill="#ec8316" d="M 630.5,1478.5 C 629.527,1480.95 629.194,1483.61 629.5,1486.5C 630.833,1486.5 632.167,1486.5 633.5,1486.5C 638.789,1488.71 639.789,1492.21 636.5,1497C 634.02,1497.96 631.52,1498.79 629,1499.5C 628.13,1536.85 627.13,1574.19 626,1611.5C 620.229,1617.44 616.062,1616.44 613.5,1608.5C 613.477,1606.93 613.977,1605.6 615,1604.5C 615.5,1577.84 615.667,1551.17 615.5,1524.5C 616.49,1518.36 616.823,1512.02 616.5,1505.5C 614.901,1505.23 613.568,1505.57 612.5,1506.5C 595.078,1512.71 577.745,1519.21 560.5,1526C 553.683,1529.07 547.35,1532.57 541.5,1536.5C 540.348,1543.31 539.681,1550.31 539.5,1557.5C 538.646,1563.12 538.313,1568.79 538.5,1574.5C 537.008,1585.64 536.008,1596.98 535.5,1608.5C 534.722,1611.61 532.722,1613.28 529.5,1613.5C 525.359,1613.02 523.359,1610.69 523.5,1606.5C 528.95,1551.63 532.45,1496.63 534,1441.5C 537.667,1437.5 541.333,1437.5 545,1441.5C 544.428,1468.17 543.762,1494.84 543,1521.5C 547.088,1519.21 551.255,1517.04 555.5,1515C 576.088,1506.87 596.755,1499.04 617.5,1491.5C 618.448,1474.79 619.948,1458.12 622,1441.5C 622.826,1435.37 624.159,1429.37 626,1423.5C 629.262,1420.92 632.595,1420.92 636,1423.5C 635.664,1431.53 634.664,1439.53 633,1447.5C 631.835,1457.81 631.002,1468.15 630.5,1478.5 Z"/></g>
<g><path style="opacity:1" fill="#ec8315" d="M 414.5,1432.5 C 467.745,1432.57 498.912,1458.9 508,1511.5C 507.291,1568.08 480.791,1607.24 428.5,1629C 387.573,1641.79 359.073,1628.29 343,1588.5C 335.687,1564.51 335.687,1540.51 343,1516.5C 352.868,1486.92 368.701,1461.08 390.5,1439C 392.5,1437.67 394.5,1436.33 396.5,1435C 402.747,1434.9 408.747,1434.07 414.5,1432.5 Z M 419.5,1454.5 C 423.375,1454.08 427.042,1454.58 430.5,1456C 425.898,1457.12 421.232,1457.62 416.5,1457.5C 417.306,1456.27 418.306,1455.27 419.5,1454.5 Z"/></g>
<g><path style="opacity:1" fill="#ec8316" d="M 822.5,1465.5 C 821.426,1473.99 820.759,1482.65 820.5,1491.5C 819.774,1501.82 819.44,1512.15 819.5,1522.5C 817.987,1543.31 817.321,1564.31 817.5,1585.5C 817.5,1600 817.833,1614.34 818.5,1628.5C 820.386,1636.78 817.052,1639.95 808.5,1638C 807.54,1636.58 806.707,1635.08 806,1633.5C 805.5,1607.17 805.333,1580.84 805.5,1554.5C 806.489,1549.02 806.822,1543.36 806.5,1537.5C 804.901,1537.23 803.568,1537.57 802.5,1538.5C 801.833,1538.5 801.167,1538.5 800.5,1538.5C 787.724,1539.89 775.057,1540.89 762.5,1541.5C 762.167,1541.5 761.833,1541.5 761.5,1541.5C 755.261,1541.28 749.261,1541.94 743.5,1543.5C 742.015,1554.31 741.015,1565.31 740.5,1576.5C 739.503,1591.82 738.669,1607.15 738,1622.5C 736.551,1627.22 733.385,1628.72 728.5,1627C 728,1626.5 727.5,1626 727,1625.5C 726.333,1618.5 726.333,1611.5 727,1604.5C 729.376,1568.15 731.876,1531.82 734.5,1495.5C 735.747,1489.37 736.414,1483.04 736.5,1476.5C 736.333,1465.16 736.5,1453.83 737,1442.5C 740.355,1437.69 744.021,1437.36 748,1441.5C 748.696,1457.18 748.529,1472.85 747.5,1488.5C 746.416,1495.98 745.749,1503.65 745.5,1511.5C 745.5,1512.5 745.5,1513.5 745.5,1514.5C 744.512,1519.64 744.179,1524.97 744.5,1530.5C 748.371,1530.81 752.038,1530.48 755.5,1529.5C 772.939,1529.29 790.272,1527.96 807.5,1525.5C 807.5,1522.5 807.5,1519.5 807.5,1516.5C 809.192,1507.05 809.858,1497.39 809.5,1487.5C 809.92,1471.83 810.42,1456.17 811,1440.5C 814.008,1436.1 817.675,1435.43 822,1438.5C 822.5,1447.49 822.666,1456.49 822.5,1465.5 Z"/></g>
<g><path style="opacity:1" fill="#ec8315" d="M 904.5,1560.5 C 903.111,1565.27 902.444,1570.27 902.5,1575.5C 900.733,1589.78 899.067,1604.11 897.5,1618.5C 916.95,1615.81 936.284,1612.48 955.5,1608.5C 958.011,1608.29 960.178,1608.95 962,1610.5C 963.183,1614.27 962.349,1617.44 959.5,1620C 937.898,1624.32 916.231,1628.32 894.5,1632C 893.763,1637.42 890.763,1639.75 885.5,1639C 882.659,1634.88 878.992,1633.71 874.5,1635.5C 864.928,1636.54 855.595,1638.2 846.5,1640.5C 842.818,1640.67 839.152,1640.5 835.5,1640C 833.522,1637.5 833.022,1634.67 834,1631.5C 834.816,1630.18 835.983,1629.51 837.5,1629.5C 841.387,1629.35 845.054,1628.69 848.5,1627.5C 860.488,1625.5 872.488,1623.5 884.5,1621.5C 885.159,1618.54 885.492,1615.54 885.5,1612.5C 887.145,1607.77 887.811,1602.77 887.5,1597.5C 892.36,1552.53 900.693,1508.2 912.5,1464.5C 903.486,1466.23 894.486,1468.06 885.5,1470C 882.5,1470.67 879.5,1470.67 876.5,1470C 873.561,1465.98 873.895,1462.32 877.5,1459C 906.149,1453.55 934.649,1447.38 963,1440.5C 964.967,1440.54 966.801,1441.04 968.5,1442C 971.366,1445.94 971.032,1449.61 967.5,1453C 953.994,1454.71 940.661,1457.38 927.5,1461C 926.572,1461.39 925.905,1462.05 925.5,1463C 916.642,1495.12 909.642,1527.62 904.5,1560.5 Z"/></g>
<g><path style="opacity:1" fill="#c56c41" d="M 727.5,1429.5 C 727.233,1439.35 726.566,1449.01 725.5,1458.5C 725.193,1448.62 725.86,1438.95 727.5,1429.5 Z"/></g>
<g><path style="opacity:1" fill="#ec8316" d="M 1188.5,1505.5 C 1187.11,1510.27 1186.44,1515.27 1186.5,1520.5C 1186.5,1520.83 1186.5,1521.17 1186.5,1521.5C 1184.86,1529.62 1183.86,1537.95 1183.5,1546.5C 1180.8,1568.19 1177.63,1589.85 1174,1611.5C 1167.68,1617.55 1162.68,1616.55 1159,1608.5C 1149.07,1574.32 1134.07,1542.65 1114,1513.5C 1109.24,1507.65 1104.24,1501.98 1099,1496.5C 1098.11,1527.22 1098.95,1557.88 1101.5,1588.5C 1102.12,1603.84 1102.78,1619.17 1103.5,1634.5C 1096.13,1638.14 1092.13,1635.81 1091.5,1627.5C 1091.62,1614.64 1090.95,1601.97 1089.5,1589.5C 1089.5,1589.17 1089.5,1588.83 1089.5,1588.5C 1089.69,1578.63 1089.02,1568.96 1087.5,1559.5C 1086.94,1537.83 1086.77,1516.17 1087,1494.5C 1089.42,1483.12 1095.58,1480.62 1105.5,1487C 1123.57,1505.3 1138.07,1526.14 1149,1549.5C 1154.66,1562.33 1159.83,1575.33 1164.5,1588.5C 1164.89,1590.18 1165.39,1591.85 1166,1593.5C 1166.92,1589.21 1167.42,1584.88 1167.5,1580.5C 1171.88,1542.78 1176.72,1505.11 1182,1467.5C 1182.44,1458.19 1185.94,1450.36 1192.5,1444C 1194.5,1443.33 1196.5,1443.33 1198.5,1444C 1202,1446.17 1204.83,1449 1207,1452.5C 1221.93,1479.04 1235.27,1506.37 1247,1534.5C 1254.94,1561.99 1264.27,1588.99 1275,1615.5C 1275.67,1618.83 1275.67,1622.17 1275,1625.5C 1271.38,1628.34 1268.05,1628.01 1265,1624.5C 1253.57,1593.8 1242.9,1562.8 1233,1531.5C 1222.33,1506.49 1210.33,1482.16 1197,1458.5C 1191.81,1473.66 1188.97,1489.33 1188.5,1505.5 Z"/></g>
<g><path style="opacity:1" fill="#2310ea" d="M 409.5,1621.5 C 401.713,1621.87 394.046,1621.2 386.5,1619.5C 374.026,1614.86 364.859,1606.53 359,1594.5C 348.135,1573.44 345.801,1551.44 352,1528.5C 360.678,1497.63 376.178,1470.8 398.5,1448C 451.07,1437.58 483.57,1458.41 496,1510.5C 496.152,1562.69 471.985,1598.52 423.5,1618C 418.977,1619.8 414.31,1620.96 409.5,1621.5 Z M 419.5,1454.5 C 423.375,1454.08 427.042,1454.58 430.5,1456C 425.898,1457.12 421.232,1457.62 416.5,1457.5C 417.306,1456.27 418.306,1455.27 419.5,1454.5 Z"/></g>
<g><path style="opacity:0.99" fill="#ef850e" d="M 416.5,1457.5 C 421.232,1457.62 425.898,1457.12 430.5,1456C 427.042,1454.58 423.375,1454.08 419.5,1454.5C 417.158,1454.23 417.158,1453.39 419.5,1452C 425.493,1448.23 431.827,1447.57 438.5,1450C 466.602,1478.3 478.435,1512.46 474,1552.5C 467.298,1591.89 444.131,1611.72 404.5,1612C 391.822,1609.32 382.656,1602.16 377,1590.5C 366.349,1565.49 365.682,1540.15 375,1514.5C 382.339,1493.64 393.839,1475.48 409.5,1460C 411.65,1458.59 413.984,1457.76 416.5,1457.5 Z"/></g>
<g><path style="opacity:1" fill="#a15565" d="M 601.5,1447.5 C 602.889,1452.27 603.556,1457.27 603.5,1462.5C 602.111,1457.73 601.444,1452.73 601.5,1447.5 Z"/></g>
<g><path style="opacity:1" fill="#49392b" d="M 1533.5,1449.5 C 1534.32,1452.68 1534.99,1456.02 1535.5,1459.5C 1519.47,1456.83 1503.47,1456.17 1487.5,1457.5C 1485.81,1456.14 1484.14,1454.8 1482.5,1453.5C 1499.5,1453.5 1516.5,1453.5 1533.5,1453.5C 1533.5,1452.17 1533.5,1450.83 1533.5,1449.5 Z"/></g>
<g><path style="opacity:1" fill="#ec8314" d="M 1307.5,1548.5 C 1306.05,1553.96 1305.05,1559.63 1304.5,1565.5C 1303.66,1572.21 1302.49,1578.88 1301,1585.5C 1297.95,1589.01 1294.62,1589.34 1291,1586.5C 1291.63,1574.6 1293.13,1562.76 1295.5,1551C 1295.17,1550.17 1294.83,1549.33 1294.5,1548.5C 1289.01,1550.92 1285.34,1549.42 1283.5,1544C 1283.64,1541.85 1284.64,1540.18 1286.5,1539C 1290.1,1538.06 1293.6,1536.89 1297,1535.5C 1300.28,1511.38 1305.61,1487.71 1313,1464.5C 1315.55,1457.64 1320.38,1455.14 1327.5,1457C 1334.19,1461.88 1339.36,1468.05 1343,1475.5C 1350.38,1490.26 1357.71,1504.92 1365,1519.5C 1373.64,1515.73 1376.8,1518.4 1374.5,1527.5C 1372.5,1528.83 1370.5,1530.17 1368.5,1531.5C 1375.63,1548.71 1382.46,1566.05 1389,1583.5C 1389.67,1587.17 1389.67,1590.83 1389,1594.5C 1386.17,1600.2 1382.5,1600.87 1378,1596.5C 1377.34,1593.95 1377.51,1591.45 1378.5,1589C 1371.34,1570.52 1364.34,1552.02 1357.5,1533.5C 1341.08,1536.86 1324.75,1540.69 1308.5,1545C 1307.66,1546.01 1307.33,1547.18 1307.5,1548.5 Z"/></g>
<g><path style="opacity:1" fill="#ee8410" d="M 1535.5,1459.5 C 1538.32,1472.9 1540.65,1486.4 1542.5,1500C 1540.62,1505.69 1539.78,1511.52 1540,1517.5C 1542.59,1523.67 1545.42,1529.67 1548.5,1535.5C 1542.9,1547.81 1545.07,1558.47 1555,1567.5C 1557.16,1577.45 1558.99,1587.45 1560.5,1597.5C 1554.59,1599.46 1548.25,1600.12 1541.5,1599.5C 1522.75,1577.58 1503.08,1556.41 1482.5,1536C 1489.91,1531.93 1496.08,1526.43 1501,1519.5C 1512.62,1495.31 1508.12,1474.64 1487.5,1457.5C 1503.47,1456.17 1519.47,1456.83 1535.5,1459.5 Z"/></g>
<g><path style="opacity:1" fill="#5927c0" d="M 1168.5,1447.5 C 1168.22,1461.53 1167.39,1475.53 1166,1489.5C 1165.1,1491.93 1164.26,1494.26 1163.5,1496.5C 1164.68,1479.97 1166.35,1463.64 1168.5,1447.5 Z"/></g>
<g><path style="opacity:1" fill="#9f5466" d="M 603.5,1462.5 C 604.889,1467.27 605.556,1472.27 605.5,1477.5C 604.111,1472.73 603.444,1467.73 603.5,1462.5 Z"/></g>
<g><path style="opacity:1" fill="#2310ea" d="M 1323.5,1469.5 C 1324.5,1469.41 1325.33,1469.75 1326,1470.5C 1335.94,1486.56 1344.44,1503.39 1351.5,1521C 1350.32,1522.74 1348.65,1523.74 1346.5,1524C 1334.12,1526.68 1321.78,1529.51 1309.5,1532.5C 1312.13,1511.04 1316.79,1490.04 1323.5,1469.5 Z"/></g>
<g><path style="opacity:1" fill="#592bb4" d="M 1462.5,1475.5 C 1452.81,1475.42 1443.15,1475.75 1433.5,1476.5C 1438.92,1474.97 1444.58,1474.3 1450.5,1474.5C 1454.68,1474.5 1458.68,1474.83 1462.5,1475.5 Z"/></g>
<g><path style="opacity:1" fill="#1c0ded" d="M 1462.5,1475.5 C 1479.38,1478.73 1483.22,1487.73 1474,1502.5C 1462.94,1514.11 1449.44,1521.11 1433.5,1523.5C 1432.5,1523.5 1431.5,1523.5 1430.5,1523.5C 1430.82,1518.64 1430.49,1513.97 1429.5,1509.5C 1429.26,1499.34 1427.93,1489.34 1425.5,1479.5C 1427.65,1477.34 1430.31,1476.34 1433.5,1476.5C 1443.15,1475.75 1452.81,1475.42 1462.5,1475.5 Z"/></g>
<g><path style="opacity:1" fill="#8a4a78" d="M 630.5,1478.5 C 630.5,1480.83 630.5,1483.17 630.5,1485.5C 631.791,1485.26 632.791,1485.6 633.5,1486.5C 632.167,1486.5 630.833,1486.5 629.5,1486.5C 629.194,1483.61 629.527,1480.95 630.5,1478.5 Z"/></g>
<g><path style="opacity:1" fill="#753998" d="M 822.5,1465.5 C 822.912,1474.4 822.246,1483.07 820.5,1491.5C 820.759,1482.65 821.426,1473.99 822.5,1465.5 Z"/></g>
<g><path style="opacity:1" fill="#aa6235" d="M 724.5,1484.5 C 724.063,1492.33 723.396,1500 722.5,1507.5C 722.5,1500.83 722.5,1494.17 722.5,1487.5C 720.167,1487.5 717.833,1487.5 715.5,1487.5C 715.5,1486.5 715.5,1485.5 715.5,1484.5C 718.5,1484.5 721.5,1484.5 724.5,1484.5 Z"/></g>
<g><path style="opacity:1" fill="#26232a" d="M 606.5,1487.5 C 606.64,1489.12 605.973,1490.29 604.5,1491C 600.698,1491.41 597.031,1492.24 593.5,1493.5C 583.681,1492.51 573.681,1492.17 563.5,1492.5C 563.5,1491.5 563.5,1490.5 563.5,1489.5C 569.358,1489.82 575.025,1489.49 580.5,1488.5C 589.171,1488.26 597.838,1487.93 606.5,1487.5 Z"/></g>
<g><path style="opacity:1" fill="#7b3e8e" d="M 736.5,1476.5 C 736.414,1483.04 735.747,1489.37 734.5,1495.5C 734.337,1488.94 735.004,1482.61 736.5,1476.5 Z"/></g>
<g><path style="opacity:1" fill="#df7b27" d="M 1455.5,1487.5 C 1459.75,1488.75 1462.75,1491.42 1464.5,1495.5C 1462.9,1498.65 1460.23,1500.31 1456.5,1500.5C 1456.26,1496.16 1455.93,1491.82 1455.5,1487.5 Z"/></g>
<g><path style="opacity:1" fill="#47382d" d="M 510.5,1490.5 C 513.833,1490.5 517.167,1490.5 520.5,1490.5C 520.5,1491.83 520.5,1493.17 520.5,1494.5C 517.302,1493.96 514.635,1494.63 512.5,1496.5C 511.715,1494.63 511.048,1492.63 510.5,1490.5 Z"/></g>
<g><path style="opacity:1" fill="#71482f" d="M 562.5,1471.5 C 563.489,1476.98 563.822,1482.64 563.5,1488.5C 569.167,1488.5 574.833,1488.5 580.5,1488.5C 575.025,1489.49 569.358,1489.82 563.5,1489.5C 563.5,1490.5 563.5,1491.5 563.5,1492.5C 573.681,1492.17 583.681,1492.51 593.5,1493.5C 591.784,1493.63 590.117,1493.96 588.5,1494.5C 580.35,1493.51 572.017,1493.17 563.5,1493.5C 563.5,1494.83 563.5,1496.17 563.5,1497.5C 562.507,1489.02 562.174,1480.35 562.5,1471.5 Z"/></g>
<g><path style="opacity:1" fill="#e47f17" d="M 588.5,1494.5 C 581.062,1495.65 573.729,1497.32 566.5,1499.5C 564.962,1499.55 563.962,1498.88 563.5,1497.5C 563.5,1496.17 563.5,1494.83 563.5,1493.5C 572.017,1493.17 580.35,1493.51 588.5,1494.5 Z"/></g>
<g><path style="opacity:1" fill="#bd6747" d="M 767.5,1479.5 C 767.685,1489.37 767.019,1499.04 765.5,1508.5C 765.387,1498.63 766.053,1488.96 767.5,1479.5 Z"/></g>
<g><path style="opacity:1" fill="#c66c42" d="M 809.5,1487.5 C 809.858,1497.39 809.192,1507.05 807.5,1516.5C 807.823,1506.66 808.489,1496.99 809.5,1487.5 Z"/></g>
<g><path style="opacity:1" fill="#733b95" d="M 1415.5,1488.5 C 1416.89,1493.27 1417.56,1498.27 1417.5,1503.5C 1417.17,1503.5 1416.83,1503.5 1416.5,1503.5C 1416.08,1498.51 1415.75,1493.51 1415.5,1488.5 Z"/></g>
<g><path style="opacity:1" fill="#6530aa" d="M 747.5,1488.5 C 747.921,1496.41 747.255,1504.08 745.5,1511.5C 745.749,1503.65 746.416,1495.98 747.5,1488.5 Z"/></g>
<g><path style="opacity:1" fill="#602fac" d="M 1188.5,1505.5 C 1188.56,1510.73 1187.89,1515.73 1186.5,1520.5C 1186.44,1515.27 1187.11,1510.27 1188.5,1505.5 Z"/></g>
<g><path style="opacity:1" fill="#69389b" d="M 1429.5,1509.5 C 1430.49,1513.97 1430.82,1518.64 1430.5,1523.5C 1431.5,1523.5 1432.5,1523.5 1433.5,1523.5C 1432.43,1524.43 1431.1,1524.77 1429.5,1524.5C 1429.5,1519.5 1429.5,1514.5 1429.5,1509.5 Z"/></g>
<g><path style="opacity:1" fill="#c66c41" d="M 1331.5,1509.5 C 1334.13,1511.39 1335.8,1514.06 1336.5,1517.5C 1334.6,1518.47 1332.6,1518.8 1330.5,1518.5C 1330.7,1515.48 1331.04,1512.48 1331.5,1509.5 Z"/></g>
<g><path style="opacity:1" fill="#5a30ab" d="M 612.5,1506.5 C 613.568,1505.57 614.901,1505.23 616.5,1505.5C 616.823,1512.02 616.49,1518.36 615.5,1524.5C 615.5,1518.5 615.5,1512.5 615.5,1506.5C 614.5,1506.5 613.5,1506.5 612.5,1506.5 Z"/></g>
<g><path style="opacity:1" fill="#5f30ab" d="M 745.5,1514.5 C 745.5,1519.5 745.5,1524.5 745.5,1529.5C 748.833,1529.5 752.167,1529.5 755.5,1529.5C 752.038,1530.48 748.371,1530.81 744.5,1530.5C 744.179,1524.97 744.512,1519.64 745.5,1514.5 Z"/></g>
<g><path style="opacity:1" fill="#4822c6" d="M 1416.5,1503.5 C 1416.83,1503.5 1417.17,1503.5 1417.5,1503.5C 1418.46,1510.41 1418.8,1517.41 1418.5,1524.5C 1418.67,1538.84 1418.5,1553.17 1418,1567.5C 1417.65,1554.98 1416.82,1542.65 1415.5,1530.5C 1415.5,1523.83 1415.5,1517.17 1415.5,1510.5C 1416.47,1508.39 1416.8,1506.06 1416.5,1503.5 Z"/></g>
<g><path style="opacity:1" fill="#5427bd" d="M 800.5,1538.5 C 797.797,1539.96 794.797,1540.8 791.5,1541C 781.839,1541.5 772.172,1541.67 762.5,1541.5C 775.057,1540.89 787.724,1539.89 800.5,1538.5 Z"/></g>
<g><path style="opacity:1" fill="#6032a6" d="M 802.5,1538.5 C 803.568,1537.57 804.901,1537.23 806.5,1537.5C 806.822,1543.36 806.489,1549.02 805.5,1554.5C 805.5,1549.17 805.5,1543.83 805.5,1538.5C 804.5,1538.5 803.5,1538.5 802.5,1538.5 Z"/></g>
<g><path style="opacity:1" fill="#5427be" d="M 1186.5,1521.5 C 1186.17,1528.51 1185.67,1535.51 1185,1542.5C 1184.79,1544.06 1184.29,1545.39 1183.5,1546.5C 1183.86,1537.95 1184.86,1529.62 1186.5,1521.5 Z"/></g>
<g><path style="opacity:1" fill="#5d2ead" d="M 761.5,1541.5 C 755.712,1542.81 749.712,1543.48 743.5,1543.5C 749.261,1541.94 755.261,1541.28 761.5,1541.5 Z"/></g>
<g><path style="opacity:1" fill="#ac5d57" d="M 932.5,1538.5 C 932.638,1543.41 931.972,1548.08 930.5,1552.5C 930.362,1547.59 931.028,1542.92 932.5,1538.5 Z"/></g>
<g><path style="opacity:1" fill="#6831a9" d="M 541.5,1536.5 C 541.666,1542.18 541.499,1547.84 541,1553.5C 540.79,1555.06 540.29,1556.39 539.5,1557.5C 539.681,1550.31 540.348,1543.31 541.5,1536.5 Z"/></g>
<g><path style="opacity:1" fill="#ed8410" d="M 794.5,1644.5 C 790.555,1645.83 786.222,1646.49 781.5,1646.5C 770.331,1647.42 759.331,1647.42 748.5,1646.5C 754.517,1642.95 758.017,1637.62 759,1630.5C 759.172,1623.99 759.672,1617.65 760.5,1611.5C 765.844,1611.67 771.177,1611.5 776.5,1611C 771.908,1608.74 768.241,1605.41 765.5,1601C 763.866,1600.51 762.199,1600.34 760.5,1600.5C 760.537,1585.32 761.203,1570.32 762.5,1555.5C 767.731,1555.56 772.731,1554.89 777.5,1553.5C 783.456,1552.51 789.456,1551.84 795.5,1551.5C 794.994,1575.5 794.328,1599.5 793.5,1623.5C 793.556,1630.53 793.889,1637.53 794.5,1644.5 Z"/></g>
<g><path style="opacity:1" fill="#b4624e" d="M 777.5,1553.5 C 772.731,1554.89 767.731,1555.56 762.5,1555.5C 767.269,1554.11 772.269,1553.44 777.5,1553.5 Z"/></g>
<g><path style="opacity:1" fill="#6630aa" d="M 1307.5,1548.5 C 1307.67,1554.5 1306.67,1560.17 1304.5,1565.5C 1305.05,1559.63 1306.05,1553.96 1307.5,1548.5 Z"/></g>
<g><path style="opacity:1" fill="#c56c3f" d="M 1117.5,1544.5 C 1117.17,1557.65 1117.17,1570.99 1117.5,1584.5C 1115.85,1570.02 1115.35,1555.36 1116,1540.5C 1116.79,1541.74 1117.29,1543.08 1117.5,1544.5 Z"/></g>
<g><path style="opacity:1" fill="#6730ab" d="M 743.5,1543.5 C 743.528,1553.19 743.028,1562.86 742,1572.5C 741.79,1574.06 741.29,1575.39 740.5,1576.5C 741.015,1565.31 742.015,1554.31 743.5,1543.5 Z"/></g>
<g><path style="opacity:1" fill="#995369" d="M 1418.5,1524.5 C 1419.66,1552.33 1419.83,1580.33 1419,1608.5C 1417.57,1582.51 1416.41,1556.51 1415.5,1530.5C 1416.82,1542.65 1417.65,1554.98 1418,1567.5C 1418.5,1553.17 1418.67,1538.84 1418.5,1524.5 Z"/></g>
<g><path style="opacity:1" fill="#c16947" d="M 1204.5,1530.5 C 1204.87,1548.03 1204.2,1565.36 1202.5,1582.5C 1202.11,1564.97 1202.77,1547.63 1204.5,1530.5 Z"/></g>
<g><path style="opacity:1" fill="#ce7236" d="M 571.5,1541.5 C 569.562,1543.16 567.228,1543.83 564.5,1543.5C 564.666,1552.51 564.5,1561.51 564,1570.5C 563.814,1573.04 563.314,1575.37 562.5,1577.5C 562.667,1565.83 563,1554.16 563.5,1542.5C 566.167,1542.17 568.833,1541.83 571.5,1541.5 Z"/></g>
<g><path style="opacity:1" fill="#6732a6" d="M 904.5,1560.5 C 904.556,1565.73 903.889,1570.73 902.5,1575.5C 902.444,1570.27 903.111,1565.27 904.5,1560.5 Z"/></g>
<g><path style="opacity:1" fill="#512bb3" d="M 1432.5,1542.5 C 1431.5,1565.99 1431.17,1589.66 1431.5,1613.5C 1430.17,1589.66 1430.17,1565.66 1431.5,1541.5C 1432.11,1541.62 1432.44,1541.96 1432.5,1542.5 Z"/></g>
<g><path style="opacity:1" fill="#6d369e" d="M 719.5,1552.5 C 720.578,1563.19 720.244,1573.86 718.5,1584.5C 718.623,1573.83 718.957,1563.16 719.5,1552.5 Z"/></g>
<g><path style="opacity:1" fill="#200fec" d="M 1014.5,1580.5 C 1026.34,1579.33 1034.84,1584 1040,1594.5C 1052.95,1633.93 1045.11,1668.43 1016.5,1698C 1001.63,1704.82 991.133,1700.65 985,1685.5C 983.963,1679.61 984.629,1673.94 987,1668.5C 1004.33,1649.83 1008.33,1628.49 999,1604.5C 998.759,1592.92 1003.93,1584.92 1014.5,1580.5 Z"/></g>
<g><path style="opacity:1" fill="#5b2db0" d="M 819.5,1522.5 C 818.888,1557.83 818.555,1593.16 818.5,1628.5C 817.833,1614.34 817.5,1600 817.5,1585.5C 817.321,1564.31 817.987,1543.31 819.5,1522.5 Z"/></g>
<g><path style="opacity:1" fill="#6430ab" d="M 1087.5,1559.5 C 1089.02,1568.96 1089.69,1578.63 1089.5,1588.5C 1087.86,1579.05 1087.19,1569.38 1087.5,1559.5 Z"/></g>
<g><path style="opacity:1" fill="#6232a7" d="M 1167.5,1580.5 C 1167.42,1584.88 1166.92,1589.21 1166,1593.5C 1165.39,1591.85 1164.89,1590.18 1164.5,1588.5C 1165.92,1585.98 1166.92,1583.31 1167.5,1580.5 Z"/></g>
<g><path style="opacity:1" fill="#5928bd" d="M 1101.5,1588.5 C 1102.12,1588.61 1102.62,1588.94 1103,1589.5C 1103.26,1602.85 1103.76,1616.18 1104.5,1629.5C 1104.49,1631.37 1104.16,1633.04 1103.5,1634.5C 1102.78,1619.17 1102.12,1603.84 1101.5,1588.5 Z"/></g>
<g><path style="opacity:1" fill="#632db2" d="M 1074.5,1581.5 C 1076.14,1589.94 1076.8,1598.61 1076.5,1607.5C 1075.36,1599.02 1074.69,1590.35 1074.5,1581.5 Z"/></g>
<g><path style="opacity:1" fill="#8e4d73" d="M 928.5,1577.5 C 928.5,1587.17 928.5,1596.83 928.5,1606.5C 930.5,1606.5 932.5,1606.5 934.5,1606.5C 932.393,1607.47 930.059,1607.8 927.5,1607.5C 927.173,1597.32 927.506,1587.32 928.5,1577.5 Z"/></g>
<g><path style="opacity:1" fill="#6e389a" d="M 886.5,1570.5 C 886.173,1579.68 886.507,1588.68 887.5,1597.5C 887.811,1602.77 887.145,1607.77 885.5,1612.5C 883.365,1610.63 880.698,1609.96 877.5,1610.5C 879.948,1609.53 882.615,1609.19 885.5,1609.5C 885.171,1596.32 885.505,1583.32 886.5,1570.5 Z"/></g>
<g><path style="opacity:1" fill="#7c4386" d="M 837.5,1583.5 C 837.174,1592.02 837.507,1600.35 838.5,1608.5C 838.44,1609.04 838.107,1609.38 837.5,1609.5C 836.179,1600.68 836.179,1592.01 837.5,1583.5 Z"/></g>
<g><path style="opacity:1" fill="#1a1026" d="M 1560.5,1597.5 C 1561.49,1599 1561.49,1600.67 1560.5,1602.5C 1554.97,1602.18 1549.64,1602.51 1544.5,1603.5C 1543.51,1602.2 1542.51,1600.87 1541.5,1599.5C 1548.25,1600.12 1554.59,1599.46 1560.5,1597.5 Z"/></g>
<g><path style="opacity:1" fill="#5428bb" d="M 538.5,1574.5 C 538.702,1586.09 537.702,1597.42 535.5,1608.5C 536.008,1596.98 537.008,1585.64 538.5,1574.5 Z"/></g>
<g><path style="opacity:1" fill="#3d332b" d="M 760.5,1600.5 C 762.199,1600.34 763.866,1600.51 765.5,1601C 768.241,1605.41 771.908,1608.74 776.5,1611C 771.177,1611.5 765.844,1611.67 760.5,1611.5C 760.5,1607.83 760.5,1604.17 760.5,1600.5 Z"/></g>
<g><path style="opacity:0.998" fill="#e57f17" d="M 1560.5,1602.5 C 1561.12,1602.61 1561.62,1602.94 1562,1603.5C 1563.31,1607.75 1564.15,1612.09 1564.5,1616.5C 1564.5,1617.5 1564.5,1618.5 1564.5,1619.5C 1562.17,1619.5 1559.83,1619.5 1557.5,1619.5C 1553.17,1614.17 1548.83,1608.83 1544.5,1603.5C 1549.64,1602.51 1554.97,1602.18 1560.5,1602.5 Z"/></g>
<g><path style="opacity:1" fill="#aa5b5b" d="M 1117.5,1594.5 C 1118.89,1599.27 1119.56,1604.27 1119.5,1609.5C 1117.97,1604.75 1117.3,1599.75 1117.5,1594.5 Z"/></g>
<g><path style="opacity:1" fill="#413432" d="M 717.5,1604.5 C 717.5,1613.5 717.5,1622.5 717.5,1631.5C 716.51,1625.69 716.177,1619.69 716.5,1613.5C 706.494,1613.67 696.494,1613.5 686.5,1613C 684.112,1611.14 681.446,1609.81 678.5,1609C 691.436,1606.93 704.436,1605.43 717.5,1604.5 Z"/></g>
<g><path style="opacity:1" fill="#eb8217" d="M 1015.5,1610.5 C 1019.68,1609.85 1022.52,1611.51 1024,1615.5C 1026.62,1635.69 1022.62,1654.36 1012,1671.5C 1009.8,1674.04 1007.3,1676.21 1004.5,1678C 997.495,1679.32 994.995,1676.49 997,1669.5C 1004.47,1662.8 1009.13,1654.46 1011,1644.5C 1012.14,1634.2 1012.8,1623.87 1013,1613.5C 1014.04,1612.63 1014.88,1611.63 1015.5,1610.5 Z"/></g>
<g><path style="opacity:1" fill="#4921cc" d="M 1089.5,1589.5 C 1090.95,1601.97 1091.62,1614.64 1091.5,1627.5C 1090.73,1626.74 1090.23,1625.74 1090,1624.5C 1089.5,1612.84 1089.33,1601.17 1089.5,1589.5 Z"/></g>
<g><path style="opacity:1" fill="#96516d" d="M 1564.5,1616.5 C 1565.43,1617.57 1565.77,1618.9 1565.5,1620.5C 1562.61,1620.81 1559.95,1620.47 1557.5,1619.5C 1559.83,1619.5 1562.17,1619.5 1564.5,1619.5C 1564.5,1618.5 1564.5,1617.5 1564.5,1616.5 Z"/></g>
<g><path style="opacity:1" fill="#6230a9" d="M 386.5,1619.5 C 394.046,1621.2 401.713,1621.87 409.5,1621.5C 404.015,1622.65 398.349,1622.82 392.5,1622C 390.277,1621.43 388.277,1620.6 386.5,1619.5 Z"/></g>
<g><path style="opacity:1" fill="#72379d" d="M 1579.5,1614.5 C 1580.98,1620.29 1581.98,1626.29 1582.5,1632.5C 1580.4,1626.82 1579.4,1620.82 1579.5,1614.5 Z"/></g>
<g><path style="opacity:1" fill="#be6847" d="M 1202.5,1596.5 C 1202.61,1606.53 1202.11,1616.53 1201,1626.5C 1200.72,1627.42 1200.22,1628.08 1199.5,1628.5C 1200.32,1617.67 1201.32,1607.01 1202.5,1596.5 Z"/></g>
<g><path style="opacity:1" fill="#773998" d="M 848.5,1627.5 C 845.054,1628.69 841.387,1629.35 837.5,1629.5C 840.845,1627.78 844.511,1627.12 848.5,1627.5 Z"/></g>
<g><path style="opacity:1" fill="#ae5d59" d="M 640.5,1627.5 C 639.653,1628.97 638.32,1629.8 636.5,1630C 632.973,1630.81 629.64,1630.64 626.5,1629.5C 631.327,1629.78 635.993,1629.11 640.5,1627.5 Z"/></g>
<g><path style="opacity:1" fill="#5728bb" d="M 874.5,1635.5 C 865.484,1638.23 856.151,1639.89 846.5,1640.5C 855.595,1638.2 864.928,1636.54 874.5,1635.5 Z"/></g>
<g><path style="opacity:1" fill="#1d1424" d="M 794.5,1644.5 C 795.345,1645.67 796.011,1647 796.5,1648.5C 793.833,1648.5 791.167,1648.5 788.5,1648.5C 761.485,1649.64 734.485,1650.97 707.5,1652.5C 707.5,1651.17 707.5,1649.83 707.5,1648.5C 714.687,1648.82 721.687,1648.49 728.5,1647.5C 735.388,1650.43 742.055,1650.1 748.5,1646.5C 759.331,1647.42 770.331,1647.42 781.5,1646.5C 786.222,1646.49 790.555,1645.83 794.5,1644.5 Z"/></g>
<g><path style="opacity:1" fill="#7b408b" d="M 911.5,1650.5 C 903.019,1651.64 894.352,1652.31 885.5,1652.5C 893.949,1650.93 902.616,1650.26 911.5,1650.5 Z"/></g>
<g><path style="opacity:1" fill="#b66513" d="M 788.5,1648.5 C 765.596,1651.41 742.429,1653.07 719,1653.5C 714.985,1653.5 711.151,1653.17 707.5,1652.5C 734.485,1650.97 761.485,1649.64 788.5,1648.5 Z"/></g>
<g><path style="opacity:1" fill="#773d91" d="M 1700.5,1658.5 C 1704.47,1659.16 1708.47,1659.5 1712.5,1659.5C 1711.21,1660.16 1709.71,1660.49 1708,1660.5C 1705.18,1660.59 1702.68,1659.93 1700.5,1658.5 Z"/></g>
</svg>
