<?xml version="1.0" encoding="UTF-8"?>
<!DOCTYPE svg PUBLIC "-//W3C//DTD SVG 1.1//EN" "http://www.w3.org/Graphics/SVG/1.1/DTD/svg11.dtd">
<svg xmlns="http://www.w3.org/2000/svg" version="1.1" width="2048px" height="2048px" style="shape-rendering:geometricPrecision; text-rendering:geometricPrecision; image-rendering:optimizeQuality; fill-rule:evenodd; clip-rule:evenodd" xmlns:xlink="http://www.w3.org/1999/xlink">
<g><path style="opacity:0.998" fill="#f2d766" d="M 1612.5,1067.5 C 1610.35,1067.63 1608.35,1067.13 1606.5,1066C 1594.33,1058.41 1582,1051.08 1569.5,1044C 1549.78,1029.28 1529.78,1014.95 1509.5,1001C 1502.99,994.594 1496.32,988.427 1489.5,982.5C 1461.47,949.466 1430.8,919.132 1397.5,891.5C 1379.7,871.87 1361.04,853.036 1341.5,835C 1331.69,826.93 1321.36,819.596 1310.5,813C 1294.25,798.214 1276.92,784.88 1258.5,773C 1249.33,768.61 1240,764.61 1230.5,761C 1190.73,748.855 1151.4,735.522 1112.5,721C 1084.32,713.274 1056.32,704.94 1028.5,696C 1003.11,690.255 977.775,684.255 952.5,678C 934.931,674.929 917.264,672.596 899.5,671C 845.249,659.95 790.916,649.283 736.5,639C 677.723,630.527 618.723,625.36 559.5,623.5C 602.612,570.561 655.612,530.727 718.5,504C 748.412,485.102 779.079,467.436 810.5,451C 839.496,437.584 870.162,429.25 902.5,426C 935.152,424.199 967.819,422.699 1000.5,421.5C 1047.8,421.497 1094.14,427.997 1139.5,441C 1186.04,457.226 1232.37,474.226 1278.5,492C 1311.74,507.279 1343.07,525.612 1372.5,547C 1406.25,572.486 1438.42,599.986 1469,629.5C 1493.15,655.798 1512.82,685.131 1528,717.5C 1554.95,774.466 1574.95,833.799 1588,895.5C 1601.07,952.131 1609.23,1009.46 1612.5,1067.5 Z"/></g>
<g><path style="opacity:0.971" fill="#05082f" d="M 559.5,623.5 C 618.723,625.36 677.723,630.527 736.5,639C 790.916,649.283 845.249,659.95 899.5,671C 917.264,672.596 934.931,674.929 952.5,678C 977.775,684.255 1003.11,690.255 1028.5,696C 1056.32,704.94 1084.32,713.274 1112.5,721C 1151.4,735.522 1190.73,748.855 1230.5,761C 1240,764.61 1249.33,768.61 1258.5,773C 1276.92,784.88 1294.25,798.214 1310.5,813C 1321.36,819.596 1331.69,826.93 1341.5,835C 1361.04,853.036 1379.7,871.87 1397.5,891.5C 1379.56,878.013 1362.56,863.347 1346.5,847.5C 1333.83,835.001 1319.83,824.167 1304.5,815C 1288.97,800.798 1272.3,788.132 1254.5,777C 1243.39,771.781 1232.06,767.114 1220.5,763C 1182.38,751.708 1144.72,739.042 1107.5,725C 1080.7,717.401 1054.04,709.401 1027.5,701C 1002.44,695.203 977.443,689.203 952.5,683C 893.986,675.164 835.986,664.497 778.5,651C 743.019,644.455 707.353,639.122 671.5,635C 648.761,634.275 626.095,632.608 603.5,630C 561.165,629.755 518.832,630.088 476.5,631C 473.417,632.139 470.417,633.472 467.5,635C 452.441,646.791 438.275,659.624 425,673.5C 414.369,686.632 403.202,699.298 391.5,711.5C 387.221,713.511 382.554,714.678 377.5,715C 374.311,716.889 372.811,719.722 373,723.5C 366.768,728.699 360.268,733.532 353.5,738C 352.251,738.74 351.251,738.573 350.5,737.5C 381.972,706.526 412.639,674.693 442.5,642C 449.346,635.743 457.013,630.743 465.5,627C 496.804,625.161 528.138,623.994 559.5,623.5 Z"/></g>
<g><path style="opacity:1" fill="#91b9da" d="M 1346.5,847.5 C 1333.88,839.518 1320.88,832.018 1307.5,825C 1265.05,793.164 1217.38,773.164 1164.5,765C 1131.12,759.739 1098.12,752.739 1065.5,744C 1041.61,741.722 1017.94,738.056 994.5,733C 984,731.5 979.5,736 981,746.5C 989.289,768.747 998.955,790.413 1010,811.5C 1028.63,844.445 1046.97,877.445 1065,910.5C 1072.58,917.048 1081.08,922.215 1090.5,926C 1112.97,933.286 1135.64,939.952 1158.5,946C 1219.34,957.96 1279.67,971.96 1339.5,988C 1358.87,989.283 1377.87,992.616 1396.5,998C 1408.89,999.045 1421.22,1000.55 1433.5,1002.5C 1434.26,1003.27 1435.26,1003.77 1436.5,1004C 1444.79,1005.31 1453.12,1006.14 1461.5,1006.5C 1473.02,1006.88 1484.35,1008.55 1495.5,1011.5C 1500.34,1010.34 1503,1007.34 1503.5,1002.5C 1524.19,1016.68 1544.19,1031.85 1563.5,1048C 1583.35,1059.09 1602.35,1071.42 1620.5,1085C 1645.81,1109.42 1665.31,1137.92 1679,1170.5C 1680.14,1173.1 1680.97,1175.76 1681.5,1178.5C 1677.44,1181.86 1672.78,1184.2 1667.5,1185.5C 1666.83,1186.95 1666.16,1188.28 1665.5,1189.5C 1663.66,1186.83 1661.33,1184.67 1658.5,1183C 1642.88,1178.79 1627.22,1174.79 1611.5,1171C 1599.51,1166.17 1587.51,1161.67 1575.5,1157.5C 1574.57,1156.69 1573.57,1155.85 1572.5,1155C 1548.28,1151.74 1523.95,1148.9 1499.5,1146.5C 1498.5,1146.5 1497.5,1146.5 1496.5,1146.5C 1490.63,1144.68 1484.63,1143.18 1478.5,1142C 1468.82,1141.66 1459.16,1141.16 1449.5,1140.5C 1447.3,1140.5 1445.3,1140.84 1443.5,1141.5C 1441.94,1141.73 1440.6,1142.4 1439.5,1143.5C 1439.3,1140.1 1437.63,1137.6 1434.5,1136C 1407.53,1125.34 1380.2,1115.68 1352.5,1107C 1344.53,1103.02 1336.53,1099.02 1328.5,1095C 1300.11,1085.49 1271.77,1075.82 1243.5,1066C 1233.02,1061.51 1223.02,1056.17 1213.5,1050C 1212.5,1049.33 1211.5,1049.33 1210.5,1050C 1209.25,1054.49 1209.42,1058.99 1211,1063.5C 1214.84,1074.85 1219.51,1085.85 1225,1096.5C 1230.78,1100.64 1236.28,1105.14 1241.5,1110C 1267.18,1124.51 1293.84,1136.84 1321.5,1147C 1334.38,1153.29 1347.05,1159.96 1359.5,1167C 1366.38,1170.35 1373.38,1170.85 1380.5,1168.5C 1381.11,1168.62 1381.44,1168.96 1381.5,1169.5C 1378.71,1175.58 1379.21,1181.58 1383,1187.5C 1395.67,1207.18 1409.51,1226.01 1424.5,1244C 1446.77,1247.92 1469.11,1251.59 1491.5,1255C 1516.27,1259.35 1540.94,1264.35 1565.5,1270C 1597.35,1275.95 1629.35,1276.95 1661.5,1273C 1682.57,1270.25 1690.41,1258.41 1685,1237.5C 1683.99,1232.44 1682.82,1227.44 1681.5,1222.5C 1683.06,1225.66 1684.73,1228.83 1686.5,1232C 1689.97,1232.43 1693.3,1231.93 1696.5,1230.5C 1705.1,1279.05 1702.93,1327.05 1690,1374.5C 1685.88,1386.95 1678.38,1396.78 1667.5,1404C 1662.58,1407.13 1657.25,1409.13 1651.5,1410C 1624.84,1411.89 1598.17,1411.89 1571.5,1410C 1537.14,1403.36 1502.47,1399.02 1467.5,1397C 1456.44,1395.71 1445.44,1394.04 1434.5,1392C 1426.2,1390.88 1417.87,1390.38 1409.5,1390.5C 1419.23,1373.83 1427.73,1356.5 1435,1338.5C 1437.3,1321.13 1430.13,1309.63 1413.5,1304C 1400.38,1301.48 1389.55,1305.31 1381,1315.5C 1371.63,1337.25 1360.96,1358.25 1349,1378.5C 1337.41,1364.24 1325.07,1350.57 1312,1337.5C 1305.62,1329.24 1299.12,1321.08 1292.5,1313C 1273.03,1302.06 1257.87,1306.23 1247,1325.5C 1244.23,1335.42 1245.4,1344.75 1250.5,1353.5C 1237.19,1352.05 1223.85,1350.72 1210.5,1349.5C 1220.51,1332.03 1216.51,1318.86 1198.5,1310C 1169.89,1311.22 1141.22,1312.55 1112.5,1314C 1110.85,1314.61 1109.18,1315.11 1107.5,1315.5C 1112.37,1295.83 1114.37,1275.83 1113.5,1255.5C 1114.34,1240.77 1115.84,1226.11 1118,1211.5C 1118.5,1200.84 1118.67,1190.17 1118.5,1179.5C 1119.26,1165.98 1118.09,1152.64 1115,1139.5C 1105.34,1121.5 1094.67,1104.16 1083,1087.5C 1070.93,1073.25 1055.76,1064.25 1037.5,1060.5C 1024.25,1051.45 1010.25,1050.12 995.5,1056.5C 978.038,1062.05 963.038,1071.39 950.5,1084.5C 943.854,1089.15 938.188,1094.81 933.5,1101.5C 925.854,1110.12 919.188,1119.45 913.5,1129.5C 909.414,1134.66 906.08,1140.33 903.5,1146.5C 901.864,1147.75 900.697,1149.42 900,1151.5C 887.781,1180 875.281,1208.34 862.5,1236.5C 859.661,1236 858.328,1234.33 858.5,1231.5C 860.428,1219.18 861.928,1206.84 863,1194.5C 861.068,1207.66 858.735,1220.66 856,1233.5C 839.455,1225.81 822.955,1217.98 806.5,1210C 792.833,1205 779.167,1200 765.5,1195C 723.28,1177.72 680.946,1160.72 638.5,1144C 636.893,1142.95 636.227,1141.45 636.5,1139.5C 635.596,1140.21 635.263,1141.21 635.5,1142.5C 612.848,1136 590.181,1129.5 567.5,1123C 541.489,1111.61 515.156,1101.11 488.5,1091.5C 486.763,1089.45 484.763,1087.62 482.5,1086C 477.714,1085.84 473.214,1084.68 469,1082.5C 469.603,1070.53 470.103,1058.53 470.5,1046.5C 472.271,1038.31 473.938,1029.98 475.5,1021.5C 476.939,1019.41 477.606,1017.08 477.5,1014.5C 479.295,1009.78 480.462,1004.78 481,999.5C 481.825,988.992 481.659,978.658 480.5,968.5C 479.269,958.524 476.602,949.524 472.5,941.5C 471.39,913.261 473.39,885.261 478.5,857.5C 475.716,867.19 473.883,877.19 473,887.5C 471.706,904.474 471.206,921.474 471.5,938.5C 466.633,928.769 460.3,920.102 452.5,912.5C 444.209,902.691 433.542,897.691 420.5,897.5C 395.677,900.328 374.844,910.995 358,929.5C 345.697,944.155 335.363,960.155 327,977.5C 323.642,988.462 320.476,999.462 317.5,1010.5C 311.693,1006.53 306.026,1002.36 300.5,998C 293.333,990.167 286.167,982.333 279,974.5C 277.128,972.562 276.295,970.229 276.5,967.5C 287.124,915.006 299.624,863.006 314,811.5C 318.21,797.538 323.21,783.871 329,770.5C 333.374,764.625 338.541,759.625 344.5,755.5C 348.394,756.942 352.394,758.109 356.5,759C 362.551,759.26 368.551,759.927 374.5,761C 382.363,764.066 390.363,766.732 398.5,769C 413.326,772.04 427.992,775.706 442.5,780C 449.081,781.708 455.748,782.875 462.5,783.5C 462.918,784.222 463.584,784.722 464.5,785C 477.154,786.378 489.821,787.544 502.5,788.5C 504.199,788.34 505.866,788.506 507.5,789C 506.748,789.671 506.414,790.504 506.5,791.5C 507.531,790.645 508.697,789.978 510,789.5C 530.995,792.939 552.161,794.439 573.5,794C 598.998,802.541 624.998,809.208 651.5,814C 670.161,820.497 688.495,827.83 706.5,836C 733.033,843.843 758.7,853.843 783.5,866C 806.637,872.823 829.304,880.823 851.5,890C 875.599,897.358 899.599,905.025 923.5,913C 945.987,919.545 968.653,920.212 991.5,915C 996.849,912.496 999.515,908.33 999.5,902.5C 997.333,888.166 993.833,874.166 989,860.5C 977.838,840.172 966.171,820.172 954,800.5C 942.372,786.537 930.372,772.87 918,759.5C 903.036,745.53 887.203,732.697 870.5,721C 841.523,708.509 811.856,698.342 781.5,690.5C 780.942,689.21 779.942,688.377 778.5,688C 756.418,683.642 734.085,680.809 711.5,679.5C 700.123,678.828 688.79,677.661 677.5,676C 651.895,670.578 626.228,665.745 600.5,661.5C 598.631,660.835 596.631,660.169 594.5,659.5C 576.338,658.173 558.338,658.173 540.5,659.5C 522.037,661.226 504.037,665.059 486.5,671C 462.794,682.736 439.127,694.403 415.5,706C 407.667,708.793 399.667,710.626 391.5,711.5C 403.202,699.298 414.369,686.632 425,673.5C 438.275,659.624 452.441,646.791 467.5,635C 470.417,633.472 473.417,632.139 476.5,631C 518.832,630.088 561.165,629.755 603.5,630C 626.095,632.608 648.761,634.275 671.5,635C 707.353,639.122 743.019,644.455 778.5,651C 835.986,664.497 893.986,675.164 952.5,683C 977.443,689.203 1002.44,695.203 1027.5,701C 1054.04,709.401 1080.7,717.401 1107.5,725C 1144.72,739.042 1182.38,751.708 1220.5,763C 1232.06,767.114 1243.39,771.781 1254.5,777C 1272.3,788.132 1288.97,800.798 1304.5,815C 1319.83,824.167 1333.83,835.001 1346.5,847.5 Z"/></g>
<g><path style="opacity:1" fill="#66829a" d="M 540.5,659.5 C 558.338,658.173 576.338,658.173 594.5,659.5C 596.631,660.169 598.631,660.835 600.5,661.5C 580.543,659.81 560.543,659.143 540.5,659.5 Z"/></g>
<g><path style="opacity:1" fill="#000001" d="M 540.5,659.5 C 560.543,659.143 580.543,659.81 600.5,661.5C 626.228,665.745 651.895,670.578 677.5,676C 688.79,677.661 700.123,678.828 711.5,679.5C 734.904,681.847 758.237,685.514 781.5,690.5C 811.856,698.342 841.523,708.509 870.5,721C 887.203,732.697 903.036,745.53 918,759.5C 930.372,772.87 942.372,786.537 954,800.5C 966.171,820.172 977.838,840.172 989,860.5C 993.833,874.166 997.333,888.166 999.5,902.5C 999.515,908.33 996.849,912.496 991.5,915C 968.653,920.212 945.987,919.545 923.5,913C 899.599,905.025 875.599,897.358 851.5,890C 829.304,880.823 806.637,872.823 783.5,866C 758.7,853.843 733.033,843.843 706.5,836C 688.495,827.83 670.161,820.497 651.5,814C 624.998,809.208 598.998,802.541 573.5,794C 552.161,794.439 530.995,792.939 510,789.5C 508.697,789.978 507.531,790.645 506.5,791.5C 506.414,790.504 506.748,789.671 507.5,789C 505.866,788.506 504.199,788.34 502.5,788.5C 489.373,786.262 476.04,784.595 462.5,783.5C 455.748,782.875 449.081,781.708 442.5,780C 427.992,775.706 413.326,772.04 398.5,769C 390.363,766.732 382.363,764.066 374.5,761C 368.551,759.927 362.551,759.26 356.5,759C 352.394,758.109 348.394,756.942 344.5,755.5C 341.857,752.766 340.857,749.433 341.5,745.5C 343.895,742.139 346.895,739.472 350.5,737.5C 351.251,738.573 352.251,738.74 353.5,738C 360.268,733.532 366.768,728.699 373,723.5C 372.811,719.722 374.311,716.889 377.5,715C 382.554,714.678 387.221,713.511 391.5,711.5C 399.667,710.626 407.667,708.793 415.5,706C 439.127,694.403 462.794,682.736 486.5,671C 504.037,665.059 522.037,661.226 540.5,659.5 Z"/></g>
<g><path style="opacity:1" fill="#6d8ba4" d="M 711.5,679.5 C 734.085,680.809 756.418,683.642 778.5,688C 779.942,688.377 780.942,689.21 781.5,690.5C 758.237,685.514 734.904,681.847 711.5,679.5 Z"/></g>
<g><path style="opacity:1" fill="#000000" d="M 1346.5,847.5 C 1362.56,863.347 1379.56,878.013 1397.5,891.5C 1430.8,919.132 1461.47,949.466 1489.5,982.5C 1492.45,986.733 1494.61,991.4 1496,996.5C 1499.21,997.679 1501.71,999.679 1503.5,1002.5C 1503,1007.34 1500.34,1010.34 1495.5,1011.5C 1484.35,1008.55 1473.02,1006.88 1461.5,1006.5C 1452.35,1004.85 1443.01,1003.52 1433.5,1002.5C 1421.22,1000.55 1408.89,999.045 1396.5,998C 1377.87,992.616 1358.87,989.283 1339.5,988C 1279.67,971.96 1219.34,957.96 1158.5,946C 1135.64,939.952 1112.97,933.286 1090.5,926C 1081.08,922.215 1072.58,917.048 1065,910.5C 1046.97,877.445 1028.63,844.445 1010,811.5C 998.955,790.413 989.289,768.747 981,746.5C 979.5,736 984,731.5 994.5,733C 1017.94,738.056 1041.61,741.722 1065.5,744C 1098.12,752.739 1131.12,759.739 1164.5,765C 1217.38,773.164 1265.05,793.164 1307.5,825C 1320.88,832.018 1333.88,839.518 1346.5,847.5 Z"/></g>
<g><path style="opacity:0.922" fill="#02042e" d="M 341.5,745.5 C 340.857,749.433 341.857,752.766 344.5,755.5C 338.541,759.625 333.374,764.625 329,770.5C 323.21,783.871 318.21,797.538 314,811.5C 299.624,863.006 287.124,915.006 276.5,967.5C 276.295,970.229 277.128,972.562 279,974.5C 286.167,982.333 293.333,990.167 300.5,998C 306.026,1002.36 311.693,1006.53 317.5,1010.5C 320.476,999.462 323.642,988.462 327,977.5C 335.363,960.155 345.697,944.155 358,929.5C 374.844,910.995 395.677,900.328 420.5,897.5C 433.542,897.691 444.209,902.691 452.5,912.5C 450.002,911.088 447.336,909.921 444.5,909C 442.101,908.289 439.768,908.456 437.5,909.5C 434.779,907.473 431.779,905.973 428.5,905C 412.944,902.89 398.277,905.557 384.5,913C 369.381,921.785 357.215,933.619 348,948.5C 338.454,963.927 330.787,980.261 325,997.5C 322.531,1006.01 321.031,1014.68 320.5,1023.5C 305.507,1015.69 292.34,1005.36 281,992.5C 277,987.833 273,983.167 269,978.5C 266.087,973.518 265.087,968.185 266,962.5C 274.122,930.343 282.122,898.01 290,865.5C 296.689,840.078 303.689,814.745 311,789.5C 313.885,780.179 317.551,771.179 322,762.5C 327.78,755.878 334.28,750.212 341.5,745.5 Z"/></g>
<g><path style="opacity:1" fill="#5f798e" d="M 462.5,783.5 C 476.04,784.595 489.373,786.262 502.5,788.5C 489.821,787.544 477.154,786.378 464.5,785C 463.584,784.722 462.918,784.222 462.5,783.5 Z"/></g>
<g><path style="opacity:1" fill="#0a122c" d="M 506.5,791.5 C 506.539,792.756 506.039,793.756 505,794.5C 504.415,793.002 504.915,792.002 506.5,791.5 Z"/></g>
<g><path style="opacity:1" fill="#0d142f" d="M 483.5,836.5 C 483.953,832.307 485.119,828.307 487,824.5C 486.735,828.791 485.569,832.791 483.5,836.5 Z"/></g>
<g><path style="opacity:1" fill="#434747" d="M 836.5,836.5 C 870.3,834.493 902.3,840.993 932.5,856C 934.667,858.833 936.833,861.667 939,864.5C 939.539,869.625 939.205,874.625 938,879.5C 940.382,878.446 942.882,877.779 945.5,877.5C 945.232,880.119 945.565,882.619 946.5,885C 945.833,885.667 945.167,886.333 944.5,887C 940.5,888 936.5,889 932.5,890C 930.807,895.693 927.14,899.36 921.5,901C 907.788,902.828 894.455,901.161 881.5,896C 868.645,889.492 855.311,884.159 841.5,880C 834.24,877.399 828.073,873.232 823,867.5C 818.349,852.897 822.849,842.564 836.5,836.5 Z"/></g>
<g><path style="opacity:1" fill="#0b112c" d="M 483.5,836.5 C 483.102,840.761 482.102,844.761 480.5,848.5C 480.584,844.163 481.584,840.163 483.5,836.5 Z"/></g>
<g><path style="opacity:1" fill="#0b112c" d="M 715.5,849.5 C 716.559,851.07 716.059,852.403 714,853.5C 713.7,851.934 714.2,850.601 715.5,849.5 Z"/></g>
<g><path style="opacity:1" fill="#0a0f2a" d="M 480.5,848.5 C 480.58,851.781 479.913,854.781 478.5,857.5C 478.42,854.219 479.087,851.219 480.5,848.5 Z"/></g>
<g><path style="opacity:1" fill="#080d28" d="M 704.5,864.5 C 705.713,865.497 705.546,866.497 704,867.5C 703.53,866.423 703.697,865.423 704.5,864.5 Z"/></g>
<g><path style="opacity:1" fill="#080c28" d="M 640.5,870.5 C 634.716,869.284 632.049,871.618 632.5,877.5C 630.738,870.266 633.404,867.932 640.5,870.5 Z"/></g>
<g><path style="opacity:1" fill="#0c142e" d="M 701.5,869.5 C 702.334,871.263 701.834,872.93 700,874.5C 699.878,872.718 700.378,871.052 701.5,869.5 Z"/></g>
<g><path style="opacity:1" fill="#050825" d="M 640.5,870.5 C 643.568,870.547 646.568,871.047 649.5,872C 646.228,872.576 643.228,872.076 640.5,870.5 Z"/></g>
<g><path style="opacity:1" fill="#060926" d="M 632.5,877.5 C 633.222,877.082 633.722,876.416 634,875.5C 634.614,877.879 634.947,880.212 635,882.5C 633.88,880.97 633.046,879.303 632.5,877.5 Z"/></g>
<g><path style="opacity:1" fill="#0d1430" d="M 694.5,887.5 C 694.372,885.345 694.872,883.345 696,881.5C 696.405,883.775 695.905,885.775 694.5,887.5 Z"/></g>
<g><path style="opacity:1" fill="#070b27" d="M 681.5,885.5 C 682.189,884.226 683.023,884.226 684,885.5C 684.667,887.5 684.667,889.5 684,891.5C 683.963,889.026 683.13,887.026 681.5,885.5 Z"/></g>
<g><path style="opacity:1" fill="#0d1430" d="M 640.5,886.5 C 641.251,885.427 642.251,885.26 643.5,886C 647.5,888 651.5,890 655.5,892C 654.5,892.667 653.5,892.667 652.5,892C 648.598,889.881 644.598,888.048 640.5,886.5 Z"/></g>
<g><path style="opacity:1" fill="#0c132d" d="M 660.5,895.5 C 660.735,894.903 661.235,894.57 662,894.5C 665.5,895.667 669,896.833 672.5,898C 668.391,897.914 664.391,897.08 660.5,895.5 Z"/></g>
<g><path style="opacity:1" fill="#0d142f" d="M 705.5,894.5 C 709.102,893.792 712.769,894.292 716.5,896C 712.804,895.997 709.137,895.497 705.5,894.5 Z"/></g>
<g><path style="opacity:1" fill="#030323" d="M 705.5,894.5 C 704.833,895.833 703.833,896.833 702.5,897.5C 702.5,895.5 703.5,894.5 705.5,894.5 Z"/></g>
<g><path style="opacity:1" fill="#050724" d="M 702.5,897.5 C 702.627,899.915 702.793,902.249 703,904.5C 701.272,902.181 701.105,899.847 702.5,897.5 Z"/></g>
<g><path style="opacity:1" fill="#0a102a" d="M 726.5,899.5 C 724.073,899.477 721.74,898.977 719.5,898C 722.139,897.412 724.473,897.912 726.5,899.5 Z"/></g>
<g><path style="opacity:1" fill="#0d152f" d="M 694.5,887.5 C 691.475,901.933 687.975,916.267 684,930.5C 686.413,915.848 689.913,901.515 694.5,887.5 Z"/></g>
<g><path style="opacity:1" fill="#0d142f" d="M 726.5,899.5 C 731.915,900.194 736.915,901.86 741.5,904.5C 736.216,903.405 731.216,901.739 726.5,899.5 Z"/></g>
<g><path style="opacity:1" fill="#040523" d="M 478.5,857.5 C 473.39,885.261 471.39,913.261 472.5,941.5C 471.596,940.791 471.263,939.791 471.5,938.5C 471.206,921.474 471.706,904.474 473,887.5C 473.883,877.19 475.716,867.19 478.5,857.5 Z"/></g>
<g><path style="opacity:0.989" fill="#010101" d="M 452.5,912.5 C 460.3,920.102 466.633,928.769 471.5,938.5C 471.263,939.791 471.596,940.791 472.5,941.5C 476.602,949.524 479.269,958.524 480.5,968.5C 481.106,983.957 480.106,999.29 477.5,1014.5C 477.606,1017.08 476.939,1019.41 475.5,1021.5C 474.167,1021.5 472.833,1021.5 471.5,1021.5C 471.218,1029.84 470.884,1038.17 470.5,1046.5C 470.103,1058.53 469.603,1070.53 469,1082.5C 473.214,1084.68 477.714,1085.84 482.5,1086C 484.763,1087.62 486.763,1089.45 488.5,1091.5C 489.733,1092.98 490.733,1094.64 491.5,1096.5C 491.471,1098.03 490.804,1099.2 489.5,1100C 490.056,1100.38 490.389,1100.88 490.5,1101.5C 489.504,1101.41 488.671,1101.75 488,1102.5C 483.762,1111.98 478.262,1120.65 471.5,1128.5C 468.461,1131.69 464.794,1133.85 460.5,1135C 448.49,1137.88 436.324,1140.04 424,1141.5C 411.167,1141.71 398.834,1139.37 387,1134.5C 386.098,1134.74 385.265,1135.08 384.5,1135.5C 367.399,1127.7 353.565,1116.03 343,1100.5C 339.34,1093.19 336.673,1085.52 335,1077.5C 332.597,1060.42 329.764,1043.42 326.5,1026.5C 323.784,1026.61 321.784,1025.61 320.5,1023.5C 321.031,1014.68 322.531,1006.01 325,997.5C 330.787,980.261 338.454,963.927 348,948.5C 357.215,933.619 369.381,921.785 384.5,913C 398.277,905.557 412.944,902.89 428.5,905C 431.779,905.973 434.779,907.473 437.5,909.5C 439.768,908.456 442.101,908.289 444.5,909C 447.336,909.921 450.002,911.088 452.5,912.5 Z"/></g>
<g><path style="opacity:1" fill="#111934" d="M 741.5,904.5 C 744.016,904.755 746.35,905.589 748.5,907C 745.758,907.295 743.425,906.462 741.5,904.5 Z"/></g>
<g><path style="opacity:1" fill="#0a0e2b" d="M 718.5,912.5 C 716.692,912.509 715.025,912.009 713.5,911C 715.535,910.401 717.201,910.901 718.5,912.5 Z"/></g>
<g><path style="opacity:1" fill="#0c142e" d="M 718.5,912.5 C 721.016,912.755 723.35,913.589 725.5,915C 722.758,915.295 720.425,914.462 718.5,912.5 Z"/></g>
<g><path style="opacity:1" fill="#0b112c" d="M 753.5,920.5 C 753.389,921.117 753.056,921.617 752.5,922C 744.429,923.066 736.762,921.733 729.5,918C 735.217,919.34 741.05,920.506 747,921.5C 749.216,921.347 751.383,921.014 753.5,920.5 Z"/></g>
<g><path style="opacity:1" fill="#090a28" d="M 753.5,920.5 C 754.002,918.915 755.002,918.415 756.5,919C 755.756,920.039 754.756,920.539 753.5,920.5 Z"/></g>
<g><path style="opacity:1" fill="#121a36" d="M 955.5,929.5 C 956.043,929.56 956.376,929.893 956.5,930.5C 951.889,935.618 951.556,935.285 955.5,929.5 Z"/></g>
<g><path style="opacity:1" fill="#090a28" d="M 950.5,935.5 C 951.713,936.497 951.546,937.497 950,938.5C 949.53,937.423 949.697,936.423 950.5,935.5 Z"/></g>
<g><path style="opacity:1" fill="#090a29" d="M 944.5,944.5 C 945.713,945.497 945.546,946.497 944,947.5C 943.53,946.423 943.697,945.423 944.5,944.5 Z"/></g>
<g><path style="opacity:1" fill="#686d6c" d="M 401.5,945.5 C 413.897,944.784 423.397,949.784 430,960.5C 436.747,974.239 439.914,988.739 439.5,1004C 439.513,1012.53 439.013,1021.03 438,1029.5C 435.701,1036.69 433.701,1044.02 432,1051.5C 429.105,1058.29 425.438,1064.63 421,1070.5C 415.173,1077.03 408.006,1079.53 399.5,1078C 396.438,1076.94 393.938,1075.11 392,1072.5C 376.408,1049.86 369.408,1024.86 371,997.5C 374.206,982.763 379.872,969.096 388,956.5C 391.872,951.768 396.372,948.102 401.5,945.5 Z"/></g>
<g><path style="opacity:1" fill="#0b112b" d="M 677.5,955.5 C 677.853,951.087 678.686,946.754 680,942.5C 680.258,947.12 679.424,951.454 677.5,955.5 Z"/></g>
<g><path style="opacity:1" fill="#0b122d" d="M 938.5,954.5 C 938.973,956.97 938.139,959.304 936,961.5C 936.22,959.037 937.054,956.704 938.5,954.5 Z"/></g>
<g><path style="opacity:1" fill="#090e29" d="M 677.5,955.5 C 677.119,960.237 676.286,964.904 675,969.5C 674.757,964.557 675.59,959.89 677.5,955.5 Z"/></g>
<g><path style="opacity:1" fill="#0a0f2a" d="M 671.5,979.5 C 672.139,980.097 672.472,980.93 672.5,982C 671.745,985.518 670.912,989.018 670,992.5C 670.002,988.14 670.502,983.807 671.5,979.5 Z"/></g>
<g><path style="opacity:1" fill="#0b132e" d="M 925.5,979.5 C 926.097,979.735 926.43,980.235 926.5,981C 925.47,983.56 924.303,986.06 923,988.5C 923.206,985.394 924.039,982.394 925.5,979.5 Z"/></g>
<g><path style="opacity:0.933" fill="#03052e" d="M 1489.5,982.5 C 1496.32,988.427 1502.99,994.594 1509.5,1001C 1529.78,1014.95 1549.78,1029.28 1569.5,1044C 1582,1051.08 1594.33,1058.41 1606.5,1066C 1608.35,1067.13 1610.35,1067.63 1612.5,1067.5C 1632.27,1082.1 1648.77,1099.77 1662,1120.5C 1695.76,1175.2 1711.6,1234.87 1709.5,1299.5C 1709.51,1331.61 1703.68,1362.61 1692,1392.5C 1682.95,1405.6 1670.78,1414.1 1655.5,1418C 1627.51,1419.9 1599.51,1419.9 1571.5,1418C 1552.89,1414.71 1534.23,1411.88 1515.5,1409.5C 1479.26,1405.55 1442.93,1401.21 1406.5,1396.5C 1407.47,1394.52 1408.47,1392.52 1409.5,1390.5C 1417.87,1390.38 1426.2,1390.88 1434.5,1392C 1445.44,1394.04 1456.44,1395.71 1467.5,1397C 1502.47,1399.02 1537.14,1403.36 1571.5,1410C 1598.17,1411.89 1624.84,1411.89 1651.5,1410C 1657.25,1409.13 1662.58,1407.13 1667.5,1404C 1678.38,1396.78 1685.88,1386.95 1690,1374.5C 1702.93,1327.05 1705.1,1279.05 1696.5,1230.5C 1693.24,1216.94 1690.41,1203.28 1688,1189.5C 1686.83,1185.14 1684.66,1181.48 1681.5,1178.5C 1680.97,1175.76 1680.14,1173.1 1679,1170.5C 1665.31,1137.92 1645.81,1109.42 1620.5,1085C 1602.35,1071.42 1583.35,1059.09 1563.5,1048C 1544.19,1031.85 1524.19,1016.68 1503.5,1002.5C 1501.71,999.679 1499.21,997.679 1496,996.5C 1494.61,991.4 1492.45,986.733 1489.5,982.5 Z"/></g>
<g><path style="opacity:1" fill="#0b0f2c" d="M 919.5,995.5 C 919.491,993.692 919.991,992.025 921,990.5C 921.599,992.535 921.099,994.201 919.5,995.5 Z"/></g>
<g><path style="opacity:1" fill="#587085" d="M 480.5,968.5 C 481.659,978.658 481.825,988.992 481,999.5C 480.462,1004.78 479.295,1009.78 477.5,1014.5C 480.106,999.29 481.106,983.957 480.5,968.5 Z"/></g>
<g><path style="opacity:1" fill="#0e1631" d="M 919.5,995.5 C 919.245,998.016 918.411,1000.35 917,1002.5C 916.705,999.758 917.538,997.425 919.5,995.5 Z"/></g>
<g><path style="opacity:1" fill="#576f83" d="M 1433.5,1002.5 C 1443.01,1003.52 1452.35,1004.85 1461.5,1006.5C 1453.12,1006.14 1444.79,1005.31 1436.5,1004C 1435.26,1003.77 1434.26,1003.27 1433.5,1002.5 Z"/></g>
<g><path style="opacity:1" fill="#0b122d" d="M 667.5,996.5 C 668.124,996.917 668.457,997.584 668.5,998.5C 667,1004.5 665.5,1010.5 664,1016.5C 664.514,1009.76 665.681,1003.1 667.5,996.5 Z"/></g>
<g><path style="opacity:1" fill="#0b112d" d="M 912.5,1010.5 C 913.621,1012.09 913.454,1013.76 912,1015.5C 911.616,1013.8 911.782,1012.14 912.5,1010.5 Z"/></g>
<g><path style="opacity:1" fill="#05062a" d="M 475.5,1021.5 C 473.938,1029.98 472.271,1038.31 470.5,1046.5C 470.884,1038.17 471.218,1029.84 471.5,1021.5C 472.833,1021.5 474.167,1021.5 475.5,1021.5 Z"/></g>
<g><path style="opacity:1" fill="#080c28" d="M 658.5,1040.5 C 659.084,1033.74 660.251,1027.08 662,1020.5C 661.782,1027.41 660.615,1034.08 658.5,1040.5 Z"/></g>
<g><path style="opacity:1" fill="#0d1430" d="M 903.5,1040.5 C 903.523,1038.07 904.023,1035.74 905,1033.5C 905.588,1036.14 905.088,1038.47 903.5,1040.5 Z"/></g>
<g><path style="opacity:1" fill="#090e2a" d="M 903.5,1040.5 C 903.59,1043.15 902.924,1045.49 901.5,1047.5C 901.41,1044.85 902.076,1042.51 903.5,1040.5 Z"/></g>
<g><path style="opacity:1" fill="#080c28" d="M 658.5,1040.5 C 658.119,1045.24 657.286,1049.9 656,1054.5C 655.757,1049.56 656.59,1044.89 658.5,1040.5 Z"/></g>
<g><path style="opacity:1" fill="#444949" d="M 1439.5,1143.5 C 1437.85,1146.47 1435.85,1149.14 1433.5,1151.5C 1418.14,1156.4 1402.8,1161.07 1387.5,1165.5C 1385.54,1166.82 1383.54,1168.15 1381.5,1169.5C 1381.44,1168.96 1381.11,1168.62 1380.5,1168.5C 1373.38,1170.85 1366.38,1170.35 1359.5,1167C 1347.05,1159.96 1334.38,1153.29 1321.5,1147C 1293.84,1136.84 1267.18,1124.51 1241.5,1110C 1236.28,1105.14 1230.78,1100.64 1225,1096.5C 1219.51,1085.85 1214.84,1074.85 1211,1063.5C 1209.42,1058.99 1209.25,1054.49 1210.5,1050C 1211.5,1049.33 1212.5,1049.33 1213.5,1050C 1223.02,1056.17 1233.02,1061.51 1243.5,1066C 1271.77,1075.82 1300.11,1085.49 1328.5,1095C 1336.53,1099.02 1344.53,1103.02 1352.5,1107C 1380.2,1115.68 1407.53,1125.34 1434.5,1136C 1437.63,1137.6 1439.3,1140.1 1439.5,1143.5 Z"/></g>
<g><path style="opacity:1" fill="#0a102a" d="M 901.5,1047.5 C 901.59,1050.15 900.924,1052.49 899.5,1054.5C 899.41,1051.85 900.076,1049.51 901.5,1047.5 Z"/></g>
<g><path style="opacity:1" fill="#000000" d="M 1037.5,1060.5 C 1048.78,1067.14 1059.78,1074.31 1070.5,1082C 1087.46,1095.73 1099.62,1112.9 1107,1133.5C 1111.81,1148.72 1115.64,1164.06 1118.5,1179.5C 1118.67,1190.17 1118.5,1200.84 1118,1211.5C 1115.84,1226.11 1114.34,1240.77 1113.5,1255.5C 1111.22,1266.92 1109.72,1278.58 1109,1290.5C 1106.72,1300.17 1103.55,1309.5 1099.5,1318.5C 1088.67,1322.5 1082.34,1330.17 1080.5,1341.5C 1075.56,1346.98 1069.56,1350.98 1062.5,1353.5C 1061.42,1353.31 1060.42,1352.98 1059.5,1352.5C 1057.7,1345.2 1053.7,1339.36 1047.5,1335C 1027.11,1323.82 1005.78,1321.15 983.5,1327C 980,1329.83 976.5,1332.67 973,1335.5C 970.536,1339.43 968.369,1343.43 966.5,1347.5C 954.137,1343.82 942.137,1339.16 930.5,1333.5C 924.485,1321.31 914.818,1313.65 901.5,1310.5C 894.539,1298.57 889.205,1285.9 885.5,1272.5C 886.097,1272.26 886.43,1271.76 886.5,1271C 884.643,1261.6 883.476,1252.1 883,1242.5C 881.748,1241 880.748,1239.33 880,1237.5C 878.305,1219.95 880.638,1202.95 887,1186.5C 892.236,1173.03 897.736,1159.7 903.5,1146.5C 906.08,1140.33 909.414,1134.66 913.5,1129.5C 920.119,1122.21 927.119,1115.21 934.5,1108.5C 933.626,1106.25 933.292,1103.92 933.5,1101.5C 938.188,1094.81 943.854,1089.15 950.5,1084.5C 964.701,1073.9 979.701,1064.57 995.5,1056.5C 1010.25,1050.12 1024.25,1051.45 1037.5,1060.5 Z"/></g>
<g><path style="opacity:1" fill="#080d28" d="M 899.5,1054.5 C 899.59,1057.15 898.924,1059.49 897.5,1061.5C 897.41,1058.85 898.076,1056.51 899.5,1054.5 Z"/></g>
<g><path style="opacity:1" fill="#0e1631" d="M 897.5,1061.5 C 897.143,1065.26 896.31,1068.93 895,1072.5C 894.746,1068.52 895.579,1064.86 897.5,1061.5 Z"/></g>
<g><path style="opacity:1" fill="#17213c" d="M 652.5,1062.5 C 653.559,1064.73 653.392,1067.06 652,1069.5C 651.666,1067.15 651.833,1064.82 652.5,1062.5 Z"/></g>
<g><path style="opacity:1" fill="#0d1435" d="M 995.5,1056.5 C 979.701,1064.57 964.701,1073.9 950.5,1084.5C 963.038,1071.39 978.038,1062.05 995.5,1056.5 Z"/></g>
<g><path style="opacity:1" fill="#e6f4f3" d="M 1230.5,1072.5 C 1258.66,1079.06 1285.66,1088.89 1311.5,1102C 1325.38,1107.07 1339.38,1111.74 1353.5,1116C 1369.3,1123.57 1385.3,1130.57 1401.5,1137C 1406.38,1139.22 1410.72,1142.22 1414.5,1146C 1402.2,1155.23 1388.37,1159.73 1373,1159.5C 1358.21,1154.86 1344.05,1148.69 1330.5,1141C 1320.33,1135.08 1309.99,1129.41 1299.5,1124C 1284.61,1118.59 1269.61,1113.59 1254.5,1109C 1248.36,1103.87 1242.53,1098.37 1237,1092.5C 1233.52,1086.24 1231.36,1079.57 1230.5,1072.5 Z"/></g>
<g><path style="opacity:1" fill="#090e29" d="M 649.5,1073.5 C 650.559,1075.73 650.392,1078.06 649,1080.5C 648.666,1078.15 648.833,1075.82 649.5,1073.5 Z"/></g>
<g><path style="opacity:1" fill="#101833" d="M 890.5,1086.5 C 890.523,1084.07 891.023,1081.74 892,1079.5C 892.588,1082.14 892.088,1084.47 890.5,1086.5 Z"/></g>
<g><path style="opacity:1" fill="#18213d" d="M 890.5,1086.5 C 890.477,1088.93 889.977,1091.26 889,1093.5C 888.412,1090.86 888.912,1088.53 890.5,1086.5 Z"/></g>
<g><path style="opacity:1" fill="#07092e" d="M 488.5,1091.5 C 515.156,1101.11 541.489,1111.61 567.5,1123C 590.181,1129.5 612.848,1136 635.5,1142.5C 635.263,1141.21 635.596,1140.21 636.5,1139.5C 636.227,1141.45 636.893,1142.95 638.5,1144C 680.946,1160.72 723.28,1177.72 765.5,1195C 779.167,1200 792.833,1205 806.5,1210C 822.955,1217.98 839.455,1225.81 856,1233.5C 858.735,1220.66 861.068,1207.66 863,1194.5C 861.928,1206.84 860.428,1219.18 858.5,1231.5C 858.328,1234.33 859.661,1236 862.5,1236.5C 875.281,1208.34 887.781,1180 900,1151.5C 900.697,1149.42 901.864,1147.75 903.5,1146.5C 897.736,1159.7 892.236,1173.03 887,1186.5C 880.638,1202.95 878.305,1219.95 880,1237.5C 880.748,1239.33 881.748,1241 883,1242.5C 883.476,1252.1 884.643,1261.6 886.5,1271C 886.43,1271.76 886.097,1272.26 885.5,1272.5C 881.822,1265.3 878.322,1257.97 875,1250.5C 874.304,1245.38 873.137,1240.38 871.5,1235.5C 871.09,1239.1 870.923,1242.77 871,1246.5C 867.927,1247.62 864.76,1247.78 861.5,1247C 843.044,1238.27 824.71,1229.27 806.5,1220C 756.883,1200.91 707.55,1181.24 658.5,1161C 644.273,1155.72 629.94,1150.72 615.5,1146C 597.61,1141.78 579.943,1136.78 562.5,1131C 538.548,1120.85 514.548,1111.02 490.5,1101.5C 490.389,1100.88 490.056,1100.38 489.5,1100C 490.804,1099.2 491.471,1098.03 491.5,1096.5C 490.733,1094.64 489.733,1092.98 488.5,1091.5 Z"/></g>
<g><path style="opacity:1" fill="#0b122c" d="M 644.5,1097.5 C 644.547,1094.43 645.047,1091.43 646,1088.5C 646.576,1091.77 646.076,1094.77 644.5,1097.5 Z"/></g>
<g><path style="opacity:1" fill="#050825" d="M 644.5,1097.5 C 644.236,1103.42 643.236,1109.09 641.5,1114.5C 641.764,1108.58 642.764,1102.91 644.5,1097.5 Z"/></g>
<g><path style="opacity:1" fill="#0a0f2a" d="M 884.5,1107.5 C 884.523,1105.07 885.023,1102.74 886,1100.5C 886.588,1103.14 886.088,1105.47 884.5,1107.5 Z"/></g>
<g><path style="opacity:1" fill="#071134" d="M 933.5,1101.5 C 933.292,1103.92 933.626,1106.25 934.5,1108.5C 927.119,1115.21 920.119,1122.21 913.5,1129.5C 919.188,1119.45 925.854,1110.12 933.5,1101.5 Z"/></g>
<g><path style="opacity:1" fill="#0f1632" d="M 884.5,1107.5 C 884.186,1110.95 883.352,1114.28 882,1117.5C 881.725,1113.84 882.558,1110.5 884.5,1107.5 Z"/></g>
<g><path style="opacity:1" fill="#686d6c" d="M 1002.5,1118.5 C 1018.94,1117.45 1029.44,1124.78 1034,1140.5C 1039.51,1183.95 1032.51,1225.28 1013,1264.5C 1006.26,1277.29 995.761,1282.79 981.5,1281C 977.532,1280.04 974.365,1277.87 972,1274.5C 968.36,1268.58 965.693,1262.25 964,1255.5C 962.254,1233.82 962.254,1212.15 964,1190.5C 966.864,1173.05 972.197,1156.38 980,1140.5C 985.919,1131.47 993.419,1124.14 1002.5,1118.5 Z"/></g>
<g><path style="opacity:1" fill="#050724" d="M 641.5,1114.5 C 641.678,1118.12 641.011,1121.46 639.5,1124.5C 639.549,1120.92 640.215,1117.59 641.5,1114.5 Z"/></g>
<g><path style="opacity:1" fill="#0f1732" d="M 879.5,1121.5 C 880.559,1123.73 880.392,1126.06 879,1128.5C 878.666,1126.15 878.833,1123.82 879.5,1121.5 Z"/></g>
<g><path style="opacity:1" fill="#04082f" d="M 1037.5,1060.5 C 1055.76,1064.25 1070.93,1073.25 1083,1087.5C 1094.67,1104.16 1105.34,1121.5 1115,1139.5C 1118.09,1152.64 1119.26,1165.98 1118.5,1179.5C 1115.64,1164.06 1111.81,1148.72 1107,1133.5C 1099.62,1112.9 1087.46,1095.73 1070.5,1082C 1059.78,1074.31 1048.78,1067.14 1037.5,1060.5 Z"/></g>
<g><path style="opacity:1" fill="#090d28" d="M 639.5,1124.5 C 639.375,1129.79 638.375,1134.79 636.5,1139.5C 636.882,1134.26 637.882,1129.26 639.5,1124.5 Z"/></g>
<g><path style="opacity:1" fill="#000001" d="M 1443.5,1141.5 C 1461.25,1142.42 1478.91,1144.08 1496.5,1146.5C 1497.5,1146.5 1498.5,1146.5 1499.5,1146.5C 1524.62,1150.76 1549.95,1154.43 1575.5,1157.5C 1587.51,1161.67 1599.51,1166.17 1611.5,1171C 1627.22,1174.79 1642.88,1178.79 1658.5,1183C 1661.33,1184.67 1663.66,1186.83 1665.5,1189.5C 1670.87,1200.52 1676.2,1211.52 1681.5,1222.5C 1682.82,1227.44 1683.99,1232.44 1685,1237.5C 1690.41,1258.41 1682.57,1270.25 1661.5,1273C 1629.35,1276.95 1597.35,1275.95 1565.5,1270C 1540.94,1264.35 1516.27,1259.35 1491.5,1255C 1469.11,1251.59 1446.77,1247.92 1424.5,1244C 1409.51,1226.01 1395.67,1207.18 1383,1187.5C 1379.21,1181.58 1378.71,1175.58 1381.5,1169.5C 1383.54,1168.15 1385.54,1166.82 1387.5,1165.5C 1401.97,1166.31 1415.64,1163.48 1428.5,1157C 1430.37,1155.3 1432.04,1153.46 1433.5,1151.5C 1435.85,1149.14 1437.85,1146.47 1439.5,1143.5C 1440.6,1142.4 1441.94,1141.73 1443.5,1141.5 Z"/></g>
<g><path style="opacity:1" fill="#658198" d="M 1443.5,1141.5 C 1445.3,1140.84 1447.3,1140.5 1449.5,1140.5C 1459.16,1141.16 1468.82,1141.66 1478.5,1142C 1484.63,1143.18 1490.63,1144.68 1496.5,1146.5C 1478.91,1144.08 1461.25,1142.42 1443.5,1141.5 Z"/></g>
<g><path style="opacity:1" fill="#7190a9" d="M 1499.5,1146.5 C 1523.95,1148.9 1548.28,1151.74 1572.5,1155C 1573.57,1155.85 1574.57,1156.69 1575.5,1157.5C 1549.95,1154.43 1524.62,1150.76 1499.5,1146.5 Z"/></g>
<g><path style="opacity:1" fill="#090f2a" d="M 872.5,1154.5 C 873.087,1148.4 874.253,1142.4 876,1136.5C 875.782,1142.76 874.615,1148.76 872.5,1154.5 Z"/></g>
<g><path style="opacity:1" fill="#84a8c5" d="M 1433.5,1151.5 C 1432.04,1153.46 1430.37,1155.3 1428.5,1157C 1415.64,1163.48 1401.97,1166.31 1387.5,1165.5C 1402.8,1161.07 1418.14,1156.4 1433.5,1151.5 Z"/></g>
<g><path style="opacity:1" fill="#0c142e" d="M 872.5,1154.5 C 872.453,1157.57 871.953,1160.57 871,1163.5C 870.424,1160.23 870.924,1157.23 872.5,1154.5 Z"/></g>
<g><path style="opacity:1" fill="#090e29" d="M 867.5,1176.5 C 867.547,1173.43 868.047,1170.43 869,1167.5C 869.576,1170.77 869.076,1173.77 867.5,1176.5 Z"/></g>
<g><path style="opacity:1" fill="#444849" d="M 1681.5,1178.5 C 1684.66,1181.48 1686.83,1185.14 1688,1189.5C 1690.41,1203.28 1693.24,1216.94 1696.5,1230.5C 1693.3,1231.93 1689.97,1232.43 1686.5,1232C 1684.73,1228.83 1683.06,1225.66 1681.5,1222.5C 1676.2,1211.52 1670.87,1200.52 1665.5,1189.5C 1666.16,1188.28 1666.83,1186.95 1667.5,1185.5C 1672.78,1184.2 1677.44,1181.86 1681.5,1178.5 Z"/></g>
<g><path style="opacity:1" fill="#0b112b" d="M 867.5,1176.5 C 867.147,1180.91 866.314,1185.25 865,1189.5C 864.742,1184.88 865.576,1180.55 867.5,1176.5 Z"/></g>
<g><path style="opacity:1" fill="#e3f1f0" d="M 1680.5,1188.5 C 1682.77,1188.14 1684.6,1188.81 1686,1190.5C 1688.49,1200.77 1690.66,1211.11 1692.5,1221.5C 1691.32,1221.72 1690.32,1221.39 1689.5,1220.5C 1684.32,1212.32 1680.99,1203.49 1679.5,1194C 1679.58,1192.08 1679.91,1190.24 1680.5,1188.5 Z"/></g>
<g><path style="opacity:0.993" fill="#db564d" d="M 405.5,1273.5 C 405.611,1274.12 405.944,1274.62 406.5,1275C 418.763,1274.97 429.763,1278.64 439.5,1286C 484.322,1302.31 512.322,1333.48 523.5,1379.5C 524.116,1383.86 524.95,1388.2 526,1392.5C 526.673,1381.97 526.173,1371.63 524.5,1361.5C 524.051,1342.45 524.551,1323.45 526,1304.5C 533.077,1288.88 544.91,1283.38 561.5,1288C 566.545,1291.38 570.545,1295.71 573.5,1301C 576.376,1301.44 579.043,1302.44 581.5,1304C 590.99,1311.24 600.656,1318.24 610.5,1325C 620.131,1332.96 629.464,1341.3 638.5,1350C 652.18,1361.85 662.014,1376.35 668,1393.5C 682.005,1429.87 687.339,1467.54 684,1506.5C 680.867,1530.77 670.367,1551.1 652.5,1567.5C 651.614,1568.32 651.281,1569.32 651.5,1570.5C 621.234,1593.4 587.234,1602.23 549.5,1597C 538.236,1593.4 531.069,1585.9 528,1574.5C 528.964,1556.87 529.464,1539.21 529.5,1521.5C 529.49,1510.09 529.156,1498.76 528.5,1487.5C 528.833,1487.5 529.167,1487.5 529.5,1487.5C 530.79,1469.98 530.623,1452.32 529,1434.5C 528.243,1440.15 527.743,1445.82 527.5,1451.5C 526.233,1458.86 524.733,1466.2 523,1473.5C 522.264,1476.59 522.431,1479.59 523.5,1482.5C 510.366,1518.23 488.366,1547.4 457.5,1570C 423.311,1591.8 388.311,1593.14 352.5,1574C 313.4,1547.33 292.234,1510.16 289,1462.5C 285.386,1421.69 290.386,1382.02 304,1343.5C 314.11,1318.39 330.943,1299.23 354.5,1286C 366.882,1280.32 379.882,1277.32 393.5,1277C 397.498,1275.77 401.498,1274.6 405.5,1273.5 Z M 405.5,1362.5 C 418.113,1363.56 427.613,1369.56 434,1380.5C 439.99,1392.46 442.824,1405.13 442.5,1418.5C 442.273,1441.59 439.106,1464.26 433,1486.5C 430.945,1491.89 427.445,1496.05 422.5,1499C 415.557,1503.39 408.057,1506.23 400,1507.5C 384.243,1503.08 373.577,1493.08 368,1477.5C 364.985,1469.94 363.152,1462.11 362.5,1454C 365.238,1429.31 370.405,1405.14 378,1381.5C 380.075,1377.42 382.908,1373.92 386.5,1371C 392.934,1368.11 399.267,1365.28 405.5,1362.5 Z M 582.5,1532.5 C 586.829,1535.16 591.163,1537.83 595.5,1540.5C 591.103,1542.41 586.437,1543.74 581.5,1544.5C 582.272,1540.55 582.605,1536.55 582.5,1532.5 Z"/></g>
<g><path style="opacity:1" fill="#04032b" d="M 1113.5,1255.5 C 1114.37,1275.83 1112.37,1295.83 1107.5,1315.5C 1104.83,1316.5 1102.17,1317.5 1099.5,1318.5C 1103.55,1309.5 1106.72,1300.17 1109,1290.5C 1109.72,1278.58 1111.22,1266.92 1113.5,1255.5 Z"/></g>
<g><path style="opacity:1" fill="#e6f4f3" d="M 1489.5,1286.5 C 1523.59,1291.09 1557.59,1296.25 1591.5,1302C 1598.05,1302.91 1604.38,1304.58 1610.5,1307C 1612,1308.5 1613.5,1310 1615,1311.5C 1615.43,1330 1611.77,1347.67 1604,1364.5C 1602.36,1366.81 1600.2,1368.31 1597.5,1369C 1589.88,1370.43 1582.21,1370.76 1574.5,1370C 1548.01,1364.86 1521.34,1360.86 1494.5,1358C 1487.32,1357.5 1481.82,1354.34 1478,1348.5C 1477.33,1337.5 1477.33,1326.5 1478,1315.5C 1478.43,1304.37 1482.26,1294.7 1489.5,1286.5 Z"/></g>
<g><path style="opacity:0.998" fill="#da564e" d="M 1409.5,1390.5 C 1408.47,1392.52 1407.47,1394.52 1406.5,1396.5C 1399.11,1409.61 1391.94,1422.95 1385,1436.5C 1383.33,1438.5 1381.67,1440.5 1380,1442.5C 1381.91,1475.3 1383.75,1508.13 1385.5,1541C 1385.52,1543.93 1386.19,1546.43 1387.5,1548.5C 1389.34,1565.79 1389.84,1583.12 1389,1600.5C 1382.41,1620.73 1368.58,1628.23 1347.5,1623C 1328.75,1613.66 1322.42,1598.82 1328.5,1578.5C 1329.01,1576.38 1329.35,1574.22 1329.5,1572C 1327.17,1552.9 1325.84,1533.73 1325.5,1514.5C 1325.48,1500.61 1324.48,1486.95 1322.5,1473.5C 1322,1461.81 1321.17,1450.15 1320,1438.5C 1311.09,1427.01 1302.42,1415.35 1294,1403.5C 1281.57,1390.58 1269.41,1377.58 1257.5,1364.5C 1257.94,1364.57 1258.27,1364.4 1258.5,1364C 1255.46,1360.74 1252.79,1357.24 1250.5,1353.5C 1245.4,1344.75 1244.23,1335.42 1247,1325.5C 1257.87,1306.23 1273.03,1302.06 1292.5,1313C 1299.12,1321.08 1305.62,1329.24 1312,1337.5C 1325.07,1350.57 1337.41,1364.24 1349,1378.5C 1360.96,1358.25 1371.63,1337.25 1381,1315.5C 1389.55,1305.31 1400.38,1301.48 1413.5,1304C 1430.13,1309.63 1437.3,1321.13 1435,1338.5C 1427.73,1356.5 1419.23,1373.83 1409.5,1390.5 Z"/></g>
<g><path style="opacity:1" fill="#da564e" d="M 1210.5,1349.5 C 1207.81,1351.86 1205.14,1354.2 1202.5,1356.5C 1194.87,1357.98 1187.2,1359.31 1179.5,1360.5C 1168.62,1360.14 1157.95,1360.81 1147.5,1362.5C 1141.83,1362.5 1136.17,1362.5 1130.5,1362.5C 1131.45,1380.84 1132.45,1399.17 1133.5,1417.5C 1134,1424.49 1134.33,1431.49 1134.5,1438.5C 1143.67,1437.83 1152.67,1436.83 1161.5,1435.5C 1163.6,1435.8 1165.6,1435.47 1167.5,1434.5C 1169.34,1433.08 1171.34,1431.91 1173.5,1431C 1188.12,1428.72 1198.62,1434.22 1205,1447.5C 1207.22,1465.29 1199.72,1476.79 1182.5,1482C 1177.54,1483.16 1172.54,1483.99 1167.5,1484.5C 1158.46,1484.78 1149.46,1485.45 1140.5,1486.5C 1140.18,1492.36 1140.51,1498.02 1141.5,1503.5C 1141.5,1516.83 1141.5,1530.17 1141.5,1543.5C 1142.79,1543.74 1143.79,1543.4 1144.5,1542.5C 1155.1,1540.46 1165.77,1538.79 1176.5,1537.5C 1187.48,1536.75 1198.48,1536.42 1209.5,1536.5C 1229.82,1543.15 1235.32,1556.15 1226,1575.5C 1222.47,1580.7 1217.64,1583.87 1211.5,1585C 1202.5,1585.33 1193.5,1585.67 1184.5,1586C 1165.3,1589.81 1145.97,1592.64 1126.5,1594.5C 1109.75,1593.69 1099.59,1585.02 1096,1568.5C 1094.14,1558.91 1092.97,1549.25 1092.5,1539.5C 1092.67,1526.16 1092.5,1512.83 1092,1499.5C 1091.82,1494.98 1091.32,1490.65 1090.5,1486.5C 1087.5,1452.49 1084.5,1418.49 1081.5,1384.5C 1081.35,1374.16 1081.02,1363.83 1080.5,1353.5C 1080.5,1349.5 1080.5,1345.5 1080.5,1341.5C 1082.34,1330.17 1088.67,1322.5 1099.5,1318.5C 1102.17,1317.5 1104.83,1316.5 1107.5,1315.5C 1109.18,1315.11 1110.85,1314.61 1112.5,1314C 1141.22,1312.55 1169.89,1311.22 1198.5,1310C 1216.51,1318.86 1220.51,1332.03 1210.5,1349.5 Z"/></g>
<g><path style="opacity:1" fill="#db574e" d="M 901.5,1310.5 C 914.818,1313.65 924.485,1321.31 930.5,1333.5C 930.557,1334.61 930.89,1335.61 931.5,1336.5C 931.217,1353.61 922.717,1363.27 906,1365.5C 899.455,1365.98 893.955,1363.81 889.5,1359C 882.69,1358.99 877.19,1361.82 873,1367.5C 869.743,1373.14 869.743,1378.8 873,1384.5C 882.88,1398.05 893.88,1410.72 906,1422.5C 922.402,1442.51 933.569,1465.18 939.5,1490.5C 941.11,1500.43 941.777,1510.43 941.5,1520.5C 939.556,1558.91 919.889,1582.41 882.5,1591C 867.556,1592.85 853.889,1589.51 841.5,1581C 826.667,1570.17 813.833,1557.33 803,1542.5C 793.762,1524.25 798.262,1510.75 816.5,1502C 822.585,1501.14 828.585,1501.47 834.5,1503C 841.558,1507.39 846.391,1513.56 849,1521.5C 855.614,1529.12 863.114,1535.62 871.5,1541C 884.808,1541.03 891.641,1534.19 892,1520.5C 893.315,1508.74 891.648,1497.41 887,1486.5C 882.761,1477.02 877.761,1468.02 872,1459.5C 862.703,1448.53 853.036,1437.87 843,1427.5C 832.673,1415.49 825.339,1401.82 821,1386.5C 819.037,1348.79 835.87,1323.62 871.5,1311C 881.489,1309.31 891.489,1309.15 901.5,1310.5 Z"/></g>
<g><path style="opacity:0.999" fill="#db564e" d="M 747.5,1602.5 C 737.211,1608.29 727.211,1607.62 717.5,1600.5C 714.466,1597.02 711.466,1593.69 708.5,1590.5C 709.472,1589.6 710.138,1588.43 710.5,1587C 709.464,1580.51 709.464,1574.01 710.5,1567.5C 711.321,1564.36 711.821,1561.03 712,1557.5C 712.83,1535.33 712.663,1513.33 711.5,1491.5C 711.667,1475.16 711.5,1458.83 711,1442.5C 689.271,1411.72 670.604,1379.06 655,1344.5C 650.851,1328.82 656.018,1317.66 670.5,1311C 687.684,1308.16 698.518,1314.99 703,1331.5C 710.176,1343.85 716.843,1356.52 723,1369.5C 728.003,1378.18 733.503,1386.51 739.5,1394.5C 755.829,1369.32 771.162,1343.49 785.5,1317C 796.549,1308.69 807.882,1308.36 819.5,1316C 827.023,1322.93 829.523,1331.43 827,1341.5C 813.466,1369.57 798.133,1396.57 781,1422.5C 775.099,1431.74 768.432,1440.4 761,1448.5C 761.364,1485.83 761.364,1523.16 761,1560.5C 760.263,1569.2 759.263,1577.87 758,1586.5C 756.941,1589.62 755.608,1592.62 754,1595.5C 751.578,1597.75 749.411,1600.08 747.5,1602.5 Z"/></g>
<g><path style="opacity:1" fill="#da564e" d="M 1059.5,1352.5 C 1058.95,1356.01 1059.61,1359.01 1061.5,1361.5C 1058.32,1365.66 1055.32,1369.99 1052.5,1374.5C 1045.44,1381.15 1037.11,1383.32 1027.5,1381C 1023.99,1379.25 1020.66,1377.58 1017.5,1376C 1029.94,1394.78 1042.78,1413.28 1056,1431.5C 1075.19,1463.8 1081.19,1498.47 1074,1535.5C 1070.25,1551.51 1062.09,1564.68 1049.5,1575C 1003.89,1605.94 969.893,1596.44 947.5,1546.5C 947.178,1540.35 947.845,1534.35 949.5,1528.5C 956.894,1515.98 967.561,1512.15 981.5,1517C 989.181,1521.02 994.348,1527.18 997,1535.5C 998.723,1538.73 1001.22,1541.06 1004.5,1542.5C 1011.03,1540.32 1016.86,1536.99 1022,1532.5C 1024.72,1527.55 1026.39,1522.22 1027,1516.5C 1029,1499.85 1026.67,1483.85 1020,1468.5C 1015.73,1460.57 1011.06,1452.9 1006,1445.5C 992.247,1428.33 980.247,1410 970,1390.5C 966.004,1379.19 964.171,1367.53 964.5,1355.5C 965.371,1353 966.037,1350.33 966.5,1347.5C 968.369,1343.43 970.536,1339.43 973,1335.5C 976.5,1332.67 980,1329.83 983.5,1327C 1005.78,1321.15 1027.11,1323.82 1047.5,1335C 1053.7,1339.36 1057.7,1345.2 1059.5,1352.5 Z"/></g>
<g><path style="opacity:0.997" fill="#f2d766" d="M 490.5,1101.5 C 514.548,1111.02 538.548,1120.85 562.5,1131C 579.943,1136.78 597.61,1141.78 615.5,1146C 629.94,1150.72 644.273,1155.72 658.5,1161C 707.55,1181.24 756.883,1200.91 806.5,1220C 824.71,1229.27 843.044,1238.27 861.5,1247C 864.76,1247.78 867.927,1247.62 871,1246.5C 870.923,1242.77 871.09,1239.1 871.5,1235.5C 873.137,1240.38 874.304,1245.38 875,1250.5C 878.322,1257.97 881.822,1265.3 885.5,1272.5C 889.205,1285.9 894.539,1298.57 901.5,1310.5C 891.489,1309.15 881.489,1309.31 871.5,1311C 835.87,1323.62 819.037,1348.79 821,1386.5C 825.339,1401.82 832.673,1415.49 843,1427.5C 853.036,1437.87 862.703,1448.53 872,1459.5C 877.761,1468.02 882.761,1477.02 887,1486.5C 891.648,1497.41 893.315,1508.74 892,1520.5C 891.641,1534.19 884.808,1541.03 871.5,1541C 863.114,1535.62 855.614,1529.12 849,1521.5C 846.391,1513.56 841.558,1507.39 834.5,1503C 828.585,1501.47 822.585,1501.14 816.5,1502C 798.262,1510.75 793.762,1524.25 803,1542.5C 813.833,1557.33 826.667,1570.17 841.5,1581C 853.889,1589.51 867.556,1592.85 882.5,1591C 919.889,1582.41 939.556,1558.91 941.5,1520.5C 942.654,1514.01 942.821,1507.35 942,1500.5C 941.851,1496.87 941.018,1493.53 939.5,1490.5C 933.569,1465.18 922.402,1442.51 906,1422.5C 893.88,1410.72 882.88,1398.05 873,1384.5C 869.743,1378.8 869.743,1373.14 873,1367.5C 877.19,1361.82 882.69,1358.99 889.5,1359C 893.955,1363.81 899.455,1365.98 906,1365.5C 922.717,1363.27 931.217,1353.61 931.5,1336.5C 941.416,1344.63 952.416,1350.96 964.5,1355.5C 964.171,1367.53 966.004,1379.19 970,1390.5C 980.247,1410 992.247,1428.33 1006,1445.5C 1011.06,1452.9 1015.73,1460.57 1020,1468.5C 1026.67,1483.85 1029,1499.85 1027,1516.5C 1026.39,1522.22 1024.72,1527.55 1022,1532.5C 1016.86,1536.99 1011.03,1540.32 1004.5,1542.5C 1001.22,1541.06 998.723,1538.73 997,1535.5C 994.348,1527.18 989.181,1521.02 981.5,1517C 967.561,1512.15 956.894,1515.98 949.5,1528.5C 948.442,1529.6 947.608,1530.93 947,1532.5C 946.185,1537.35 946.352,1542.02 947.5,1546.5C 969.893,1596.44 1003.89,1605.94 1049.5,1575C 1062.09,1564.68 1070.25,1551.51 1074,1535.5C 1081.19,1498.47 1075.19,1463.8 1056,1431.5C 1042.78,1413.28 1029.94,1394.78 1017.5,1376C 1020.66,1377.58 1023.99,1379.25 1027.5,1381C 1037.11,1383.32 1045.44,1381.15 1052.5,1374.5C 1055.32,1369.99 1058.32,1365.66 1061.5,1361.5C 1066.91,1359.7 1072.24,1357.7 1077.5,1355.5C 1079.14,1364.98 1080.47,1374.65 1081.5,1384.5C 1084.5,1418.49 1087.5,1452.49 1090.5,1486.5C 1090.8,1504.34 1091.46,1522.01 1092.5,1539.5C 1092.97,1549.25 1094.14,1558.91 1096,1568.5C 1099.59,1585.02 1109.75,1593.69 1126.5,1594.5C 1145.97,1592.64 1165.3,1589.81 1184.5,1586C 1193.5,1585.67 1202.5,1585.33 1211.5,1585C 1217.64,1583.87 1222.47,1580.7 1226,1575.5C 1235.32,1556.15 1229.82,1543.15 1209.5,1536.5C 1200.01,1535.34 1190.34,1535.18 1180.5,1536C 1178.94,1536.21 1177.61,1536.71 1176.5,1537.5C 1165.77,1538.79 1155.1,1540.46 1144.5,1542.5C 1142.84,1529.7 1141.84,1516.7 1141.5,1503.5C 1141.5,1498.17 1141.5,1492.83 1141.5,1487.5C 1150.37,1487.08 1159.04,1486.08 1167.5,1484.5C 1172.54,1483.99 1177.54,1483.16 1182.5,1482C 1199.72,1476.79 1207.22,1465.29 1205,1447.5C 1198.62,1434.22 1188.12,1428.72 1173.5,1431C 1171.34,1431.91 1169.34,1433.08 1167.5,1434.5C 1165.6,1435.47 1163.6,1435.8 1161.5,1435.5C 1153.15,1436.31 1144.81,1436.31 1136.5,1435.5C 1135.86,1429.32 1134.86,1423.32 1133.5,1417.5C 1132.45,1399.17 1131.45,1380.84 1130.5,1362.5C 1136.17,1362.5 1141.83,1362.5 1147.5,1362.5C 1158.34,1362.18 1169.01,1361.51 1179.5,1360.5C 1187.2,1359.31 1194.87,1357.98 1202.5,1356.5C 1220.7,1359.15 1239.03,1361.81 1257.5,1364.5C 1269.41,1377.58 1281.57,1390.58 1294,1403.5C 1302.42,1415.35 1311.09,1427.01 1320,1438.5C 1321.17,1450.15 1322,1461.81 1322.5,1473.5C 1322.53,1487.39 1323.53,1501.05 1325.5,1514.5C 1325.84,1533.73 1327.17,1552.9 1329.5,1572C 1329.35,1574.22 1329.01,1576.38 1328.5,1578.5C 1299.77,1591.7 1271.1,1605.2 1242.5,1619C 1193.86,1640.74 1142.86,1654.41 1089.5,1660C 1062.83,1660.67 1036.17,1660.67 1009.5,1660C 992.532,1657.07 975.865,1652.74 959.5,1647C 908.562,1637.68 857.562,1628.68 806.5,1620C 786.112,1615.71 766.445,1609.88 747.5,1602.5C 749.411,1600.08 751.578,1597.75 754,1595.5C 755.608,1592.62 756.941,1589.62 758,1586.5C 759.263,1577.87 760.263,1569.2 761,1560.5C 761.364,1523.16 761.364,1485.83 761,1448.5C 768.432,1440.4 775.099,1431.74 781,1422.5C 798.133,1396.57 813.466,1369.57 827,1341.5C 829.523,1331.43 827.023,1322.93 819.5,1316C 807.882,1308.36 796.549,1308.69 785.5,1317C 771.162,1343.49 755.829,1369.32 739.5,1394.5C 733.503,1386.51 728.003,1378.18 723,1369.5C 716.843,1356.52 710.176,1343.85 703,1331.5C 698.518,1314.99 687.684,1308.16 670.5,1311C 656.018,1317.66 650.851,1328.82 655,1344.5C 670.604,1379.06 689.271,1411.72 711,1442.5C 711.5,1458.83 711.667,1475.16 711.5,1491.5C 711.611,1516.84 711.278,1542.17 710.5,1567.5C 709.464,1574.01 709.464,1580.51 710.5,1587C 710.138,1588.43 709.472,1589.6 708.5,1590.5C 689.234,1584.28 670.234,1577.61 651.5,1570.5C 651.281,1569.32 651.614,1568.32 652.5,1567.5C 670.367,1551.1 680.867,1530.77 684,1506.5C 687.339,1467.54 682.005,1429.87 668,1393.5C 662.014,1376.35 652.18,1361.85 638.5,1350C 629.464,1341.3 620.131,1332.96 610.5,1325C 600.656,1318.24 590.99,1311.24 581.5,1304C 579.043,1302.44 576.376,1301.44 573.5,1301C 570.545,1295.71 566.545,1291.38 561.5,1288C 544.91,1283.38 533.077,1288.88 526,1304.5C 524.551,1323.45 524.051,1342.45 524.5,1361.5C 524.823,1367.69 524.49,1373.69 523.5,1379.5C 512.322,1333.48 484.322,1302.31 439.5,1286C 429.763,1278.64 418.763,1274.97 406.5,1275C 405.944,1274.62 405.611,1274.12 405.5,1273.5C 393.925,1228.24 386.925,1182.24 384.5,1135.5C 385.265,1135.08 386.098,1134.74 387,1134.5C 398.834,1139.37 411.167,1141.71 424,1141.5C 436.324,1140.04 448.49,1137.88 460.5,1135C 464.794,1133.85 468.461,1131.69 471.5,1128.5C 478.262,1120.65 483.762,1111.98 488,1102.5C 488.671,1101.75 489.504,1101.41 490.5,1101.5 Z"/></g>
<g><path style="opacity:1" fill="#09092c" d="M 930.5,1333.5 C 942.137,1339.16 954.137,1343.82 966.5,1347.5C 966.037,1350.33 965.371,1353 964.5,1355.5C 952.416,1350.96 941.416,1344.63 931.5,1336.5C 930.89,1335.61 930.557,1334.61 930.5,1333.5 Z"/></g>
<g><path style="opacity:1" fill="#0d082c" d="M 1080.5,1341.5 C 1080.5,1345.5 1080.5,1349.5 1080.5,1353.5C 1079.29,1353.93 1078.29,1354.6 1077.5,1355.5C 1072.24,1357.7 1066.91,1359.7 1061.5,1361.5C 1059.61,1359.01 1058.95,1356.01 1059.5,1352.5C 1060.42,1352.98 1061.42,1353.31 1062.5,1353.5C 1069.56,1350.98 1075.56,1346.98 1080.5,1341.5 Z"/></g>
<g><path style="opacity:1" fill="#07062d" d="M 1210.5,1349.5 C 1223.85,1350.72 1237.19,1352.05 1250.5,1353.5C 1252.79,1357.24 1255.46,1360.74 1258.5,1364C 1258.27,1364.4 1257.94,1364.57 1257.5,1364.5C 1239.03,1361.81 1220.7,1359.15 1202.5,1356.5C 1205.14,1354.2 1207.81,1351.86 1210.5,1349.5 Z"/></g>
<g><path style="opacity:1" fill="#e59058" d="M 1179.5,1360.5 C 1169.01,1361.51 1158.34,1362.18 1147.5,1362.5C 1157.95,1360.81 1168.62,1360.14 1179.5,1360.5 Z"/></g>
<g><path style="opacity:0.999" fill="#f2d765" d="M 576.5,1362.5 C 581.129,1365.16 585.462,1368.33 589.5,1372C 598.376,1380.18 606.876,1388.68 615,1397.5C 623.708,1414.24 629.541,1431.91 632.5,1450.5C 634.195,1466.44 634.862,1482.44 634.5,1498.5C 632.367,1522.96 619.367,1536.96 595.5,1540.5C 591.163,1537.83 586.829,1535.16 582.5,1532.5C 582.013,1531.53 581.513,1530.53 581,1529.5C 580.5,1514.17 580.333,1498.84 580.5,1483.5C 580.317,1449.6 578.65,1415.94 575.5,1382.5C 575.5,1381.5 575.5,1380.5 575.5,1379.5C 575.178,1373.64 575.511,1367.98 576.5,1362.5 Z"/></g>
<g><path style="opacity:1" fill="#e79a5a" d="M 576.5,1362.5 C 575.511,1367.98 575.178,1373.64 575.5,1379.5C 574.347,1373.35 574.18,1367.01 575,1360.5C 575.717,1361.04 576.217,1361.71 576.5,1362.5 Z"/></g>
<g><path style="opacity:1" fill="#e9a95d" d="M 1080.5,1353.5 C 1081.02,1363.83 1081.35,1374.16 1081.5,1384.5C 1080.47,1374.65 1079.14,1364.98 1077.5,1355.5C 1078.29,1354.6 1079.29,1353.93 1080.5,1353.5 Z"/></g>
<g><path style="opacity:1" fill="#e89f5b" d="M 524.5,1361.5 C 526.173,1371.63 526.673,1381.97 526,1392.5C 524.95,1388.2 524.116,1383.86 523.5,1379.5C 524.49,1373.69 524.823,1367.69 524.5,1361.5 Z"/></g>
<g><path style="opacity:0.994" fill="#f2d766" d="M 1406.5,1396.5 C 1442.93,1401.21 1479.26,1405.55 1515.5,1409.5C 1490.42,1453.44 1458.75,1492.28 1420.5,1526C 1410.16,1534.5 1399.16,1542 1387.5,1548.5C 1386.19,1546.43 1385.52,1543.93 1385.5,1541C 1383.75,1508.13 1381.91,1475.3 1380,1442.5C 1381.67,1440.5 1383.33,1438.5 1385,1436.5C 1391.94,1422.95 1399.11,1409.61 1406.5,1396.5 Z"/></g>
<g><path style="opacity:1" fill="#e69158" d="M 575.5,1382.5 C 578.65,1415.94 580.317,1449.6 580.5,1483.5C 579.681,1480.69 579.181,1477.69 579,1474.5C 578.165,1443.82 576.999,1413.15 575.5,1382.5 Z"/></g>
<g><path style="opacity:1" fill="#e48957" d="M 1133.5,1417.5 C 1134.86,1423.32 1135.86,1429.32 1136.5,1435.5C 1144.81,1436.31 1153.15,1436.31 1161.5,1435.5C 1152.67,1436.83 1143.67,1437.83 1134.5,1438.5C 1134.33,1431.49 1134,1424.49 1133.5,1417.5 Z"/></g>
<g><path style="opacity:0.973" fill="#f2d268" d="M 527.5,1451.5 C 529.238,1463.29 529.905,1475.29 529.5,1487.5C 529.167,1487.5 528.833,1487.5 528.5,1487.5C 526.5,1486.17 524.833,1484.5 523.5,1482.5C 522.431,1479.59 522.264,1476.59 523,1473.5C 524.733,1466.2 526.233,1458.86 527.5,1451.5 Z"/></g>
<g><path style="opacity:1" fill="#e9a65c" d="M 529.5,1487.5 C 529.905,1475.29 529.238,1463.29 527.5,1451.5C 527.743,1445.82 528.243,1440.15 529,1434.5C 530.623,1452.32 530.79,1469.98 529.5,1487.5 Z"/></g>
<g><path style="opacity:1" fill="#edb860" d="M 632.5,1450.5 C 636.628,1466.39 637.295,1482.39 634.5,1498.5C 634.862,1482.44 634.195,1466.44 632.5,1450.5 Z"/></g>
<g><path style="opacity:1" fill="#eaa75d" d="M 1167.5,1484.5 C 1159.04,1486.08 1150.37,1487.08 1141.5,1487.5C 1141.5,1492.83 1141.5,1498.17 1141.5,1503.5C 1140.51,1498.02 1140.18,1492.36 1140.5,1486.5C 1149.46,1485.45 1158.46,1484.78 1167.5,1484.5 Z"/></g>
<g><path style="opacity:0.008" fill="#e46048" d="M 413.5,1482.5 C 412.152,1487.67 408.818,1490.17 403.5,1490C 406.71,1487.28 410.044,1484.78 413.5,1482.5 Z"/></g>
<g><path style="opacity:0.012" fill="#ed655d" d="M 392.5,1487.5 C 394.97,1487.03 397.304,1487.86 399.5,1490C 396.793,1490.32 394.46,1489.48 392.5,1487.5 Z"/></g>
<g><path style="opacity:1" fill="#eaa95d" d="M 1322.5,1473.5 C 1324.48,1486.95 1325.48,1500.61 1325.5,1514.5C 1323.53,1501.05 1322.53,1487.39 1322.5,1473.5 Z"/></g>
<g><path style="opacity:1" fill="#eaa95d" d="M 939.5,1490.5 C 941.018,1493.53 941.851,1496.87 942,1500.5C 942.821,1507.35 942.654,1514.01 941.5,1520.5C 941.777,1510.43 941.11,1500.43 939.5,1490.5 Z"/></g>
<g><path style="opacity:1" fill="#e89e5b" d="M 1090.5,1486.5 C 1091.32,1490.65 1091.82,1494.98 1092,1499.5C 1092.5,1512.83 1092.67,1526.16 1092.5,1539.5C 1091.46,1522.01 1090.8,1504.34 1090.5,1486.5 Z"/></g>
<g><path style="opacity:1" fill="#eaa85d" d="M 1141.5,1503.5 C 1141.84,1516.7 1142.84,1529.7 1144.5,1542.5C 1143.79,1543.4 1142.79,1543.74 1141.5,1543.5C 1141.5,1530.17 1141.5,1516.83 1141.5,1503.5 Z"/></g>
<g><path style="opacity:1" fill="#e9a35c" d="M 711.5,1491.5 C 712.663,1513.33 712.83,1535.33 712,1557.5C 711.821,1561.03 711.321,1564.36 710.5,1567.5C 711.278,1542.17 711.611,1516.84 711.5,1491.5 Z"/></g>
<g><path style="opacity:1" fill="#e9a45c" d="M 1209.5,1536.5 C 1198.48,1536.42 1187.48,1536.75 1176.5,1537.5C 1177.61,1536.71 1178.94,1536.21 1180.5,1536C 1190.34,1535.18 1200.01,1535.34 1209.5,1536.5 Z"/></g>
<g><path style="opacity:1" fill="#e7985a" d="M 949.5,1528.5 C 947.845,1534.35 947.178,1540.35 947.5,1546.5C 946.352,1542.02 946.185,1537.35 947,1532.5C 947.608,1530.93 948.442,1529.6 949.5,1528.5 Z"/></g>
</svg>
