<?xml version="1.0" encoding="UTF-8"?>
<!DOCTYPE svg PUBLIC "-//W3C//DTD SVG 1.1//EN" "http://www.w3.org/Graphics/SVG/1.1/DTD/svg11.dtd">
<svg xmlns="http://www.w3.org/2000/svg" version="1.1" width="2048px" height="2048px" style="shape-rendering:geometricPrecision; text-rendering:geometricPrecision; image-rendering:optimizeQuality; fill-rule:evenodd; clip-rule:evenodd" xmlns:xlink="http://www.w3.org/1999/xlink">
<g><path style="opacity:0.941" fill="#030101" d="M 284.5,1196.5 C 282.538,1194.98 280.205,1194.32 277.5,1194.5C 274.389,1194.01 272.056,1195.01 270.5,1197.5C 258.919,1206.08 245.919,1209.92 231.5,1209C 230.234,1208.69 229.067,1208.19 228,1207.5C 214.948,1216.86 201.115,1225.03 186.5,1232C 173.805,1237.78 160.471,1240.12 146.5,1239C 133.831,1236.16 126.497,1228.33 124.5,1215.5C 111.224,1216.23 98.2239,1214.73 85.5,1211C 73.1008,1205.37 65.6008,1195.87 63,1182.5C 62.1686,1172.45 62.5019,1162.45 64,1152.5C 68.563,1135.46 75.063,1119.29 83.5,1104C 72.2847,1103.97 61.6181,1101.64 51.5,1097C 40.9052,1090.3 37.0718,1080.8 40,1068.5C 41.1146,1064.27 42.7813,1060.27 45,1056.5C 48.6667,1051.5 52.3333,1046.5 56,1041.5C 62.0245,1035.98 67.5245,1029.98 72.5,1023.5C 63.6511,1017.66 55.4844,1010.99 48,1003.5C 40.0816,990.956 39.4149,977.956 46,964.5C 48.9859,959.199 51.9859,953.865 55,948.5C 63.6731,936.999 72.5065,925.666 81.5,914.5C 71.6258,911.813 62.7924,907.146 55,900.5C 49.7308,893.776 48.0641,886.109 50,877.5C 53.2321,865.763 59.0654,855.596 67.5,847C 101.976,819.828 140.976,802.494 184.5,795C 196.761,789.913 209.427,786.246 222.5,784C 235.156,782.522 247.49,783.856 259.5,788C 266.267,791.133 272.767,794.633 279,798.5C 298.008,794.321 317.174,793.154 336.5,795C 356.872,798.419 372.705,808.586 384,825.5C 387.215,831.93 390.382,838.263 393.5,844.5C 429.585,826.951 460.085,833.951 485,865.5C 492,876.653 496.167,888.82 497.5,902C 502.741,900.706 508.074,899.372 513.5,898C 554.207,895.041 570.374,913.541 562,953.5C 560.801,958.265 559.301,962.931 557.5,967.5C 571.73,972.91 583.897,981.243 594,992.5C 599.746,1001.39 603.746,1011.06 606,1021.5C 608.075,1025.58 610.908,1029.08 614.5,1032C 625.167,1039.33 635.833,1046.67 646.5,1054C 668.67,1053.29 690.836,1053.46 713,1054.5C 723.932,1050.08 735.099,1046.24 746.5,1043C 766.418,1040.24 785.751,1042.57 804.5,1050C 816.412,1054.87 827.912,1060.37 839,1066.5C 852,1043.83 865,1021.17 878,998.5C 887.744,982.755 900.244,969.588 915.5,959C 927.49,951.2 939.823,950.534 952.5,957C 955.372,959.537 957.872,962.37 960,965.5C 965.091,976.441 969.591,987.607 973.5,999C 973.415,1000.11 973.081,1001.11 972.5,1002C 985.849,1002.75 995.016,1009.25 1000,1021.5C 1002.77,1028.93 1004.44,1036.6 1005,1044.5C 1005.33,1059.17 1005.67,1073.83 1006,1088.5C 1011.52,1085.55 1017.35,1083.38 1023.5,1082C 1034.48,1080.76 1045.48,1079.76 1056.5,1079C 1046.04,1062.92 1039.38,1045.42 1036.5,1026.5C 1036.58,1013.17 1042.91,1004.33 1055.5,1000C 1066.18,996.454 1077.02,993.621 1088,991.5C 1095.39,901.884 1132.23,827.051 1198.5,767C 1213.59,753.904 1229.26,741.571 1245.5,730C 1272.94,715.78 1300.6,701.78 1328.5,688C 1338.29,683.77 1348.29,680.104 1358.5,677C 1370.63,673.381 1382.63,673.714 1394.5,678C 1401.68,685.688 1405.01,694.855 1404.5,705.5C 1404.39,716.136 1402.55,726.47 1399,736.5C 1386.16,765.021 1374.49,794.021 1364,823.5C 1358,844.498 1353.67,865.832 1351,887.5C 1351.49,939.876 1357.82,991.542 1370,1042.5C 1370.27,1044.33 1371.11,1045.83 1372.5,1047C 1387.97,1058.31 1402.64,1070.48 1416.5,1083.5C 1431.13,1098.63 1445.96,1113.63 1461,1128.5C 1469.46,1139.29 1478.29,1149.79 1487.5,1160C 1492.06,1158.41 1496.72,1156.74 1501.5,1155C 1511.86,1153.23 1520.7,1156.07 1528,1163.5C 1533,1170.5 1538,1177.5 1543,1184.5C 1544.01,1186.02 1544.51,1187.69 1544.5,1189.5C 1571.85,1193.45 1598.18,1200.95 1623.5,1212C 1688.39,1227.85 1751.73,1248.52 1813.5,1274C 1846.42,1287.45 1876.42,1305.45 1903.5,1328C 1966.58,1388.05 1983.08,1459.21 1953,1541.5C 1948.18,1554.64 1941.68,1566.8 1933.5,1578C 1928.17,1582.99 1921.84,1585.83 1914.5,1586.5C 1907.86,1585.34 1901.36,1583.67 1895,1581.5C 1894.17,1581.83 1893.33,1582.17 1892.5,1582.5C 1887.7,1589.46 1882.37,1595.96 1876.5,1602C 1866.27,1610.28 1854.61,1615.61 1841.5,1618C 1765.33,1635.26 1699.17,1617.43 1643,1564.5C 1639.93,1594.97 1637.93,1625.64 1637,1656.5C 1634.43,1683.15 1632.26,1709.81 1630.5,1736.5C 1633.11,1746.94 1629.61,1754.28 1620,1758.5C 1613.27,1756.03 1606.27,1754.7 1599,1754.5C 1574.67,1754.53 1550.33,1754.53 1526,1754.5C 1507.73,1753.51 1489.56,1752.51 1471.5,1751.5C 1468.33,1751.8 1465.16,1752.13 1462,1752.5C 1443.84,1751.79 1425.67,1751.13 1407.5,1750.5C 1395.28,1751.19 1383.11,1750.86 1371,1749.5C 1363.44,1751.03 1355.94,1750.7 1348.5,1748.5C 1345.5,1749.83 1342.5,1749.83 1339.5,1748.5C 1336.53,1750.57 1333.53,1750.73 1330.5,1749C 1322.63,1748.79 1314.8,1748.29 1307,1747.5C 1295.01,1747.79 1283.01,1748.13 1271,1748.5C 1258.83,1747.21 1246.66,1746.88 1234.5,1747.5C 1217.84,1746.78 1201.18,1746.28 1184.5,1746C 1183.4,1744.98 1182.07,1744.48 1180.5,1744.5C 1174.96,1746.92 1169.3,1747.08 1163.5,1745C 1147.65,1744.76 1131.82,1744.26 1116,1743.5C 1112.84,1743.87 1109.67,1744.2 1106.5,1744.5C 1088.67,1743.83 1070.83,1743.16 1053,1742.5C 1040.27,1743.24 1027.61,1742.9 1015,1741.5C 1011.92,1742.15 1008.75,1742.48 1005.5,1742.5C 1000.14,1742.59 994.975,1741.92 990,1740.5C 986.661,1740.42 983.495,1741.09 980.5,1742.5C 978.803,1742.1 977.137,1741.6 975.5,1741C 958.825,1740.72 942.158,1740.22 925.5,1739.5C 913.329,1740.14 901.162,1739.8 889,1738.5C 876.625,1738.83 864.292,1739.16 852,1739.5C 844.246,1738.68 836.412,1738.18 828.5,1738C 827.57,1737.01 826.404,1736.51 825,1736.5C 822.277,1737.61 819.444,1738.28 816.5,1738.5C 807.376,1736.46 798.209,1736.13 789,1737.5C 779.849,1736.79 770.682,1736.12 761.5,1735.5C 737.331,1735.54 713.165,1735.54 689,1735.5C 670.641,1734.94 652.308,1733.94 634,1732.5C 630.661,1732.77 627.327,1733.11 624,1733.5C 606.335,1732.82 588.669,1732.15 571,1731.5C 558.471,1732.19 545.971,1731.86 533.5,1730.5C 525.143,1731.8 516.809,1731.46 508.5,1729.5C 504.839,1729.43 501.339,1730.09 498,1731.5C 496.596,1731.49 495.43,1730.99 494.5,1730C 486.255,1729.82 478.088,1729.32 470,1728.5C 457.881,1728.86 445.714,1729.19 433.5,1729.5C 421.164,1728.21 408.831,1727.88 396.5,1728.5C 379.842,1727.78 363.175,1727.28 346.5,1727C 345.57,1726.01 344.404,1725.51 343,1725.5C 340.238,1726.94 337.238,1727.61 334,1727.5C 319.182,1726.11 304.349,1724.95 289.5,1724C 286.304,1717.63 286.971,1711.8 291.5,1706.5C 291,1705.5 290.5,1704.5 290,1703.5C 289.777,1694.81 289.277,1686.14 288.5,1677.5C 288.539,1649.46 288.539,1621.46 288.5,1593.5C 287.865,1581.65 287.199,1569.82 286.5,1558C 288.039,1552.15 287.705,1546.48 285.5,1541C 286.461,1538.41 287.128,1535.74 287.5,1533C 285.6,1527.71 285.1,1522.21 286,1516.5C 288,1515.5 288,1514.5 286,1513.5C 285.779,1502.31 285.279,1491.14 284.5,1480C 284.861,1471.81 285.195,1463.65 285.5,1455.5C 284.813,1443.85 284.146,1432.19 283.5,1420.5C 284.624,1414.35 284.624,1408.18 283.5,1402C 283.688,1396.14 284.688,1390.47 286.5,1385C 291.79,1381.69 296.79,1382.19 301.5,1386.5C 308.142,1387.33 314.809,1387.83 321.5,1388C 322.5,1390 323.5,1390 324.5,1388C 327,1387.83 329.5,1387.67 332,1387.5C 338.089,1388.62 344.255,1389.28 350.5,1389.5C 363.133,1388.92 375.8,1389.25 388.5,1390.5C 413.501,1390.52 438.501,1390.52 463.5,1390.5C 471.813,1391.24 480.147,1391.74 488.5,1392C 489.263,1392.94 490.263,1393.44 491.5,1393.5C 497.117,1391.12 502.784,1390.96 508.5,1393C 524.845,1393.24 541.178,1393.74 557.5,1394.5C 582.386,1394.56 607.22,1394.56 632,1394.5C 639.754,1395.32 647.588,1395.82 655.5,1396C 659.334,1398.04 663.001,1397.7 666.5,1395C 662.109,1393.82 657.776,1392.49 653.5,1391C 619.312,1391.66 595.145,1376.5 581,1345.5C 574.808,1331.06 570.641,1316.06 568.5,1300.5C 556.768,1304.86 548.601,1301.2 544,1289.5C 538.229,1275.24 535.729,1260.41 536.5,1245C 536.828,1227.07 538.328,1209.24 541,1191.5C 542.825,1181.03 545.658,1170.86 549.5,1161C 548.299,1160.1 547.465,1158.93 547,1157.5C 546.718,1154 546.551,1150.67 546.5,1147.5C 528.85,1152.83 511.183,1152.83 493.5,1147.5C 482.06,1150.69 470.393,1152.19 458.5,1152C 451.547,1153.62 445.547,1156.95 440.5,1162C 434.543,1165.48 428.209,1168.14 421.5,1170C 405.6,1172.57 389.6,1174.24 373.5,1175C 364.167,1179.33 354.833,1183.67 345.5,1188C 325.784,1195.08 305.45,1197.91 284.5,1196.5 Z M 381.5,924.5 C 368.981,919.706 356.648,919.873 344.5,925C 335.316,931.857 331.649,941.023 333.5,952.5C 315.646,934.817 296.813,933.484 277,948.5C 271.439,944.618 265.606,941.118 259.5,938C 254.637,936.327 249.637,935.494 244.5,935.5C 242.791,933.187 240.457,931.687 237.5,931C 224.993,926.927 212.327,926.427 199.5,929.5C 196.241,927.584 193.241,925.25 190.5,922.5C 193.125,918.179 193.958,913.513 193,908.5C 190.333,904.5 187.667,900.5 185,896.5C 176.76,882.219 180.26,872.052 195.5,866C 204.493,864.911 211.66,868.078 217,875.5C 220.042,880.419 223.209,885.252 226.5,890C 236.486,896.073 244.486,894.073 250.5,884C 250.75,879.675 250.417,875.175 249.5,870.5C 249.845,866.266 251.179,862.432 253.5,859C 255.94,857.697 258.44,856.53 261,855.5C 270.046,870.466 280.712,871.466 293,858.5C 295.248,854.854 296.582,850.854 297,846.5C 301.091,849.603 304.091,853.603 306,858.5C 311.214,872.143 315.214,886.143 318,900.5C 322.19,909.177 329.024,912.343 338.5,910C 343.415,907.425 348.081,904.425 352.5,901C 357.882,896.624 363.548,895.957 369.5,899C 375.252,906.671 379.252,915.171 381.5,924.5 Z M 422.5,928.5 C 418.813,932.189 415.48,936.189 412.5,940.5C 411.817,940.137 411.15,939.804 410.5,939.5C 410.389,938.883 410.056,938.383 409.5,938C 413.449,934.204 417.783,931.037 422.5,928.5 Z M 349.5,980.5 C 351.167,981.5 352.5,982.833 353.5,984.5C 352.167,984.5 350.833,984.5 349.5,984.5C 349.5,983.167 349.5,981.833 349.5,980.5 Z M 222.5,989.5 C 223.754,992.093 225.42,994.427 227.5,996.5C 220.899,999.29 215.232,1003.29 210.5,1008.5C 208.62,1008.23 207.287,1008.9 206.5,1010.5C 205.508,1010.33 204.842,1010.66 204.5,1011.5C 193.623,1016.19 183.79,1022.52 175,1030.5C 163.777,1042.99 163.944,1055.16 175.5,1067C 188.259,1072.94 200.593,1071.94 212.5,1064C 217.286,1061.38 221.286,1057.88 224.5,1053.5C 235.003,1056.43 245.669,1057.27 256.5,1056C 245.162,1058.08 235.996,1063.58 229,1072.5C 227.991,1074.02 227.491,1075.69 227.5,1077.5C 210.58,1077.58 202.413,1085.92 203,1102.5C 207.722,1113.88 216.389,1119.55 229,1119.5C 230.764,1119.46 232.431,1119.12 234,1118.5C 247.324,1133.72 261.324,1134.05 276,1119.5C 284.875,1108.89 285.375,1098.06 277.5,1087C 283.651,1076.57 282.317,1067.24 273.5,1059C 268.479,1056.66 263.146,1055.33 257.5,1055C 271.294,1051.93 283.96,1046.43 295.5,1038.5C 304.471,1043.49 314.137,1045.83 324.5,1045.5C 340.621,1045.84 355.621,1042.01 369.5,1034C 376.967,1028.72 381.967,1021.72 384.5,1013C 383.944,1012.62 383.611,1012.12 383.5,1011.5C 386.167,1012.17 388.833,1012.83 391.5,1013.5C 399.886,1018.86 408.886,1022.86 418.5,1025.5C 418.611,1026.12 418.944,1026.62 419.5,1027C 400.239,1036.03 396.072,1049.53 407,1067.5C 412.725,1072.94 419.559,1076.11 427.5,1077C 436.487,1088.77 448.154,1092.77 462.5,1089C 466.11,1087.06 469.443,1084.72 472.5,1082C 490.462,1078.55 500.795,1067.89 503.5,1050C 503.466,1045.35 502.133,1041.18 499.5,1037.5C 509.593,1036.77 519.259,1034.43 528.5,1030.5C 528.43,1035.36 530.263,1039.36 534,1042.5C 534.679,1045.55 535.512,1048.55 536.5,1051.5C 530.012,1061.73 521.012,1068.57 509.5,1072C 501.998,1085.83 490.998,1095.83 476.5,1102C 473.462,1103.55 470.462,1104.05 467.5,1103.5C 462.193,1099.73 456.193,1097.73 449.5,1097.5C 445.764,1098.08 441.764,1098.74 437.5,1099.5C 433.172,1097.65 429.505,1094.82 426.5,1091C 419.803,1086.42 413.136,1086.42 406.5,1091C 403.969,1094.36 401.302,1097.52 398.5,1100.5C 386.752,1097.1 375.085,1096.94 363.5,1100C 354.636,1103.1 348.302,1108.93 344.5,1117.5C 341.232,1118.49 337.898,1118.82 334.5,1118.5C 329.173,1112.69 322.673,1108.69 315,1106.5C 309.238,1106.75 304.571,1109.08 301,1113.5C 296.523,1123.29 290.023,1131.46 281.5,1138C 269.241,1147.3 255.574,1153.63 240.5,1157C 231.16,1157.94 222.16,1156.61 213.5,1153C 212.69,1149.5 213.024,1146 214.5,1142.5C 212.081,1130.95 205.081,1126.45 193.5,1129C 184.365,1136.4 174.032,1141.4 162.5,1144C 153.231,1145.26 144.231,1144.26 135.5,1141C 129.651,1136.06 128.818,1130.23 133,1123.5C 138.751,1112.08 146.417,1102.08 156,1093.5C 161.716,1085.69 161.216,1078.19 154.5,1071C 146.443,1068.54 138.443,1065.88 130.5,1063C 123.093,1058.61 118.427,1052.27 116.5,1044C 117.441,1037.79 120.441,1032.79 125.5,1029C 131.133,1025.35 137.133,1022.52 143.5,1020.5C 165.262,1021.48 185.595,1016.64 204.5,1006C 209.879,1002.29 214.213,997.621 217.5,992C 219.193,991.153 220.86,990.32 222.5,989.5 Z M 1455.5,1172.5 C 1441.82,1169.5 1428.15,1166.33 1414.5,1163C 1415.71,1159.35 1415.21,1155.85 1413,1152.5C 1396.94,1132.37 1386.27,1109.7 1381,1084.5C 1395.31,1096.65 1408.81,1109.65 1421.5,1123.5C 1429.72,1133.58 1437.72,1143.91 1445.5,1154.5C 1449.36,1160.23 1452.7,1166.23 1455.5,1172.5 Z M 783.5,1361.5 C 844.722,1375.97 906.056,1390.14 967.5,1404C 958.716,1404.81 950.049,1404.31 941.5,1402.5C 938.076,1402.29 934.909,1402.96 932,1404.5C 930.941,1404.37 930.108,1403.87 929.5,1403C 921.147,1402.74 912.813,1402.24 904.5,1401.5C 879.5,1401.53 854.5,1401.53 829.5,1401.5C 807.668,1399.58 785.834,1398.91 764,1399.5C 761.536,1398.84 759.036,1398.34 756.5,1398C 767.48,1390.69 775.98,1381.19 782,1369.5C 783.079,1366.94 783.579,1364.27 783.5,1361.5 Z"/></g>
<g><path style="opacity:1" fill="#f0c041" d="M 1339.5,923.5 C 1339.44,928.731 1340.11,933.731 1341.5,938.5C 1341.5,939.833 1341.5,941.167 1341.5,942.5C 1341.33,948.176 1341.5,953.843 1342,959.5C 1342.23,960.737 1342.73,961.737 1343.5,962.5C 1344.47,975.084 1346.14,987.584 1348.5,1000C 1345.23,1008.52 1342.89,1017.36 1341.5,1026.5C 1316.28,1016.59 1290.94,1006.75 1265.5,997C 1250.08,992.781 1234.42,989.948 1218.5,988.5C 1210.4,986.769 1202.07,986.102 1193.5,986.5C 1168.12,986.489 1142.79,987.489 1117.5,989.5C 1112.83,989.5 1108.17,989.5 1103.5,989.5C 1104.17,980.5 1104.83,971.5 1105.5,962.5C 1115.4,900.368 1141.57,846.368 1184,800.5C 1207.79,776.362 1233.62,754.862 1261.5,736C 1283.68,724.411 1306.01,713.078 1328.5,702C 1340.74,696.214 1353.41,691.548 1366.5,688C 1372.5,687.333 1378.5,687.333 1384.5,688C 1387.73,689.563 1389.9,692.063 1391,695.5C 1392.78,710.826 1390.45,725.493 1384,739.5C 1366.43,774.97 1353.1,811.97 1344,850.5C 1338.54,874.577 1337.04,898.91 1339.5,923.5 Z"/></g>
<g><path style="opacity:0.981" fill="#6d6d6d" d="M 479.5,1134.5 C 480.923,1129.79 480.756,1125.13 479,1120.5C 476.094,1114.11 472.26,1108.45 467.5,1103.5C 470.462,1104.05 473.462,1103.55 476.5,1102C 490.998,1095.83 501.998,1085.83 509.5,1072C 521.012,1068.57 530.012,1061.73 536.5,1051.5C 535.512,1048.55 534.679,1045.55 534,1042.5C 530.263,1039.36 528.43,1035.36 528.5,1030.5C 531.028,1025.46 534.528,1021.13 539,1017.5C 540.947,1011.15 540.947,1004.82 539,998.5C 535.36,993.772 531.194,989.605 526.5,986C 521.817,983.383 516.817,981.883 511.5,981.5C 512.152,970.807 509.319,961.14 503,952.5C 482.937,927.868 457.437,919.535 426.5,927.5C 426.167,926.167 425.833,926.167 425.5,927.5C 425.167,927.5 424.833,927.5 424.5,927.5C 423.508,927.328 422.842,927.662 422.5,928.5C 417.783,931.037 413.449,934.204 409.5,938C 410.056,938.383 410.389,938.883 410.5,939.5C 399.274,937.388 389.608,932.388 381.5,924.5C 379.252,915.171 375.252,906.671 369.5,899C 363.548,895.957 357.882,896.624 352.5,901C 348.081,904.425 343.415,907.425 338.5,910C 329.024,912.343 322.19,909.177 318,900.5C 315.214,886.143 311.214,872.143 306,858.5C 304.091,853.603 301.091,849.603 297,846.5C 296.582,850.854 295.248,854.854 293,858.5C 280.712,871.466 270.046,870.466 261,855.5C 258.44,856.53 255.94,857.697 253.5,859C 251.179,862.432 249.845,866.266 249.5,870.5C 250.417,875.175 250.75,879.675 250.5,884C 244.486,894.073 236.486,896.073 226.5,890C 223.209,885.252 220.042,880.419 217,875.5C 211.66,868.078 204.493,864.911 195.5,866C 180.26,872.052 176.76,882.219 185,896.5C 187.667,900.5 190.333,904.5 193,908.5C 193.958,913.513 193.125,918.179 190.5,922.5C 184.274,921.925 178.274,920.425 172.5,918C 162.892,917.254 153.559,918.587 144.5,922C 141.102,923.556 138.102,925.723 135.5,928.5C 125.017,925.527 114.684,926.027 104.5,930C 98.5003,932.996 95.3336,937.829 95,944.5C 94.3333,949.167 94.3333,953.833 95,958.5C 96.6232,962.945 98.4565,967.279 100.5,971.5C 95.1207,986.387 98.454,998.887 110.5,1009C 120.707,1013.68 131.374,1016.85 142.5,1018.5C 142.863,1019.18 143.196,1019.85 143.5,1020.5C 137.133,1022.52 131.133,1025.35 125.5,1029C 120.441,1032.79 117.441,1037.79 116.5,1044C 118.427,1052.27 123.093,1058.61 130.5,1063C 138.443,1065.88 146.443,1068.54 154.5,1071C 161.216,1078.19 161.716,1085.69 156,1093.5C 146.417,1102.08 138.751,1112.08 133,1123.5C 128.818,1130.23 129.651,1136.06 135.5,1141C 144.231,1144.26 153.231,1145.26 162.5,1144C 174.032,1141.4 184.365,1136.4 193.5,1129C 205.081,1126.45 212.081,1130.95 214.5,1142.5C 213.024,1146 212.69,1149.5 213.5,1153C 222.16,1156.61 231.16,1157.94 240.5,1157C 255.574,1153.63 269.241,1147.3 281.5,1138C 290.023,1131.46 296.523,1123.29 301,1113.5C 304.571,1109.08 309.238,1106.75 315,1106.5C 322.673,1108.69 329.173,1112.69 334.5,1118.5C 333.596,1119.21 333.263,1120.21 333.5,1121.5C 323.425,1121.25 313.758,1123.08 304.5,1127C 289.561,1136.48 286.395,1148.98 295,1164.5C 300.947,1172.39 308.78,1176.39 318.5,1176.5C 327.154,1175.8 335.821,1175.46 344.5,1175.5C 344.5,1175.83 344.5,1176.17 344.5,1176.5C 333.317,1175.97 322.317,1177.14 311.5,1180C 297.5,1180.33 283.5,1180.67 269.5,1181C 262.599,1184.23 255.933,1187.9 249.5,1192C 244.37,1194.08 239.037,1194.91 233.5,1194.5C 233.823,1191.04 233.823,1187.7 233.5,1184.5C 217.17,1196 200.17,1206.5 182.5,1216C 171.398,1221.24 159.731,1223.57 147.5,1223C 145.919,1222.29 144.419,1221.46 143,1220.5C 141.118,1216.01 139.785,1211.34 139,1206.5C 136.635,1203.13 133.468,1200.96 129.5,1200C 82.4782,1205.1 67.3116,1185.6 84,1141.5C 88.6124,1130.33 93.6124,1119.33 99,1108.5C 102.428,1100.6 100.595,1094.44 93.5,1090C 83.4462,1088.6 73.4462,1086.93 63.5,1085C 57.8302,1084 55.1636,1080.67 55.5,1075C 55.6558,1071.18 56.8224,1067.68 59,1064.5C 66.5855,1054.24 74.9189,1044.58 84,1035.5C 90.6191,1027.93 90.9524,1020.26 85,1012.5C 76.7123,1006.55 68.7123,1000.21 61,993.5C 57.8263,988.94 56.8263,983.94 58,978.5C 60.6949,970.109 64.6949,962.442 70,955.5C 78.6667,944.167 87.3333,932.833 96,921.5C 100.048,914.247 99.2145,907.747 93.5,902C 88.3217,899.607 82.9884,897.607 77.5,896C 73.5808,894.46 70.0808,892.293 67,889.5C 65.5167,886.298 65.1834,882.964 66,879.5C 69.3657,868.923 75.5324,860.423 84.5,854C 114.312,831.834 147.645,817.834 184.5,812C 195.374,807.931 206.374,804.264 217.5,801C 237.095,796.718 254.762,800.718 270.5,813C 272.744,813.906 275.077,814.406 277.5,814.5C 290.743,812.084 304.077,810.418 317.5,809.5C 350.853,809.422 372.02,825.422 381,857.5C 385.091,861.305 389.924,862.472 395.5,861C 421.952,844.828 446.119,847.661 468,869.5C 473.38,875.562 477.047,882.562 479,890.5C 480.226,898.19 481.559,905.857 483,913.5C 484.948,919.723 489.115,922.223 495.5,921C 501.725,918.388 508.058,916.055 514.5,914C 526.694,911.07 537.194,913.903 546,922.5C 548.967,930.338 549.3,938.338 547,946.5C 545.459,951.872 543.792,957.206 542,962.5C 539.81,970.496 541.977,976.996 548.5,982C 571.573,988.405 585.739,1003.24 591,1026.5C 594.482,1034.97 599.982,1041.8 607.5,1047C 613.5,1051 619.5,1055 625.5,1059C 615.295,1061.43 606.628,1066.43 599.5,1074C 596.833,1074.33 594.167,1074.67 591.5,1075C 580.156,1080.82 571.323,1089.32 565,1100.5C 560.74,1109.18 556.906,1118.02 553.5,1127C 534.148,1136.46 514.148,1137.96 493.5,1131.5C 488.687,1132 484.02,1133 479.5,1134.5 Z M 381.5,924.5 C 368.981,919.706 356.648,919.873 344.5,925C 335.316,931.857 331.649,941.023 333.5,952.5C 315.646,934.817 296.813,933.484 277,948.5C 271.439,944.618 265.606,941.118 259.5,938C 254.637,936.327 249.637,935.494 244.5,935.5C 242.791,933.187 240.457,931.687 237.5,931C 224.993,926.927 212.327,926.427 199.5,929.5C 196.241,927.584 193.241,925.25 190.5,922.5C 193.125,918.179 193.958,913.513 193,908.5C 190.333,904.5 187.667,900.5 185,896.5C 176.76,882.219 180.26,872.052 195.5,866C 204.493,864.911 211.66,868.078 217,875.5C 220.042,880.419 223.209,885.252 226.5,890C 236.486,896.073 244.486,894.073 250.5,884C 250.75,879.675 250.417,875.175 249.5,870.5C 249.845,866.266 251.179,862.432 253.5,859C 255.94,857.697 258.44,856.53 261,855.5C 270.046,870.466 280.712,871.466 293,858.5C 295.248,854.854 296.582,850.854 297,846.5C 301.091,849.603 304.091,853.603 306,858.5C 311.214,872.143 315.214,886.143 318,900.5C 322.19,909.177 329.024,912.343 338.5,910C 343.415,907.425 348.081,904.425 352.5,901C 357.882,896.624 363.548,895.957 369.5,899C 375.252,906.671 379.252,915.171 381.5,924.5 Z M 422.5,928.5 C 418.813,932.189 415.48,936.189 412.5,940.5C 411.817,940.137 411.15,939.804 410.5,939.5C 410.389,938.883 410.056,938.383 409.5,938C 413.449,934.204 417.783,931.037 422.5,928.5 Z M 349.5,980.5 C 351.167,981.5 352.5,982.833 353.5,984.5C 352.167,984.5 350.833,984.5 349.5,984.5C 349.5,983.167 349.5,981.833 349.5,980.5 Z M 222.5,989.5 C 223.754,992.093 225.42,994.427 227.5,996.5C 220.899,999.29 215.232,1003.29 210.5,1008.5C 208.62,1008.23 207.287,1008.9 206.5,1010.5C 205.508,1010.33 204.842,1010.66 204.5,1011.5C 193.623,1016.19 183.79,1022.52 175,1030.5C 163.777,1042.99 163.944,1055.16 175.5,1067C 188.259,1072.94 200.593,1071.94 212.5,1064C 217.286,1061.38 221.286,1057.88 224.5,1053.5C 235.003,1056.43 245.669,1057.27 256.5,1056C 245.162,1058.08 235.996,1063.58 229,1072.5C 227.991,1074.02 227.491,1075.69 227.5,1077.5C 210.58,1077.58 202.413,1085.92 203,1102.5C 207.722,1113.88 216.389,1119.55 229,1119.5C 230.764,1119.46 232.431,1119.12 234,1118.5C 247.324,1133.72 261.324,1134.05 276,1119.5C 284.875,1108.89 285.375,1098.06 277.5,1087C 283.651,1076.57 282.317,1067.24 273.5,1059C 268.479,1056.66 263.146,1055.33 257.5,1055C 271.294,1051.93 283.96,1046.43 295.5,1038.5C 304.471,1043.49 314.137,1045.83 324.5,1045.5C 340.621,1045.84 355.621,1042.01 369.5,1034C 376.967,1028.72 381.967,1021.72 384.5,1013C 383.944,1012.62 383.611,1012.12 383.5,1011.5C 386.167,1012.17 388.833,1012.83 391.5,1013.5C 399.886,1018.86 408.886,1022.86 418.5,1025.5C 418.611,1026.12 418.944,1026.62 419.5,1027C 400.239,1036.03 396.072,1049.53 407,1067.5C 412.725,1072.94 419.559,1076.11 427.5,1077C 436.487,1088.77 448.154,1092.77 462.5,1089C 466.11,1087.06 469.443,1084.72 472.5,1082C 490.462,1078.55 500.795,1067.89 503.5,1050C 503.466,1045.35 502.133,1041.18 499.5,1037.5C 509.593,1036.77 519.259,1034.43 528.5,1030.5C 528.43,1035.36 530.263,1039.36 534,1042.5C 534.679,1045.55 535.512,1048.55 536.5,1051.5C 530.012,1061.73 521.012,1068.57 509.5,1072C 501.998,1085.83 490.998,1095.83 476.5,1102C 473.462,1103.55 470.462,1104.05 467.5,1103.5C 462.193,1099.73 456.193,1097.73 449.5,1097.5C 445.764,1098.08 441.764,1098.74 437.5,1099.5C 433.172,1097.65 429.505,1094.82 426.5,1091C 419.803,1086.42 413.136,1086.42 406.5,1091C 403.969,1094.36 401.302,1097.52 398.5,1100.5C 386.752,1097.1 375.085,1096.94 363.5,1100C 354.636,1103.1 348.302,1108.93 344.5,1117.5C 341.232,1118.49 337.898,1118.82 334.5,1118.5C 329.173,1112.69 322.673,1108.69 315,1106.5C 309.238,1106.75 304.571,1109.08 301,1113.5C 296.523,1123.29 290.023,1131.46 281.5,1138C 269.241,1147.3 255.574,1153.63 240.5,1157C 231.16,1157.94 222.16,1156.61 213.5,1153C 212.69,1149.5 213.024,1146 214.5,1142.5C 212.081,1130.95 205.081,1126.45 193.5,1129C 184.365,1136.4 174.032,1141.4 162.5,1144C 153.231,1145.26 144.231,1144.26 135.5,1141C 129.651,1136.06 128.818,1130.23 133,1123.5C 138.751,1112.08 146.417,1102.08 156,1093.5C 161.716,1085.69 161.216,1078.19 154.5,1071C 146.443,1068.54 138.443,1065.88 130.5,1063C 123.093,1058.61 118.427,1052.27 116.5,1044C 117.441,1037.79 120.441,1032.79 125.5,1029C 131.133,1025.35 137.133,1022.52 143.5,1020.5C 165.262,1021.48 185.595,1016.64 204.5,1006C 209.879,1002.29 214.213,997.621 217.5,992C 219.193,991.153 220.86,990.32 222.5,989.5 Z"/></g>
<g><path style="opacity:1" fill="#070501" d="M 1234.5,799.5 C 1243.21,799.248 1251.88,799.748 1260.5,801C 1263.69,802.544 1264.86,805.044 1264,808.5C 1262.94,811.562 1261.11,814.062 1258.5,816C 1245.15,816.527 1231.82,816.861 1218.5,817C 1215.91,815.475 1215.08,813.308 1216,810.5C 1217.56,808.641 1219.39,807.141 1221.5,806C 1226.17,804.33 1230.51,802.163 1234.5,799.5 Z"/></g>
<g><path style="opacity:1" fill="#070501" d="M 1299.5,807.5 C 1302.32,807.248 1304.99,807.748 1307.5,809C 1315.09,816.582 1321.92,824.748 1328,833.5C 1328.63,840.947 1325.46,843.113 1318.5,840C 1310.43,833.877 1301.93,828.377 1293,823.5C 1291.61,816.631 1293.77,811.297 1299.5,807.5 Z"/></g>
<g><path style="opacity:0.999" fill="#060401" d="M 1237.5,823.5 C 1249.95,823.118 1255.95,829.285 1255.5,842C 1255.78,850.18 1253.11,857.18 1247.5,863C 1243.67,865.753 1239.67,866.086 1235.5,864C 1224.88,855.318 1222.71,844.818 1229,832.5C 1231.36,828.973 1234.2,825.973 1237.5,823.5 Z"/></g>
<g><path style="opacity:1" fill="#040301" d="M 1294.5,837.5 C 1301.62,835.972 1306.12,838.639 1308,845.5C 1308.67,850.833 1308.67,856.167 1308,861.5C 1305.76,866.077 1303.09,870.411 1300,874.5C 1294.26,879.756 1288.59,879.756 1283,874.5C 1281.18,863.542 1282.84,853.209 1288,843.5C 1290.06,841.266 1292.23,839.266 1294.5,837.5 Z"/></g>
<g><path style="opacity:0.054" fill="#000000" d="M 197.5,898.5 C 200.016,898.755 202.35,899.589 204.5,901C 203.975,901.692 203.308,902.192 202.5,902.5C 200.581,901.388 198.914,900.054 197.5,898.5 Z"/></g>
<g><path style="opacity:1" fill="#020100" d="M 1199.5,902.5 C 1225.93,900.783 1251.59,904.283 1276.5,913C 1291.55,919.385 1302.72,929.885 1310,944.5C 1312.42,954.357 1313.08,964.357 1312,974.5C 1309.94,982.877 1304.77,985.711 1296.5,983C 1289.66,979.078 1282.66,975.412 1275.5,972C 1251.05,953.081 1223.38,945.747 1192.5,950C 1180.24,952.177 1167.91,953.177 1155.5,953C 1142.14,949.782 1138.31,941.949 1144,929.5C 1160.15,915.505 1178.65,906.505 1199.5,902.5 Z"/></g>
<g><path style="opacity:0.983" fill="#ababab" d="M 190.5,922.5 C 193.241,925.25 196.241,927.584 199.5,929.5C 212.327,926.427 224.993,926.927 237.5,931C 240.457,931.687 242.791,933.187 244.5,935.5C 243.697,936.423 243.53,937.423 244,938.5C 252.067,943.764 254.734,951.097 252,960.5C 246.334,972.494 237.167,980.661 224.5,985C 222.963,986.11 222.297,987.61 222.5,989.5C 220.86,990.32 219.193,991.153 217.5,992C 214.213,997.621 209.879,1002.29 204.5,1006C 185.595,1016.64 165.262,1021.48 143.5,1020.5C 143.196,1019.85 142.863,1019.18 142.5,1018.5C 131.374,1016.85 120.707,1013.68 110.5,1009C 98.454,998.887 95.1207,986.387 100.5,971.5C 98.4565,967.279 96.6232,962.945 95,958.5C 94.3333,953.833 94.3333,949.167 95,944.5C 95.3336,937.829 98.5003,932.996 104.5,930C 114.684,926.027 125.017,925.527 135.5,928.5C 138.102,925.723 141.102,923.556 144.5,922C 153.559,918.587 162.892,917.254 172.5,918C 178.274,920.425 184.274,921.925 190.5,922.5 Z"/></g>
<g><path style="opacity:0.977" fill="#ababab" d="M 381.5,924.5 C 389.608,932.388 399.274,937.388 410.5,939.5C 411.15,939.804 411.817,940.137 412.5,940.5C 415.48,936.189 418.813,932.189 422.5,928.5C 423.492,928.672 424.158,928.338 424.5,927.5C 424.833,927.5 425.167,927.5 425.5,927.5C 425.833,927.5 426.167,927.5 426.5,927.5C 457.437,919.535 482.937,927.868 503,952.5C 509.319,961.14 512.152,970.807 511.5,981.5C 516.817,981.883 521.817,983.383 526.5,986C 531.194,989.605 535.36,993.772 539,998.5C 540.947,1004.82 540.947,1011.15 539,1017.5C 534.528,1021.13 531.028,1025.46 528.5,1030.5C 519.259,1034.43 509.593,1036.77 499.5,1037.5C 498.391,1036.71 497.058,1036.21 495.5,1036C 477.535,1036.69 460.201,1033.86 443.5,1027.5C 436.617,1027.56 429.784,1027.56 423,1027.5C 421.67,1026.42 420.17,1025.75 418.5,1025.5C 408.886,1022.86 399.886,1018.86 391.5,1013.5C 389.206,1011.35 386.54,1009.68 383.5,1008.5C 382.094,1005.59 380.094,1003.09 377.5,1001C 373.802,998.814 370.468,996.147 367.5,993C 363.244,989.377 358.577,986.544 353.5,984.5C 352.5,982.833 351.167,981.5 349.5,980.5C 349.5,980.167 349.5,979.833 349.5,979.5C 343.809,970.727 338.809,962.061 334.5,953.5C 334.5,952.833 334.167,952.5 333.5,952.5C 331.649,941.023 335.316,931.857 344.5,925C 356.648,919.873 368.981,919.706 381.5,924.5 Z M 422.5,928.5 C 418.813,932.189 415.48,936.189 412.5,940.5C 411.817,940.137 411.15,939.804 410.5,939.5C 410.389,938.883 410.056,938.383 409.5,938C 413.449,934.204 417.783,931.037 422.5,928.5 Z"/></g>
<g><path style="opacity:0.96" fill="#6e6e6e" d="M 244.5,935.5 C 249.637,935.494 254.637,936.327 259.5,938C 265.606,941.118 271.439,944.618 277,948.5C 296.813,933.484 315.646,934.817 333.5,952.5C 334.167,952.5 334.5,952.833 334.5,953.5C 338.809,962.061 343.809,970.727 349.5,979.5C 348.167,979.833 348.167,980.167 349.5,980.5C 349.5,981.833 349.5,983.167 349.5,984.5C 350.833,984.5 352.167,984.5 353.5,984.5C 358.577,986.544 363.244,989.377 367.5,993C 370.468,996.147 373.802,998.814 377.5,1001C 380.094,1003.09 382.094,1005.59 383.5,1008.5C 383.082,1009.22 382.416,1009.72 381.5,1010C 382.416,1010.28 383.082,1010.78 383.5,1011.5C 383.611,1012.12 383.944,1012.62 384.5,1013C 381.967,1021.72 376.967,1028.72 369.5,1034C 355.621,1042.01 340.621,1045.84 324.5,1045.5C 314.137,1045.83 304.471,1043.49 295.5,1038.5C 283.96,1046.43 271.294,1051.93 257.5,1055C 263.146,1055.33 268.479,1056.66 273.5,1059C 282.317,1067.24 283.651,1076.57 277.5,1087C 285.375,1098.06 284.875,1108.89 276,1119.5C 261.324,1134.05 247.324,1133.72 234,1118.5C 232.431,1119.12 230.764,1119.46 229,1119.5C 216.389,1119.55 207.722,1113.88 203,1102.5C 202.413,1085.92 210.58,1077.58 227.5,1077.5C 227.491,1075.69 227.991,1074.02 229,1072.5C 235.996,1063.58 245.162,1058.08 256.5,1056C 245.669,1057.27 235.003,1056.43 224.5,1053.5C 224.5,1051.83 224.5,1050.17 224.5,1048.5C 232.725,1050.32 241.059,1050.82 249.5,1050C 261.903,1046.32 267.737,1038.15 267,1025.5C 264.377,1018.61 259.544,1014.11 252.5,1012C 238.465,1011.08 224.465,1009.91 210.5,1008.5C 215.232,1003.29 220.899,999.29 227.5,996.5C 225.42,994.427 223.754,992.093 222.5,989.5C 222.297,987.61 222.963,986.11 224.5,985C 237.167,980.661 246.334,972.494 252,960.5C 254.734,951.097 252.067,943.764 244,938.5C 243.53,937.423 243.697,936.423 244.5,935.5 Z"/></g>
<g><path style="opacity:1" fill="#886d25" d="M 1339.5,923.5 C 1340.89,928.269 1341.56,933.269 1341.5,938.5C 1340.11,933.731 1339.44,928.731 1339.5,923.5 Z"/></g>
<g><path style="opacity:1" fill="#a9872e" d="M 1341.5,942.5 C 1342.6,948.979 1343.26,955.646 1343.5,962.5C 1342.73,961.737 1342.23,960.737 1342,959.5C 1341.5,953.843 1341.33,948.176 1341.5,942.5 Z"/></g>
<g><path style="opacity:1" fill="#5a5a5a" d="M 931.5,966.5 C 937.001,965.64 941.834,966.973 946,970.5C 951.509,980.686 956.343,991.186 960.5,1002C 953.804,1002.24 947.138,1002.74 940.5,1003.5C 933.271,1000.56 926.271,1001.06 919.5,1005C 911.535,1010.42 905.035,1017.25 900,1025.5C 889.667,1044.17 879.333,1062.83 869,1081.5C 862.562,1079.24 856.396,1076.41 850.5,1073C 859.378,1058.75 867.878,1044.25 876,1029.5C 886.8,1009.09 900.634,990.92 917.5,975C 922.064,971.89 926.731,969.056 931.5,966.5 Z"/></g>
<g><path style="opacity:1" fill="#c29c35" d="M 1105.5,962.5 C 1104.83,971.5 1104.17,980.5 1103.5,989.5C 1108.17,989.5 1112.83,989.5 1117.5,989.5C 1112.34,990.458 1107.01,991.125 1101.5,991.5C 1102.1,981.601 1103.43,971.934 1105.5,962.5 Z"/></g>
<g><path style="opacity:1" fill="#9f7f2b" d="M 1193.5,986.5 C 1202.07,986.102 1210.4,986.769 1218.5,988.5C 1209.99,988.14 1201.66,987.473 1193.5,986.5 Z"/></g>
<g><path style="opacity:0.124" fill="#0f0f0f" d="M 383.5,1008.5 C 386.54,1009.68 389.206,1011.35 391.5,1013.5C 388.833,1012.83 386.167,1012.17 383.5,1011.5C 383.082,1010.78 382.416,1010.28 381.5,1010C 382.416,1009.72 383.082,1009.22 383.5,1008.5 Z"/></g>
<g><path style="opacity:0.952" fill="#ababab" d="M 210.5,1008.5 C 224.465,1009.91 238.465,1011.08 252.5,1012C 259.544,1014.11 264.377,1018.61 267,1025.5C 267.737,1038.15 261.903,1046.32 249.5,1050C 241.059,1050.82 232.725,1050.32 224.5,1048.5C 224.5,1050.17 224.5,1051.83 224.5,1053.5C 221.286,1057.88 217.286,1061.38 212.5,1064C 200.593,1071.94 188.259,1072.94 175.5,1067C 163.944,1055.16 163.777,1042.99 175,1030.5C 183.79,1022.52 193.623,1016.19 204.5,1011.5C 205.216,1014.01 206.216,1014.01 207.5,1011.5C 207.376,1010.89 207.043,1010.56 206.5,1010.5C 207.287,1008.9 208.62,1008.23 210.5,1008.5 Z"/></g>
<g><path style="opacity:0.835" fill="#1f1f1f" d="M 206.5,1010.5 C 207.043,1010.56 207.376,1010.89 207.5,1011.5C 206.216,1014.01 205.216,1014.01 204.5,1011.5C 204.842,1010.66 205.508,1010.33 206.5,1010.5 Z"/></g>
<g><path style="opacity:1" fill="#5a5a5a" d="M 943.5,1015.5 C 954.211,1015.19 964.878,1015.69 975.5,1017C 979.837,1018.34 983.337,1020.84 986,1024.5C 988.679,1030.56 990.345,1036.89 991,1043.5C 991.5,1062.83 991.667,1082.16 991.5,1101.5C 968.371,1101.09 945.538,1098.42 923,1093.5C 921.371,1068.85 925.371,1045.19 935,1022.5C 937.441,1019.55 940.275,1017.21 943.5,1015.5 Z"/></g>
<g><path style="opacity:1" fill="#595959" d="M 920.5,1019.5 C 921.239,1019.37 921.906,1019.54 922.5,1020C 919.152,1025.38 916.985,1031.21 916,1037.5C 912.371,1055 910.538,1072.67 910.5,1090.5C 900.642,1089.95 890.975,1088.29 881.5,1085.5C 889.034,1070.77 896.867,1056.1 905,1041.5C 909.608,1033.73 914.775,1026.4 920.5,1019.5 Z"/></g>
<g><path style="opacity:1" fill="#e1b43d" d="M 1351.5,1021.5 C 1352.82,1021.33 1353.99,1021.66 1355,1022.5C 1355.17,1026.49 1355,1030.49 1354.5,1034.5C 1348.85,1034.06 1347.01,1031.06 1349,1025.5C 1349.66,1024.02 1350.5,1022.68 1351.5,1021.5 Z"/></g>
<g><path style="opacity:0.946" fill="#6d6d6d" d="M 418.5,1025.5 C 420.17,1025.75 421.67,1026.42 423,1027.5C 429.784,1027.56 436.617,1027.56 443.5,1027.5C 460.201,1033.86 477.535,1036.69 495.5,1036C 497.058,1036.21 498.391,1036.71 499.5,1037.5C 502.133,1041.18 503.466,1045.35 503.5,1050C 500.795,1067.89 490.462,1078.55 472.5,1082C 469.443,1084.72 466.11,1087.06 462.5,1089C 448.154,1092.77 436.487,1088.77 427.5,1077C 419.559,1076.11 412.725,1072.94 407,1067.5C 396.072,1049.53 400.239,1036.03 419.5,1027C 418.944,1026.62 418.611,1026.12 418.5,1025.5 Z"/></g>
<g><path style="opacity:1" fill="#eebf41" d="M 1199.5,1027.5 C 1210.29,1029.16 1221.29,1029.83 1232.5,1029.5C 1246.8,1029.76 1260.8,1031.92 1274.5,1036C 1294.07,1043.35 1313.4,1051.19 1332.5,1059.5C 1329.76,1063.24 1326.43,1066.24 1322.5,1068.5C 1301.82,1062 1280.82,1060.83 1259.5,1065C 1251.86,1067.22 1244.19,1069.22 1236.5,1071C 1232.25,1074.81 1227.91,1078.65 1223.5,1082.5C 1221.69,1078.86 1219.03,1076.03 1215.5,1074C 1203.91,1075.47 1192.24,1076.14 1180.5,1076C 1162.36,1072.76 1145.36,1066.43 1129.5,1057C 1121,1051.92 1112.66,1046.58 1104.5,1041C 1102.65,1039.87 1100.65,1039.37 1098.5,1039.5C 1096.67,1032.95 1099,1029.62 1105.5,1029.5C 1110.41,1029.64 1115.08,1028.97 1119.5,1027.5C 1146.18,1026.2 1172.84,1026.2 1199.5,1027.5 Z"/></g>
<g><path style="opacity:1" fill="#a1812c" d="M 1119.5,1027.5 C 1115.08,1028.97 1110.41,1029.64 1105.5,1029.5C 1109.92,1028.03 1114.59,1027.36 1119.5,1027.5 Z"/></g>
<g><path style="opacity:1" fill="#bb9633" d="M 1199.5,1027.5 C 1210.69,1027.47 1221.69,1028.14 1232.5,1029.5C 1221.29,1029.83 1210.29,1029.16 1199.5,1027.5 Z"/></g>
<g><path style="opacity:1" fill="#ef4141" d="M 792.5,1149.5 C 791.111,1154.27 790.444,1159.27 790.5,1164.5C 787.486,1193.41 786.986,1222.41 789,1251.5C 790.868,1262.9 795.202,1273.23 802,1282.5C 812.759,1295.93 824.259,1308.76 836.5,1321C 850.367,1331.97 866.033,1339.3 883.5,1343C 911.881,1347.34 940.214,1352.01 968.5,1357C 983.421,1361.96 997.755,1368.29 1011.5,1376C 1022.97,1380.84 1034.97,1382.84 1047.5,1382C 1048.33,1382.91 1049.33,1383.58 1050.5,1384C 1106.16,1390.01 1161.83,1395.85 1217.5,1401.5C 1217.01,1403.81 1216.67,1406.14 1216.5,1408.5C 1213.77,1409.73 1210.77,1410.4 1207.5,1410.5C 1182.51,1409.58 1157.51,1409.25 1132.5,1409.5C 1105.5,1409.24 1078.5,1408.91 1051.5,1408.5C 953.196,1386.06 854.863,1363.73 756.5,1341.5C 754.799,1338.08 753.633,1334.41 753,1330.5C 751.9,1311.4 749.9,1292.4 747,1273.5C 748.359,1249.68 745.693,1226.34 739,1203.5C 732.271,1189.71 725.271,1176.04 718,1162.5C 705.103,1144.51 687.436,1135.85 665,1136.5C 642.703,1137.98 623.37,1146.32 607,1161.5C 604.089,1164.99 601.422,1168.66 599,1172.5C 588.255,1194.88 580.255,1218.22 575,1242.5C 572.759,1255.29 570.092,1267.96 567,1280.5C 565.75,1283.92 563.583,1286.58 560.5,1288.5C 558.515,1286.54 557.015,1284.21 556,1281.5C 553.48,1275.05 551.814,1268.38 551,1261.5C 548.427,1227.99 552.427,1195.32 563,1163.5C 565.473,1157.22 568.473,1151.22 572,1145.5C 579.389,1135.78 586.389,1125.78 593,1115.5C 598.341,1104.13 603.674,1092.8 609,1081.5C 619.371,1073.44 631.204,1069.44 644.5,1069.5C 665.484,1068.6 686.484,1068.26 707.5,1068.5C 725.861,1070.56 743.527,1075.39 760.5,1083C 769.893,1085.09 773.893,1081.59 772.5,1072.5C 759.865,1069.45 747.532,1065.29 735.5,1060C 747.125,1055.72 759.125,1054.39 771.5,1056C 795.87,1061.18 818.87,1070.01 840.5,1082.5C 841.833,1083.17 841.833,1083.83 840.5,1084.5C 813.007,1097.66 797.007,1119.33 792.5,1149.5 Z"/></g>
<g><path style="opacity:0.966" fill="#e5b73e" d="M 1099.5,1051.5 C 1099.9,1050.47 1100.56,1050.31 1101.5,1051C 1124.01,1068.74 1149.35,1080.74 1177.5,1087C 1188.33,1088.14 1199,1087.31 1209.5,1084.5C 1211,1084.45 1212,1085.12 1212.5,1086.5C 1209.16,1088.93 1205.66,1091.27 1202,1093.5C 1200.84,1097.35 1202.01,1100.18 1205.5,1102C 1203.26,1103.98 1201.93,1106.48 1201.5,1109.5C 1192,1104.25 1182.67,1098.75 1173.5,1093C 1153.09,1085.86 1132.76,1078.53 1112.5,1071C 1108.02,1064.52 1103.69,1058.02 1099.5,1051.5 Z"/></g>
<g><path style="opacity:1" fill="#e5b83e" d="M 1341.5,1061.5 C 1343.2,1061.34 1344.87,1061.51 1346.5,1062C 1347.15,1066.84 1346.65,1071.67 1345,1076.5C 1344.27,1078.74 1342.77,1080.07 1340.5,1080.5C 1338.29,1079.14 1335.96,1077.97 1333.5,1077C 1332.94,1076.28 1332.61,1075.44 1332.5,1074.5C 1335.91,1070.43 1338.91,1066.1 1341.5,1061.5 Z"/></g>
<g><path style="opacity:1" fill="#c13434" d="M 707.5,1068.5 C 686.484,1068.26 665.484,1068.6 644.5,1069.5C 646.631,1068.69 648.964,1068.19 651.5,1068C 670.338,1067.17 689.005,1067.34 707.5,1068.5 Z"/></g>
<g><path style="opacity:1" fill="#eebe40" d="M 1343.5,1151.5 C 1342.39,1150.71 1341.06,1150.21 1339.5,1150C 1334.18,1149.5 1328.84,1149.33 1323.5,1149.5C 1312.44,1149.16 1301.44,1148.16 1290.5,1146.5C 1290.36,1144.88 1291.03,1143.71 1292.5,1143C 1311.78,1141.26 1327.95,1133.43 1341,1119.5C 1345.75,1112.42 1347.25,1104.75 1345.5,1096.5C 1346.8,1092.56 1348.64,1088.89 1351,1085.5C 1352.73,1078.77 1354.56,1072.11 1356.5,1065.5C 1359.47,1067.31 1362.31,1069.31 1365,1071.5C 1369.37,1096.93 1378.04,1120.93 1391,1143.5C 1396.07,1148.7 1399.57,1154.7 1401.5,1161.5C 1382.34,1157.21 1363,1153.88 1343.5,1151.5 Z"/></g>
<g><path style="opacity:0.998" fill="#ecbd40" d="M 1120.5,1085.5 C 1125.36,1085.51 1129.69,1087.01 1133.5,1090C 1149.36,1094.39 1164.36,1100.73 1178.5,1109C 1188.09,1113.2 1197.75,1117.2 1207.5,1121C 1210.6,1121.92 1213.76,1122.42 1217,1122.5C 1220.91,1122.43 1224.41,1121.6 1227.5,1120C 1231.78,1122.62 1235.78,1125.62 1239.5,1129C 1243.78,1130.47 1247.78,1132.47 1251.5,1135C 1253.61,1136.26 1254.61,1138.1 1254.5,1140.5C 1229.18,1137.34 1203.85,1134.17 1178.5,1131C 1165.86,1129.91 1153.19,1129.24 1140.5,1129C 1133.69,1114.54 1127.02,1100.04 1120.5,1085.5 Z"/></g>
<g><path style="opacity:0.875" fill="#6f6f6f" d="M 437.5,1099.5 C 437.013,1100.47 436.513,1101.47 436,1102.5C 431.377,1106.29 426.877,1110.29 422.5,1114.5C 415.452,1110.87 408.119,1107.7 400.5,1105C 399.733,1103.53 399.067,1102.03 398.5,1100.5C 401.302,1097.52 403.969,1094.36 406.5,1091C 413.136,1086.42 419.803,1086.42 426.5,1091C 429.505,1094.82 433.172,1097.65 437.5,1099.5 Z"/></g>
<g><path style="opacity:1" fill="#f04141" d="M 1062.5,1277.5 C 1061.67,1298 1061.01,1318.67 1060.5,1339.5C 1060.79,1349.55 1057.79,1358.38 1051.5,1366C 1044.48,1369.18 1037.15,1370.18 1029.5,1369C 1012.38,1361.94 995.384,1354.61 978.5,1347C 971.913,1345.02 965.246,1343.35 958.5,1342C 933.424,1338.47 908.424,1334.47 883.5,1330C 870.009,1326.75 857.675,1321.09 846.5,1313C 830.74,1298.59 817.24,1282.42 806,1264.5C 802.977,1257.1 800.977,1249.43 800,1241.5C 798.914,1208.97 800.914,1176.64 806,1144.5C 806.511,1142.12 807.178,1139.79 808,1137.5C 816.88,1165.02 834.713,1173.86 861.5,1164C 869.938,1158.29 875.271,1150.46 877.5,1140.5C 882.046,1136.88 883.546,1132.22 882,1126.5C 877.909,1118.42 871.409,1113.25 862.5,1111C 850.023,1108.27 838.023,1109.6 826.5,1115C 821.611,1117.74 819.611,1121.9 820.5,1127.5C 817.426,1127.87 814.426,1128.54 811.5,1129.5C 814.956,1120.79 820.29,1113.29 827.5,1107C 836.329,1101 844.996,1094.83 853.5,1088.5C 873.175,1096.34 893.509,1101.84 914.5,1105C 917.402,1107.76 920.735,1108.26 924.5,1106.5C 948.883,1111.91 973.55,1114.07 998.5,1113C 999.667,1111.83 1000.83,1110.67 1002,1109.5C 1012.28,1128.79 1025.28,1146.12 1041,1161.5C 1040.63,1168.47 1043.8,1170.97 1050.5,1169C 1067.49,1160.67 1082.82,1150 1096.5,1137C 1099.21,1136.67 1101.87,1137.01 1104.5,1138C 1097.13,1146.37 1090.96,1155.54 1086,1165.5C 1069.67,1200.99 1061.83,1238.32 1062.5,1277.5 Z"/></g>
<g><path style="opacity:1" fill="#656565" d="M 588.5,1091.5 C 589.097,1091.74 589.43,1092.24 589.5,1093C 584.712,1106.1 577.879,1117.93 569,1128.5C 568.163,1130.01 566.996,1130.51 565.5,1130C 569.993,1115.17 577.659,1102.33 588.5,1091.5 Z"/></g>
<g><path style="opacity:1" fill="#6a6a6a" d="M 1030.5,1094.5 C 1043.17,1094.33 1055.84,1094.5 1068.5,1095C 1075.98,1095.36 1081.81,1098.53 1086,1104.5C 1089.14,1109.76 1090.98,1115.43 1091.5,1121.5C 1075.7,1123.44 1060.7,1120.94 1046.5,1114C 1043.94,1111.56 1041.61,1108.89 1039.5,1106C 1031.88,1104.62 1028.38,1107.79 1029,1115.5C 1030.77,1119.87 1033.6,1123.37 1037.5,1126C 1049.81,1133.38 1063.14,1137.21 1077.5,1137.5C 1068.77,1143.56 1059.77,1149.23 1050.5,1154.5C 1036.24,1140.63 1024.4,1124.96 1015,1107.5C 1012.58,1104.12 1013.08,1101.28 1016.5,1099C 1021.18,1097.17 1025.85,1095.67 1030.5,1094.5 Z"/></g>
<g><path style="opacity:0.984" fill="#ababab" d="M 398.5,1100.5 C 399.067,1102.03 399.733,1103.53 400.5,1105C 408.119,1107.7 415.452,1110.87 422.5,1114.5C 426.877,1110.29 431.377,1106.29 436,1102.5C 436.513,1101.47 437.013,1100.47 437.5,1099.5C 441.764,1098.74 445.764,1098.08 449.5,1097.5C 456.193,1097.73 462.193,1099.73 467.5,1103.5C 472.26,1108.45 476.094,1114.11 479,1120.5C 480.756,1125.13 480.923,1129.79 479.5,1134.5C 479.167,1134.5 478.833,1134.5 478.5,1134.5C 476.704,1135.79 475.037,1137.29 473.5,1139C 466.337,1139.94 459.337,1141.6 452.5,1144C 449.102,1145.36 446.102,1147.19 443.5,1149.5C 439.223,1151.78 435.223,1154.45 431.5,1157.5C 426.094,1158.65 420.76,1159.65 415.5,1160.5C 415.167,1160.5 414.833,1160.5 414.5,1160.5C 406.493,1160.33 398.493,1160.5 390.5,1161C 389.584,1161.28 388.918,1161.78 388.5,1162.5C 385.505,1162.29 382.838,1162.96 380.5,1164.5C 368.5,1168.17 356.5,1171.83 344.5,1175.5C 335.821,1175.46 327.154,1175.8 318.5,1176.5C 308.78,1176.39 300.947,1172.39 295,1164.5C 286.395,1148.98 289.561,1136.48 304.5,1127C 313.758,1123.08 323.425,1121.25 333.5,1121.5C 333.263,1120.21 333.596,1119.21 334.5,1118.5C 337.898,1118.82 341.232,1118.49 344.5,1117.5C 348.302,1108.93 354.636,1103.1 363.5,1100C 375.085,1096.94 386.752,1097.1 398.5,1100.5 Z"/></g>
<g><path style="opacity:0.972" fill="#e4b73e" d="M 1276.5,1098.5 C 1287.51,1098.33 1298.51,1098.5 1309.5,1099C 1298.04,1107.93 1285.04,1111.6 1270.5,1110C 1265.29,1109.42 1261.62,1106.92 1259.5,1102.5C 1265.3,1101.26 1270.97,1099.93 1276.5,1098.5 Z"/></g>
<g><path style="opacity:1" fill="#646464" d="M 840.5,1123.5 C 845.844,1123.33 851.177,1123.5 856.5,1124C 860.161,1124.83 863.495,1126.33 866.5,1128.5C 866.023,1129.48 865.357,1130.31 864.5,1131C 853.807,1131.65 843.14,1131.32 832.5,1130C 831.939,1128.43 832.606,1127.1 834.5,1126C 836.723,1125.43 838.723,1124.6 840.5,1123.5 Z"/></g>
<g><path style="opacity:1" fill="#ee4141" d="M 1139.5,1142.5 C 1140.97,1142.11 1142.47,1141.77 1144,1141.5C 1154.12,1142.8 1164.29,1143.47 1174.5,1143.5C 1215.63,1147.91 1256.63,1153.41 1297.5,1160C 1320.58,1161.61 1343.58,1163.94 1366.5,1167C 1410.06,1176.06 1453.4,1186.06 1496.5,1197C 1539.33,1200.43 1580.67,1210.1 1620.5,1226C 1626.72,1227.97 1633.05,1229.47 1639.5,1230.5C 1640.29,1235.78 1643.29,1237.61 1648.5,1236C 1650.34,1234.82 1652.18,1233.65 1654,1232.5C 1685.51,1242.92 1717.01,1253.42 1748.5,1264C 1791.69,1278.43 1832.69,1297.43 1871.5,1321C 1884.89,1330.71 1897.39,1341.55 1909,1353.5C 1909.69,1354.33 1909.52,1355 1908.5,1355.5C 1894.06,1349.96 1879.39,1345.13 1864.5,1341C 1813.65,1328.53 1762.32,1318.7 1710.5,1311.5C 1702.4,1309.77 1694.07,1309.1 1685.5,1309.5C 1670.14,1309.29 1654.81,1309.79 1639.5,1311C 1633.26,1311.43 1627.76,1313.59 1623,1317.5C 1605.49,1308.33 1587.33,1300.66 1568.5,1294.5C 1574.02,1292.71 1575.86,1289.05 1574,1283.5C 1572.13,1281.29 1569.96,1279.46 1567.5,1278C 1545,1265.59 1522.67,1252.92 1500.5,1240C 1462.53,1221.56 1422.86,1207.9 1381.5,1199C 1321.06,1186.14 1260.72,1172.81 1200.5,1159C 1186.54,1156.51 1172.54,1154.34 1158.5,1152.5C 1152.57,1150.99 1146.41,1150.33 1140,1150.5C 1135.83,1150.67 1131.67,1150.83 1127.5,1151C 1126.26,1151.23 1125.26,1151.73 1124.5,1152.5C 1119.82,1154.21 1118.32,1157.54 1120,1162.5C 1121.17,1163.67 1122.33,1164.83 1123.5,1166C 1135.86,1166.22 1148.2,1166.88 1160.5,1168C 1181.23,1171.68 1201.89,1175.68 1222.5,1180C 1281.46,1193.49 1340.46,1206.82 1399.5,1220C 1432.48,1228.1 1464.15,1239.77 1494.5,1255C 1514.34,1266.75 1534.34,1278.25 1554.5,1289.5C 1547.83,1289.01 1541.17,1287.51 1534.5,1285C 1519.84,1282.17 1505.17,1279.67 1490.5,1277.5C 1480.73,1275.71 1470.73,1274.71 1460.5,1274.5C 1457.31,1274.5 1454.31,1274.84 1451.5,1275.5C 1445.3,1279.55 1444.96,1284.05 1450.5,1289C 1452.58,1289.19 1454.58,1289.69 1456.5,1290.5C 1454.61,1292.88 1454.11,1295.55 1455,1298.5C 1460.44,1312.19 1468.94,1323.69 1480.5,1333C 1498.82,1346.49 1518.82,1356.83 1540.5,1364C 1578.69,1375.48 1617.69,1382.15 1657.5,1384C 1666.27,1381.3 1669.44,1375.46 1667,1366.5C 1660.8,1352.97 1652.3,1341.14 1641.5,1331C 1641.98,1329.24 1642.64,1327.57 1643.5,1326C 1655.45,1324.44 1667.45,1324.11 1679.5,1325C 1704.67,1326.61 1729.67,1329.61 1754.5,1334C 1793.01,1341.42 1831.35,1349.75 1869.5,1359C 1884.19,1363.34 1898.53,1368.68 1912.5,1375C 1913.92,1377.83 1915.58,1380.5 1917.5,1383C 1921.72,1383.63 1925.72,1383.3 1929.5,1382C 1940.14,1398.43 1947.14,1416.27 1950.5,1435.5C 1952.21,1449.77 1952.88,1464.1 1952.5,1478.5C 1941.61,1480.94 1931.27,1485.1 1921.5,1491C 1911.47,1499.89 1905.8,1511.06 1904.5,1524.5C 1899.1,1512.15 1890.43,1502.99 1878.5,1497C 1838.32,1484.29 1797.65,1474.12 1756.5,1466.5C 1751.73,1465.11 1746.73,1464.44 1741.5,1464.5C 1723.42,1462.26 1707.09,1466.42 1692.5,1477C 1685.14,1484.03 1678.14,1491.36 1671.5,1499C 1664.55,1499.63 1661.72,1503.46 1663,1510.5C 1658.44,1514.6 1656.44,1519.6 1657,1525.5C 1660.37,1528.89 1664.21,1529.39 1668.5,1527C 1671.5,1523.33 1674.5,1519.67 1677.5,1516C 1678.5,1515.83 1679.5,1515.67 1680.5,1515.5C 1706.87,1521.18 1733.2,1527.01 1759.5,1533C 1796.78,1540.8 1834.44,1543.8 1872.5,1542C 1877.23,1541.73 1881.9,1541.06 1886.5,1540C 1888.42,1538.58 1889.76,1536.75 1890.5,1534.5C 1895.35,1544 1896.68,1554 1894.5,1564.5C 1893.67,1565.75 1892.33,1566.41 1890.5,1566.5C 1886.52,1565.84 1882.52,1565.5 1878.5,1565.5C 1873.73,1564.11 1868.73,1563.44 1863.5,1563.5C 1843.47,1561.33 1823.47,1558.83 1803.5,1556C 1801.31,1553.32 1798.47,1552.15 1795,1552.5C 1742.9,1553.22 1692.06,1545.55 1642.5,1529.5C 1642.24,1525.73 1642.58,1522.06 1643.5,1518.5C 1644.95,1509.04 1645.61,1499.37 1645.5,1489.5C 1660.66,1481.84 1668.16,1469.51 1668,1452.5C 1663.73,1445.41 1657.57,1440.74 1649.5,1438.5C 1649.81,1432.91 1649.47,1427.41 1648.5,1422C 1621.82,1421.11 1595.15,1419.94 1568.5,1418.5C 1560.13,1418.26 1551.79,1418.59 1543.5,1419.5C 1529.83,1419.5 1516.17,1419.5 1502.5,1419.5C 1498.83,1419.5 1495.17,1419.5 1491.5,1419.5C 1479.69,1418.25 1467.69,1417.58 1455.5,1417.5C 1455.5,1410.5 1455.5,1403.5 1455.5,1396.5C 1454.5,1396.5 1453.5,1396.5 1452.5,1396.5C 1450.27,1362.97 1439.77,1332.3 1421,1304.5C 1393.62,1269.7 1357.79,1254.53 1313.5,1259C 1302.54,1243.04 1289.21,1229.37 1273.5,1218C 1262.57,1211.58 1250.91,1206.91 1238.5,1204C 1207.65,1199.7 1176.98,1194.36 1146.5,1188C 1129.41,1184.4 1112.74,1179.56 1096.5,1173.5C 1101.92,1160.48 1109.92,1149.32 1120.5,1140C 1124.5,1139.33 1128.5,1139.33 1132.5,1140C 1134.32,1142.14 1136.65,1142.97 1139.5,1142.5 Z"/></g>
<g><path style="opacity:1" fill="#b93232" d="M 1174.5,1143.5 C 1164.29,1143.47 1154.12,1142.8 1144,1141.5C 1142.47,1141.77 1140.97,1142.11 1139.5,1142.5C 1139.61,1141.88 1139.94,1141.38 1140.5,1141C 1152.04,1140.8 1163.37,1141.63 1174.5,1143.5 Z"/></g>
<g><path style="opacity:1" fill="#2a2a2a" d="M 478.5,1134.5 C 477.409,1137.43 475.409,1139.59 472.5,1141C 466.737,1143.07 460.737,1144.4 454.5,1145C 451.039,1147.07 447.373,1148.57 443.5,1149.5C 446.102,1147.19 449.102,1145.36 452.5,1144C 459.337,1141.6 466.337,1139.94 473.5,1139C 475.037,1137.29 476.704,1135.79 478.5,1134.5 Z"/></g>
<g><path style="opacity:1" fill="#686868" d="M 824.5,1143.5 C 824.917,1142.88 825.584,1142.54 826.5,1142.5C 837.12,1143.98 847.787,1144.98 858.5,1145.5C 855.591,1151.89 850.424,1154.89 843,1154.5C 840.075,1154.48 837.241,1153.98 834.5,1153C 830.639,1150.3 827.306,1147.14 824.5,1143.5 Z"/></g>
<g><path style="opacity:1" fill="#a4832d" d="M 1323.5,1149.5 C 1328.84,1149.33 1334.18,1149.5 1339.5,1150C 1341.06,1150.21 1342.39,1150.71 1343.5,1151.5C 1336.65,1151.26 1329.98,1150.6 1323.5,1149.5 Z"/></g>
<g><path style="opacity:1" fill="#9f2b2b" d="M 1158.5,1152.5 C 1147.16,1151.29 1135.82,1151.29 1124.5,1152.5C 1125.26,1151.73 1126.26,1151.23 1127.5,1151C 1131.67,1150.83 1135.83,1150.67 1140,1150.5C 1146.41,1150.33 1152.57,1150.99 1158.5,1152.5 Z"/></g>
<g><path style="opacity:1" fill="#431615" d="M 792.5,1149.5 C 792.556,1154.73 791.889,1159.73 790.5,1164.5C 790.444,1159.27 791.111,1154.27 792.5,1149.5 Z"/></g>
<g><path style="opacity:1" fill="#686868" d="M 431.5,1157.5 C 426.602,1160.07 421.269,1161.07 415.5,1160.5C 420.76,1159.65 426.094,1158.65 431.5,1157.5 Z"/></g>
<g><path style="opacity:1" fill="#676767" d="M 414.5,1160.5 C 405.986,1161.29 397.319,1161.95 388.5,1162.5C 388.918,1161.78 389.584,1161.28 390.5,1161C 398.493,1160.5 406.493,1160.33 414.5,1160.5 Z"/></g>
<g><path style="opacity:1" fill="#6b6b6b" d="M 662.5,1159.5 C 683.093,1158.21 699.927,1165.55 713,1181.5C 718.4,1193.37 722.4,1205.7 725,1218.5C 729.297,1236.28 731.631,1254.28 732,1272.5C 728.027,1303.44 715.694,1330.44 695,1353.5C 683.385,1365.06 669.551,1372.56 653.5,1376C 639.062,1378.19 626.062,1374.85 614.5,1366C 594.995,1347.82 584.495,1325.32 583,1298.5C 580.073,1256.96 591.407,1219.96 617,1187.5C 629.356,1173.41 644.523,1164.08 662.5,1159.5 Z"/></g>
<g><path style="opacity:1" fill="#3c3c3c" d="M 380.5,1164.5 C 369.042,1169.87 357.042,1173.87 344.5,1176.5C 344.5,1176.17 344.5,1175.83 344.5,1175.5C 356.5,1171.83 368.5,1168.17 380.5,1164.5 Z"/></g>
<g><path style="opacity:1" fill="#575757" d="M 1503.5,1170.5 C 1513.42,1171.41 1519.75,1176.74 1522.5,1186.5C 1515.79,1186.55 1509.13,1186.05 1502.5,1185C 1502.04,1184.59 1501.71,1184.09 1501.5,1183.5C 1504.2,1179.64 1503.87,1175.98 1500.5,1172.5C 1501.6,1171.82 1502.6,1171.16 1503.5,1170.5 Z"/></g>
<g><path style="opacity:1" fill="#040404" d="M 664.5,1182.5 C 679.85,1180.54 692.684,1185.2 703,1196.5C 704.559,1198.22 705.392,1200.22 705.5,1202.5C 712.429,1201.58 714.595,1204.25 712,1210.5C 703.167,1218.67 694.333,1226.83 685.5,1235C 680.896,1238.75 676.062,1239.25 671,1236.5C 662.123,1220.14 657.623,1202.98 657.5,1185C 659.927,1184.1 662.26,1183.26 664.5,1182.5 Z"/></g>
<g><path style="opacity:1" fill="#f04141" d="M 1074.5,1323.5 C 1075.39,1302.67 1076.06,1281.67 1076.5,1260.5C 1076.52,1234.9 1081.35,1210.23 1091,1186.5C 1091.72,1185.94 1092.56,1185.61 1093.5,1185.5C 1115.81,1192.91 1138.48,1199.08 1161.5,1204C 1187.21,1208.08 1212.88,1212.41 1238.5,1217C 1264.99,1224.65 1285.66,1240.15 1300.5,1263.5C 1263.16,1276.35 1239.99,1302.01 1231,1340.5C 1226.54,1356.29 1223.04,1372.29 1220.5,1388.5C 1168.45,1383.93 1116.45,1378.76 1064.5,1373C 1064.17,1372.67 1063.83,1372.33 1063.5,1372C 1067.89,1365.5 1070.73,1358.33 1072,1350.5C 1073.4,1341.55 1074.24,1332.55 1074.5,1323.5 Z"/></g>
<g><path style="opacity:1" fill="#030303" d="M 635.5,1192.5 C 638.365,1192.05 640.865,1192.72 643,1194.5C 647.495,1210.82 654.161,1226.15 663,1240.5C 663.667,1242.5 663.667,1244.5 663,1246.5C 661,1250.5 659,1254.5 657,1258.5C 653.902,1260.05 650.569,1260.71 647,1260.5C 637.67,1259.78 628.337,1259.11 619,1258.5C 609.2,1259.85 599.367,1260.35 589.5,1260C 588.39,1257.26 588.223,1254.43 589,1251.5C 600.264,1228.41 615.764,1208.75 635.5,1192.5 Z"/></g>
<g><path style="opacity:1" fill="#6b6b6b" d="M 668.5,1192.5 C 678.101,1191.09 686.601,1193.43 694,1199.5C 696.784,1202.72 698.118,1206.38 698,1210.5C 691.918,1217.25 685.252,1223.25 678,1228.5C 676.523,1227.56 675.523,1226.22 675,1224.5C 670.292,1214.34 668.126,1203.67 668.5,1192.5 Z"/></g>
<g><path style="opacity:0.4" fill="#585858" d="M 284.5,1196.5 C 280.065,1200.13 275.399,1200.46 270.5,1197.5C 272.056,1195.01 274.389,1194.01 277.5,1194.5C 280.205,1194.32 282.538,1194.98 284.5,1196.5 Z"/></g>
<g><path style="opacity:1" fill="#6b6b6b" d="M 634.5,1204.5 C 636.335,1205.12 637.502,1206.46 638,1208.5C 641.648,1220.45 646.648,1231.78 653,1242.5C 652.981,1245.24 652.314,1247.91 651,1250.5C 634.584,1249.56 618.084,1249.56 601.5,1250.5C 604.865,1242.78 609.031,1235.44 614,1228.5C 620.604,1220.28 627.438,1212.28 634.5,1204.5 Z"/></g>
<g><path style="opacity:1" fill="#030303" d="M 719.5,1231.5 C 725.067,1230.75 726.9,1233.09 725,1238.5C 719.693,1243.32 714.027,1247.65 708,1251.5C 707.981,1265.6 705.147,1279.1 699.5,1292C 703.954,1297.46 708.787,1302.62 714,1307.5C 715.33,1312.5 713.496,1314.66 708.5,1314C 700.96,1308.13 694.46,1301.29 689,1293.5C 688.333,1291.5 688.333,1289.5 689,1287.5C 690.011,1286.66 691.178,1286.33 692.5,1286.5C 697.305,1273.63 699.472,1260.3 699,1246.5C 705.994,1241.67 712.827,1236.67 719.5,1231.5 Z"/></g>
<g><path style="opacity:1" fill="#020202" d="M 664.5,1256.5 C 669.661,1256.47 674.661,1257.3 679.5,1259C 682.207,1260.86 683.041,1263.36 682,1266.5C 680.89,1268.04 679.39,1268.7 677.5,1268.5C 676.814,1278.02 671.814,1282.86 662.5,1283C 656.845,1273.73 657.512,1264.89 664.5,1256.5 Z"/></g>
<g><path style="opacity:1" fill="#030303" d="M 588.5,1267.5 C 601.724,1270.44 615.058,1272.94 628.5,1275C 635.531,1275.76 642.531,1275.59 649.5,1274.5C 651.029,1274.53 652.196,1275.2 653,1276.5C 652.415,1284.16 652.415,1291.83 653,1299.5C 640.133,1319.73 628.966,1340.9 619.5,1363C 617.5,1363.67 615.5,1363.67 613.5,1363C 594.086,1333.84 585.753,1302 588.5,1267.5 Z"/></g>
<g><path style="opacity:1" fill="#6b6b6b" d="M 1441.5,1417.5 C 1432.83,1417.5 1424.17,1417.5 1415.5,1417.5C 1415.5,1415.5 1415.5,1413.5 1415.5,1411.5C 1418.59,1378.51 1410.75,1348.51 1392,1321.5C 1361.57,1288.96 1326.74,1283.46 1287.5,1305C 1266.7,1318.47 1250.86,1336.3 1240,1358.5C 1247.97,1304.47 1279.31,1275.14 1334,1270.5C 1368.03,1273.22 1394.69,1288.56 1414,1316.5C 1433.48,1347.42 1442.64,1381.08 1441.5,1417.5 Z"/></g>
<g><path style="opacity:1" fill="#ae2f2f" d="M 1451.5,1275.5 C 1454.31,1274.84 1457.31,1274.5 1460.5,1274.5C 1470.73,1274.71 1480.73,1275.71 1490.5,1277.5C 1477.52,1276.41 1464.52,1275.74 1451.5,1275.5 Z"/></g>
<g><path style="opacity:1" fill="#6c6c6c" d="M 595.5,1278.5 C 611.207,1282.76 627.207,1284.76 643.5,1284.5C 642.662,1289.48 642.496,1294.48 643,1299.5C 632.466,1314.56 623.466,1330.56 616,1347.5C 603.613,1326.17 596.779,1303.17 595.5,1278.5 Z"/></g>
<g><path style="opacity:0.029" fill="#000000" d="M 431.5,1289.5 C 431.128,1286.98 431.961,1284.98 434,1283.5C 434.008,1285.82 433.175,1287.82 431.5,1289.5 Z"/></g>
<g><path style="opacity:1" fill="#7e2222" d="M 1076.5,1260.5 C 1076.06,1281.67 1075.39,1302.67 1074.5,1323.5C 1074.33,1306.83 1074.5,1290.16 1075,1273.5C 1075.18,1268.98 1075.68,1264.65 1076.5,1260.5 Z"/></g>
<g><path style="opacity:0.004" fill="#000000" d="M 431.5,1289.5 C 430.833,1290.17 430.833,1290.17 431.5,1289.5 Z"/></g>
<g><path style="opacity:1" fill="#a9a9a9" d="M 1468.5,1290.5 C 1518.12,1295.1 1565.45,1307.93 1610.5,1329C 1627.12,1337.95 1640.12,1350.62 1649.5,1367C 1608.58,1365.28 1568.92,1357.28 1530.5,1343C 1510.11,1335.24 1492.61,1323.4 1478,1307.5C 1474.3,1302.1 1471.14,1296.44 1468.5,1290.5 Z"/></g>
<g><path style="opacity:1" fill="#040404" d="M 667.5,1304.5 C 672.777,1303.93 677.777,1304.76 682.5,1307C 687.461,1313.31 691.627,1320.14 695,1327.5C 696.646,1329.6 698.646,1331.26 701,1332.5C 701.667,1333.83 701.667,1335.17 701,1336.5C 689.696,1346.07 676.863,1352.9 662.5,1357C 658.167,1357.67 653.833,1357.67 649.5,1357C 646.694,1355.69 645.86,1353.53 647,1350.5C 648.834,1349.5 650.001,1348 650.5,1346C 653.571,1331.04 659.238,1317.2 667.5,1304.5 Z"/></g>
<g><path style="opacity:1" fill="#6a6a6a" d="M 1314.5,1409.5 C 1313.57,1410.57 1313.23,1411.9 1313.5,1413.5C 1298.83,1413.5 1284.17,1413.5 1269.5,1413.5C 1261.3,1412.08 1253.13,1410.41 1245,1408.5C 1243.83,1408.67 1242.67,1408.83 1241.5,1409C 1240.49,1411.17 1238.82,1412.34 1236.5,1412.5C 1236.41,1405.21 1237.74,1398.21 1240.5,1391.5C 1240.62,1394 1240.79,1396.67 1241,1399.5C 1241.96,1400.89 1243.29,1401.56 1245,1401.5C 1266.75,1397.82 1288.08,1399.49 1309,1406.5C 1312.92,1405.86 1314.42,1403.53 1313.5,1399.5C 1316.82,1399.51 1318.49,1397.84 1318.5,1394.5C 1313.28,1369.02 1304.78,1344.69 1293,1321.5C 1291.83,1320.33 1290.67,1319.17 1289.5,1318C 1322.4,1296.29 1352.9,1299.13 1381,1326.5C 1400.7,1353.3 1408.2,1383.3 1403.5,1416.5C 1396.83,1416.5 1390.17,1416.5 1383.5,1416.5C 1383.6,1403.15 1384.1,1389.82 1385,1376.5C 1387.3,1374.66 1387.97,1372.33 1387,1369.5C 1386.04,1368.11 1384.71,1367.44 1383,1367.5C 1380.18,1367.99 1377.68,1369.16 1375.5,1371C 1367.8,1377.4 1359.63,1382.9 1351,1387.5C 1349.73,1395.06 1349.07,1402.73 1349,1410.5C 1348.69,1411.31 1348.19,1411.97 1347.5,1412.5C 1346.16,1411 1344.49,1410.33 1342.5,1410.5C 1341.29,1397.76 1334.63,1392.59 1322.5,1395C 1317.87,1398.76 1315.2,1403.59 1314.5,1409.5 Z"/></g>
<g><path style="opacity:1" fill="#6c6c6c" d="M 737.5,1303.5 C 738.748,1304.33 739.415,1305.67 739.5,1307.5C 740.577,1317.51 741.744,1327.51 743,1337.5C 744.404,1341.54 745.738,1345.54 747,1349.5C 748.214,1351.05 749.714,1352.22 751.5,1353C 759.577,1354.75 767.577,1356.75 775.5,1359C 762.782,1386.86 741.116,1398.86 710.5,1395C 697.445,1391.65 684.445,1388.15 671.5,1384.5C 705.197,1367.13 727.197,1340.13 737.5,1303.5 Z"/></g>
<g><path style="opacity:1" fill="#b53131" d="M 1062.5,1277.5 C 1062.67,1294.84 1062.5,1312.17 1062,1329.5C 1061.82,1333.03 1061.32,1336.36 1060.5,1339.5C 1061.01,1318.67 1061.67,1298 1062.5,1277.5 Z"/></g>
<g><path style="opacity:1" fill="#962929" d="M 1685.5,1309.5 C 1694.07,1309.1 1702.4,1309.77 1710.5,1311.5C 1701.99,1311.14 1693.66,1310.47 1685.5,1309.5 Z"/></g>
<g><path style="opacity:1" fill="#030303" d="M 1308.5,1310.5 C 1334,1315.17 1355.83,1326.84 1374,1345.5C 1374.9,1348.03 1374.4,1350.19 1372.5,1352C 1369.55,1352.81 1366.89,1354.14 1364.5,1356C 1354.21,1365.8 1343.54,1375.14 1332.5,1384C 1330.56,1384.74 1328.73,1384.58 1327,1383.5C 1323.7,1378.62 1321.37,1373.28 1320,1367.5C 1316.36,1352.96 1313.36,1338.29 1311,1323.5C 1309.81,1321.39 1308.14,1319.73 1306,1318.5C 1304.84,1315.03 1305.67,1312.36 1308.5,1310.5 Z"/></g>
<g><path style="opacity:1" fill="#696969" d="M 674.5,1313.5 C 677.091,1314.25 678.924,1315.92 680,1318.5C 682.079,1322.99 684.412,1327.33 687,1331.5C 687.667,1332.83 687.667,1334.17 687,1335.5C 678.391,1341.05 669.225,1345.39 659.5,1348.5C 662.036,1337.06 665.87,1326.06 671,1315.5C 672.302,1314.92 673.469,1314.25 674.5,1313.5 Z"/></g>
<g><path style="opacity:1" fill="#6b6b6b" d="M 1321.5,1324.5 C 1333.27,1328.39 1344.27,1333.89 1354.5,1341C 1356.35,1342.68 1358.02,1344.52 1359.5,1346.5C 1350.51,1355.32 1341.34,1363.99 1332,1372.5C 1327.11,1356.82 1323.61,1340.82 1321.5,1324.5 Z"/></g>
<g><path style="opacity:1" fill="#626262" d="M 1281.5,1323.5 C 1282.57,1324.25 1282.74,1325.25 1282,1326.5C 1275.85,1333.47 1270.18,1340.81 1265,1348.5C 1256.65,1361.88 1248.81,1375.54 1241.5,1389.5C 1248.11,1363.65 1261.44,1341.65 1281.5,1323.5 Z"/></g>
<g><path style="opacity:1" fill="#6b6b6b" d="M 1287.5,1334.5 C 1296.78,1354.01 1304.12,1374.34 1309.5,1395.5C 1309.17,1395.83 1308.83,1396.17 1308.5,1396.5C 1290.85,1391.62 1272.85,1388.95 1254.5,1388.5C 1263.5,1369.14 1274.5,1351.14 1287.5,1334.5 Z"/></g>
<g><path style="opacity:1" fill="#030202" d="M 1701.5,1341.5 C 1753.05,1349.31 1804.38,1358.48 1855.5,1369C 1874.09,1372.87 1892.09,1378.53 1909.5,1386C 1924.87,1394.76 1927.71,1406.6 1918,1421.5C 1912.93,1427.23 1906.76,1431.4 1899.5,1434C 1893.2,1436.16 1886.87,1438.16 1880.5,1440C 1859.04,1441.36 1837.7,1440.36 1816.5,1437C 1786.87,1431.61 1757.54,1424.94 1728.5,1417C 1706.47,1407.97 1691.64,1392.14 1684,1369.5C 1680.82,1361.77 1680.82,1354.1 1684,1346.5C 1688.59,1341.67 1693.42,1341.34 1698.5,1345.5C 1699.52,1344.15 1700.52,1342.81 1701.5,1341.5 Z"/></g>
<g><path style="opacity:1" fill="#9e9e9e" d="M 1698.5,1353.5 C 1706.89,1356.58 1715.56,1358.92 1724.5,1360.5C 1723.62,1372.52 1723.28,1384.52 1723.5,1396.5C 1719.56,1394.06 1716.06,1391.06 1713,1387.5C 1712.8,1378.79 1712.13,1370.12 1711,1361.5C 1707.55,1357.6 1703.39,1356.6 1698.5,1358.5C 1697.57,1356.91 1697.57,1355.24 1698.5,1353.5 Z"/></g>
<g><path style="opacity:1" fill="#9c9c9c" d="M 1737.5,1363.5 C 1739.17,1363.5 1740.83,1363.5 1742.5,1363.5C 1743.6,1377.57 1745.27,1391.57 1747.5,1405.5C 1745.06,1405.24 1742.73,1404.58 1740.5,1403.5C 1738.73,1390.22 1737.73,1376.89 1737.5,1363.5 Z"/></g>
<g><path style="opacity:1" fill="#a1a1a1" d="M 1757.5,1367.5 C 1762.14,1367.47 1766.64,1368.14 1771,1369.5C 1771.33,1383.54 1772.17,1397.54 1773.5,1411.5C 1770.45,1411.09 1767.45,1410.42 1764.5,1409.5C 1761.13,1395.67 1758.8,1381.67 1757.5,1367.5 Z"/></g>
<g><path style="opacity:1" fill="#a5a5a5" d="M 1796.5,1376.5 C 1796.16,1389.7 1795.16,1402.7 1793.5,1415.5C 1791.86,1415.71 1790.36,1415.38 1789,1414.5C 1786.87,1400.2 1786.03,1385.87 1786.5,1371.5C 1789.71,1372.8 1793.04,1373.47 1796.5,1373.5C 1796.5,1374.5 1796.5,1375.5 1796.5,1376.5 Z"/></g>
<g><path style="opacity:1" fill="#a7a7a7" d="M 1811.5,1376.5 C 1816.35,1377.55 1821.18,1378.55 1826,1379.5C 1827.51,1393.88 1829.34,1408.22 1831.5,1422.5C 1825.06,1421.96 1818.72,1420.96 1812.5,1419.5C 1812.25,1405.16 1811.92,1390.83 1811.5,1376.5 Z"/></g>
<g><path style="opacity:1" fill="#9b9b9b" d="M 1841.5,1382.5 C 1844.25,1382.78 1846.92,1383.45 1849.5,1384.5C 1847.68,1385.82 1846.68,1387.66 1846.5,1390C 1848.66,1401.48 1850.66,1412.98 1852.5,1424.5C 1850.83,1424.5 1849.17,1424.5 1847.5,1424.5C 1844.68,1410.62 1842.68,1396.62 1841.5,1382.5 Z"/></g>
<g><path style="opacity:1" fill="#676767" d="M 1373.5,1384.5 C 1374.16,1385.79 1374.49,1387.29 1374.5,1389C 1373.77,1398.17 1373.11,1407.33 1372.5,1416.5C 1367.5,1416.5 1362.5,1416.5 1357.5,1416.5C 1358.87,1409.24 1359.7,1401.91 1360,1394.5C 1364.68,1391.3 1369.18,1387.97 1373.5,1384.5 Z"/></g>
<g><path style="opacity:1" fill="#999999" d="M 1872.5,1389.5 C 1873.83,1390.5 1873.83,1391.5 1872.5,1392.5C 1870.59,1392.57 1869.42,1393.57 1869,1395.5C 1868.97,1405.18 1869.47,1414.85 1870.5,1424.5C 1869.5,1424.5 1868.5,1424.5 1867.5,1424.5C 1866.04,1411.7 1863.37,1399.2 1859.5,1387C 1863.88,1387.34 1868.21,1388.17 1872.5,1389.5 Z"/></g>
<g><path style="opacity:1" fill="#5a5a5a" d="M 1872.5,1389.5 C 1877.18,1390.89 1881.85,1392.39 1886.5,1394C 1883.74,1396.24 1881.4,1395.91 1879.5,1393C 1877.19,1392.5 1874.86,1392.34 1872.5,1392.5C 1873.83,1391.5 1873.83,1390.5 1872.5,1389.5 Z"/></g>
<g><path style="opacity:0.999" fill="#5d5d5d" d="M 1796.5,1376.5 C 1796.5,1389.83 1796.5,1403.17 1796.5,1416.5C 1795.21,1416.74 1794.21,1416.4 1793.5,1415.5C 1795.16,1402.7 1796.16,1389.7 1796.5,1376.5 Z"/></g>
<g><path style="opacity:1" fill="#a1a1a1" d="M 1890.5,1396.5 C 1896.66,1397.09 1902.16,1399.76 1907,1404.5C 1906.6,1411.07 1903.1,1415.07 1896.5,1416.5C 1895.5,1410.81 1894.33,1405.15 1893,1399.5C 1892.62,1398.06 1891.79,1397.06 1890.5,1396.5 Z"/></g>
<g><path style="opacity:1" fill="#64501b" d="M 418.5,1406.5 C 418.5,1406.83 418.5,1407.17 418.5,1407.5C 408.5,1407.5 398.5,1407.5 388.5,1407.5C 359.679,1406.02 330.679,1405.35 301.5,1405.5C 301.815,1429.17 302.148,1452.83 302.5,1476.5C 301.833,1467.5 301.167,1458.5 300.5,1449.5C 300.5,1434.5 300.5,1419.5 300.5,1404.5C 339.841,1404.74 379.175,1405.41 418.5,1406.5 Z"/></g>
<g><path style="opacity:1" fill="#767676" d="M 1811.5,1376.5 C 1811.92,1390.83 1812.25,1405.16 1812.5,1419.5C 1810.7,1405.19 1810.36,1390.85 1811.5,1376.5 Z"/></g>
<g><path style="opacity:1" fill="#f1c141" d="M 388.5,1407.5 C 410.308,1409.23 432.308,1409.89 454.5,1409.5C 467.5,1409.5 480.5,1409.5 493.5,1409.5C 548.964,1412.54 604.631,1414.21 660.5,1414.5C 670.5,1414.5 680.5,1414.5 690.5,1414.5C 708.154,1415.3 725.821,1415.64 743.5,1415.5C 759.314,1416.88 775.314,1417.55 791.5,1417.5C 796.5,1417.5 801.5,1417.5 806.5,1417.5C 827.31,1419.14 848.31,1419.81 869.5,1419.5C 878.5,1419.5 887.5,1419.5 896.5,1419.5C 917.305,1421.27 938.305,1421.94 959.5,1421.5C 964.833,1421.5 970.167,1421.5 975.5,1421.5C 1017.64,1423.84 1059.97,1424.84 1102.5,1424.5C 1102.83,1424.5 1103.17,1424.5 1103.5,1424.5C 1124.64,1426.22 1145.97,1426.88 1167.5,1426.5C 1173.17,1426.5 1178.83,1426.5 1184.5,1426.5C 1185.26,1427.27 1186.26,1427.77 1187.5,1428C 1215.5,1428.42 1243.5,1428.92 1271.5,1429.5C 1280.5,1429.5 1289.5,1429.5 1298.5,1429.5C 1302.83,1429.5 1307.17,1429.5 1311.5,1429.5C 1326.32,1430.8 1341.32,1431.46 1356.5,1431.5C 1362.32,1432.33 1368.32,1432.83 1374.5,1433C 1423.16,1434.11 1471.83,1434.94 1520.5,1435.5C 1528.17,1435.5 1535.83,1435.5 1543.5,1435.5C 1572.68,1436.97 1602.01,1438.31 1631.5,1439.5C 1631.5,1450.17 1631.5,1460.83 1631.5,1471.5C 1630.32,1479.64 1629.66,1487.98 1629.5,1496.5C 1627.35,1510.27 1626.35,1524.27 1626.5,1538.5C 1626.5,1540.5 1626.5,1542.5 1626.5,1544.5C 1623.77,1559.51 1622.77,1574.85 1623.5,1590.5C 1623.82,1596.69 1623.49,1602.69 1622.5,1608.5C 1621.52,1612.3 1621.18,1616.3 1621.5,1620.5C 1619.8,1630.95 1618.8,1641.62 1618.5,1652.5C 1618.5,1655.83 1618.5,1659.17 1618.5,1662.5C 1616.8,1672.62 1615.8,1682.95 1615.5,1693.5C 1615.04,1703.16 1614.71,1712.83 1614.5,1722.5C 1614.08,1727.49 1613.75,1732.49 1613.5,1737.5C 1579.84,1736.71 1546.17,1736.04 1512.5,1735.5C 1505.17,1735.5 1497.83,1735.5 1490.5,1735.5C 1418.68,1733.17 1346.68,1731.5 1274.5,1730.5C 1270.5,1730.5 1266.5,1730.5 1262.5,1730.5C 1223.68,1728.81 1184.68,1727.81 1145.5,1727.5C 1124.51,1726.67 1103.51,1726.34 1082.5,1726.5C 1078.5,1726.5 1074.5,1726.5 1070.5,1726.5C 1058.68,1725.42 1046.68,1724.75 1034.5,1724.5C 985.029,1721.78 935.363,1720.44 885.5,1720.5C 869.5,1720.5 853.5,1720.5 837.5,1720.5C 826.823,1720.43 816.156,1720.1 805.5,1719.5C 755.02,1717.15 704.354,1715.81 653.5,1715.5C 624.168,1715.08 594.835,1714.75 565.5,1714.5C 523.347,1712.68 481.013,1711.68 438.5,1711.5C 433.5,1711.5 428.5,1711.5 423.5,1711.5C 387.008,1709.99 350.341,1708.99 313.5,1708.5C 310.482,1708.66 307.482,1708.5 304.5,1708C 305.823,1707.18 306.489,1706.02 306.5,1704.5C 306.5,1704.17 306.5,1703.83 306.5,1703.5C 307.862,1681.15 307.529,1658.81 305.5,1636.5C 305.5,1634.17 305.5,1631.83 305.5,1629.5C 305.5,1618.17 305.5,1606.83 305.5,1595.5C 305.389,1575.5 305.055,1555.5 304.5,1535.5C 304.376,1515.83 304.043,1496.16 303.5,1476.5C 303.651,1453.16 303.318,1429.82 302.5,1406.5C 331.166,1406.86 359.833,1407.2 388.5,1407.5 Z"/></g>
<g><path style="opacity:0.994" fill="#201909" d="M 418.5,1407.5 C 418.5,1407.17 418.5,1406.83 418.5,1406.5C 440.692,1406.11 462.692,1406.77 484.5,1408.5C 465.832,1408.21 447.166,1407.88 428.5,1407.5C 425.167,1407.5 421.833,1407.5 418.5,1407.5 Z"/></g>
<g><path style="opacity:1" fill="#cda538" d="M 388.5,1407.5 C 398.5,1407.5 408.5,1407.5 418.5,1407.5C 421.833,1407.5 425.167,1407.5 428.5,1407.5C 437.167,1408.17 445.833,1408.83 454.5,1409.5C 432.308,1409.89 410.308,1409.23 388.5,1407.5 Z"/></g>
<g><path style="opacity:1" fill="#886d25" d="M 428.5,1407.5 C 447.166,1407.88 465.832,1408.21 484.5,1408.5C 487.5,1408.5 490.5,1408.5 493.5,1408.5C 493.5,1408.83 493.5,1409.17 493.5,1409.5C 480.5,1409.5 467.5,1409.5 454.5,1409.5C 445.833,1408.83 437.167,1408.17 428.5,1407.5 Z"/></g>
<g><path style="opacity:1" fill="#4e3e15" d="M 493.5,1409.5 C 493.5,1409.17 493.5,1408.83 493.5,1408.5C 516.009,1408.63 538.342,1409.3 560.5,1410.5C 538.161,1410.46 515.828,1410.13 493.5,1409.5 Z"/></g>
<g><path style="opacity:1" fill="#ca3737" d="M 1216.5,1408.5 C 1216.5,1409.5 1216.5,1410.5 1216.5,1411.5C 1200.24,1412.15 1183.91,1412.15 1167.5,1411.5C 1162.5,1411.5 1157.5,1411.5 1152.5,1411.5C 1145.83,1410.83 1139.17,1410.17 1132.5,1409.5C 1157.51,1409.25 1182.51,1409.58 1207.5,1410.5C 1210.77,1410.4 1213.77,1409.73 1216.5,1408.5 Z"/></g>
<g><path style="opacity:1" fill="#721f1f" d="M 1051.5,1408.5 C 1078.5,1408.91 1105.5,1409.24 1132.5,1409.5C 1139.17,1410.17 1145.83,1410.83 1152.5,1411.5C 1122.5,1410.92 1092.5,1410.42 1062.5,1410C 1058.64,1409.82 1054.98,1409.32 1051.5,1408.5 Z"/></g>
<g><path style="opacity:1" fill="#b69231" d="M 493.5,1409.5 C 515.828,1410.13 538.161,1410.46 560.5,1410.5C 581.5,1411.17 602.5,1411.83 623.5,1412.5C 635.833,1413.17 648.167,1413.83 660.5,1414.5C 604.631,1414.21 548.964,1412.54 493.5,1409.5 Z"/></g>
<g><path style="opacity:1" fill="#755e20" d="M 623.5,1412.5 C 637.833,1412.5 652.167,1412.5 666.5,1412.5C 674.5,1413.17 682.5,1413.83 690.5,1414.5C 680.5,1414.5 670.5,1414.5 660.5,1414.5C 648.167,1413.83 635.833,1413.17 623.5,1412.5 Z"/></g>
<g><path style="opacity:1" fill="#491414" d="M 1167.5,1411.5 C 1183.91,1412.15 1200.24,1412.15 1216.5,1411.5C 1212.39,1412.83 1207.89,1413.49 1203,1413.5C 1190.99,1413.24 1179.15,1412.57 1167.5,1411.5 Z"/></g>
<g><path style="opacity:1" fill="#4d3e15" d="M 666.5,1412.5 C 696.348,1412.84 726.015,1413.84 755.5,1415.5C 751.5,1415.5 747.5,1415.5 743.5,1415.5C 725.821,1415.64 708.154,1415.3 690.5,1414.5C 682.5,1413.83 674.5,1413.17 666.5,1412.5 Z"/></g>
<g><path style="opacity:1" fill="#484848" d="M 1314.5,1409.5 C 1314.5,1411.5 1314.5,1413.5 1314.5,1415.5C 1299.32,1415.31 1284.32,1414.65 1269.5,1413.5C 1284.17,1413.5 1298.83,1413.5 1313.5,1413.5C 1313.23,1411.9 1313.57,1410.57 1314.5,1409.5 Z"/></g>
<g><path style="opacity:1" fill="#a4842c" d="M 743.5,1415.5 C 747.5,1415.5 751.5,1415.5 755.5,1415.5C 759.833,1415.5 764.167,1415.5 768.5,1415.5C 776.167,1416.17 783.833,1416.83 791.5,1417.5C 775.314,1417.55 759.314,1416.88 743.5,1415.5 Z"/></g>
<g><path style="opacity:1" fill="#68531c" d="M 768.5,1415.5 C 807.162,1416.46 845.829,1417.29 884.5,1418C 890.016,1418.17 895.349,1418.67 900.5,1419.5C 899.167,1419.5 897.833,1419.5 896.5,1419.5C 887.5,1419.5 878.5,1419.5 869.5,1419.5C 848.673,1418.4 827.673,1417.73 806.5,1417.5C 801.5,1417.5 796.5,1417.5 791.5,1417.5C 783.833,1416.83 776.167,1416.17 768.5,1415.5 Z"/></g>
<g><path style="opacity:1" fill="#303030" d="M 1415.5,1411.5 C 1415.5,1413.5 1415.5,1415.5 1415.5,1417.5C 1424.17,1417.5 1432.83,1417.5 1441.5,1417.5C 1432.68,1418.49 1423.68,1418.83 1414.5,1418.5C 1414.2,1415.94 1414.53,1413.61 1415.5,1411.5 Z"/></g>
<g><path style="opacity:1" fill="#ac2e2e" d="M 1452.5,1396.5 C 1453.5,1396.5 1454.5,1396.5 1455.5,1396.5C 1455.5,1403.5 1455.5,1410.5 1455.5,1417.5C 1467.69,1417.58 1479.69,1418.25 1491.5,1419.5C 1479.15,1419.55 1466.82,1419.22 1454.5,1418.5C 1454.5,1416.5 1454.5,1414.5 1454.5,1412.5C 1455.04,1406.87 1454.37,1401.53 1452.5,1396.5 Z"/></g>
<g><path style="opacity:1" fill="#caa237" d="M 806.5,1417.5 C 827.673,1417.73 848.673,1418.4 869.5,1419.5C 848.31,1419.81 827.31,1419.14 806.5,1417.5 Z"/></g>
<g><path style="opacity:1" fill="#2d0e0d" d="M 1454.5,1412.5 C 1454.5,1414.5 1454.5,1416.5 1454.5,1418.5C 1466.82,1419.22 1479.15,1419.55 1491.5,1419.5C 1495.17,1419.5 1498.83,1419.5 1502.5,1419.5C 1502.5,1419.83 1502.5,1420.17 1502.5,1420.5C 1486.11,1420.33 1469.78,1420.33 1453.5,1420.5C 1453.19,1417.61 1453.53,1414.95 1454.5,1412.5 Z"/></g>
<g><path style="opacity:1" fill="#a3832c" d="M 896.5,1419.5 C 897.833,1419.5 899.167,1419.5 900.5,1419.5C 913.833,1419.5 927.167,1419.5 940.5,1419.5C 946.833,1420.17 953.167,1420.83 959.5,1421.5C 938.305,1421.94 917.305,1421.27 896.5,1419.5 Z"/></g>
<g><path style="opacity:1" fill="#594718" d="M 940.5,1419.5 C 960.344,1419.61 980.011,1420.28 999.5,1421.5C 991.5,1421.5 983.5,1421.5 975.5,1421.5C 970.167,1421.5 964.833,1421.5 959.5,1421.5C 953.167,1420.83 946.833,1420.17 940.5,1419.5 Z"/></g>
<g><path style="opacity:1" fill="#581818" d="M 1502.5,1420.5 C 1502.5,1420.17 1502.5,1419.83 1502.5,1419.5C 1516.17,1419.5 1529.83,1419.5 1543.5,1419.5C 1542.39,1420.29 1541.06,1420.79 1539.5,1421C 1527.14,1421.75 1514.81,1421.58 1502.5,1420.5 Z"/></g>
<g><path style="opacity:1" fill="#382e12" d="M 1000.5,1421.5 C 1024.17,1421.33 1047.84,1421.5 1071.5,1422C 1078.01,1422.17 1084.35,1422.67 1090.5,1423.5C 1060.32,1423.61 1030.32,1422.94 1000.5,1421.5 Z"/></g>
<g><path style="opacity:1" fill="#bb3333" d="M 1568.5,1418.5 C 1595.15,1419.94 1621.82,1421.11 1648.5,1422C 1649.47,1427.41 1649.81,1432.91 1649.5,1438.5C 1648.51,1438.67 1647.84,1438.34 1647.5,1437.5C 1647.5,1432.83 1647.5,1428.17 1647.5,1423.5C 1634.52,1422.7 1621.52,1422.37 1608.5,1422.5C 1594.82,1423.22 1581.49,1421.89 1568.5,1418.5 Z"/></g>
<g><path style="opacity:1" fill="#b39031" d="M 975.5,1421.5 C 983.5,1421.5 991.5,1421.5 999.5,1421.5C 999.833,1421.5 1000.17,1421.5 1000.5,1421.5C 1030.32,1422.94 1060.32,1423.61 1090.5,1423.5C 1094.5,1423.5 1098.5,1423.5 1102.5,1423.5C 1102.5,1423.83 1102.5,1424.17 1102.5,1424.5C 1059.97,1424.84 1017.64,1423.84 975.5,1421.5 Z"/></g>
<g><path style="opacity:1" fill="#504016" d="M 1102.5,1424.5 C 1102.5,1424.17 1102.5,1423.83 1102.5,1423.5C 1134.68,1423.82 1166.68,1424.82 1198.5,1426.5C 1193.83,1426.5 1189.17,1426.5 1184.5,1426.5C 1178.83,1426.5 1173.17,1426.5 1167.5,1426.5C 1146.34,1425.44 1125.01,1424.77 1103.5,1424.5C 1103.17,1424.5 1102.83,1424.5 1102.5,1424.5 Z"/></g>
<g><path style="opacity:1" fill="#af8d30" d="M 1103.5,1424.5 C 1125.01,1424.77 1146.34,1425.44 1167.5,1426.5C 1145.97,1426.88 1124.64,1426.22 1103.5,1424.5 Z"/></g>
<g><path style="opacity:1" fill="#ae8c2f" d="M 1184.5,1426.5 C 1189.17,1426.5 1193.83,1426.5 1198.5,1426.5C 1216.17,1426.54 1233.84,1426.87 1251.5,1427.5C 1258.17,1428.17 1264.83,1428.83 1271.5,1429.5C 1243.5,1428.92 1215.5,1428.42 1187.5,1428C 1186.26,1427.77 1185.26,1427.27 1184.5,1426.5 Z"/></g>
<g><path style="opacity:1" fill="#7a6221" d="M 1251.5,1427.5 C 1267.16,1427.96 1282.83,1428.29 1298.5,1428.5C 1298.5,1428.83 1298.5,1429.17 1298.5,1429.5C 1289.5,1429.5 1280.5,1429.5 1271.5,1429.5C 1264.83,1428.83 1258.17,1428.17 1251.5,1427.5 Z"/></g>
<g><path style="opacity:1" fill="#392e10" d="M 1298.5,1429.5 C 1298.5,1429.17 1298.5,1428.83 1298.5,1428.5C 1321.69,1428.24 1344.69,1428.91 1367.5,1430.5C 1348.83,1430.26 1330.16,1429.92 1311.5,1429.5C 1307.17,1429.5 1302.83,1429.5 1298.5,1429.5 Z"/></g>
<g><path style="opacity:1" fill="#286f2a" d="M 426.5,1430.5 C 449.449,1428.24 471.116,1432.41 491.5,1443C 517.551,1460.5 524.718,1484 513,1513.5C 502.132,1535.37 487.299,1554.21 468.5,1570C 452.559,1580.55 437.059,1591.72 422,1603.5C 427.177,1621.85 432.844,1640.18 439,1658.5C 441.356,1666.73 443.189,1675.06 444.5,1683.5C 443.495,1691.67 438.829,1696.51 430.5,1698C 413.539,1701.53 401.372,1695.7 394,1680.5C 385.46,1656.47 379.46,1631.8 376,1606.5C 369.665,1583.5 363.331,1560.5 357,1537.5C 354.224,1521.95 350.557,1506.62 346,1491.5C 344.666,1483.8 345.666,1476.47 349,1469.5C 355.569,1462.26 362.735,1455.76 370.5,1450C 379.833,1445 389.167,1440 398.5,1435C 407.755,1432.22 417.089,1430.72 426.5,1430.5 Z"/></g>
<g><path style="opacity:1" fill="#a7862d" d="M 1311.5,1429.5 C 1330.16,1429.92 1348.83,1430.26 1367.5,1430.5C 1370.5,1430.5 1373.5,1430.5 1376.5,1430.5C 1376.5,1430.83 1376.5,1431.17 1376.5,1431.5C 1369.83,1431.5 1363.17,1431.5 1356.5,1431.5C 1341.32,1431.46 1326.32,1430.8 1311.5,1429.5 Z"/></g>
<g><path style="opacity:1" fill="#411212" d="M 1608.5,1422.5 C 1621.52,1422.37 1634.52,1422.7 1647.5,1423.5C 1647.5,1428.17 1647.5,1432.83 1647.5,1437.5C 1646.52,1433.37 1646.18,1429.03 1646.5,1424.5C 1633.67,1424.07 1621,1423.4 1608.5,1422.5 Z"/></g>
<g><path style="opacity:1" fill="#6f591e" d="M 1376.5,1431.5 C 1376.5,1431.17 1376.5,1430.83 1376.5,1430.5C 1397.67,1430.67 1418.67,1431.34 1439.5,1432.5C 1418.49,1432.57 1397.49,1432.23 1376.5,1431.5 Z"/></g>
<g><path style="opacity:1" fill="#423514" d="M 1440.5,1432.5 C 1465.17,1432.33 1489.84,1432.5 1514.5,1433C 1521.35,1433.17 1528.01,1433.67 1534.5,1434.5C 1529.83,1434.5 1525.17,1434.5 1520.5,1434.5C 1493.66,1434.35 1466.99,1433.68 1440.5,1432.5 Z"/></g>
<g><path style="opacity:1" fill="#cfa638" d="M 1356.5,1431.5 C 1363.17,1431.5 1369.83,1431.5 1376.5,1431.5C 1397.49,1432.23 1418.49,1432.57 1439.5,1432.5C 1439.83,1432.5 1440.17,1432.5 1440.5,1432.5C 1466.99,1433.68 1493.66,1434.35 1520.5,1434.5C 1520.5,1434.83 1520.5,1435.17 1520.5,1435.5C 1471.83,1434.94 1423.16,1434.11 1374.5,1433C 1368.32,1432.83 1362.32,1432.33 1356.5,1431.5 Z"/></g>
<g><path style="opacity:1" fill="#6d571e" d="M 1520.5,1435.5 C 1520.5,1435.17 1520.5,1434.83 1520.5,1434.5C 1525.17,1434.5 1529.83,1434.5 1534.5,1434.5C 1555.02,1434.24 1575.36,1434.91 1595.5,1436.5C 1578.16,1436.42 1560.83,1436.08 1543.5,1435.5C 1535.83,1435.5 1528.17,1435.5 1520.5,1435.5 Z"/></g>
<g><path style="opacity:1" fill="#be9834" d="M 1543.5,1435.5 C 1560.83,1436.08 1578.16,1436.42 1595.5,1436.5C 1608.34,1436.17 1621.01,1436.5 1633.5,1437.5C 1633.42,1444.51 1633.09,1451.51 1632.5,1458.5C 1632.82,1463.03 1632.48,1467.37 1631.5,1471.5C 1631.5,1460.83 1631.5,1450.17 1631.5,1439.5C 1602.01,1438.31 1572.68,1436.97 1543.5,1435.5 Z"/></g>
<g><path style="opacity:1" fill="#cca437" d="M 388.5,1407.5 C 359.833,1407.2 331.166,1406.86 302.5,1406.5C 303.318,1429.82 303.651,1453.16 303.5,1476.5C 303.167,1476.5 302.833,1476.5 302.5,1476.5C 302.148,1452.83 301.815,1429.17 301.5,1405.5C 330.679,1405.35 359.679,1406.02 388.5,1407.5 Z"/></g>
<g><path style="opacity:1" fill="#584718" d="M 1633.5,1437.5 C 1634.16,1439.98 1634.5,1442.64 1634.5,1445.5C 1634.62,1450.09 1633.95,1454.43 1632.5,1458.5C 1633.09,1451.51 1633.42,1444.51 1633.5,1437.5 Z"/></g>
<g><path style="opacity:1" fill="#9b2a2a" d="M 1950.5,1435.5 C 1951.83,1439.26 1952.67,1443.26 1953,1447.5C 1953.83,1458.01 1953.66,1468.34 1952.5,1478.5C 1952.88,1464.1 1952.21,1449.77 1950.5,1435.5 Z"/></g>
<g><path style="opacity:1" fill="#8f8f8f" d="M 1646.5,1455.5 C 1649.24,1455.2 1650.91,1456.37 1651.5,1459C 1650.67,1462.49 1649.17,1465.65 1647,1468.5C 1646.5,1464.18 1646.33,1459.85 1646.5,1455.5 Z"/></g>
<g><path style="opacity:1" fill="#286f2a" d="M 860.5,1474.5 C 861.315,1486.82 861.649,1499.15 861.5,1511.5C 862.332,1534.16 863.165,1556.83 864,1579.5C 866.926,1595.72 868.76,1612.05 869.5,1628.5C 888.162,1627.96 906.829,1627.63 925.5,1627.5C 937.859,1627.27 950.193,1627.61 962.5,1628.5C 968.458,1628.92 974.124,1630.42 979.5,1633C 981.81,1634.64 983.31,1636.8 984,1639.5C 985.256,1654.89 982.756,1669.55 976.5,1683.5C 955.263,1685.77 933.93,1686.77 912.5,1686.5C 890.524,1685.16 868.524,1684.33 846.5,1684C 838.048,1683.02 830.881,1679.52 825,1673.5C 820.637,1663.67 818.304,1653.34 818,1642.5C 816.553,1619.15 814.887,1595.81 813,1572.5C 812.333,1537.83 812.333,1503.17 813,1468.5C 814.961,1465.86 817.461,1464.03 820.5,1463C 832.38,1461.29 843.713,1462.95 854.5,1468C 857.386,1469.38 859.386,1471.55 860.5,1474.5 Z"/></g>
<g><path style="opacity:1" fill="#a42c2c" d="M 1741.5,1464.5 C 1746.73,1464.44 1751.73,1465.11 1756.5,1466.5C 1751.27,1466.56 1746.27,1465.89 1741.5,1464.5 Z"/></g>
<g><path style="opacity:1" fill="#f0c141" d="M 439.5,1469.5 C 462.374,1468.89 470.207,1479.56 463,1501.5C 458.84,1517.15 452.506,1531.82 444,1545.5C 435.207,1555.79 425.04,1564.46 413.5,1571.5C 409.903,1562.12 407.07,1552.46 405,1542.5C 402.978,1528.37 400.312,1514.37 397,1500.5C 396.333,1496.83 396.333,1493.17 397,1489.5C 402.398,1483.44 408.898,1478.94 416.5,1476C 424.16,1473.34 431.827,1471.17 439.5,1469.5 Z"/></g>
<g><path style="opacity:0.995" fill="#1e1809" d="M 300.5,1449.5 C 301.167,1458.5 301.833,1467.5 302.5,1476.5C 302.5,1488.5 302.5,1500.5 302.5,1512.5C 301.048,1510.15 300.382,1507.49 300.5,1504.5C 300.633,1486.22 300.633,1467.88 300.5,1449.5 Z"/></g>
<g><path style="opacity:1" fill="#a8a8a8" d="M 1873.5,1525.5 C 1853.83,1525.54 1834.16,1525.21 1814.5,1524.5C 1772.38,1519.28 1730.71,1511.61 1689.5,1501.5C 1699.64,1488.01 1713.14,1481.01 1730,1480.5C 1780.22,1485.68 1829.05,1496.84 1876.5,1514C 1880.03,1516.03 1882.69,1518.86 1884.5,1522.5C 1880.67,1523.1 1877,1524.1 1873.5,1525.5 Z"/></g>
<g><path style="opacity:1" fill="#286f2a" d="M 1082.5,1481.5 C 1099.19,1481.79 1115.52,1484.29 1131.5,1489C 1156.76,1498.26 1171.92,1516.09 1177,1542.5C 1183.87,1583.96 1179.87,1624.29 1165,1663.5C 1149.01,1697.26 1122.17,1713.93 1084.5,1713.5C 1050.34,1712.53 1028.51,1695.53 1019,1662.5C 1008.15,1610.57 1015.82,1561.57 1042,1515.5C 1048.41,1504.42 1056.91,1495.26 1067.5,1488C 1072.48,1485.52 1077.48,1483.35 1082.5,1481.5 Z"/></g>
<g><path style="opacity:1" fill="#286f2a" d="M 742.5,1490.5 C 753.838,1490.33 765.172,1490.5 776.5,1491C 782.523,1491.45 788.19,1493.12 793.5,1496C 799.315,1504.66 798.315,1512.66 790.5,1520C 787.326,1521.72 783.993,1523.06 780.5,1524C 757.622,1527.73 734.622,1530.4 711.5,1532C 705.402,1532.72 699.402,1533.89 693.5,1535.5C 693.167,1536.33 692.833,1537.17 692.5,1538C 694.349,1548.44 695.682,1558.94 696.5,1569.5C 722.169,1569.33 747.835,1569.5 773.5,1570C 781.859,1571.2 789.859,1573.54 797.5,1577C 801.676,1582.49 801.009,1587.49 795.5,1592C 790.616,1595.11 785.282,1597.11 779.5,1598C 753.211,1600.62 726.878,1602.46 700.5,1603.5C 702.249,1617.16 703.915,1630.82 705.5,1644.5C 709.524,1644.5 713.524,1644.84 717.5,1645.5C 743.76,1641.58 770.093,1640.74 796.5,1643C 806.356,1645.87 810.189,1652.37 808,1662.5C 804.618,1667.78 799.784,1670.95 793.5,1672C 780.098,1675.22 766.598,1678.06 753,1680.5C 731.517,1680.33 710.017,1680.17 688.5,1680C 680.022,1678.35 674.189,1673.51 671,1665.5C 669.016,1658.3 667.682,1650.96 667,1643.5C 666.481,1631.13 665.481,1618.79 664,1606.5C 659.917,1580.16 655.917,1553.83 652,1527.5C 650.764,1519.86 650.43,1512.2 651,1504.5C 654.997,1499.75 660.163,1496.91 666.5,1496C 691.935,1493.31 717.269,1491.48 742.5,1490.5 Z"/></g>
<g><path style="opacity:1" fill="#286f2a" d="M 1446.5,1492.5 C 1460.5,1492.33 1474.5,1492.5 1488.5,1493C 1493.01,1493.5 1496.85,1495.33 1500,1498.5C 1500.36,1506.57 1499.7,1514.57 1498,1522.5C 1494.18,1532.52 1487.01,1539.02 1476.5,1542C 1468.74,1544.92 1460.74,1546.75 1452.5,1547.5C 1448.12,1581.89 1441.62,1615.89 1433,1649.5C 1432.59,1665.48 1428.59,1680.48 1421,1694.5C 1415.18,1700.56 1408.02,1703.72 1399.5,1704C 1389.83,1704.67 1380.17,1704.67 1370.5,1704C 1362.3,1701.95 1359.3,1696.78 1361.5,1688.5C 1362.02,1675.06 1363.52,1661.72 1366,1648.5C 1370.24,1629.05 1374.91,1609.72 1380,1590.5C 1382.96,1575.95 1385.13,1561.28 1386.5,1546.5C 1372.14,1546.71 1357.81,1546.21 1343.5,1545C 1328,1543.37 1320.67,1534.7 1321.5,1519C 1321.32,1513.34 1322.16,1507.84 1324,1502.5C 1325.17,1498.67 1327.67,1496.17 1331.5,1495C 1337.83,1494.67 1344.17,1494.33 1350.5,1494C 1382.67,1493.83 1414.67,1493.33 1446.5,1492.5 Z"/></g>
<g><path style="opacity:1" fill="#a6a6a6" d="M 1948.5,1495.5 C 1949.5,1495.47 1950.16,1495.97 1950.5,1497C 1948.08,1508.27 1945.24,1519.43 1942,1530.5C 1940.42,1528.96 1938.59,1527.79 1936.5,1527C 1931.18,1526.5 1925.84,1526.33 1920.5,1526.5C 1920.29,1516.76 1923.95,1508.93 1931.5,1503C 1937.06,1499.99 1942.73,1497.49 1948.5,1495.5 Z"/></g>
<g><path style="opacity:1" fill="#286f2a" d="M 1231.5,1503.5 C 1231.03,1518.5 1230.7,1533.5 1230.5,1548.5C 1226.72,1581.13 1228.38,1613.47 1235.5,1645.5C 1238.49,1646.13 1241.49,1646.3 1244.5,1646C 1246.73,1643.44 1248.56,1640.6 1250,1637.5C 1251.42,1622.19 1252.59,1606.85 1253.5,1591.5C 1254.71,1576 1255.71,1560.34 1256.5,1544.5C 1256.5,1540.65 1256.17,1536.98 1255.5,1533.5C 1256.11,1525.19 1256.78,1516.86 1257.5,1508.5C 1260.2,1506.65 1263.2,1505.49 1266.5,1505C 1278.42,1502.87 1290.42,1502.2 1302.5,1503C 1304.25,1503.47 1305.91,1504.14 1307.5,1505C 1308.98,1507.78 1310.65,1510.45 1312.5,1513C 1314.54,1554.99 1310.71,1596.49 1301,1637.5C 1295.8,1659.42 1285.3,1678.25 1269.5,1694C 1257.22,1702.7 1243.55,1707.54 1228.5,1708.5C 1218.42,1708.95 1210.26,1705.28 1204,1697.5C 1196.84,1686.17 1192.18,1673.84 1190,1660.5C 1188.87,1651.85 1187.87,1643.18 1187,1634.5C 1186.29,1608.82 1186.46,1583.16 1187.5,1557.5C 1189.01,1547.38 1189.68,1537.04 1189.5,1526.5C 1189.5,1519.33 1189.17,1512.33 1188.5,1505.5C 1187.25,1499.92 1189.42,1497.26 1195,1497.5C 1203.49,1498.19 1211.99,1498.69 1220.5,1499C 1224.72,1499.45 1228.39,1500.95 1231.5,1503.5 Z"/></g>
<g><path style="opacity:1" fill="#6c561d" d="M 1631.5,1471.5 C 1631.67,1479.84 1631.5,1488.17 1631,1496.5C 1630.8,1498.38 1630.3,1500.05 1629.5,1501.5C 1629.5,1499.83 1629.5,1498.17 1629.5,1496.5C 1629.66,1487.98 1630.32,1479.64 1631.5,1471.5 Z"/></g>
<g><path style="opacity:1" fill="#869535" d="M 860.5,1474.5 C 862.039,1481.43 862.706,1488.6 862.5,1496C 862.499,1501.34 862.166,1506.51 861.5,1511.5C 861.649,1499.15 861.315,1486.82 860.5,1474.5 Z"/></g>
<g><path style="opacity:1" fill="#b69231" d="M 1629.5,1496.5 C 1629.5,1498.17 1629.5,1499.83 1629.5,1501.5C 1628.82,1510.82 1628.48,1520.15 1628.5,1529.5C 1627.83,1532.5 1627.17,1535.5 1626.5,1538.5C 1626.35,1524.27 1627.35,1510.27 1629.5,1496.5 Z"/></g>
<g><path style="opacity:1" fill="#ab2e2e" d="M 1645.5,1489.5 C 1645.61,1499.37 1644.95,1509.04 1643.5,1518.5C 1643.5,1516.17 1643.5,1513.83 1643.5,1511.5C 1643.52,1503.96 1644.19,1496.63 1645.5,1489.5 Z"/></g>
<g><path style="opacity:1" fill="#286f2a" d="M 569.5,1514.5 C 592.656,1513.65 615.656,1515.15 638.5,1519C 649.807,1521.12 652.974,1527.28 648,1537.5C 642.156,1545.17 634.323,1549.34 624.5,1550C 598.959,1553.58 573.292,1555.41 547.5,1555.5C 549.834,1572.84 552.167,1590.17 554.5,1607.5C 581.226,1604.58 607.892,1602.25 634.5,1600.5C 649.571,1602.21 651.571,1608.38 640.5,1619C 637.326,1620.72 633.993,1622.06 630.5,1623C 606.796,1628.28 582.796,1631.12 558.5,1631.5C 561.122,1644.62 564.122,1657.62 567.5,1670.5C 584.894,1669.8 602.228,1668.3 619.5,1666C 630.833,1665.33 642.167,1665.33 653.5,1666C 668.041,1669.24 673.207,1678.07 669,1692.5C 665.995,1696.09 662.162,1698.25 657.5,1699C 637.855,1700.16 618.188,1700.83 598.5,1701C 585.916,1701.94 573.416,1703.44 561,1705.5C 550.039,1705.43 539.872,1702.6 530.5,1697C 529.213,1695.59 528.046,1694.09 527,1692.5C 518.748,1672.36 514.748,1651.36 515,1629.5C 514.667,1609.17 514.333,1588.83 514,1568.5C 511.451,1555.54 509.451,1542.54 508,1529.5C 509.543,1527.62 511.376,1526.12 513.5,1525C 517.009,1524.47 520.342,1523.47 523.5,1522C 539.126,1520.45 554.46,1517.95 569.5,1514.5 Z"/></g>
<g><path style="opacity:1" fill="#b0a73a" d="M 1231.5,1503.5 C 1232.58,1518.52 1232.25,1533.52 1230.5,1548.5C 1230.7,1533.5 1231.03,1518.5 1231.5,1503.5 Z"/></g>
<g><path style="opacity:1" fill="#411213" d="M 1643.5,1511.5 C 1643.5,1513.83 1643.5,1516.17 1643.5,1518.5C 1642.58,1522.06 1642.24,1525.73 1642.5,1529.5C 1641.84,1527.19 1641.5,1524.69 1641.5,1522C 1641.3,1518.2 1641.97,1514.7 1643.5,1511.5 Z"/></g>
<g><path style="opacity:1" fill="#ab892e" d="M 302.5,1476.5 C 302.833,1476.5 303.167,1476.5 303.5,1476.5C 304.043,1496.16 304.376,1515.83 304.5,1535.5C 303.833,1529.5 303.167,1523.5 302.5,1517.5C 302.5,1515.83 302.5,1514.17 302.5,1512.5C 302.5,1500.5 302.5,1488.5 302.5,1476.5 Z"/></g>
<g><path style="opacity:1" fill="#818181" d="M 1814.5,1524.5 C 1834.16,1525.21 1853.83,1525.54 1873.5,1525.5C 1866.34,1526.17 1859.01,1526.5 1851.5,1526.5C 1838.97,1526.61 1826.64,1525.94 1814.5,1524.5 Z"/></g>
<g><path style="opacity:1" fill="#58822f" d="M 1188.5,1505.5 C 1189.17,1512.33 1189.5,1519.33 1189.5,1526.5C 1189.68,1537.04 1189.01,1547.38 1187.5,1557.5C 1188.05,1540.17 1188.38,1522.84 1188.5,1505.5 Z"/></g>
<g><path style="opacity:1" fill="#e83f3f" d="M 1909.5,1538.5 C 1910.47,1538.99 1911.47,1539.49 1912.5,1540C 1920.83,1540.85 1929.16,1541.69 1937.5,1542.5C 1933.46,1552.76 1927.8,1561.92 1920.5,1570C 1915.83,1573.33 1911.17,1573.33 1906.5,1570C 1908.89,1568.05 1910.39,1565.55 1911,1562.5C 1911.89,1554.39 1911.39,1546.39 1909.5,1538.5 Z"/></g>
<g><path style="opacity:1" fill="#595959" d="M 1647.5,1545.5 C 1647.74,1544.9 1648.24,1544.57 1649,1544.5C 1658.6,1547.86 1668.44,1550.19 1678.5,1551.5C 1677.87,1558.4 1680.53,1563.57 1686.5,1567C 1702.9,1576.53 1720.23,1583.87 1738.5,1589C 1754.25,1591.74 1768.91,1589.08 1782.5,1581C 1787.5,1577.33 1792.5,1573.67 1797.5,1570C 1799.2,1569.04 1801.03,1568.54 1803,1568.5C 1825.78,1571.83 1848.62,1574.83 1871.5,1577.5C 1862.78,1590.03 1850.78,1597.2 1835.5,1599C 1775.95,1612.82 1721.62,1601.82 1672.5,1566C 1664.14,1559.16 1655.8,1552.33 1647.5,1545.5 Z"/></g>
<g><path style="opacity:1" fill="#483a14" d="M 1628.5,1529.5 C 1628.78,1538.06 1628.11,1546.39 1626.5,1554.5C 1626.5,1551.17 1626.5,1547.83 1626.5,1544.5C 1626.5,1542.5 1626.5,1540.5 1626.5,1538.5C 1627.17,1535.5 1627.83,1532.5 1628.5,1529.5 Z"/></g>
<g><path style="opacity:1" fill="#745d20" d="M 302.5,1517.5 C 303.167,1523.5 303.833,1529.5 304.5,1535.5C 305.055,1555.5 305.389,1575.5 305.5,1595.5C 304.833,1587.5 304.167,1579.5 303.5,1571.5C 302.834,1553.51 302.5,1535.51 302.5,1517.5 Z"/></g>
<g><path style="opacity:1" fill="#b08d30" d="M 1626.5,1544.5 C 1626.5,1547.83 1626.5,1551.17 1626.5,1554.5C 1626.5,1555.17 1626.5,1555.83 1626.5,1556.5C 1625.56,1565.33 1624.89,1574.33 1624.5,1583.5C 1624.8,1586.06 1624.47,1588.39 1623.5,1590.5C 1622.77,1574.85 1623.77,1559.51 1626.5,1544.5 Z"/></g>
<g><path style="opacity:1" fill="#eec041" d="M 1091.5,1559.5 C 1103.89,1559.39 1111.39,1565.39 1114,1577.5C 1115.31,1603.6 1109.98,1628.26 1098,1651.5C 1095.97,1655.03 1093.14,1657.69 1089.5,1659.5C 1084.67,1656.86 1081.5,1652.86 1080,1647.5C 1074.83,1621.3 1075.5,1595.3 1082,1569.5C 1084.02,1564.98 1087.19,1561.65 1091.5,1559.5 Z"/></g>
<g><path style="opacity:1" fill="#545454" d="M 1705.5,1558.5 C 1705.74,1557.9 1706.24,1557.57 1707,1557.5C 1728.35,1561.44 1749.85,1564.27 1771.5,1566C 1760.12,1572.56 1748.12,1573.9 1735.5,1570C 1725.28,1566.65 1715.28,1562.82 1705.5,1558.5 Z"/></g>
<g><path style="opacity:1" fill="#768e33" d="M 1255.5,1533.5 C 1256.17,1536.98 1256.5,1540.65 1256.5,1544.5C 1255.71,1560.34 1254.71,1576 1253.5,1591.5C 1254.01,1572.16 1254.68,1552.83 1255.5,1533.5 Z"/></g>
<g><path style="opacity:1" fill="#9e2b2b" d="M 1863.5,1563.5 C 1868.73,1563.44 1873.73,1564.11 1878.5,1565.5C 1873.27,1565.56 1868.27,1564.89 1863.5,1563.5 Z"/></g>
<g><path style="opacity:1" fill="#9e2b2b" d="M 1894.5,1564.5 C 1895.4,1565.21 1895.74,1566.21 1895.5,1567.5C 1889.6,1567.68 1883.93,1567.01 1878.5,1565.5C 1882.52,1565.5 1886.52,1565.84 1890.5,1566.5C 1892.33,1566.41 1893.67,1565.75 1894.5,1564.5 Z"/></g>
<g><path style="opacity:1" fill="#342a10" d="M 1626.5,1556.5 C 1626.93,1565.73 1626.26,1574.73 1624.5,1583.5C 1624.89,1574.33 1625.56,1565.33 1626.5,1556.5 Z"/></g>
<g><path style="opacity:1" fill="#4d3e15" d="M 303.5,1571.5 C 304.167,1579.5 304.833,1587.5 305.5,1595.5C 305.5,1606.83 305.5,1618.17 305.5,1629.5C 303.78,1610.36 303.113,1591.03 303.5,1571.5 Z"/></g>
<g><path style="opacity:1" fill="#554517" d="M 1622.5,1608.5 C 1622.67,1616.17 1622.5,1623.84 1622,1631.5C 1621.8,1633.38 1621.3,1635.05 1620.5,1636.5C 1620.83,1631.17 1621.17,1625.83 1621.5,1620.5C 1621.18,1616.3 1621.52,1612.3 1622.5,1608.5 Z"/></g>
<g><path style="opacity:1" fill="#869535" d="M 925.5,1627.5 C 936.326,1626.34 947.326,1626.17 958.5,1627C 960.058,1627.21 961.391,1627.71 962.5,1628.5C 950.193,1627.61 937.859,1627.27 925.5,1627.5 Z"/></g>
<g><path style="opacity:1" fill="#a2822c" d="M 1621.5,1620.5 C 1621.17,1625.83 1620.83,1631.17 1620.5,1636.5C 1620.5,1640.17 1620.5,1643.83 1620.5,1647.5C 1619.83,1649.17 1619.17,1650.83 1618.5,1652.5C 1618.8,1641.62 1619.8,1630.95 1621.5,1620.5 Z"/></g>
<g><path style="opacity:1" fill="#594718" d="M 1620.5,1647.5 C 1620.24,1658.05 1619.24,1668.39 1617.5,1678.5C 1617.83,1673.17 1618.17,1667.83 1618.5,1662.5C 1618.5,1659.17 1618.5,1655.83 1618.5,1652.5C 1619.17,1650.83 1619.83,1649.17 1620.5,1647.5 Z"/></g>
<g><path style="opacity:1" fill="#b89432" d="M 1618.5,1662.5 C 1618.17,1667.83 1617.83,1673.17 1617.5,1678.5C 1617.5,1681.17 1617.5,1683.83 1617.5,1686.5C 1616.83,1688.83 1616.17,1691.17 1615.5,1693.5C 1615.8,1682.95 1616.8,1672.62 1618.5,1662.5 Z"/></g>
<g><path style="opacity:1" fill="#cdb33d" d="M 976.5,1683.5 C 975.411,1685.12 973.744,1685.95 971.5,1686C 951.679,1687.52 932.012,1687.69 912.5,1686.5C 933.93,1686.77 955.263,1685.77 976.5,1683.5 Z"/></g>
<g><path style="opacity:1" fill="#8c7026" d="M 305.5,1636.5 C 307.529,1658.81 307.862,1681.15 306.5,1703.5C 306.074,1681.17 305.741,1658.84 305.5,1636.5 Z"/></g>
<g><path style="opacity:1" fill="#7c6422" d="M 1617.5,1686.5 C 1616.72,1698.49 1616.05,1710.49 1615.5,1722.5C 1615.17,1722.5 1614.83,1722.5 1614.5,1722.5C 1614.71,1712.83 1615.04,1703.16 1615.5,1693.5C 1616.17,1691.17 1616.83,1688.83 1617.5,1686.5 Z"/></g>
<g><path style="opacity:0.999" fill="#514116" d="M 306.5,1704.5 C 306.489,1706.02 305.823,1707.18 304.5,1708C 307.482,1708.5 310.482,1708.66 313.5,1708.5C 322.5,1709.17 331.5,1709.83 340.5,1710.5C 328.978,1710.76 317.478,1710.42 306,1709.5C 301.833,1708.31 301.999,1706.64 306.5,1704.5 Z"/></g>
<g><path style="opacity:1" fill="#8e7227" d="M 313.5,1708.5 C 350.341,1708.99 387.008,1709.99 423.5,1711.5C 419.5,1711.5 415.5,1711.5 411.5,1711.5C 387.831,1711.29 364.165,1710.95 340.5,1710.5C 331.5,1709.83 322.5,1709.17 313.5,1708.5 Z"/></g>
<g><path style="opacity:1" fill="#a7862d" d="M 438.5,1711.5 C 481.013,1711.68 523.347,1712.68 565.5,1714.5C 556.833,1714.5 548.167,1714.5 539.5,1714.5C 534.5,1714.5 529.5,1714.5 524.5,1714.5C 495.83,1713.61 467.163,1712.61 438.5,1711.5 Z"/></g>
<g><path style="opacity:1" fill="#483a14" d="M 411.5,1711.5 C 415.5,1711.5 419.5,1711.5 423.5,1711.5C 428.5,1711.5 433.5,1711.5 438.5,1711.5C 467.163,1712.61 495.83,1713.61 524.5,1714.5C 486.644,1714.58 448.978,1713.58 411.5,1711.5 Z"/></g>
<g><path style="opacity:1" fill="#8a6f25" d="M 539.5,1714.5 C 548.167,1714.5 556.833,1714.5 565.5,1714.5C 594.835,1714.75 624.168,1715.08 653.5,1715.5C 688.182,1716.46 722.848,1717.8 757.5,1719.5C 740.162,1719.34 722.829,1719.01 705.5,1718.5C 650.007,1717.16 594.674,1715.83 539.5,1714.5 Z"/></g>
<g><path style="opacity:1" fill="#d6ac3a" d="M 653.5,1715.5 C 704.354,1715.81 755.02,1717.15 805.5,1719.5C 793.167,1719.5 780.833,1719.5 768.5,1719.5C 764.833,1719.5 761.167,1719.5 757.5,1719.5C 722.848,1717.8 688.182,1716.46 653.5,1715.5 Z"/></g>
<g><path style="opacity:0.998" fill="#231c0a" d="M 705.5,1718.5 C 722.829,1719.01 740.162,1719.34 757.5,1719.5C 761.167,1719.5 764.833,1719.5 768.5,1719.5C 768.5,1719.83 768.5,1720.17 768.5,1720.5C 747.831,1720.67 727.164,1720.5 706.5,1720C 705.944,1719.62 705.611,1719.12 705.5,1718.5 Z"/></g>
<g><path style="opacity:1" fill="#69541d" d="M 768.5,1720.5 C 768.5,1720.17 768.5,1719.83 768.5,1719.5C 780.833,1719.5 793.167,1719.5 805.5,1719.5C 816.156,1720.1 826.823,1720.43 837.5,1720.5C 837.5,1720.83 837.5,1721.17 837.5,1721.5C 814.494,1721.5 791.494,1721.17 768.5,1720.5 Z"/></g>
<g><path style="opacity:1" fill="#ddb23c" d="M 885.5,1720.5 C 935.363,1720.44 985.029,1721.78 1034.5,1724.5C 1026.17,1724.5 1017.83,1724.5 1009.5,1724.5C 986.506,1723.81 963.506,1723.48 940.5,1723.5C 922.152,1722.81 903.818,1721.81 885.5,1720.5 Z"/></g>
<g><path style="opacity:1" fill="#8e7227" d="M 837.5,1721.5 C 837.5,1721.17 837.5,1720.83 837.5,1720.5C 853.5,1720.5 869.5,1720.5 885.5,1720.5C 903.818,1721.81 922.152,1722.81 940.5,1723.5C 934.5,1723.5 928.5,1723.5 922.5,1723.5C 894.162,1723.01 865.828,1722.35 837.5,1721.5 Z"/></g>
<g><path style="opacity:1" fill="#614e1a" d="M 922.5,1723.5 C 928.5,1723.5 934.5,1723.5 940.5,1723.5C 963.506,1723.48 986.506,1723.81 1009.5,1724.5C 1009.5,1724.83 1009.5,1725.17 1009.5,1725.5C 980.332,1725.1 951.332,1724.43 922.5,1723.5 Z"/></g>
<g><path style="opacity:1" fill="#9c7d2a" d="M 1009.5,1725.5 C 1009.5,1725.17 1009.5,1724.83 1009.5,1724.5C 1017.83,1724.5 1026.17,1724.5 1034.5,1724.5C 1046.68,1724.75 1058.68,1725.42 1070.5,1726.5C 1050.17,1725.96 1029.84,1725.63 1009.5,1725.5 Z"/></g>
<g><path style="opacity:1" fill="#705a1e" d="M 1082.5,1726.5 C 1103.51,1726.34 1124.51,1726.67 1145.5,1727.5C 1145.5,1727.83 1145.5,1728.17 1145.5,1728.5C 1124.32,1728.59 1103.32,1727.93 1082.5,1726.5 Z"/></g>
<g><path style="opacity:1" fill="#896e25" d="M 1145.5,1727.5 C 1184.68,1727.81 1223.68,1728.81 1262.5,1730.5C 1258.17,1730.5 1253.83,1730.5 1249.5,1730.5C 1214.66,1730.25 1180,1729.58 1145.5,1728.5C 1145.5,1728.17 1145.5,1727.83 1145.5,1727.5 Z"/></g>
<g><path style="opacity:1" fill="#9f802b" d="M 1274.5,1730.5 C 1346.68,1731.5 1418.68,1733.17 1490.5,1735.5C 1482.83,1735.5 1475.17,1735.5 1467.5,1735.5C 1431.17,1734.56 1394.84,1733.89 1358.5,1733.5C 1330.5,1732.47 1302.5,1731.47 1274.5,1730.5 Z"/></g>
<g><path style="opacity:0.987" fill="#473914" d="M 1249.5,1730.5 C 1253.83,1730.5 1258.17,1730.5 1262.5,1730.5C 1266.5,1730.5 1270.5,1730.5 1274.5,1730.5C 1302.5,1731.47 1330.5,1732.47 1358.5,1733.5C 1321.98,1733.51 1285.65,1732.51 1249.5,1730.5 Z"/></g>
<g><path style="opacity:1" fill="#6d571d" d="M 1467.5,1735.5 C 1475.17,1735.5 1482.83,1735.5 1490.5,1735.5C 1497.83,1735.5 1505.17,1735.5 1512.5,1735.5C 1525.17,1736.17 1537.83,1736.83 1550.5,1737.5C 1548.5,1737.5 1546.5,1737.5 1544.5,1737.5C 1518.65,1737.58 1492.99,1736.91 1467.5,1735.5 Z"/></g>
<g><path style="opacity:1" fill="#aa882e" d="M 1512.5,1735.5 C 1546.17,1736.04 1579.84,1736.71 1613.5,1737.5C 1592.66,1738.63 1571.66,1738.63 1550.5,1737.5C 1537.83,1736.83 1525.17,1736.17 1512.5,1735.5 Z"/></g>
<g><path style="opacity:1" fill="#241e0c" d="M 1614.5,1722.5 C 1614.83,1722.5 1615.17,1722.5 1615.5,1722.5C 1615.5,1728.17 1615.5,1733.83 1615.5,1739.5C 1591.48,1740.16 1567.81,1739.49 1544.5,1737.5C 1546.5,1737.5 1548.5,1737.5 1550.5,1737.5C 1571.66,1738.63 1592.66,1738.63 1613.5,1737.5C 1613.75,1732.49 1614.08,1727.49 1614.5,1722.5 Z"/></g>
</svg>
