<?xml version="1.0" encoding="UTF-8"?>
<!DOCTYPE svg PUBLIC "-//W3C//DTD SVG 1.1//EN" "http://www.w3.org/Graphics/SVG/1.1/DTD/svg11.dtd">
<svg xmlns="http://www.w3.org/2000/svg" version="1.1" width="2048px" height="2048px" style="shape-rendering:geometricPrecision; text-rendering:geometricPrecision; image-rendering:optimizeQuality; fill-rule:evenodd; clip-rule:evenodd" xmlns:xlink="http://www.w3.org/1999/xlink">
<g><path style="opacity:0.88" fill="#020101" d="M 854.5,178.5 C 856.09,178.628 857.423,179.295 858.5,180.5C 875.863,211.897 889.363,244.897 899,279.5C 901.513,289.396 903.513,299.396 905,309.5C 924.217,263.949 951.717,224.116 987.5,190C 993.217,186.196 998.384,186.696 1003,191.5C 1018.06,226.381 1023.06,262.714 1018,300.5C 1016.8,308.205 1015.8,315.872 1015,323.5C 1037.25,306.297 1060.08,289.963 1083.5,274.5C 1084.39,273.675 1084.72,272.675 1084.5,271.5C 1091.51,269.418 1097.51,265.585 1102.5,260C 1105.82,260.225 1108.16,258.892 1109.5,256C 1130.55,243.634 1152.22,231.967 1174.5,221C 1188.63,214.847 1203.29,210.513 1218.5,208C 1230.31,205.568 1240.97,207.901 1250.5,215C 1268.44,231.615 1281.6,251.449 1290,274.5C 1295.78,291.821 1301.11,309.154 1306,326.5C 1326.62,286.142 1353.45,250.309 1386.5,219C 1397.91,211.248 1405.08,214.081 1408,227.5C 1411.1,249.814 1412.1,272.148 1411,294.5C 1428.46,272.037 1448.3,251.87 1470.5,234C 1475.63,229.824 1480.8,229.658 1486,233.5C 1487.05,236.039 1487.55,238.705 1487.5,241.5C 1486.76,247.519 1486.26,253.519 1486,259.5C 1512.17,238.153 1541,220.986 1572.5,208C 1580.26,204.915 1588.26,202.748 1596.5,201.5C 1606.89,202.052 1611.06,207.386 1609,217.5C 1604.71,232.694 1599.05,247.361 1592,261.5C 1574.09,300.485 1554.26,338.318 1532.5,375C 1560.49,357.667 1589.82,342.334 1620.5,329C 1626.28,326.401 1632.28,325.068 1638.5,325C 1643.92,325.082 1646.58,327.748 1646.5,333C 1644.93,342.377 1641.76,351.21 1637,359.5C 1624.83,380.682 1609.33,399.182 1590.5,415C 1601.56,415.783 1612.56,415.283 1623.5,413.5C 1624.03,412.808 1624.69,412.308 1625.5,412C 1632.7,411.782 1639.87,411.282 1647,410.5C 1673.79,410.481 1700.63,410.648 1727.5,411C 1728.83,411.667 1729.83,412.667 1730.5,414C 1736.17,414.333 1741.83,414.667 1747.5,415C 1748.17,416 1748.83,417 1749.5,418C 1754.5,418.333 1759.5,418.667 1764.5,419C 1765.34,420.011 1765.67,421.178 1765.5,422.5C 1767.53,422.338 1769.53,422.505 1771.5,423C 1774.45,427.056 1777.28,431.223 1780,435.5C 1780.67,446.167 1780.67,456.833 1780,467.5C 1779.33,468.167 1778.67,468.833 1778,469.5C 1777.67,474.5 1777.33,479.5 1777,484.5C 1776.75,487.177 1775.75,489.51 1774,491.5C 1773.69,497.874 1773.02,504.207 1772,510.5C 1771.59,510.957 1771.09,511.291 1770.5,511.5C 1769.67,515.459 1769.17,519.459 1769,523.5C 1766.01,527.227 1764.68,531.561 1765,536.5C 1764.33,537.833 1763.33,538.833 1762,539.5C 1761.67,543.5 1761.33,547.5 1761,551.5C 1759.67,552.167 1758.67,553.167 1758,554.5C 1755.59,560.555 1753.93,566.889 1753,573.5C 1752.33,574.167 1751.67,574.833 1751,575.5C 1751.27,580.116 1749.94,584.116 1747,587.5C 1746.67,591.167 1746.33,594.833 1746,598.5C 1745.31,599.357 1744.48,600.023 1743.5,600.5C 1742.67,604.122 1742.17,607.789 1742,611.5C 1739.23,614.903 1737.9,618.903 1738,623.5C 1737,624.5 1736,625.5 1735,626.5C 1734.67,629.5 1734.33,632.5 1734,635.5C 1731.31,638.567 1729.97,642.234 1730,646.5C 1728.99,647.337 1727.82,647.67 1726.5,647.5C 1726.66,650.518 1726.5,653.518 1726,656.5C 1720.31,663.645 1716.48,671.812 1714.5,681C 1712.03,683.194 1710.86,686.027 1711,689.5C 1708.66,693.464 1706.49,697.464 1704.5,701.5C 1703.67,705.796 1703.17,710.129 1703,714.5C 1702.38,716.116 1701.38,717.449 1700,718.5C 1699.67,720.5 1699.33,722.5 1699,724.5C 1696.24,726.766 1694.91,729.766 1695,733.5C 1693.99,734.337 1692.82,734.67 1691.5,734.5C 1691.66,736.857 1691.5,739.19 1691,741.5C 1689.99,742.337 1688.82,742.67 1687.5,742.5C 1687.69,746.915 1687.19,751.249 1686,755.5C 1683.91,758.044 1682.91,761.044 1683,764.5C 1680.09,765.45 1678.92,767.45 1679.5,770.5C 1678.5,770.5 1677.5,770.5 1676.5,770.5C 1675.53,776.777 1673.69,782.777 1671,788.5C 1669.08,790.726 1667.25,793.059 1665.5,795.5C 1664.73,798.51 1663.9,801.51 1663,804.5C 1661.23,807.535 1659.39,810.535 1657.5,813.5C 1656.34,818.467 1656.17,823.467 1657,828.5C 1658.38,829.551 1659.38,830.884 1660,832.5C 1660.19,838.416 1660.69,844.249 1661.5,850C 1660.14,852.575 1660.8,854.575 1663.5,856C 1663.98,866.716 1666.81,876.55 1672,885.5C 1672.33,889.167 1672.67,892.833 1673,896.5C 1673.67,897.167 1674.33,897.833 1675,898.5C 1676.03,902.773 1676.7,907.106 1677,911.5C 1679.17,912.509 1680.34,914.176 1680.5,916.5C 1684.75,916.822 1688.75,915.989 1692.5,914C 1704.83,913.333 1717.17,913.333 1729.5,914C 1730.17,914.667 1730.83,915.333 1731.5,916C 1741.5,916.333 1751.5,916.667 1761.5,917C 1763.33,917.748 1765,918.748 1766.5,920C 1771.5,920.333 1776.5,920.667 1781.5,921C 1783.77,923.755 1786.77,925.088 1790.5,925C 1791.34,926.011 1791.67,927.178 1791.5,928.5C 1794.6,928.092 1796.93,929.259 1798.5,932C 1800.83,932.333 1803.17,932.667 1805.5,933C 1807.2,935.982 1809.86,937.316 1813.5,937C 1814.34,938.011 1814.67,939.178 1814.5,940.5C 1817.95,939.756 1819.62,941.09 1819.5,944.5C 1820.68,944.281 1821.68,944.614 1822.5,945.5C 1822.94,949.93 1825.27,952.43 1829.5,953C 1830.19,954.067 1830.69,955.234 1831,956.5C 1832,967.607 1831.33,978.607 1829,989.5C 1828.2,992.681 1826.53,995.347 1824,997.5C 1823.5,1000.48 1823.34,1003.48 1823.5,1006.5C 1822.18,1006.33 1821.01,1006.66 1820,1007.5C 1819.67,1011.17 1819.33,1014.83 1819,1018.5C 1815.99,1021.45 1814.65,1025.11 1815,1029.5C 1813.99,1030.34 1812.82,1030.67 1811.5,1030.5C 1812.2,1034.82 1811.03,1038.49 1808,1041.5C 1807.51,1043.13 1807.34,1044.8 1807.5,1046.5C 1806.5,1046.5 1805.5,1046.5 1804.5,1046.5C 1804.42,1049.21 1804.09,1051.87 1803.5,1054.5C 1802.5,1054.5 1801.5,1054.5 1800.5,1054.5C 1800.66,1057.52 1800.5,1060.52 1800,1063.5C 1795.02,1070.26 1791.02,1077.59 1788,1085.5C 1786.99,1086.34 1785.82,1086.67 1784.5,1086.5C 1784.83,1089.5 1783.5,1090.83 1780.5,1090.5C 1780.66,1092.86 1780.5,1095.19 1780,1097.5C 1777.21,1098.92 1775.71,1101.25 1775.5,1104.5C 1774.68,1105.39 1773.68,1105.72 1772.5,1105.5C 1773.24,1108.95 1771.91,1110.62 1768.5,1110.5C 1767.54,1114.79 1764.87,1117.46 1760.5,1118.5C 1760.5,1120.83 1760.5,1123.17 1760.5,1125.5C 1759.18,1125.33 1758.01,1125.66 1757,1126.5C 1755.05,1129.46 1752.71,1132.12 1750,1134.5C 1748.95,1139.72 1746.12,1143.38 1741.5,1145.5C 1741.83,1148.5 1740.5,1149.83 1737.5,1149.5C 1737.83,1152.5 1736.5,1153.83 1733.5,1153.5C 1733.17,1158.5 1730.5,1161.17 1725.5,1161.5C 1725.5,1162.83 1725.5,1164.17 1725.5,1165.5C 1724.17,1165.5 1722.83,1165.5 1721.5,1165.5C 1721.5,1166.83 1721.5,1168.17 1721.5,1169.5C 1720.17,1169.5 1718.83,1169.5 1717.5,1169.5C 1717.5,1170.83 1717.5,1172.17 1717.5,1173.5C 1716.17,1173.5 1714.83,1173.5 1713.5,1173.5C 1713.83,1179.17 1711.17,1181.83 1705.5,1181.5C 1705.5,1182.83 1705.5,1184.17 1705.5,1185.5C 1704.17,1185.5 1702.83,1185.5 1701.5,1185.5C 1701.5,1186.83 1701.5,1188.17 1701.5,1189.5C 1700.17,1189.5 1698.83,1189.5 1697.5,1189.5C 1697.67,1190.82 1697.34,1191.99 1696.5,1193C 1693.95,1193.55 1691.95,1194.89 1690.5,1197C 1689.21,1197.49 1687.87,1197.66 1686.5,1197.5C 1686.72,1200.11 1685.56,1201.78 1683,1202.5C 1682.48,1205.25 1681.32,1207.58 1679.5,1209.5C 1678.67,1220.82 1678.17,1232.15 1678,1243.5C 1677.38,1245.12 1676.38,1246.45 1675,1247.5C 1674.67,1254.17 1674.33,1260.83 1674,1267.5C 1672.99,1268.34 1671.82,1268.67 1670.5,1268.5C 1670.67,1272.18 1670.5,1275.85 1670,1279.5C 1669.38,1281.12 1668.38,1282.45 1667,1283.5C 1666.67,1288.83 1666.33,1294.17 1666,1299.5C 1664.99,1300.34 1663.82,1300.67 1662.5,1300.5C 1657.29,1352.32 1643.79,1401.98 1622,1449.5C 1610.8,1478.57 1596.47,1505.9 1579,1531.5C 1549.36,1566.47 1522.02,1603.14 1497,1641.5C 1483.25,1659.92 1466.92,1675.58 1448,1688.5C 1447.81,1690.06 1448.65,1690.73 1450.5,1690.5C 1450.17,1693.5 1451.5,1694.83 1454.5,1694.5C 1454.5,1695.5 1454.5,1696.5 1454.5,1697.5C 1457.95,1696.76 1459.62,1698.09 1459.5,1701.5C 1462.91,1700.83 1465.57,1701.83 1467.5,1704.5C 1469.42,1705.31 1471.42,1705.81 1473.5,1706C 1474.34,1707.01 1474.67,1708.18 1474.5,1709.5C 1476.53,1709.34 1478.53,1709.5 1480.5,1710C 1481.97,1710.71 1482.64,1711.88 1482.5,1713.5C 1483.83,1713.5 1485.17,1713.5 1486.5,1713.5C 1486.5,1714.83 1486.5,1716.17 1486.5,1717.5C 1489.17,1717.5 1491.83,1717.5 1494.5,1717.5C 1494.5,1718.83 1494.5,1720.17 1494.5,1721.5C 1497.6,1721.09 1499.93,1722.26 1501.5,1725C 1503.13,1725.49 1504.8,1725.66 1506.5,1725.5C 1506.5,1726.83 1506.5,1728.17 1506.5,1729.5C 1508.86,1729.34 1511.19,1729.5 1513.5,1730C 1514.22,1732.56 1515.89,1733.72 1518.5,1733.5C 1518.5,1734.83 1518.5,1736.17 1518.5,1737.5C 1519.55,1737.35 1520.55,1737.52 1521.5,1738C 1522.36,1739.7 1523.7,1740.86 1525.5,1741.5C 1526.39,1742.32 1526.72,1743.32 1526.5,1744.5C 1527.87,1744.34 1529.21,1744.51 1530.5,1745C 1534.02,1747.74 1537.02,1750.91 1539.5,1754.5C 1540.91,1755.81 1542.58,1756.64 1544.5,1757C 1547.38,1760.21 1550.54,1763.04 1554,1765.5C 1554.48,1766.45 1554.65,1767.45 1554.5,1768.5C 1557.5,1768.17 1558.83,1769.5 1558.5,1772.5C 1559.83,1772.5 1561.17,1772.5 1562.5,1772.5C 1562.5,1773.83 1562.5,1775.17 1562.5,1776.5C 1563.83,1776.5 1565.17,1776.5 1566.5,1776.5C 1566.5,1777.83 1566.5,1779.17 1566.5,1780.5C 1567.83,1780.5 1569.17,1780.5 1570.5,1780.5C 1570.35,1781.55 1570.52,1782.55 1571,1783.5C 1600.48,1804.76 1609.98,1832.76 1599.5,1867.5C 1594.31,1881.53 1584.98,1892.03 1571.5,1899C 1563.19,1902.16 1555.19,1905.82 1547.5,1910C 1543.44,1909.83 1540.11,1911.17 1537.5,1914C 1535.42,1914.19 1533.42,1914.69 1531.5,1915.5C 1530.91,1916.8 1529.91,1917.63 1528.5,1918C 1520.5,1918.33 1512.5,1918.67 1504.5,1919C 1461.81,1927.9 1420.14,1924.57 1379.5,1909C 1333.99,1891.58 1289.99,1870.91 1247.5,1847C 1229.16,1836.92 1212.33,1824.75 1197,1810.5C 1195.25,1807.75 1194.25,1804.75 1194,1801.5C 1193.28,1800.94 1192.44,1800.61 1191.5,1800.5C 1179.96,1803.31 1168.29,1805.48 1156.5,1807C 1135.52,1809.17 1114.52,1811.17 1093.5,1813C 1072.62,1815.9 1051.78,1819.06 1031,1822.5C 1017.27,1819.74 1003.44,1817.57 989.5,1816C 971.819,1815.17 954.152,1814.17 936.5,1813C 927.177,1809.01 917.843,1805.01 908.5,1801C 870.644,1790.24 832.811,1779.41 795,1768.5C 792.161,1770.01 789.995,1772.17 788.5,1775C 740.735,1810.93 688.068,1839.93 630.5,1862C 568.153,1886 503.82,1894.33 437.5,1887C 415.608,1884.21 395.941,1876.21 378.5,1863C 362.723,1847.75 356.89,1829.25 361,1807.5C 364.912,1791.34 372.245,1777.01 383,1764.5C 392.296,1753.06 401.963,1742.06 412,1731.5C 413.011,1730.66 414.178,1730.33 415.5,1730.5C 416.751,1728.09 418.251,1725.75 420,1723.5C 421.011,1722.66 422.178,1722.33 423.5,1722.5C 423.167,1719.5 424.5,1718.17 427.5,1718.5C 427.281,1717.32 427.614,1716.32 428.5,1715.5C 432.606,1713.13 436.272,1710.29 439.5,1707C 446.118,1702.01 452.785,1697.01 459.5,1692C 461.788,1691.18 464.122,1690.51 466.5,1690C 469.784,1688 473.117,1686 476.5,1684C 481.025,1683.44 485.025,1681.77 488.5,1679C 490.473,1678.5 492.473,1678.34 494.5,1678.5C 494.5,1677.5 494.5,1676.5 494.5,1675.5C 497.167,1675.17 499.833,1674.83 502.5,1674.5C 502.5,1673.5 502.5,1672.5 502.5,1671.5C 505.167,1671.17 507.833,1670.83 510.5,1670.5C 510.5,1669.5 510.5,1668.5 510.5,1667.5C 514.319,1667.55 517.653,1666.38 520.5,1664C 525.128,1663.4 529.461,1662.07 533.5,1660C 538.123,1659.04 542.79,1658.38 547.5,1658C 551.323,1655.3 555.656,1653.96 560.5,1654C 538.5,1636 516.5,1618 494.5,1600C 461.236,1568.66 434.236,1533.16 413.5,1493.5C 412.675,1492.61 411.675,1492.28 410.5,1492.5C 410.987,1488.79 409.821,1485.79 407,1483.5C 406.667,1481.83 406.333,1480.17 406,1478.5C 403.752,1476.59 401.585,1474.59 399.5,1472.5C 398.692,1470.58 398.192,1468.58 398,1466.5C 395.093,1464.27 393.926,1461.27 394.5,1457.5C 393.448,1457.65 392.448,1457.48 391.5,1457C 390.971,1454.57 389.637,1452.74 387.5,1451.5C 387.347,1447.5 385.847,1444.16 383,1441.5C 383.004,1437.82 381.671,1434.82 379,1432.5C 378.667,1429.17 378.333,1425.83 378,1422.5C 376.667,1421.83 375.667,1420.83 375,1419.5C 374.667,1416.83 374.333,1414.17 374,1411.5C 373.29,1410.03 372.124,1409.36 370.5,1409.5C 371.172,1406.09 370.172,1403.43 367.5,1401.5C 367.139,1397.61 365.639,1394.28 363,1391.5C 360.962,1385.06 359.128,1378.56 357.5,1372C 356.465,1370.73 355.298,1369.56 354,1368.5C 352.667,1363.83 351.333,1359.17 350,1354.5C 348.615,1353.45 347.615,1352.12 347,1350.5C 346.333,1345.17 345.667,1339.83 345,1334.5C 344.333,1333.83 343.667,1333.17 343,1332.5C 342.667,1327.83 342.333,1323.17 342,1318.5C 341.887,1316.03 340.887,1314.03 339,1312.5C 338.04,1306.86 337.207,1301.19 336.5,1295.5C 334.869,1293.94 334.036,1291.94 334,1289.5C 333.502,1286.18 333.335,1282.85 333.5,1279.5C 332.5,1279.5 331.5,1279.5 330.5,1279.5C 329.994,1255.5 329.328,1231.5 328.5,1207.5C 326.651,1205.81 325.651,1203.64 325.5,1201C 325.5,1191.57 325.667,1182.07 326,1172.5C 327.341,1170.76 328.508,1168.92 329.5,1167C 327.969,1130.9 330.135,1095.07 336,1059.5C 337.46,1050.16 339.627,1040.99 342.5,1032C 338.68,1027.51 334.847,1023.01 331,1018.5C 324.915,1008.66 318.582,998.996 312,989.5C 310.031,985.768 309.031,981.768 309,977.5C 300.272,962.995 293.272,947.661 288,931.5C 282.758,909.57 277.424,887.903 272,866.5C 269.063,863.116 267.729,859.116 268,854.5C 267,853.5 266,852.5 265,851.5C 264.241,845.062 262.907,838.729 261,832.5C 260.667,828.167 260.333,823.833 260,819.5C 259,818.5 258,817.5 257,816.5C 256.831,809.809 256.331,803.142 255.5,796.5C 254.201,795.91 253.368,794.91 253,793.5C 252.667,787.5 252.333,781.5 252,775.5C 249.125,772.458 247.792,768.791 248,764.5C 247,762.833 246,761.167 245,759.5C 244.529,742.999 244.029,726.499 243.5,710C 243.282,700.402 244.116,690.902 246,681.5C 246.778,678.816 248.111,676.483 250,674.5C 252.232,663.012 257.065,652.845 264.5,644C 270.063,639.73 275.73,635.73 281.5,632C 292.182,631.168 302.849,631.334 313.5,632.5C 313.833,633.167 314.167,633.833 314.5,634.5C 319.132,635.328 323.798,635.828 328.5,636C 329.337,637.011 329.67,638.178 329.5,639.5C 335.311,638.774 340.645,639.941 345.5,643C 348.167,643.333 350.833,643.667 353.5,644C 356.611,646.695 360.277,648.028 364.5,648C 368.483,650.333 372.483,652.667 376.5,655C 377.337,656.011 377.67,657.178 377.5,658.5C 383.443,658.517 387.443,661.184 389.5,666.5C 391.527,666.338 393.527,666.505 395.5,667C 396.973,667.71 397.64,668.876 397.5,670.5C 400.5,670.167 401.833,671.5 401.5,674.5C 403.591,674.318 405.591,674.652 407.5,675.5C 408.738,677.637 410.571,678.971 413,679.5C 413.483,680.448 413.649,681.448 413.5,682.5C 414.873,682.343 416.207,682.51 417.5,683C 421.649,685.482 425.482,688.316 429,691.5C 429.483,692.448 429.649,693.448 429.5,694.5C 432.5,694.167 433.833,695.5 433.5,698.5C 434.552,698.351 435.552,698.517 436.5,699C 437.924,701.218 439.924,702.718 442.5,703.5C 444.757,707.058 447.09,710.391 449.5,713.5C 453.833,714.5 456.5,717.167 457.5,721.5C 458.552,721.351 459.552,721.517 460.5,722C 461.333,724.167 462.833,725.667 465,726.5C 465.483,727.448 465.649,728.448 465.5,729.5C 469.555,729.824 473.555,729.491 477.5,728.5C 500.414,701.759 522.747,674.592 544.5,647C 543.465,645.726 542.298,644.56 541,643.5C 540.755,636.604 540.588,629.77 540.5,623C 540.919,620.914 542.086,619.414 544,618.5C 544.734,608.15 544.567,597.817 543.5,587.5C 543.451,583.67 544.618,580.337 547,577.5C 549.663,550.604 551.997,523.604 554,496.5C 560.506,434.736 576.34,376.402 601.5,321.5C 600.993,315.687 602.66,310.687 606.5,306.5C 607.325,305.614 608.325,305.281 609.5,305.5C 610.012,300.644 612.679,297.81 617.5,297C 618.167,296 618.833,295 619.5,294C 622.663,292.506 625.83,291.006 629,289.5C 632.427,289.986 635.594,291.153 638.5,293C 644.167,293.333 649.833,293.667 655.5,294C 656.5,295 657.5,296 658.5,297C 663.833,297.333 669.167,297.667 674.5,298C 675.833,298.667 676.833,299.667 677.5,301C 682.167,301.333 686.833,301.667 691.5,302C 692.167,302.667 692.833,303.333 693.5,304C 702.169,304.945 710.502,306.611 718.5,309C 719.833,309.667 720.833,310.667 721.5,312C 724.5,312.333 727.5,312.667 730.5,313C 731.357,313.689 732.023,314.522 732.5,315.5C 736.122,316.325 739.789,316.825 743.5,317C 744.5,317.833 745.5,318.667 746.5,319.5C 750.05,320.016 753.383,321.016 756.5,322.5C 756.833,322.167 757.167,321.833 757.5,321.5C 741.498,289.986 737.331,256.986 745,222.5C 747.497,220.522 750.331,220.022 753.5,221C 771.808,233.63 788.641,248.13 804,264.5C 807.726,269.228 811.059,274.228 814,279.5C 819.391,248.326 829.391,218.659 844,190.5C 846.248,187.672 848.248,184.672 850,181.5C 851.409,180.219 852.909,179.219 854.5,178.5 Z"/></g>
<g><path style="opacity:1" fill="#88be97" d="M 853.5,188.5 C 879.553,231.822 895.386,278.822 901,329.5C 902.456,346.143 902.789,362.81 902,379.5C 888.41,371.287 874.577,363.454 860.5,356C 846.395,350.299 832.229,344.799 818,339.5C 815.847,285.785 827.68,235.452 853.5,188.5 Z"/></g>
<g><path style="opacity:1" fill="#88be98" d="M 993.5,194.5 C 994.822,194.33 995.989,194.663 997,195.5C 1005.24,212.223 1010.24,229.889 1012,248.5C 1014.4,276.589 1012.07,304.256 1005,331.5C 981.103,352.725 957.77,374.725 935,397.5C 926.19,393.095 917.523,388.428 909,383.5C 908.69,363.458 908.024,343.458 907,323.5C 925.884,273.703 954.717,230.703 993.5,194.5 Z"/></g>
<g><path style="opacity:1" fill="#88bf98" d="M 1589.5,210.5 C 1593.5,210.5 1597.5,210.5 1601.5,210.5C 1600.81,221.069 1597.98,231.069 1593,240.5C 1571.5,288.507 1547.17,334.84 1520,379.5C 1506.61,398.727 1491.45,416.56 1474.5,433C 1470,436.755 1465,439.755 1459.5,442C 1429.7,446.893 1400.2,453.059 1371,460.5C 1370.52,458.087 1370.85,455.754 1372,453.5C 1382.39,431.058 1391.39,408.058 1399,384.5C 1403.94,373.616 1408.61,362.616 1413,351.5C 1421.48,337.349 1431.14,324.015 1442,311.5C 1473.59,277.221 1509.75,249.054 1550.5,227C 1563.16,220.4 1576.16,214.9 1589.5,210.5 Z"/></g>
<g><path style="opacity:1" fill="#38834d" d="M 1219.5,216.5 C 1227.74,215.387 1235.41,216.887 1242.5,221C 1260.02,236.54 1272.85,255.373 1281,277.5C 1288.67,301.833 1296.33,326.167 1304,350.5C 1315.11,376.057 1325.11,402.057 1334,428.5C 1337.63,443.529 1341.8,458.362 1346.5,473C 1348.78,473.473 1350.78,474.473 1352.5,476C 1356.8,477.46 1359.8,476.126 1361.5,472C 1365.28,470.053 1369.28,468.72 1373.5,468C 1387.75,465.462 1402.09,463.462 1416.5,462C 1429.92,458.645 1443.25,454.978 1456.5,451C 1488.9,448.103 1521.23,444.103 1553.5,439C 1611.07,433.307 1668.73,431.641 1726.5,434C 1739.02,435.193 1751.35,437.36 1763.5,440.5C 1764.58,444.846 1764.42,449.179 1763,453.5C 1754.74,483.874 1747.74,514.54 1742,545.5C 1737.01,566.13 1731.01,586.463 1724,606.5C 1711.06,637.997 1697.72,669.33 1684,700.5C 1675.92,723.733 1667.26,746.733 1658,769.5C 1650.56,784.886 1642.72,800.053 1634.5,815C 1649.34,836.513 1658.51,860.347 1662,886.5C 1663.59,897.464 1664.76,908.464 1665.5,919.5C 1621.5,927.082 1579.17,940.082 1538.5,958.5C 1535.58,951.328 1532.08,944.328 1528,937.5C 1524.19,932.329 1519.36,930.829 1513.5,933C 1501.29,939.881 1489.63,947.547 1478.5,956C 1464.13,968.709 1449.46,981.043 1434.5,993C 1420.5,1008.33 1405.83,1023 1390.5,1037C 1384.17,1042 1377.83,1047 1371.5,1052C 1368.77,1054.03 1365.77,1055.53 1362.5,1056.5C 1360.37,1055.95 1358.87,1054.61 1358,1052.5C 1344.84,1026.18 1331.18,1000.18 1317,974.5C 1309.07,961.641 1300.4,949.308 1291,937.5C 1290.62,930.205 1286.78,927.705 1279.5,930C 1267.88,933.641 1256.88,938.641 1246.5,945C 1221.33,960.416 1196.33,976.083 1171.5,992C 1157.92,1001.57 1144.92,1011.91 1132.5,1023C 1130.29,1025.35 1127.79,1025.85 1125,1024.5C 1112.53,993.233 1097.2,963.566 1079,935.5C 1072.05,926.21 1064.71,917.21 1057,908.5C 1042.45,894.611 1027.95,880.778 1013.5,867C 993.425,878.043 972.758,888.709 951.5,899C 946.993,901.002 942.326,902.502 937.5,903.5C 935.626,903.61 934.126,902.944 933,901.5C 930.423,892.507 925.923,884.673 919.5,878C 910.13,872.875 900.13,871.208 889.5,873C 875.129,875.641 860.796,878.474 846.5,881.5C 844.701,881.423 843.034,880.923 841.5,880C 834.46,866.753 827.294,853.587 820,840.5C 817.407,836.788 813.907,834.455 809.5,833.5C 805.116,834.526 801.116,836.359 797.5,839C 766.85,864.313 739.683,892.813 716,924.5C 713.7,909.538 711.7,894.538 710,879.5C 705.615,863.061 699.282,847.394 691,832.5C 680.333,813.167 669.667,793.833 659,774.5C 654.136,763.483 645.969,759.65 634.5,763C 617.865,768.482 602.865,776.815 589.5,788C 578.167,798 566.833,808 555.5,818C 552.834,820.335 549.834,822.169 546.5,823.5C 544.191,819.882 543.024,815.882 543,811.5C 542.263,789.427 540.596,767.427 538,745.5C 537.128,736.552 534.461,728.218 530,720.5C 523.097,712.98 514.597,710.147 504.5,712C 522.957,689.208 541.79,666.708 561,644.5C 572.267,632.228 584.434,621.061 597.5,611C 600.4,608.603 602.733,605.77 604.5,602.5C 601.855,597.842 598.521,597.342 594.5,601C 582.367,611.465 570.534,622.298 559,633.5C 556.446,582.342 558.446,531.342 565,480.5C 572.118,426.354 587.451,374.688 611,325.5C 616.71,313.644 626.21,307.644 639.5,307.5C 662.127,310.059 684.46,314.225 706.5,320C 740.609,328.36 774.609,337.027 808.5,346C 832.285,352.596 854.952,361.929 876.5,374C 896.768,386.299 917.435,397.799 938.5,408.5C 975.898,366.288 1018.23,329.455 1065.5,298C 1093.49,278.668 1122.16,260.335 1151.5,243C 1172.89,230.489 1195.55,221.656 1219.5,216.5 Z"/></g>
<g><path style="opacity:1" fill="#88be97" d="M 1395.5,222.5 C 1398.17,223.457 1399.67,225.457 1400,228.5C 1408.28,293.533 1401.28,356.866 1379,418.5C 1373.28,431.004 1367.94,443.67 1363,456.5C 1361.98,459.21 1360.48,461.543 1358.5,463.5C 1354.18,452.73 1349.34,442.064 1344,431.5C 1336.72,410.604 1329.72,389.604 1323,368.5C 1319.61,360.049 1315.94,351.716 1312,343.5C 1311.76,339.152 1312.1,334.819 1313,330.5C 1321.98,311.198 1332.98,293.198 1346,276.5C 1353.67,267.167 1361.33,257.833 1369,248.5C 1377.07,238.934 1385.9,230.267 1395.5,222.5 Z"/></g>
<g><path style="opacity:1" fill="#87be97" d="M 750.5,227.5 C 767.641,239.462 783.475,253.128 798,268.5C 803.391,275.559 808.391,282.893 813,290.5C 811.995,306.127 811.495,321.793 811.5,337.5C 797.365,334.633 783.365,331.133 769.5,327C 749.765,296.429 743.432,263.262 750.5,227.5 Z"/></g>
<g><path style="opacity:1" fill="#85bb95" d="M 1477.5,239.5 C 1478.73,240.152 1479.39,241.319 1479.5,243C 1478.69,249.191 1477.36,255.191 1475.5,261C 1476.07,263.464 1476.9,265.631 1478,267.5C 1449.73,290.432 1425.73,317.098 1406,347.5C 1406.47,336.151 1407.47,324.818 1409,313.5C 1427.48,284.847 1450.32,260.181 1477.5,239.5 Z"/></g>
<g><path style="opacity:1" fill="#87be97" d="M 1634.5,332.5 C 1635.83,332.5 1637.17,332.5 1638.5,332.5C 1638.65,335.607 1638.15,338.607 1637,341.5C 1618.53,382.301 1589.03,412.134 1548.5,431C 1527.45,433.458 1506.45,435.791 1485.5,438C 1487.38,436.457 1488.88,434.624 1490,432.5C 1507.04,416.137 1523.2,399.304 1538.5,382C 1568.71,362.061 1600.71,345.561 1634.5,332.5 Z"/></g>
<g><path style="opacity:0.13" fill="#1a1915" d="M 1735.5,422.5 C 1739.83,422.5 1744.17,422.5 1748.5,422.5C 1748.5,423.833 1748.5,425.167 1748.5,426.5C 1752.51,426.334 1756.51,426.501 1760.5,427C 1761.83,428 1761.83,429 1760.5,430C 1761.83,430.333 1763.17,430.667 1764.5,431C 1750.25,428.904 1735.91,426.904 1721.5,425C 1726.18,424.51 1730.84,423.677 1735.5,422.5 Z"/></g>
<g><path style="opacity:1" fill="#010101" d="M 894.5,529.5 C 908.168,527.407 916.335,533.073 919,546.5C 919.613,564.104 916.613,581.104 910,597.5C 902.256,618.328 891.922,637.661 879,655.5C 872.198,664.48 863.364,670.313 852.5,673C 846.184,674.426 841.017,672.593 837,667.5C 828.237,653.477 826.237,638.477 831,622.5C 838.701,589.918 854.535,562.085 878.5,539C 883.434,535.038 888.767,531.871 894.5,529.5 Z"/></g>
<g><path style="opacity:1" fill="#e2e1e1" d="M 896.5,541.5 C 901.644,540.198 905.144,541.865 907,546.5C 907.868,555.61 907.201,564.61 905,573.5C 903.07,579.125 901.236,584.791 899.5,590.5C 892.391,599.554 883.058,604.054 871.5,604C 862.321,599.815 858.154,592.649 859,582.5C 867.877,565.459 880.377,551.792 896.5,541.5 Z"/></g>
<g><path style="opacity:1" fill="#000100" d="M 1164.5,550.5 C 1177.22,549.11 1185.72,554.444 1190,566.5C 1196.23,584.621 1199.07,603.288 1198.5,622.5C 1199.05,648.417 1195.55,673.75 1188,698.5C 1185.06,706.102 1180.56,712.602 1174.5,718C 1165.43,722.991 1156.76,722.324 1148.5,716C 1143.97,711.801 1139.8,707.301 1136,702.5C 1130.44,692.717 1125.44,682.717 1121,672.5C 1116.85,632.415 1126.19,595.748 1149,562.5C 1153.42,557.391 1158.59,553.391 1164.5,550.5 Z"/></g>
<g><path style="opacity:1" fill="#e2e1e1" d="M 1183.5,587.5 C 1184.46,597.813 1185.13,608.146 1185.5,618.5C 1181.84,619.648 1178.84,621.814 1176.5,625C 1171.9,627.966 1166.9,629.799 1161.5,630.5C 1157.38,630.072 1153.71,628.572 1150.5,626C 1145.98,621.219 1141.98,616.219 1138.5,611C 1142.47,596.23 1148.97,582.73 1158,570.5C 1167.27,558.92 1174.61,559.92 1180,573.5C 1181.8,578.023 1182.96,582.69 1183.5,587.5 Z"/></g>
<g><path style="opacity:1" fill="#000200" d="M 804.5,569.5 C 810.831,568.029 813.998,570.362 814,576.5C 788.457,601.46 776.457,631.793 778,667.5C 784.381,699.367 803.047,709.7 834,698.5C 842.123,701.182 842.623,705.016 835.5,710C 818.099,716.963 801.432,715.63 785.5,706C 772.937,694.702 766.437,680.535 766,663.5C 765.892,626.735 778.725,595.402 804.5,569.5 Z"/></g>
<g><path style="opacity:1" fill="#000200" d="M 1226.5,576.5 C 1232.39,575.343 1237.22,577.01 1241,581.5C 1250.38,600.372 1255.38,620.372 1256,641.5C 1257.6,662.67 1254.26,683.003 1246,702.5C 1234.93,720.774 1220.1,735.107 1201.5,745.5C 1195.54,744.287 1194.04,740.954 1197,735.5C 1203.23,730.301 1209.73,725.468 1216.5,721C 1236.78,702.181 1246.11,678.847 1244.5,651C 1244.81,629.559 1240.65,609.059 1232,589.5C 1229.27,589.155 1226.44,588.989 1223.5,589C 1220.79,587.136 1219.96,584.636 1221,581.5C 1222.73,579.598 1224.56,577.931 1226.5,576.5 Z"/></g>
<g><path style="opacity:1" fill="#a4a3a3" d="M 1183.5,587.5 C 1186.28,597.725 1186.94,608.059 1185.5,618.5C 1185.13,608.146 1184.46,597.813 1183.5,587.5 Z"/></g>
<g><path style="opacity:1" fill="#f9b2cc" d="M 284.5,643.5 C 289.844,643.334 295.177,643.501 300.5,644C 318.071,650.286 335.738,656.286 353.5,662C 377.697,670.006 398.53,683.172 416,701.5C 431.7,717.532 447.033,733.865 462,750.5C 480.238,773.309 489.738,799.309 490.5,828.5C 490.673,850.123 487.173,871.123 480,891.5C 464.125,932.915 444.792,972.581 422,1010.5C 414.693,1022.15 404.693,1030.48 392,1035.5C 370.62,1023.64 352.954,1007.64 339,987.5C 332.667,977.833 326.333,968.167 320,958.5C 297.26,910.279 280.926,859.945 271,807.5C 267,784.829 263,762.163 259,739.5C 255.196,716.686 255.862,694.02 261,671.5C 265.349,659.072 273.182,649.739 284.5,643.5 Z"/></g>
<g><path style="opacity:1" fill="#000000" d="M 1027.5,664.5 C 1034.14,664.476 1036.31,667.476 1034,673.5C 1028.58,677.809 1022.42,680.475 1015.5,681.5C 1011.9,710.35 1007.06,739.017 1001,767.5C 996.244,792.994 986.577,816.328 972,837.5C 966.184,844.817 959.018,850.317 950.5,854C 932.171,857.707 921.337,850.207 918,831.5C 915.03,816.908 914.697,802.241 917,787.5C 921.845,751.432 929.679,716.099 940.5,681.5C 935.182,681.087 930.182,679.587 925.5,677C 921.99,673.952 921.657,670.619 924.5,667C 926.833,666.333 929.167,666.333 931.5,667C 954.972,675.46 978.972,677.46 1003.5,673C 1011.99,671.227 1019.99,668.394 1027.5,664.5 Z"/></g>
<g><path style="opacity:0.137" fill="#161613" d="M 1702.5,681.5 C 1703.8,684.355 1703.8,687.355 1702.5,690.5C 1701.83,690.833 1701.17,691.167 1700.5,691.5C 1699.96,695.32 1698.46,698.654 1696,701.5C 1695.67,705.5 1695.33,709.5 1695,713.5C 1693.64,714.38 1692.14,714.714 1690.5,714.5C 1690.85,717.045 1690.02,719.045 1688,720.5C 1687.33,719.167 1687.33,717.833 1688,716.5C 1692.39,704.565 1697.22,692.899 1702.5,681.5 Z"/></g>
<g><path style="opacity:1" fill="#9d202f" d="M 1469.5,1002.5 C 1469.53,1001.5 1469.03,1000.84 1468,1000.5C 1460.82,997.397 1453.98,997.897 1447.5,1002C 1446.75,1002.67 1446.41,1003.5 1446.5,1004.5C 1440.25,1011.67 1436.08,1020 1434,1029.5C 1432.82,1038.12 1435.32,1045.46 1441.5,1051.5C 1442.82,1053.69 1444.82,1055.19 1447.5,1056C 1451.38,1056.73 1455.21,1056.56 1459,1055.5C 1460.03,1055.84 1460.53,1056.5 1460.5,1057.5C 1455.04,1075.06 1449.87,1092.73 1445,1110.5C 1432.17,1179.34 1457.67,1227.84 1521.5,1256C 1527.01,1257.96 1532.68,1259.13 1538.5,1259.5C 1564.88,1255.43 1590.55,1248.6 1615.5,1239C 1632.54,1231.4 1648.38,1221.9 1663,1210.5C 1663.42,1214.87 1663.09,1219.2 1662,1223.5C 1657.53,1242.05 1653.69,1260.72 1650.5,1279.5C 1649.78,1279.92 1649.28,1280.58 1649,1281.5C 1648.67,1284.5 1648.33,1287.5 1648,1290.5C 1645.81,1285.88 1643.14,1281.54 1640,1277.5C 1638.56,1275.84 1636.72,1275.18 1634.5,1275.5C 1632.85,1275.34 1631.51,1274.67 1630.5,1273.5C 1629.74,1272.73 1628.74,1272.23 1627.5,1272C 1622.5,1271.33 1617.5,1271.33 1612.5,1272C 1608.65,1273.09 1605.32,1274.92 1602.5,1277.5C 1599.26,1280.8 1595.6,1283.63 1591.5,1286C 1587.56,1289.44 1584.23,1293.27 1581.5,1297.5C 1574.02,1306.82 1571.52,1317.49 1574,1329.5C 1574.23,1330.74 1574.73,1331.74 1575.5,1332.5C 1581.34,1346.16 1591.68,1351.99 1606.5,1350C 1612.32,1348.75 1617.66,1346.42 1622.5,1343C 1628.44,1337.57 1633.77,1331.74 1638.5,1325.5C 1639.38,1325.63 1640.04,1325.3 1640.5,1324.5C 1643.51,1316.77 1644.84,1317.44 1644.5,1326.5C 1639.37,1364.38 1628.87,1400.72 1613,1435.5C 1604.39,1455.34 1595.39,1475 1586,1494.5C 1580.58,1503.67 1574.92,1512.67 1569,1521.5C 1553.33,1541.17 1537.67,1560.83 1522,1580.5C 1507.16,1603.67 1491.16,1626 1474,1647.5C 1455.53,1666.71 1435.03,1682.55 1412.5,1695C 1354.45,1726.52 1294.12,1752.86 1231.5,1774C 1212.58,1781.09 1193.24,1786.75 1173.5,1791C 1141.28,1795.64 1108.95,1799.3 1076.5,1802C 1061.8,1804.31 1047.13,1806.81 1032.5,1809.5C 1019.29,1806.58 1005.96,1804.41 992.5,1803C 975.142,1802.27 957.809,1801.27 940.5,1800C 932.58,1795.54 924.246,1791.88 915.5,1789C 881.3,1778.87 846.967,1769.2 812.5,1760C 784.047,1749.77 756.047,1738.44 728.5,1726C 695.819,1715.82 664.152,1703.16 633.5,1688C 625.667,1683.58 618,1678.92 610.5,1674C 616.313,1668.93 622.646,1664.59 629.5,1661C 644.871,1645.95 655.704,1628.12 662,1607.5C 664.894,1588.86 662.56,1570.86 655,1553.5C 639.96,1519.06 620.627,1487.4 597,1458.5C 576.761,1434.35 556.761,1410.02 537,1385.5C 514.633,1354.78 491.3,1324.78 467,1295.5C 458.26,1285.75 448.093,1277.92 436.5,1272C 424.013,1266.88 412.013,1267.88 400.5,1275C 393.333,1280.83 386.833,1287.33 381,1294.5C 374.37,1305.43 368.537,1316.76 363.5,1328.5C 354.884,1289.48 348.884,1250.15 345.5,1210.5C 349.516,1214.51 354.182,1217.51 359.5,1219.5C 359.611,1220.12 359.944,1220.62 360.5,1221C 369.948,1223.26 378.114,1221.09 385,1214.5C 385.791,1213.26 386.291,1211.92 386.5,1210.5C 386.5,1210.17 386.5,1209.83 386.5,1209.5C 387.966,1208.65 388.8,1207.32 389,1205.5C 389.449,1199.33 389.949,1193.16 390.5,1187C 390.7,1184.13 390.033,1181.63 388.5,1179.5C 387.18,1177.54 385.846,1175.54 384.5,1173.5C 382.434,1169.89 379.767,1166.73 376.5,1164C 371.992,1163.16 367.492,1162.33 363,1161.5C 360.456,1161.34 358.29,1162 356.5,1163.5C 351.382,1165.43 346.882,1168.43 343,1172.5C 340.269,1127.94 343.936,1083.94 354,1040.5C 354.414,1040.04 354.914,1039.71 355.5,1039.5C 381.732,1051.65 404.232,1046.65 423,1024.5C 447.234,987.704 467.567,948.704 484,907.5C 496.242,876.96 501.242,845.293 499,812.5C 495.095,789.365 486.262,768.365 472.5,749.5C 479.652,742.848 486.652,736.015 493.5,729C 500.682,722.607 509.015,720.273 518.5,722C 521.433,724.264 523.6,727.098 525,730.5C 527.689,737.943 529.355,745.609 530,753.5C 531.7,775.832 533.367,798.166 535,820.5C 538.83,833.314 546.33,835.814 557.5,828C 570.796,817.04 583.796,805.706 596.5,794C 608.137,784.346 621.137,777.012 635.5,772C 639.423,771.207 643.256,771.374 647,772.5C 665.48,803.124 682.147,834.791 697,867.5C 699.277,873.332 700.944,879.332 702,885.5C 703.231,900.883 704.897,916.216 707,931.5C 708.236,932.399 709.07,933.566 709.5,935C 707.097,938.824 706.431,942.824 707.5,947C 709.441,947.743 711.274,947.576 713,946.5C 722.339,928.496 734.005,912.163 748,897.5C 765.926,878.57 784.76,860.737 804.5,844C 806.695,842.627 809.029,842.294 811.5,843C 819.222,854.939 826.056,867.439 832,880.5C 835.005,886.42 839.838,889.42 846.5,889.5C 861.163,886.668 875.83,883.834 890.5,881C 898,879.989 905.333,880.655 912.5,883C 914.333,884.833 916.167,886.667 918,888.5C 921.273,894.712 924.273,901.046 927,907.5C 928.214,909.049 929.714,910.215 931.5,911C 939.276,912.188 946.609,910.855 953.5,907C 973.22,896.972 992.886,887.305 1012.5,878C 1044.14,902.958 1069.97,932.791 1090,967.5C 1100.41,986.988 1109.74,1006.99 1118,1027.5C 1122.24,1034.02 1127.74,1035.18 1134.5,1031C 1154.37,1013.79 1175.37,998.126 1197.5,984C 1217.33,972.251 1237,960.251 1256.5,948C 1264.15,943.672 1272.15,940.172 1280.5,937.5C 1297.12,956.698 1311.28,977.698 1323,1000.5C 1332.9,1021.31 1343.57,1041.64 1355,1061.5C 1360.56,1065.5 1366.06,1065.33 1371.5,1061C 1378.01,1056.58 1384.34,1051.91 1390.5,1047C 1407.8,1030.7 1424.8,1014.03 1441.5,997C 1457.5,983.667 1473.5,970.333 1489.5,957C 1498.43,950.282 1507.93,944.449 1518,939.5C 1519.94,940.439 1521.61,941.773 1523,943.5C 1525.27,947.714 1527.27,952.047 1529,956.5C 1529.81,958.902 1529.65,961.235 1528.5,963.5C 1520.05,967.127 1512.55,972.127 1506,978.5C 1501.43,985.744 1496.09,992.41 1490,998.5C 1487.21,1005.3 1483.54,1011.64 1479,1017.5C 1477.82,1011.12 1474.65,1006.12 1469.5,1002.5 Z"/></g>
<g><path style="opacity:1" fill="#e26995" d="M 981.5,786.5 C 982.376,786.369 983.043,786.702 983.5,787.5C 978.325,807.029 968.659,823.862 954.5,838C 949.134,842.688 943.134,844.021 936.5,842C 937.931,841.535 939.097,840.701 940,839.5C 939.656,816.339 949.489,799.173 969.5,788C 972.179,787.566 974.846,787.732 977.5,788.5C 979.355,788.66 980.688,787.993 981.5,786.5 Z"/></g>
<g><path style="opacity:1" fill="#020000" d="M 555.5,883.5 C 553.194,889.005 551.028,894.672 549,900.5C 546.96,902.37 545.127,904.37 543.5,906.5C 538.659,908.152 533.659,908.818 528.5,908.5C 518.957,906.606 511.624,901.606 506.5,893.5C 503.015,883.898 504.015,874.898 509.5,866.5C 517.465,858.349 527.132,855.516 538.5,858C 550.791,862.081 556.457,870.581 555.5,883.5 Z"/></g>
<g><path style="opacity:1" fill="#651015" d="M 509.5,866.5 C 504.015,874.898 503.015,883.898 506.5,893.5C 505.21,892.942 504.377,891.942 504,890.5C 501.715,883.66 502.048,876.993 505,870.5C 505.876,868.365 507.376,867.031 509.5,866.5 Z"/></g>
<g><path style="opacity:1" fill="#7d171f" d="M 555.5,883.5 C 555.03,888.537 554.363,893.537 553.5,898.5C 551.414,900.883 549.414,903.383 547.5,906C 546.207,906.49 544.873,906.657 543.5,906.5C 545.127,904.37 546.96,902.37 549,900.5C 551.028,894.672 553.194,889.005 555.5,883.5 Z"/></g>
<g><path style="opacity:1" fill="#590d11" d="M 543.5,906.5 C 542.653,907.966 541.32,908.8 539.5,909C 535.642,909.81 531.976,909.643 528.5,908.5C 533.659,908.818 538.659,908.152 543.5,906.5 Z"/></g>
<g><path style="opacity:1" fill="#f9b2cc" d="M 1669.5,926.5 C 1706.16,926.128 1742.5,929.294 1778.5,936C 1788.28,939.261 1797.94,942.928 1807.5,947C 1815,951.51 1818.66,958.177 1818.5,967C 1816.4,986.982 1811.23,1006.15 1803,1024.5C 1796.47,1038.34 1789.14,1051.67 1781,1064.5C 1759.54,1095.97 1736.54,1126.3 1712,1155.5C 1685.56,1184.27 1655.39,1208.11 1621.5,1227C 1597.26,1237.08 1572.26,1244.75 1546.5,1250C 1537.87,1251.27 1529.54,1250.27 1521.5,1247C 1464.08,1220 1441.25,1175.16 1453,1112.5C 1459.54,1086.56 1467.87,1061.23 1478,1036.5C 1497.99,995.185 1529.82,967.352 1573.5,953C 1604.93,941.571 1636.93,932.737 1669.5,926.5 Z"/></g>
<g><path style="opacity:1" fill="#000000" d="M 558.5,947.5 C 565.74,946.369 570.906,949.035 574,955.5C 577.339,967.613 578.339,979.947 577,992.5C 574.239,1025.23 568.406,1057.4 559.5,1089C 556.538,1099.9 552.038,1110.07 546,1119.5C 539.109,1127.24 530.442,1130.91 520,1130.5C 497.511,1128.67 476.678,1121.84 457.5,1110C 451.886,1103.52 450.052,1096.02 452,1087.5C 452.743,1084.18 453.91,1081.01 455.5,1078C 453.985,1073.92 454.485,1070.09 457,1066.5C 480.702,1034.44 505.369,1003.11 531,972.5C 538.815,962.511 547.982,954.177 558.5,947.5 Z"/></g>
<g><path style="opacity:1" fill="#010000" d="M 979.5,957.5 C 981.908,961.1 982.908,965.1 982.5,969.5C 982.459,974.277 981.793,978.943 980.5,983.5C 973.924,996.902 963.591,1006.4 949.5,1012C 939.651,1016.73 929.317,1018.73 918.5,1018C 907.306,1013.11 902.806,1004.61 905,992.5C 908.581,985.199 914.248,980.199 922,977.5C 923.392,968.531 927.892,961.698 935.5,957C 943.28,952.439 951.613,949.606 960.5,948.5C 968.303,948.569 974.636,951.569 979.5,957.5 Z"/></g>
<g><path style="opacity:1" fill="#7b161f" d="M 979.5,957.5 C 983.648,960.343 985.648,964.343 985.5,969.5C 985.785,974.985 984.119,979.652 980.5,983.5C 981.793,978.943 982.459,974.277 982.5,969.5C 982.908,965.1 981.908,961.1 979.5,957.5 Z"/></g>
<g><path style="opacity:1" fill="#020000" d="M 679.5,986.5 C 683.829,992.493 686.496,999.16 687.5,1006.5C 687.52,1014.16 684.52,1020.16 678.5,1024.5C 670.128,1027.69 662.128,1027.02 654.5,1022.5C 648.838,1016.67 643.338,1010.67 638,1004.5C 628.179,989.332 631.346,977.832 647.5,970C 654.905,968.702 661.572,970.369 667.5,975C 672.002,978.336 676.002,982.169 679.5,986.5 Z"/></g>
<g><path style="opacity:1" fill="#600e13" d="M 1269.5,972.5 C 1261.06,969.251 1253.06,969.918 1245.5,974.5C 1245.41,973.504 1245.75,972.671 1246.5,972C 1252.83,968.212 1259.5,967.545 1266.5,970C 1267.94,970.377 1268.94,971.21 1269.5,972.5 Z"/></g>
<g><path style="opacity:1" fill="#020000" d="M 1269.5,972.5 C 1279.01,980.534 1281.01,990.2 1275.5,1001.5C 1270.83,1006.83 1265.83,1011.83 1260.5,1016.5C 1250.28,1020.55 1241.28,1018.88 1233.5,1011.5C 1229.19,1002.94 1229.52,994.605 1234.5,986.5C 1237.46,981.874 1241.12,977.874 1245.5,974.5C 1253.06,969.918 1261.06,969.251 1269.5,972.5 Z"/></g>
<g><path style="opacity:1" fill="#76141b" d="M 679.5,986.5 C 680.583,986.539 681.583,986.873 682.5,987.5C 686.36,993.648 688.693,1000.31 689.5,1007.5C 689.355,1015.61 685.688,1021.28 678.5,1024.5C 684.52,1020.16 687.52,1014.16 687.5,1006.5C 686.496,999.16 683.829,992.493 679.5,986.5 Z"/></g>
<g><path style="opacity:1" fill="#620f14" d="M 1469.5,1002.5 C 1461.42,999.3 1453.75,999.967 1446.5,1004.5C 1446.41,1003.5 1446.75,1002.67 1447.5,1002C 1453.98,997.897 1460.82,997.397 1468,1000.5C 1469.03,1000.84 1469.53,1001.5 1469.5,1002.5 Z"/></g>
<g><path style="opacity:1" fill="#5d0d12" d="M 1234.5,986.5 C 1229.52,994.605 1229.19,1002.94 1233.5,1011.5C 1231.39,1010.55 1230.22,1008.88 1230,1006.5C 1229.33,1001.17 1229.33,995.833 1230,990.5C 1230.75,988.249 1232.25,986.916 1234.5,986.5 Z"/></g>
<g><path style="opacity:1" fill="#6a1117" d="M 1275.5,1001.5 C 1275.66,1002.87 1275.49,1004.21 1275,1005.5C 1271.2,1008.3 1267.7,1011.46 1264.5,1015C 1263.26,1015.79 1261.92,1016.29 1260.5,1016.5C 1265.83,1011.83 1270.83,1006.83 1275.5,1001.5 Z"/></g>
<g><path style="opacity:1" fill="#5b0d11" d="M 654.5,1022.5 C 662.128,1027.02 670.128,1027.69 678.5,1024.5C 677.653,1025.97 676.32,1026.8 674.5,1027C 669.833,1027.67 665.167,1027.67 660.5,1027C 657.823,1026.19 655.823,1024.69 654.5,1022.5 Z"/></g>
<g><path style="opacity:1" fill="#000000" d="M 736.5,1052.5 C 753.028,1051.38 768.695,1054.55 783.5,1062C 816.5,1079 849.5,1096 882.5,1113C 916.876,1128.23 950.876,1144.23 984.5,1161C 1002.03,1170.52 1017.86,1182.36 1032,1196.5C 1056.18,1222.79 1058.84,1251.13 1040,1281.5C 1032.06,1293.05 1023.39,1304.05 1014,1314.5C 973.597,1355.92 931.097,1394.75 886.5,1431C 857.959,1449.64 826.626,1459.3 792.5,1460C 785.646,1458.48 780.479,1454.65 777,1448.5C 743.808,1332.52 722.641,1214.35 713.5,1094C 713.259,1083.61 715.425,1073.77 720,1064.5C 724.279,1058.71 729.779,1054.71 736.5,1052.5 Z"/></g>
<g><path style="opacity:1" fill="#6c1117" d="M 1441.5,1051.5 C 1448.15,1055.07 1454.99,1055.4 1462,1052.5C 1462.2,1054.39 1461.7,1056.06 1460.5,1057.5C 1460.53,1056.5 1460.03,1055.84 1459,1055.5C 1455.21,1056.56 1451.38,1056.73 1447.5,1056C 1444.82,1055.19 1442.82,1053.69 1441.5,1051.5 Z"/></g>
<g><path style="opacity:1" fill="#000000" d="M 1300.5,1063.5 C 1323.64,1061.16 1341.14,1069.82 1353,1089.5C 1363.33,1110.81 1370.66,1133.15 1375,1156.5C 1377.98,1170.4 1380.32,1184.4 1382,1198.5C 1383.71,1214.7 1379.04,1228.7 1368,1240.5C 1337.65,1265.61 1304.81,1287.11 1269.5,1305C 1261.86,1308.58 1253.86,1310.25 1245.5,1310C 1235.87,1307.7 1229.37,1301.87 1226,1292.5C 1211.88,1249.13 1197.54,1205.79 1183,1162.5C 1179.27,1151.44 1177.93,1140.1 1179,1128.5C 1181.44,1118.79 1186.94,1111.29 1195.5,1106C 1228.55,1086.8 1263.55,1072.64 1300.5,1063.5 Z"/></g>
<g><path style="opacity:1" fill="#0b0404" d="M 1641.5,1094.5 C 1642.24,1094.37 1642.91,1094.54 1643.5,1095C 1642.53,1096.68 1641.2,1097.34 1639.5,1097C 1640.38,1096.29 1641.05,1095.46 1641.5,1094.5 Z"/></g>
<g><path style="opacity:1" fill="#9b202e" d="M 1293.5,1114.5 C 1297.64,1114.15 1301.64,1114.65 1305.5,1116C 1308.7,1119.91 1310.53,1124.41 1311,1129.5C 1313.21,1153.9 1312.54,1178.23 1309,1202.5C 1307.76,1219.16 1300.26,1231.99 1286.5,1241C 1281.29,1243.77 1275.95,1246.27 1270.5,1248.5C 1266.49,1223.24 1262.99,1197.91 1260,1172.5C 1257.99,1158.21 1259.99,1144.55 1266,1131.5C 1273.21,1122.65 1282.37,1116.98 1293.5,1114.5 Z"/></g>
<g><path style="opacity:1" fill="#020000" d="M 1077.5,1118.5 C 1088.48,1119.31 1098.81,1122.48 1108.5,1128C 1121.41,1139.02 1121.74,1150.36 1109.5,1162C 1105.57,1163.93 1101.41,1164.76 1097,1164.5C 1090.49,1164.08 1083.99,1163.58 1077.5,1163C 1065.22,1158.37 1060.05,1149.54 1062,1136.5C 1064.54,1128.14 1069.7,1122.14 1077.5,1118.5 Z"/></g>
<g><path style="opacity:1" fill="#76141c" d="M 384.5,1173.5 C 376.897,1165.63 367.564,1162.3 356.5,1163.5C 358.29,1162 360.456,1161.34 363,1161.5C 367.492,1162.33 371.992,1163.16 376.5,1164C 379.767,1166.73 382.434,1169.89 384.5,1173.5 Z"/></g>
<g><path style="opacity:1" fill="#9c202f" d="M 805.5,1176.5 C 810.034,1176.27 814.368,1177.1 818.5,1179C 826.828,1183.16 834.828,1187.83 842.5,1193C 870.621,1213.12 899.287,1232.45 928.5,1251C 932.537,1253.76 935.704,1257.26 938,1261.5C 938.701,1264.93 938.368,1268.26 937,1271.5C 933.389,1277.44 929.389,1283.11 925,1288.5C 915.595,1297.45 906.095,1306.28 896.5,1315C 881.378,1328.06 865.712,1340.39 849.5,1352C 847.376,1353.58 845.21,1353.75 843,1352.5C 841.213,1346.64 840.213,1340.64 840,1334.5C 838.728,1331.78 836.561,1330.44 833.5,1330.5C 823.509,1291.05 814.342,1251.38 806,1211.5C 803.771,1200.59 803.105,1189.59 804,1178.5C 804.717,1177.96 805.217,1177.29 805.5,1176.5 Z"/></g>
<g><path style="opacity:1" fill="#640e12" d="M 388.5,1179.5 C 390.033,1181.63 390.7,1184.13 390.5,1187C 389.949,1193.16 389.449,1199.33 389,1205.5C 388.8,1207.32 387.966,1208.65 386.5,1209.5C 388.778,1199.6 389.445,1189.6 388.5,1179.5 Z"/></g>
<g><path style="opacity:1" fill="#6b1015" d="M 386.5,1210.5 C 386.291,1211.92 385.791,1213.26 385,1214.5C 378.114,1221.09 369.948,1223.26 360.5,1221C 359.944,1220.62 359.611,1220.12 359.5,1219.5C 370.574,1222.45 379.574,1219.45 386.5,1210.5 Z"/></g>
<g><path style="opacity:1" fill="#7a161e" d="M 570.5,1229.5 C 560.335,1226.88 550.002,1225.71 539.5,1226C 536.861,1226.65 534.527,1227.82 532.5,1229.5C 532.414,1228.5 532.748,1227.67 533.5,1227C 537.568,1224.22 542.068,1222.72 547,1222.5C 552.595,1223.25 558.095,1224.42 563.5,1226C 566.281,1226.52 568.615,1227.69 570.5,1229.5 Z"/></g>
<g><path style="opacity:1" fill="#010000" d="M 570.5,1229.5 C 575.585,1233.34 578.918,1238.34 580.5,1244.5C 583.784,1274.39 570.451,1291.22 540.5,1295C 528.098,1296.63 520.098,1291.47 516.5,1279.5C 517.427,1269.87 518.26,1260.2 519,1250.5C 520.371,1245.43 522.538,1240.76 525.5,1236.5C 527.5,1233.83 529.833,1231.5 532.5,1229.5C 534.527,1227.82 536.861,1226.65 539.5,1226C 550.002,1225.71 560.335,1226.88 570.5,1229.5 Z"/></g>
<g><path style="opacity:1" fill="#731319" d="M 570.5,1229.5 C 573.278,1229.02 575.278,1230.02 576.5,1232.5C 578.99,1236.14 580.323,1240.14 580.5,1244.5C 578.918,1238.34 575.585,1233.34 570.5,1229.5 Z"/></g>
<g><path style="opacity:1" fill="#701319" d="M 525.5,1236.5 C 522.538,1240.76 520.371,1245.43 519,1250.5C 518.26,1260.2 517.427,1269.87 516.5,1279.5C 515.837,1277.53 515.504,1275.36 515.5,1273C 514.783,1260.43 517.283,1248.6 523,1237.5C 523.671,1236.75 524.504,1236.41 525.5,1236.5 Z"/></g>
<g><path style="opacity:1" fill="#010000" d="M 1630.5,1273.5 C 1631.51,1274.67 1632.85,1275.34 1634.5,1275.5C 1646.51,1285.39 1649.67,1297.72 1644,1312.5C 1642.15,1316.85 1640.32,1321.19 1638.5,1325.5C 1633.77,1331.74 1628.44,1337.57 1622.5,1343C 1617.66,1346.42 1612.32,1348.75 1606.5,1350C 1591.68,1351.99 1581.34,1346.16 1575.5,1332.5C 1574.53,1326.53 1574.36,1320.53 1575,1314.5C 1576.62,1308.6 1578.79,1302.93 1581.5,1297.5C 1584.23,1293.27 1587.56,1289.44 1591.5,1286C 1595.6,1283.63 1599.26,1280.8 1602.5,1277.5C 1611.3,1272.65 1620.63,1271.32 1630.5,1273.5 Z"/></g>
<g><path style="opacity:1" fill="#610e12" d="M 1630.5,1273.5 C 1620.63,1271.32 1611.3,1272.65 1602.5,1277.5C 1605.32,1274.92 1608.65,1273.09 1612.5,1272C 1617.5,1271.33 1622.5,1271.33 1627.5,1272C 1628.74,1272.23 1629.74,1272.73 1630.5,1273.5 Z"/></g>
<g><path style="opacity:1" fill="#020000" d="M 1457.5,1323.5 C 1453.91,1329.94 1451.91,1336.94 1451.5,1344.5C 1450.1,1350.63 1447.6,1356.3 1444,1361.5C 1440.74,1364.95 1436.91,1367.29 1432.5,1368.5C 1417.72,1368.72 1410.05,1361.39 1409.5,1346.5C 1409.53,1341.73 1410.19,1337.06 1411.5,1332.5C 1413.48,1319.04 1418.48,1306.87 1426.5,1296C 1440.44,1286.89 1451.28,1289.72 1459,1304.5C 1459.85,1310.98 1459.35,1317.31 1457.5,1323.5 Z"/></g>
<g><path style="opacity:1" fill="#6b1115" d="M 1581.5,1297.5 C 1578.79,1302.93 1576.62,1308.6 1575,1314.5C 1574.36,1320.53 1574.53,1326.53 1575.5,1332.5C 1574.73,1331.74 1574.23,1330.74 1574,1329.5C 1571.52,1317.49 1574.02,1306.82 1581.5,1297.5 Z"/></g>
<g><path style="opacity:1" fill="#7d161f" d="M 1634.5,1275.5 C 1636.72,1275.18 1638.56,1275.84 1640,1277.5C 1643.14,1281.54 1645.81,1285.88 1648,1290.5C 1648.33,1287.5 1648.67,1284.5 1649,1281.5C 1649.28,1280.58 1649.78,1279.92 1650.5,1279.5C 1648.97,1295.36 1646.97,1311.03 1644.5,1326.5C 1644.84,1317.44 1643.51,1316.77 1640.5,1324.5C 1640.04,1325.3 1639.38,1325.63 1638.5,1325.5C 1640.32,1321.19 1642.15,1316.85 1644,1312.5C 1649.67,1297.72 1646.51,1285.39 1634.5,1275.5 Z"/></g>
<g><path style="opacity:1" fill="#020000" d="M 693.5,1315.5 C 712.308,1315.47 720.808,1324.81 719,1343.5C 715.023,1357.48 706.19,1366.98 692.5,1372C 680.507,1374.42 672.341,1369.92 668,1358.5C 667.333,1354.5 667.333,1350.5 668,1346.5C 673.57,1338.37 678.904,1330.04 684,1321.5C 687.147,1319.35 690.313,1317.35 693.5,1315.5 Z"/></g>
<g><path style="opacity:1" fill="#651014" d="M 1457.5,1323.5 C 1455.46,1330.61 1453.46,1337.61 1451.5,1344.5C 1451.91,1336.94 1453.91,1329.94 1457.5,1323.5 Z"/></g>
<g><path style="opacity:1" fill="#79151d" d="M 1411.5,1332.5 C 1410.19,1337.06 1409.53,1341.73 1409.5,1346.5C 1410.05,1361.39 1417.72,1368.72 1432.5,1368.5C 1431.31,1369.78 1429.64,1370.44 1427.5,1370.5C 1422.59,1369.55 1417.92,1367.72 1413.5,1365C 1412.43,1362.34 1410.76,1360.18 1408.5,1358.5C 1407.38,1353.22 1407.22,1347.89 1408,1342.5C 1408.57,1338.84 1409.74,1335.5 1411.5,1332.5 Z"/></g>
<g><path style="opacity:1" fill="#010000" d="M 1123.5,1450.5 C 1113.59,1452.77 1104.26,1451.43 1095.5,1446.5C 1088.82,1441.48 1083.82,1435.14 1080.5,1427.5C 1078.13,1420.04 1077.13,1412.37 1077.5,1404.5C 1079.8,1394.12 1083.97,1384.45 1090,1375.5C 1104.29,1361.27 1119.79,1359.77 1136.5,1371C 1147.54,1382.65 1151.71,1396.49 1149,1412.5C 1147.17,1429.88 1138.67,1442.54 1123.5,1450.5 Z"/></g>
<g><path style="opacity:1" fill="#9c202f" d="M 429.5,1388.5 C 431.199,1388.34 432.866,1388.51 434.5,1389C 445.333,1395.83 454.167,1404.67 461,1415.5C 477.246,1438.33 493.246,1461.33 509,1484.5C 525.415,1513 542.081,1541.33 559,1569.5C 564.834,1579.68 563.334,1588.51 554.5,1596C 547.989,1600.18 542.489,1605.35 538,1611.5C 537.51,1612.79 537.343,1614.13 537.5,1615.5C 492.705,1584.87 457.538,1545.53 432,1497.5C 425.423,1477.76 416.923,1458.93 406.5,1441C 411.376,1428.01 415.876,1414.85 420,1401.5C 422.223,1396.35 425.389,1392.02 429.5,1388.5 Z"/></g>
<g><path style="opacity:1" fill="#000000" d="M 1326.5,1397.5 C 1350.2,1395.27 1365.36,1405.6 1372,1428.5C 1373.85,1435.06 1375.18,1441.73 1376,1448.5C 1377.64,1477.16 1375.3,1505.49 1369,1533.5C 1359.27,1579.03 1344.93,1623.03 1326,1665.5C 1319.13,1682.44 1308.96,1696.94 1295.5,1709C 1285.17,1715.67 1273.84,1719.33 1261.5,1720C 1214.4,1721.7 1168.4,1715.36 1123.5,1701C 1111.86,1697.94 1102.36,1691.78 1095,1682.5C 1093.41,1678.97 1092.24,1675.3 1091.5,1671.5C 1090.19,1670.69 1089.02,1669.69 1088,1668.5C 1086.92,1659.8 1088.26,1651.47 1092,1643.5C 1113.08,1596.98 1140.41,1554.65 1174,1516.5C 1209.43,1475.92 1249.59,1441.09 1294.5,1412C 1304.64,1405.76 1315.31,1400.92 1326.5,1397.5 Z"/></g>
<g><path style="opacity:1" fill="#711319" d="M 1077.5,1404.5 C 1077.13,1412.37 1078.13,1420.04 1080.5,1427.5C 1078.17,1425.46 1077,1422.79 1077,1419.5C 1076.18,1414.32 1076.35,1409.32 1077.5,1404.5 Z"/></g>
<g><path style="opacity:1" fill="#600e12" d="M 1095.5,1446.5 C 1104.26,1451.43 1113.59,1452.77 1123.5,1450.5C 1114.36,1453.56 1105.36,1452.89 1096.5,1448.5C 1095.7,1448.04 1095.37,1447.38 1095.5,1446.5 Z"/></g>
<g><path style="opacity:1" fill="#010000" d="M 1535.5,1487.5 C 1535.63,1493.2 1535.29,1498.87 1534.5,1504.5C 1530.19,1510.44 1526.36,1516.77 1523,1523.5C 1514.49,1532.53 1504.99,1533.69 1494.5,1527C 1478.94,1511.99 1472.77,1493.82 1476,1472.5C 1485.09,1453.39 1499.25,1448.56 1518.5,1458C 1528.42,1465.34 1534.09,1475.17 1535.5,1487.5 Z"/></g>
<g><path style="opacity:1" fill="#020000" d="M 926.5,1471.5 C 941.64,1471.16 955.474,1475.16 968,1483.5C 973.212,1491.4 974.879,1500.07 973,1509.5C 967.297,1520.77 958.13,1525.27 945.5,1523C 939.105,1521.2 932.772,1519.2 926.5,1517C 913.144,1511.64 907.31,1501.81 909,1487.5C 912.289,1479.29 918.122,1473.96 926.5,1471.5 Z"/></g>
<g><path style="opacity:1" fill="#4f0b0f" d="M 1535.5,1487.5 C 1536.16,1489.64 1536.5,1491.97 1536.5,1494.5C 1536.69,1498.14 1536.02,1501.47 1534.5,1504.5C 1535.29,1498.87 1535.63,1493.2 1535.5,1487.5 Z"/></g>
<g><path style="opacity:1" fill="#9c202f" d="M 1293.5,1508.5 C 1294.5,1508.41 1295.33,1508.75 1296,1509.5C 1299.65,1545.95 1295.65,1581.62 1284,1616.5C 1280.56,1626.72 1275.56,1636.06 1269,1644.5C 1260.68,1653.5 1250.35,1657.83 1238,1657.5C 1221.15,1656.99 1205.32,1652.82 1190.5,1645C 1188.56,1643.28 1187.56,1641.11 1187.5,1638.5C 1188.44,1633.18 1190.27,1628.18 1193,1623.5C 1203.61,1607.23 1214.61,1591.23 1226,1575.5C 1240.76,1557.41 1256.26,1539.91 1272.5,1523C 1278.87,1517.16 1285.87,1512.32 1293.5,1508.5 Z"/></g>
<g><path style="opacity:1" fill="#020000" d="M 739.5,1604.5 C 741.806,1606.14 743.806,1608.14 745.5,1610.5C 746.594,1612.36 747.427,1614.36 748,1616.5C 748.499,1624.51 748.333,1632.51 747.5,1640.5C 747.5,1641.17 747.5,1641.83 747.5,1642.5C 745.763,1653.04 743.929,1663.71 742,1674.5C 741.111,1677.68 739.945,1680.68 738.5,1683.5C 725.508,1695.29 714.175,1693.96 704.5,1679.5C 702.887,1674.99 702.221,1670.33 702.5,1665.5C 704.565,1650.87 706.399,1636.21 708,1621.5C 709.228,1616.04 711.728,1611.37 715.5,1607.5C 722.803,1602 730.803,1601 739.5,1604.5 Z"/></g>
<g><path style="opacity:1" fill="#671015" d="M 739.5,1604.5 C 730.803,1601 722.803,1602 715.5,1607.5C 716.767,1603.74 719.434,1601.58 723.5,1601C 726.5,1600.33 729.5,1600.33 732.5,1601C 735.445,1601.14 737.779,1602.31 739.5,1604.5 Z"/></g>
<g><path style="opacity:1" fill="#711218" d="M 1436.5,1625.5 C 1428.99,1622.38 1421.32,1621.88 1413.5,1624C 1411.8,1625.18 1410.14,1626.34 1408.5,1627.5C 1409.59,1624.27 1411.93,1622.43 1415.5,1622C 1421.83,1621.33 1428.17,1621.33 1434.5,1622C 1435.31,1623.11 1435.97,1624.28 1436.5,1625.5 Z"/></g>
<g><path style="opacity:1" fill="#020000" d="M 1436.5,1625.5 C 1438.17,1627.83 1440.17,1629.83 1442.5,1631.5C 1446.41,1639.77 1446.41,1648.11 1442.5,1656.5C 1429.78,1670.12 1417.28,1669.79 1405,1655.5C 1399.32,1645.1 1400.48,1635.77 1408.5,1627.5C 1410.14,1626.34 1411.8,1625.18 1413.5,1624C 1421.32,1621.88 1428.99,1622.38 1436.5,1625.5 Z"/></g>
<g><path style="opacity:1" fill="#651016" d="M 745.5,1610.5 C 747.411,1610.57 748.578,1611.57 749,1613.5C 750.873,1622.73 750.373,1631.73 747.5,1640.5C 748.333,1632.51 748.499,1624.51 748,1616.5C 747.427,1614.36 746.594,1612.36 745.5,1610.5 Z"/></g>
<g><path style="opacity:1" fill="#010000" d="M 884.5,1714.5 C 874.848,1718.54 864.848,1719.54 854.5,1717.5C 839.198,1711.03 830.532,1699.53 828.5,1683C 829.902,1676.22 831.068,1669.39 832,1662.5C 837.506,1647.99 848.006,1642.16 863.5,1645C 892.068,1654.98 902.568,1674.48 895,1703.5C 891.97,1707.69 888.47,1711.36 884.5,1714.5 Z"/></g>
<g><path style="opacity:1" fill="#5a0d11" d="M 1442.5,1631.5 C 1444.34,1632.12 1445.5,1633.46 1446,1635.5C 1446.67,1640.5 1446.67,1645.5 1446,1650.5C 1445.65,1653.15 1444.48,1655.15 1442.5,1656.5C 1446.41,1648.11 1446.41,1639.77 1442.5,1631.5 Z"/></g>
<g><path style="opacity:1" fill="#f9b2cb" d="M 568.5,1658.5 C 592.944,1678.57 619.611,1695.41 648.5,1709C 675.6,1719.92 702.933,1730.26 730.5,1740C 746.617,1746.81 762.617,1753.81 778.5,1761C 742.327,1792.28 701.994,1817.28 657.5,1836C 609.698,1857.49 559.698,1870.82 507.5,1876C 483.379,1877.39 459.379,1876.39 435.5,1873C 427.32,1871.29 419.32,1868.95 411.5,1866C 410.342,1864.99 409.675,1863.66 409.5,1862C 411.845,1849.96 416.345,1838.8 423,1828.5C 443.121,1796.37 470.121,1772.04 504,1755.5C 504.876,1752.08 503.709,1749.58 500.5,1748C 498.167,1747.33 495.833,1747.33 493.5,1748C 484.893,1751.3 476.893,1755.64 469.5,1761C 440.422,1782.74 417.922,1809.91 402,1842.5C 400.246,1847.93 398.413,1853.26 396.5,1858.5C 378.82,1847.8 371.32,1832.14 374,1811.5C 378.716,1794.73 387.05,1780.06 399,1767.5C 433.428,1734.42 472.261,1707.59 515.5,1687C 532.072,1679.09 549.072,1672.25 566.5,1666.5C 568.229,1664.15 568.896,1661.48 568.5,1658.5 Z"/></g>
<g><path style="opacity:1" fill="#79151d" d="M 747.5,1642.5 C 747.163,1652.53 746.329,1662.53 745,1672.5C 743.392,1675.38 742.059,1678.38 741,1681.5C 740.292,1682.38 739.458,1683.05 738.5,1683.5C 739.945,1680.68 741.111,1677.68 742,1674.5C 743.929,1663.71 745.763,1653.04 747.5,1642.5 Z"/></g>
<g><path style="opacity:1" fill="#010000" d="M 1042.5,1684.5 C 1047.17,1692.87 1049.17,1701.87 1048.5,1711.5C 1049.09,1719.86 1047.76,1727.86 1044.5,1735.5C 1042.5,1736.83 1040.83,1738.5 1039.5,1740.5C 1032.59,1743.92 1025.59,1744.25 1018.5,1741.5C 1018.17,1741.5 1017.83,1741.5 1017.5,1741.5C 1014.55,1738.98 1012.05,1735.98 1010,1732.5C 1008.27,1726.47 1007.1,1720.47 1006.5,1714.5C 993.605,1697.33 996.605,1683.5 1015.5,1673C 1027.19,1670.85 1036.19,1674.68 1042.5,1684.5 Z"/></g>
<g><path style="opacity:1" fill="#5e0d10" d="M 702.5,1665.5 C 702.221,1670.33 702.887,1674.99 704.5,1679.5C 703.034,1678.65 702.2,1677.32 702,1675.5C 701.192,1671.97 701.359,1668.64 702.5,1665.5 Z"/></g>
<g><path style="opacity:1" fill="#f8b2cb" d="M 1422.5,1702.5 C 1434.78,1711.14 1448.11,1717.97 1462.5,1723C 1480.33,1735.09 1498.66,1746.42 1517.5,1757C 1533.5,1770.33 1549.5,1783.67 1565.5,1797C 1591.72,1818.03 1596.88,1843.53 1581,1873.5C 1577.57,1877.6 1573.57,1880.93 1569,1883.5C 1566.72,1882.22 1564.72,1880.56 1563,1878.5C 1546.37,1854.19 1526.53,1832.69 1503.5,1814C 1491.21,1804.44 1477.38,1798.28 1462,1795.5C 1454.08,1796.35 1452.58,1799.85 1457.5,1806C 1477.02,1810.92 1494.02,1820.26 1508.5,1834C 1526,1851.49 1542,1870.16 1556.5,1890C 1519.52,1904.53 1481.19,1911.2 1441.5,1910C 1430.32,1908.97 1419.32,1906.97 1408.5,1904C 1341.31,1881.57 1278.31,1850.9 1219.5,1812C 1215.37,1808.87 1211.53,1805.37 1208,1801.5C 1207.65,1799.78 1207.15,1798.12 1206.5,1796.5C 1207.09,1795.2 1208.09,1794.37 1209.5,1794C 1275.55,1772.64 1339.55,1746.31 1401.5,1715C 1408.56,1710.81 1415.56,1706.64 1422.5,1702.5 Z"/></g>
<g><path style="opacity:1" fill="#7f1720" d="M 884.5,1714.5 C 877.645,1720.16 869.645,1722.33 860.5,1721C 858.273,1720.06 856.273,1718.89 854.5,1717.5C 864.848,1719.54 874.848,1718.54 884.5,1714.5 Z"/></g>
<g><path style="opacity:1" fill="#73131a" d="M 1042.5,1684.5 C 1043.5,1684.41 1044.33,1684.75 1045,1685.5C 1046.14,1688.58 1047.47,1691.58 1049,1694.5C 1049.67,1705.5 1049.67,1716.5 1049,1727.5C 1048.49,1729.88 1047.82,1732.21 1047,1734.5C 1046.33,1735.25 1045.5,1735.59 1044.5,1735.5C 1047.76,1727.86 1049.09,1719.86 1048.5,1711.5C 1049.17,1701.87 1047.17,1692.87 1042.5,1684.5 Z"/></g>
<g><path style="opacity:1" fill="#7d161e" d="M 1006.5,1714.5 C 1007.1,1720.47 1008.27,1726.47 1010,1732.5C 1012.05,1735.98 1014.55,1738.98 1017.5,1741.5C 1012.34,1740.52 1008.84,1737.52 1007,1732.5C 1006.5,1726.51 1006.33,1720.51 1006.5,1714.5 Z"/></g>
<g><path style="opacity:1" fill="#701219" d="M 1039.5,1740.5 C 1034.8,1744.89 1029.13,1746.39 1022.5,1745C 1020.46,1744.5 1019.12,1743.34 1018.5,1741.5C 1025.59,1744.25 1032.59,1743.92 1039.5,1740.5 Z"/></g>
</svg>
