<?xml version="1.0" encoding="UTF-8"?>
<!DOCTYPE svg PUBLIC "-//W3C//DTD SVG 1.1//EN" "http://www.w3.org/Graphics/SVG/1.1/DTD/svg11.dtd">
<svg xmlns="http://www.w3.org/2000/svg" version="1.1" width="2048px" height="2048px" style="shape-rendering:geometricPrecision; text-rendering:geometricPrecision; image-rendering:optimizeQuality; fill-rule:evenodd; clip-rule:evenodd" xmlns:xlink="http://www.w3.org/1999/xlink">
<g><path style="opacity:0.917" fill="#060101" d="M 1492.5,1742.5 C 1488.52,1736.89 1483.85,1731.89 1478.5,1727.5C 1514.49,1712.52 1546.82,1692.02 1575.5,1666C 1590.87,1650.97 1606.53,1636.3 1622.5,1622C 1645.33,1600.84 1662.16,1575.67 1673,1546.5C 1674.97,1544.77 1677.14,1543.43 1679.5,1542.5C 1681.17,1542.5 1682.83,1542.5 1684.5,1542.5C 1687.34,1542.66 1689.01,1541.32 1689.5,1538.5C 1764,1443.13 1814.17,1335.8 1840,1216.5C 1842.49,1200.71 1845.49,1185.04 1849,1169.5C 1850.85,1149.41 1853.01,1129.41 1855.5,1109.5C 1857.06,1098.71 1857.72,1087.71 1857.5,1076.5C 1859.1,1021.55 1855.93,966.884 1848,912.5C 1846.02,899.595 1843.52,886.929 1840.5,874.5C 1838.59,862.544 1835.93,850.878 1832.5,839.5C 1779.49,635.119 1668.83,469.952 1500.5,344C 1372.96,251.639 1230.3,198.806 1072.5,185.5C 1064.38,183.987 1056.05,183.154 1047.5,183C 1026,182.171 1004.66,182.337 983.5,183.5C 801.646,192.687 642.98,257.187 507.5,377C 363.755,511.32 280.589,676.82 258,873.5C 254.019,913.067 252.519,952.734 253.5,992.5C 253.204,1004.04 253.871,1015.38 255.5,1026.5C 276.659,1253.64 369.659,1445.47 534.5,1602C 571.062,1635.09 609.728,1665.25 650.5,1692.5C 645.001,1690.21 639.334,1688.37 633.5,1687C 622.814,1686.32 612.148,1686.49 601.5,1687.5C 410.775,1546.22 291.608,1358.55 244,1124.5C 214.03,962.12 229.03,804.12 289,650.5C 358.706,481.464 472.539,350.964 630.5,259C 791.166,171.276 962.166,141.276 1143.5,169C 1348.79,205.196 1520.29,300.696 1658,455.5C 1828.33,654.206 1901,884.539 1876,1146.5C 1851.19,1342.63 1767.69,1508.47 1625.5,1644C 1616.5,1651.67 1607.5,1659.33 1598.5,1667C 1581.01,1685.39 1561.68,1701.39 1540.5,1715C 1523.95,1723.44 1507.95,1732.6 1492.5,1742.5 Z"/></g>
<g><path style="opacity:1" fill="#282b3a" d="M 983.5,183.5 C 1004.66,182.337 1026,182.171 1047.5,183C 1056.05,183.154 1064.38,183.987 1072.5,185.5C 1042.86,183.791 1013.2,183.124 983.5,183.5 Z"/></g>
<g><path style="opacity:1" fill="#839dd5" d="M 983.5,183.5 C 1013.2,183.124 1042.86,183.791 1072.5,185.5C 1230.3,198.806 1372.96,251.639 1500.5,344C 1668.83,469.952 1779.49,635.119 1832.5,839.5C 1832.34,842.518 1832.5,845.518 1833,848.5C 1834.8,855.81 1836.46,863.143 1838,870.5C 1838.93,871.858 1839.77,873.192 1840.5,874.5C 1843.52,886.929 1846.02,899.595 1848,912.5C 1855.93,966.884 1859.1,1021.55 1857.5,1076.5C 1856.07,1087.3 1855.4,1098.3 1855.5,1109.5C 1853.01,1129.41 1850.85,1149.41 1849,1169.5C 1845.49,1185.04 1842.49,1200.71 1840,1216.5C 1814.17,1335.8 1764,1443.13 1689.5,1538.5C 1688.83,1536.83 1688.17,1535.17 1687.5,1533.5C 1674.73,1522.94 1661.4,1513.11 1647.5,1504C 1627.15,1492.16 1606.49,1480.83 1585.5,1470C 1556.17,1456.67 1526.83,1443.33 1497.5,1430C 1474.71,1421.4 1451.71,1413.4 1428.5,1406C 1413.15,1399.3 1398.82,1390.96 1385.5,1381C 1371.13,1367.63 1356.46,1354.63 1341.5,1342C 1317.27,1319.73 1301.11,1292.56 1293,1260.5C 1292.33,1256.83 1292.33,1253.17 1293,1249.5C 1295.05,1242.62 1295.72,1235.62 1295,1228.5C 1294,1227.5 1293,1226.5 1292,1225.5C 1292.35,1210.05 1294.02,1194.72 1297,1179.5C 1299.69,1165.42 1302.69,1151.42 1306,1137.5C 1307.8,1125.57 1308.8,1113.57 1309,1101.5C 1317.58,1095.59 1325.58,1088.92 1333,1081.5C 1337.9,1073.47 1341.23,1064.81 1343,1055.5C 1349.52,1021.74 1351.19,987.742 1348,953.5C 1342.34,915.027 1326.18,881.86 1299.5,854C 1281.61,839.639 1265.78,841.473 1252,859.5C 1242.63,833.032 1235.3,806.032 1230,778.5C 1222.59,755.098 1214.09,732.098 1204.5,709.5C 1208.47,702.198 1210.81,694.365 1211.5,686C 1211.74,680.417 1209.08,678.251 1203.5,679.5C 1203.66,677.801 1203.49,676.134 1203,674.5C 1195.75,656.831 1189.42,638.831 1184,620.5C 1174.33,600.654 1161.83,582.821 1146.5,567C 1135.56,558.885 1124.22,551.385 1112.5,544.5C 1105.28,532.442 1097.45,520.775 1089,509.5C 1086.93,507.548 1084.76,505.715 1082.5,504C 1060.34,492.389 1037.34,482.722 1013.5,475C 1007.01,464.587 998.008,457.254 986.5,453C 980.5,452.333 974.5,452.333 968.5,453C 947.898,455.172 927.398,458.005 907,461.5C 900.44,461.157 893.94,460.323 887.5,459C 881.5,458.333 875.5,458.333 869.5,459C 852.273,461.719 834.94,463.386 817.5,464C 789.476,472.675 764.809,487.008 743.5,507C 734.325,513.087 725.325,519.421 716.5,526C 703.084,527.692 691.084,532.692 680.5,541C 669.891,550.604 660.391,561.104 652,572.5C 632.333,591.5 612.667,610.5 593,629.5C 578.014,647.31 569.181,667.81 566.5,691C 567.238,702.211 568.404,713.377 570,724.5C 570.134,748.521 570.8,772.521 572,796.5C 572.539,799.529 573.206,802.529 574,805.5C 574.66,807.324 575.827,808.657 577.5,809.5C 586.554,857.714 599.054,905.047 615,951.5C 623.418,972.337 633.418,992.337 645,1011.5C 648.833,1019.83 652.667,1028.17 656.5,1036.5C 656,1036.83 655.5,1037.17 655,1037.5C 626.67,1026.66 609.337,1036 603,1065.5C 601.812,1102.08 609.478,1136.75 626,1169.5C 634.031,1183.2 644.531,1194.7 657.5,1204C 685.249,1222.25 715.082,1236.09 747,1245.5C 754.272,1259.71 761.272,1274.04 768,1288.5C 781.554,1320.94 794.554,1353.61 807,1386.5C 813.828,1399.49 821.162,1412.16 829,1424.5C 832,1428.83 835.667,1432.5 840,1435.5C 845.375,1449.92 851.041,1464.25 857,1478.5C 861.813,1492.27 865.813,1506.27 869,1520.5C 875.196,1553.11 880.196,1585.78 884,1618.5C 861.472,1640.69 839.305,1663.19 817.5,1686C 813.656,1688.42 809.99,1691.09 806.5,1694C 795.833,1698.67 785.167,1703.33 774.5,1708C 769.378,1711.29 764.711,1715.12 760.5,1719.5C 744.559,1718.07 730.226,1722.07 717.5,1731.5C 699.011,1721.09 680.677,1710.42 662.5,1699.5C 658.5,1697.17 654.5,1694.83 650.5,1692.5C 609.728,1665.25 571.062,1635.09 534.5,1602C 369.659,1445.47 276.659,1253.64 255.5,1026.5C 255.564,1014.97 254.897,1003.64 253.5,992.5C 252.519,952.734 254.019,913.067 258,873.5C 280.589,676.82 363.755,511.32 507.5,377C 642.98,257.187 801.646,192.687 983.5,183.5 Z"/></g>
<g><path style="opacity:1" fill="#060000" d="M 1112.5,544.5 C 1112.24,546.776 1110.91,547.943 1108.5,548C 1110.7,552.362 1114.03,555.528 1118.5,557.5C 1119.62,558.914 1120.62,560.414 1121.5,562C 1131.15,567.745 1139.98,574.578 1148,582.5C 1158.95,596.8 1168.29,612.133 1176,628.5C 1179.81,643.262 1184.81,657.596 1191,671.5C 1193.12,676.638 1194.28,681.971 1194.5,687.5C 1193.32,687.719 1192.32,687.386 1191.5,686.5C 1185.05,678.424 1178.71,670.257 1172.5,662C 1161.63,653.48 1149.97,646.147 1137.5,640C 1129.74,637.059 1121.74,635.059 1113.5,634C 1073.93,632.651 1035.59,638.984 998.5,653C 974.057,663.221 949.39,672.888 924.5,682C 876.5,697.333 828.5,712.667 780.5,728C 768.16,732.337 756.493,738.004 745.5,745C 725.542,757.623 707.375,772.457 691,789.5C 676.288,811.96 667.288,836.627 664,863.5C 662.143,875.93 661.309,888.43 661.5,901C 662.704,927.205 664.537,953.371 667,979.5C 667.463,996.837 667.963,1014.17 668.5,1031.5C 667.178,1031.67 666.011,1031.34 665,1030.5C 651.984,1004.47 638.984,978.469 626,952.5C 609.869,905.614 596.703,857.948 586.5,809.5C 583.389,812.049 580.389,812.049 577.5,809.5C 575.827,808.657 574.66,807.324 574,805.5C 573.206,802.529 572.539,799.529 572,796.5C 570.8,772.521 570.134,748.521 570,724.5C 568.404,713.377 567.238,702.211 566.5,691C 569.181,667.81 578.014,647.31 593,629.5C 612.667,610.5 632.333,591.5 652,572.5C 660.391,561.104 669.891,550.604 680.5,541C 691.084,532.692 703.084,527.692 716.5,526C 725.325,519.421 734.325,513.087 743.5,507C 764.809,487.008 789.476,472.675 817.5,464C 834.94,463.386 852.273,461.719 869.5,459C 875.5,458.333 881.5,458.333 887.5,459C 893.94,460.323 900.44,461.157 907,461.5C 927.398,458.005 947.898,455.172 968.5,453C 974.5,452.333 980.5,452.333 986.5,453C 998.008,457.254 1007.01,464.587 1013.5,475C 1037.34,482.722 1060.34,492.389 1082.5,504C 1084.76,505.715 1086.93,507.548 1089,509.5C 1097.45,520.775 1105.28,532.442 1112.5,544.5 Z"/></g>
<g><path style="opacity:1" fill="#080101" d="M 1301.5,529.5 C 1320.09,527.797 1337.76,530.964 1354.5,539C 1381.85,558.723 1389.68,584.557 1378,616.5C 1374.84,622.834 1371.17,628.834 1367,634.5C 1357.28,644.711 1347.28,654.711 1337,664.5C 1329.86,672.098 1327.02,681.098 1328.5,691.5C 1316.81,691.832 1305.15,691.499 1293.5,690.5C 1291.48,675.755 1294.98,662.422 1304,650.5C 1314.64,638.863 1325.64,627.529 1337,616.5C 1348.81,601.759 1349.31,586.759 1338.5,571.5C 1324.68,560.885 1310.01,559.718 1294.5,568C 1282.56,579.207 1278.89,592.707 1283.5,608.5C 1271.18,609.499 1258.85,609.832 1246.5,609.5C 1241.26,566.437 1259.59,539.77 1301.5,529.5 Z"/></g>
<g><path style="opacity:1" fill="#080101" d="M 1461.5,529.5 C 1480.09,527.797 1497.76,530.964 1514.5,539C 1541.85,558.723 1549.68,584.557 1538,616.5C 1534.84,622.834 1531.17,628.834 1527,634.5C 1517.28,644.711 1507.28,654.711 1497,664.5C 1489.86,672.098 1487.02,681.098 1488.5,691.5C 1476.81,691.832 1465.15,691.499 1453.5,690.5C 1451.48,675.755 1454.98,662.422 1464,650.5C 1474.64,638.863 1485.64,627.529 1497,616.5C 1508.81,601.759 1509.31,586.759 1498.5,571.5C 1484.68,560.885 1470.01,559.718 1454.5,568C 1442.56,579.207 1438.89,592.707 1443.5,608.5C 1431.18,609.499 1418.85,609.832 1406.5,609.5C 1401.26,566.437 1419.59,539.77 1461.5,529.5 Z"/></g>
<g><path style="opacity:1" fill="#080101" d="M 1621.5,529.5 C 1640.09,527.797 1657.76,530.964 1674.5,539C 1701.85,558.723 1709.68,584.557 1698,616.5C 1694.84,622.834 1691.17,628.834 1687,634.5C 1677.28,644.711 1667.28,654.711 1657,664.5C 1649.86,672.098 1647.02,681.098 1648.5,691.5C 1636.81,691.832 1625.15,691.499 1613.5,690.5C 1611.48,675.755 1614.98,662.422 1624,650.5C 1634.64,638.863 1645.64,627.529 1657,616.5C 1668.81,601.759 1669.31,586.759 1658.5,571.5C 1644.68,560.885 1630.01,559.718 1614.5,568C 1602.56,579.207 1598.89,592.707 1603.5,608.5C 1591.18,609.499 1578.85,609.832 1566.5,609.5C 1561.26,566.437 1579.59,539.77 1621.5,529.5 Z"/></g>
<g><path style="opacity:1" fill="#0a0304" d="M 1112.5,544.5 C 1124.22,551.385 1135.56,558.885 1146.5,567C 1161.83,582.821 1174.33,600.654 1184,620.5C 1189.42,638.831 1195.75,656.831 1203,674.5C 1203.49,676.134 1203.66,677.801 1203.5,679.5C 1209.08,678.251 1211.74,680.417 1211.5,686C 1210.81,694.365 1208.47,702.198 1204.5,709.5C 1214.09,732.098 1222.59,755.098 1230,778.5C 1235.3,806.032 1242.63,833.032 1252,859.5C 1265.78,841.473 1281.61,839.639 1299.5,854C 1326.18,881.86 1342.34,915.027 1348,953.5C 1351.19,987.742 1349.52,1021.74 1343,1055.5C 1341.23,1064.81 1337.9,1073.47 1333,1081.5C 1325.58,1088.92 1317.58,1095.59 1309,1101.5C 1308.8,1113.57 1307.8,1125.57 1306,1137.5C 1302.69,1151.42 1299.69,1165.42 1297,1179.5C 1294.02,1194.72 1292.35,1210.05 1292,1225.5C 1293,1226.5 1294,1227.5 1295,1228.5C 1295.72,1235.62 1295.05,1242.62 1293,1249.5C 1292.33,1253.17 1292.33,1256.83 1293,1260.5C 1301.11,1292.56 1317.27,1319.73 1341.5,1342C 1356.46,1354.63 1371.13,1367.63 1385.5,1381C 1398.82,1390.96 1413.15,1399.3 1428.5,1406C 1451.71,1413.4 1474.71,1421.4 1497.5,1430C 1526.83,1443.33 1556.17,1456.67 1585.5,1470C 1606.49,1480.83 1627.15,1492.16 1647.5,1504C 1661.4,1513.11 1674.73,1522.94 1687.5,1533.5C 1688.08,1537.11 1687.08,1540.11 1684.5,1542.5C 1682.83,1542.5 1681.17,1542.5 1679.5,1542.5C 1667.29,1531.72 1654.29,1521.88 1640.5,1513C 1618.64,1500.24 1596.31,1488.24 1573.5,1477C 1545.5,1464.33 1517.5,1451.67 1489.5,1439C 1466.58,1430.71 1443.58,1422.71 1420.5,1415C 1409.74,1409.54 1399.24,1403.71 1389,1397.5C 1386.06,1399.35 1384.06,1402.02 1383,1405.5C 1368.94,1436.62 1354.61,1467.62 1340,1498.5C 1325.68,1527.63 1306.18,1552.8 1281.5,1574C 1263.01,1589.49 1243.68,1603.82 1223.5,1617C 1201.28,1629.07 1177.61,1636.74 1152.5,1640C 1114.37,1645.88 1076.03,1649.38 1037.5,1650.5C 1017.68,1650.95 998.016,1649.45 978.5,1646C 953.075,1638.64 927.741,1630.98 902.5,1623C 900.167,1622.33 897.833,1622.33 895.5,1623C 871.472,1646.69 847.805,1670.69 824.5,1695C 821.01,1697.91 817.344,1700.58 813.5,1703C 799.507,1709 785.841,1715.5 772.5,1722.5C 768.329,1721.74 764.329,1720.74 760.5,1719.5C 764.711,1715.12 769.378,1711.29 774.5,1708C 785.167,1703.33 795.833,1698.67 806.5,1694C 809.99,1691.09 813.656,1688.42 817.5,1686C 839.305,1663.19 861.472,1640.69 884,1618.5C 880.196,1585.78 875.196,1553.11 869,1520.5C 865.813,1506.27 861.813,1492.27 857,1478.5C 851.041,1464.25 845.375,1449.92 840,1435.5C 835.667,1432.5 832,1428.83 829,1424.5C 821.162,1412.16 813.828,1399.49 807,1386.5C 794.554,1353.61 781.554,1320.94 768,1288.5C 761.272,1274.04 754.272,1259.71 747,1245.5C 715.082,1236.09 685.249,1222.25 657.5,1204C 644.531,1194.7 634.031,1183.2 626,1169.5C 609.478,1136.75 601.812,1102.08 603,1065.5C 609.337,1036 626.67,1026.66 655,1037.5C 655.5,1037.17 656,1036.83 656.5,1036.5C 652.667,1028.17 648.833,1019.83 645,1011.5C 633.418,992.337 623.418,972.337 615,951.5C 599.054,905.047 586.554,857.714 577.5,809.5C 580.389,812.049 583.389,812.049 586.5,809.5C 596.703,857.948 609.869,905.614 626,952.5C 638.984,978.469 651.984,1004.47 665,1030.5C 666.011,1031.34 667.178,1031.67 668.5,1031.5C 667.963,1014.17 667.463,996.837 667,979.5C 664.537,953.371 662.704,927.205 661.5,901C 661.309,888.43 662.143,875.93 664,863.5C 667.288,836.627 676.288,811.96 691,789.5C 707.375,772.457 725.542,757.623 745.5,745C 756.493,738.004 768.16,732.337 780.5,728C 828.5,712.667 876.5,697.333 924.5,682C 949.39,672.888 974.057,663.221 998.5,653C 1035.59,638.984 1073.93,632.651 1113.5,634C 1121.74,635.059 1129.74,637.059 1137.5,640C 1149.97,646.147 1161.63,653.48 1172.5,662C 1178.71,670.257 1185.05,678.424 1191.5,686.5C 1192.32,687.386 1193.32,687.719 1194.5,687.5C 1194.28,681.971 1193.12,676.638 1191,671.5C 1184.81,657.596 1179.81,643.262 1176,628.5C 1168.29,612.133 1158.95,596.8 1148,582.5C 1139.98,574.578 1131.15,567.745 1121.5,562C 1120.62,560.414 1119.62,558.914 1118.5,557.5C 1114.03,555.528 1110.7,552.362 1108.5,548C 1110.91,547.943 1112.24,546.776 1112.5,544.5 Z"/></g>
<g><path style="opacity:1" fill="#532f03" d="M 1083.5,643.5 C 1117.49,639.933 1146.33,650.267 1170,674.5C 1177.45,683.956 1184.12,693.956 1190,704.5C 1202.64,733.442 1213.3,763.109 1222,793.5C 1222.33,797.5 1222.67,801.5 1223,805.5C 1235.13,844.217 1247.46,882.884 1260,921.5C 1274.53,974.279 1286.53,1027.61 1296,1081.5C 1298.2,1099.22 1297.87,1116.88 1295,1134.5C 1288.23,1162.86 1283.23,1191.53 1280,1220.5C 1279.29,1232.35 1279.46,1244.18 1280.5,1256C 1279.07,1267.47 1277.9,1278.97 1277,1290.5C 1275.62,1298 1273.62,1305.34 1271,1312.5C 1263.14,1328.4 1257.48,1345.07 1254,1362.5C 1248.63,1376.92 1240.96,1389.92 1231,1401.5C 1193.84,1444.02 1147.67,1472.18 1092.5,1486C 1075.11,1489.4 1057.78,1489.06 1040.5,1485C 995.217,1475.41 949.883,1466.08 904.5,1457C 884.105,1450.47 865.439,1440.8 848.5,1428C 843.966,1423.8 839.799,1419.3 836,1414.5C 828.493,1402.16 821.493,1389.49 815,1376.5C 794.277,1317.68 769.277,1260.68 740,1205.5C 728.746,1185.33 717.746,1164.99 707,1144.5C 684.176,1092.89 674.509,1038.89 678,982.5C 675.062,954.893 672.896,927.227 671.5,899.5C 671.083,866.078 678.25,834.411 693,804.5C 698.714,795.779 705.548,787.946 713.5,781C 726.554,770.946 739.887,761.28 753.5,752C 762.77,746.532 772.436,741.865 782.5,738C 831.5,722.333 880.5,706.667 929.5,691C 959.946,678.778 990.613,667.111 1021.5,656C 1041.95,650.076 1062.62,645.909 1083.5,643.5 Z"/></g>
<g><path style="opacity:1" fill="#080102" d="M 1304.5,706.5 C 1318.29,703.816 1328.45,708.482 1335,720.5C 1339.26,739.887 1331.6,750.554 1312,752.5C 1293.69,750.265 1286.35,739.932 1290,721.5C 1293.02,714.647 1297.85,709.647 1304.5,706.5 Z"/></g>
<g><path style="opacity:1" fill="#080102" d="M 1464.5,706.5 C 1478.29,703.816 1488.45,708.482 1495,720.5C 1499.26,739.887 1491.6,750.554 1472,752.5C 1453.69,750.265 1446.35,739.932 1450,721.5C 1453.02,714.647 1457.85,709.647 1464.5,706.5 Z"/></g>
<g><path style="opacity:1" fill="#080102" d="M 1624.5,706.5 C 1638.29,703.816 1648.45,708.482 1655,720.5C 1659.26,739.887 1651.6,750.554 1632,752.5C 1613.69,750.265 1606.35,739.932 1610,721.5C 1613.02,714.647 1617.85,709.647 1624.5,706.5 Z"/></g>
<g><path style="opacity:1" fill="#0f0600" d="M 1146.5,798.5 C 1152.74,798.392 1158.74,799.559 1164.5,802C 1178.93,808.884 1193.6,815.217 1208.5,821C 1216.06,824.393 1221.39,829.893 1224.5,837.5C 1223.13,842.078 1220.13,843.578 1215.5,842C 1204.08,838.611 1192.41,836.278 1180.5,835C 1177.5,834.333 1174.5,834.333 1171.5,835C 1153.62,840.404 1135.95,846.404 1118.5,853C 1103.16,859.662 1089.16,868.329 1076.5,879C 1071.64,881.496 1067.48,880.662 1064,876.5C 1062.7,873.245 1061.03,870.245 1059,867.5C 1058.21,856.885 1062.05,848.052 1070.5,841C 1075.83,837.333 1081.17,833.667 1086.5,830C 1106.72,819.726 1126.72,809.226 1146.5,798.5 Z"/></g>
<g><path style="opacity:1" fill="#050000" d="M 1149.5,803.5 C 1154.31,804.036 1158.98,805.203 1163.5,807C 1175.48,813.159 1187.82,818.492 1200.5,823C 1204.99,825.079 1209.33,827.412 1213.5,830C 1215.61,831.264 1216.61,833.097 1216.5,835.5C 1205.21,833.505 1193.88,831.671 1182.5,830C 1177.43,829.249 1172.43,829.582 1167.5,831C 1149.03,836.935 1130.69,843.268 1112.5,850C 1098.82,856.5 1086.15,864.5 1074.5,874C 1072.42,874.808 1070.42,874.641 1068.5,873.5C 1062.26,863.212 1063.6,854.045 1072.5,846C 1078.66,841.42 1084.99,837.086 1091.5,833C 1111.12,823.356 1130.46,813.523 1149.5,803.5 Z"/></g>
<g><path style="opacity:1" fill="#532f02" d="M 1271.5,856.5 C 1277.56,855.838 1283.23,857.004 1288.5,860C 1296.75,866.251 1303.59,873.751 1309,882.5C 1332.77,920.45 1342.44,961.783 1338,1006.5C 1337.07,1022.31 1335.07,1037.97 1332,1053.5C 1330.32,1060.87 1327.65,1067.87 1324,1074.5C 1319.3,1079.43 1314.13,1083.76 1308.5,1087.5C 1296.79,1016.27 1280.12,946.274 1258.5,877.5C 1259.06,868.02 1263.4,861.02 1271.5,856.5 Z"/></g>
<g><path style="opacity:1" fill="#697ca8" d="M 1832.5,839.5 C 1835.93,850.878 1838.59,862.544 1840.5,874.5C 1839.77,873.192 1838.93,871.858 1838,870.5C 1836.46,863.143 1834.8,855.81 1833,848.5C 1832.5,845.518 1832.34,842.518 1832.5,839.5 Z"/></g>
<g><path style="opacity:1" fill="#100702" d="M 1137.5,878.5 C 1155.33,876.966 1172.67,879.133 1189.5,885C 1190.75,887.21 1190.58,889.376 1189,891.5C 1180.04,903.466 1168.54,911.966 1154.5,917C 1139.64,922.399 1124.64,927.399 1109.5,932C 1097.69,935.182 1085.69,936.182 1073.5,935C 1070.12,930.536 1069.62,925.703 1072,920.5C 1088.52,898.318 1110.35,884.318 1137.5,878.5 Z"/></g>
<g><path style="opacity:1" fill="#4b1c05" d="M 1162.5,885.5 C 1161.76,885.369 1161.09,885.536 1160.5,886C 1159.92,887.302 1159.25,888.469 1158.5,889.5C 1158.82,886.32 1157.49,885.153 1154.5,886C 1149.57,901.266 1139.57,911.599 1124.5,917C 1113.71,919.949 1103.87,918.116 1095,911.5C 1094.33,909.167 1094.33,906.833 1095,904.5C 1108.31,894.595 1123.15,888.095 1139.5,885C 1147.34,884.178 1155.01,884.344 1162.5,885.5 Z"/></g>
<g><path style="opacity:1" fill="#fafaf9" d="M 1162.5,885.5 C 1169.52,885.969 1176.52,886.636 1183.5,887.5C 1183.27,889.433 1182.44,891.1 1181,892.5C 1170.58,902.296 1158.75,909.963 1145.5,915.5C 1144.5,915.167 1143.83,914.5 1143.5,913.5C 1146.85,909.981 1150.02,906.314 1153,902.5C 1155.4,898.365 1157.24,894.032 1158.5,889.5C 1159.25,888.469 1159.92,887.302 1160.5,886C 1161.09,885.536 1161.76,885.369 1162.5,885.5 Z"/></g>
<g><path style="opacity:1" fill="#ece5e1" d="M 1113.5,899.5 C 1114.83,899.5 1116.17,899.5 1117.5,899.5C 1117.82,903.35 1116.49,906.517 1113.5,909C 1111.5,909.667 1109.5,909.667 1107.5,909C 1106.98,908.439 1106.64,907.772 1106.5,907C 1108.41,904.058 1110.74,901.558 1113.5,899.5 Z"/></g>
<g><path style="opacity:1" fill="#060000" d="M 931.5,922.5 C 931.5,923.833 931.5,925.167 931.5,926.5C 931.297,928.638 930.297,930.305 928.5,931.5C 929.575,934.438 929.741,937.438 929,940.5C 928.5,942.333 927.333,943.5 925.5,944C 889.5,944.333 853.5,944.667 817.5,945C 808.45,945.153 799.45,945.82 790.5,947C 786.6,948.565 782.934,950.565 779.5,953C 770.536,960.295 761.87,967.962 753.5,976C 752.207,976.49 750.873,976.657 749.5,976.5C 749.491,974.692 749.991,973.025 751,971.5C 759.333,961.167 767.667,950.833 776,940.5C 781.032,934.232 787.532,930.399 795.5,929C 805.509,927.406 815.509,925.74 825.5,924C 850.84,916.465 876.674,911.632 903,909.5C 909.62,909.409 916.12,910.242 922.5,912C 926.545,914.253 928.378,917.753 928,922.5C 928.986,921.829 930.153,921.829 931.5,922.5 Z"/></g>
<g><path style="opacity:1" fill="#fdfdfd" d="M 1088.5,909.5 C 1093.73,916.961 1101.07,921.128 1110.5,922C 1111.45,922.718 1111.62,923.551 1111,924.5C 1099.9,928.685 1088.4,930.351 1076.5,929.5C 1076.21,926.351 1076.71,923.351 1078,920.5C 1081.7,916.964 1085.2,913.298 1088.5,909.5 Z"/></g>
<g><path style="opacity:1" fill="#100600" d="M 931.5,922.5 C 930.153,921.829 928.986,921.829 928,922.5C 928.378,917.753 926.545,914.253 922.5,912C 916.12,910.242 909.62,909.409 903,909.5C 876.674,911.632 850.84,916.465 825.5,924C 815.509,925.74 805.509,927.406 795.5,929C 787.532,930.399 781.032,934.232 776,940.5C 767.667,950.833 759.333,961.167 751,971.5C 749.991,973.025 749.491,974.692 749.5,976.5C 750.873,976.657 752.207,976.49 753.5,976C 761.87,967.962 770.536,960.295 779.5,953C 782.934,950.565 786.6,948.565 790.5,947C 799.45,945.82 808.45,945.153 817.5,945C 853.5,944.667 889.5,944.333 925.5,944C 927.333,943.5 928.5,942.333 929,940.5C 929.741,937.438 929.575,934.438 928.5,931.5C 930.297,930.305 931.297,928.638 931.5,926.5C 933.194,931.257 933.694,936.257 933,941.5C 931.413,944.756 928.913,946.923 925.5,948C 881.83,948.439 838.163,949.106 794.5,950C 789.286,951.274 784.619,953.607 780.5,957C 769.201,966.631 758.201,976.631 747.5,987C 746.551,987.617 745.718,987.451 745,986.5C 744.667,985.167 744.333,983.833 744,982.5C 742.89,984.037 741.39,984.703 739.5,984.5C 739.34,982.801 739.506,981.134 740,979.5C 752.747,962.749 766.247,946.582 780.5,931C 793.061,924.726 806.394,921.392 820.5,921C 847.153,913.044 874.32,907.877 902,905.5C 910.905,905.289 919.405,906.955 927.5,910.5C 930.925,913.762 932.258,917.762 931.5,922.5 Z"/></g>
<g><path style="opacity:1" fill="#110701" d="M 852.5,971.5 C 870.516,971.004 887.85,974.17 904.5,981C 906.396,982.808 906.896,984.975 906,987.5C 901.125,994.042 895.292,999.542 888.5,1004C 854.44,1024.77 817.44,1034.1 777.5,1032C 773.713,1031.45 770.213,1030.29 767,1028.5C 766.333,1026.83 766.333,1025.17 767,1023.5C 780.732,1004.44 798.565,990.608 820.5,982C 830.988,977.559 841.654,974.059 852.5,971.5 Z"/></g>
<g><path style="opacity:1" fill="#4b1b04" d="M 859.5,976.5 C 862.93,975.755 864.597,977.089 864.5,980.5C 861.887,995.252 854.221,1006.42 841.5,1014C 834.744,1016.75 827.744,1018.08 820.5,1018C 819.833,1017.33 819.167,1016.67 818.5,1016C 808.745,1015.41 801.412,1010.91 796.5,1002.5C 815.964,989.907 836.964,981.24 859.5,976.5 Z"/></g>
<g><path style="opacity:1" fill="#f5f5f5" d="M 868.5,977.5 C 878.776,979.254 889.109,980.754 899.5,982C 901.698,985.048 901.032,987.714 897.5,990C 883.717,1000.23 868.717,1008.39 852.5,1014.5C 851.479,1014 851.312,1013.33 852,1012.5C 861.239,1002.63 866.739,990.961 868.5,977.5 Z"/></g>
<g><path style="opacity:1" fill="#080100" d="M 1003.5,984.5 C 1007.18,983.725 1009.68,985.059 1011,988.5C 1014.08,1014.73 1015.75,1041.07 1016,1067.5C 1016.15,1075.38 1017.48,1083.05 1020,1090.5C 1023.67,1093.95 1027.83,1094.45 1032.5,1092C 1045.49,1085.92 1056.99,1077.75 1067,1067.5C 1067.94,1064.34 1069.44,1061.51 1071.5,1059C 1073.77,1058.24 1075.94,1058.41 1078,1059.5C 1078.7,1062.93 1078.37,1066.26 1077,1069.5C 1074.59,1073.92 1071.42,1077.75 1067.5,1081C 1057.14,1089.52 1045.81,1096.52 1033.5,1102C 1020.63,1105.98 1012.46,1101.48 1009,1088.5C 1006.77,1056.52 1004.61,1024.52 1002.5,992.5C 1002.61,989.783 1002.95,987.116 1003.5,984.5 Z"/></g>
<g><path style="opacity:1" fill="#e8e1dc" d="M 815.5,995.5 C 818.596,994.907 820.929,995.907 822.5,998.5C 820.455,1001.75 817.455,1003.08 813.5,1002.5C 813.394,999.921 814.061,997.588 815.5,995.5 Z"/></g>
<g><path style="opacity:1" fill="#f5f5f5" d="M 789.5,1007.5 C 794.445,1010.31 799.445,1013.14 804.5,1016C 810.54,1018.36 816.54,1020.69 822.5,1023C 811.688,1025 800.688,1026.16 789.5,1026.5C 784.749,1026.57 780.083,1026.07 775.5,1025C 775.167,1024.67 774.833,1024.33 774.5,1024C 780.076,1018.93 785.076,1013.43 789.5,1007.5 Z"/></g>
<g><path style="opacity:1" fill="#2d3041" d="M 253.5,992.5 C 254.897,1003.64 255.564,1014.97 255.5,1026.5C 253.871,1015.38 253.204,1004.04 253.5,992.5 Z"/></g>
<g><path style="opacity:1" fill="#532f02" d="M 629.5,1044.5 C 643.239,1045.41 656.406,1048.41 669,1053.5C 674.784,1093.18 686.784,1130.85 705,1166.5C 717.135,1187.27 728.635,1208.43 739.5,1230C 709.604,1220.89 681.938,1207.22 656.5,1189C 649.211,1182.72 643.044,1175.55 638,1167.5C 625.973,1143.44 617.973,1118.11 614,1091.5C 611.509,1076.43 614.176,1062.43 622,1049.5C 624.426,1047.55 626.926,1045.88 629.5,1044.5 Z"/></g>
<g><path style="opacity:1" fill="#313549" d="M 1857.5,1076.5 C 1857.72,1087.71 1857.06,1098.71 1855.5,1109.5C 1855.4,1098.3 1856.07,1087.3 1857.5,1076.5 Z"/></g>
<g><path style="opacity:1" fill="#b66056" d="M 1153.5,1135.5 C 1163.28,1135.08 1172.95,1135.91 1182.5,1138C 1191.75,1141.08 1201.08,1143.75 1210.5,1146C 1211.57,1146.74 1212.24,1147.74 1212.5,1149C 1210.23,1158.23 1207.73,1167.39 1205,1176.5C 1194.83,1194.17 1184.17,1211.5 1173,1228.5C 1166.92,1237.25 1160.09,1245.42 1152.5,1253C 1132.6,1267.62 1110.6,1277.95 1086.5,1284C 1054.07,1286.46 1021.74,1285.46 989.5,1281C 977.28,1275.72 964.947,1270.72 952.5,1266C 947.9,1263.79 943.734,1260.95 940,1257.5C 939.333,1254.5 939.333,1251.5 940,1248.5C 944,1244.5 948,1240.5 952,1236.5C 968.92,1212.25 989.753,1192.08 1014.5,1176C 1022.18,1171.89 1030.18,1168.55 1038.5,1166C 1050.86,1164.46 1063.19,1162.79 1075.5,1161C 1091.93,1154.08 1108.6,1147.74 1125.5,1142C 1134.89,1139.48 1144.23,1137.32 1153.5,1135.5 Z"/></g>
<g><path style="opacity:1" fill="#f8f2f1" d="M 1186.5,1154.5 C 1191.01,1154.15 1195.35,1154.82 1199.5,1156.5C 1198.67,1158.17 1197.83,1159.83 1197,1161.5C 1182.53,1176.97 1167.7,1192.14 1152.5,1207C 1124.74,1228.87 1093.41,1243.21 1058.5,1250C 1040.1,1252.17 1021.77,1254.84 1003.5,1258C 986.56,1258.44 969.893,1256.44 953.5,1252C 966.439,1239.76 981.439,1230.76 998.5,1225C 1007.72,1221.93 1017.05,1219.26 1026.5,1217C 1050.76,1216.16 1074.1,1211.16 1096.5,1202C 1119.72,1192.06 1141.72,1180.06 1162.5,1166C 1170.65,1162.24 1178.65,1158.41 1186.5,1154.5 Z"/></g>
<g><path style="opacity:1" fill="#532f02" d="M 1288.5,1287.5 C 1296.74,1305.25 1307.24,1321.58 1320,1336.5C 1339.23,1354.4 1358.4,1372.24 1377.5,1390C 1363.61,1419.67 1350.11,1449.5 1337,1479.5C 1325.67,1502.18 1312.34,1523.51 1297,1543.5C 1274.29,1565.22 1250.12,1585.06 1224.5,1603C 1203.27,1616.08 1180.27,1624.41 1155.5,1628C 1116.69,1633.89 1077.69,1637.73 1038.5,1639.5C 1019.37,1639.65 1000.37,1638.15 981.5,1635C 952.147,1626.5 922.814,1618 893.5,1609.5C 890.414,1578.65 885.914,1547.98 880,1517.5C 874.899,1494.2 867.399,1471.7 857.5,1450C 857.833,1449.5 858.167,1449 858.5,1448.5C 874.317,1458.41 891.317,1465.57 909.5,1470C 955.935,1478.79 1002.27,1488.13 1048.5,1498C 1072.9,1501.77 1096.57,1499.1 1119.5,1490C 1175.43,1471.14 1220.27,1437.64 1254,1389.5C 1257.53,1383.78 1260.53,1377.78 1263,1371.5C 1266.51,1359.12 1270.18,1346.79 1274,1334.5C 1281.56,1319.65 1286.39,1303.99 1288.5,1287.5 Z"/></g>
<g><path style="opacity:1" fill="#f2e9e9" d="M 1679.5,1542.5 C 1677.14,1543.43 1674.97,1544.77 1673,1546.5C 1662.16,1575.67 1645.33,1600.84 1622.5,1622C 1606.53,1636.3 1590.87,1650.97 1575.5,1666C 1546.82,1692.02 1514.49,1712.52 1478.5,1727.5C 1456.7,1715.87 1435.7,1717.03 1415.5,1731C 1410.08,1735.91 1406.08,1741.74 1403.5,1748.5C 1400.31,1751.27 1397.31,1754.27 1394.5,1757.5C 1388.24,1759.47 1381.9,1761.13 1375.5,1762.5C 1375.5,1749.17 1375.5,1735.83 1375.5,1722.5C 1366.17,1722.5 1356.83,1722.5 1347.5,1722.5C 1347.5,1729.83 1347.5,1737.17 1347.5,1744.5C 1341.83,1744.5 1336.17,1744.5 1330.5,1744.5C 1330.5,1755.17 1330.5,1765.83 1330.5,1776.5C 1322.82,1778.51 1315.15,1780.51 1307.5,1782.5C 1307.5,1762.5 1307.5,1742.5 1307.5,1722.5C 1298.17,1722.5 1288.83,1722.5 1279.5,1722.5C 1279.5,1729.83 1279.5,1737.17 1279.5,1744.5C 1273.83,1744.5 1268.17,1744.5 1262.5,1744.5C 1262.5,1761.17 1262.5,1777.83 1262.5,1794.5C 1257.53,1795.63 1252.53,1796.63 1247.5,1797.5C 1257.04,1773.83 1257.88,1749.83 1250,1725.5C 1240.83,1703.34 1224.33,1690.51 1200.5,1687C 1180.01,1683.71 1161.68,1688.37 1145.5,1701C 1139.43,1706.56 1134.76,1713.06 1131.5,1720.5C 1119.42,1730.79 1111.59,1743.79 1108,1759.5C 1105.12,1777.8 1106.29,1795.8 1111.5,1813.5C 1099.17,1814.17 1086.84,1814.83 1074.5,1815.5C 1065.43,1815.04 1056.43,1814.04 1047.5,1812.5C 1047.67,1769.17 1047.5,1725.83 1047,1682.5C 1037.74,1681.17 1028.57,1681.17 1019.5,1682.5C 1018.51,1689.31 1018.18,1696.31 1018.5,1703.5C 1012.97,1703.18 1007.64,1703.51 1002.5,1704.5C 1001.83,1710.5 1001.17,1716.5 1000.5,1722.5C 982.739,1717.06 967.573,1721.06 955,1734.5C 951.762,1738.31 949.596,1742.64 948.5,1747.5C 935.998,1756.15 928.831,1768.15 927,1783.5C 926.501,1789.16 926.334,1794.82 926.5,1800.5C 924.833,1800.5 923.167,1800.5 921.5,1800.5C 923.233,1796.35 924.4,1792.02 925,1787.5C 928.848,1768.23 924.848,1750.9 913,1735.5C 899.983,1723.16 884.483,1717.99 866.5,1720C 847.912,1722.12 834.912,1731.62 827.5,1748.5C 821.822,1753.01 816.989,1758.35 813,1764.5C 809.569,1771.3 807.069,1778.3 805.5,1785.5C 805.167,1785.5 804.833,1785.5 804.5,1785.5C 807.947,1764.35 802.28,1746.18 787.5,1731C 782.73,1727.62 777.73,1724.79 772.5,1722.5C 785.841,1715.5 799.507,1709 813.5,1703C 817.344,1700.58 821.01,1697.91 824.5,1695C 847.805,1670.69 871.472,1646.69 895.5,1623C 897.833,1622.33 900.167,1622.33 902.5,1623C 927.741,1630.98 953.075,1638.64 978.5,1646C 998.016,1649.45 1017.68,1650.95 1037.5,1650.5C 1076.03,1649.38 1114.37,1645.88 1152.5,1640C 1177.61,1636.74 1201.28,1629.07 1223.5,1617C 1243.68,1603.82 1263.01,1589.49 1281.5,1574C 1306.18,1552.8 1325.68,1527.63 1340,1498.5C 1354.61,1467.62 1368.94,1436.62 1383,1405.5C 1384.06,1402.02 1386.06,1399.35 1389,1397.5C 1399.24,1403.71 1409.74,1409.54 1420.5,1415C 1443.58,1422.71 1466.58,1430.71 1489.5,1439C 1517.5,1451.67 1545.5,1464.33 1573.5,1477C 1596.31,1488.24 1618.64,1500.24 1640.5,1513C 1654.29,1521.88 1667.29,1531.72 1679.5,1542.5 Z"/></g>
<g><path style="opacity:1" fill="#4f5b7c" d="M 1687.5,1533.5 C 1688.17,1535.17 1688.83,1536.83 1689.5,1538.5C 1689.01,1541.32 1687.34,1542.66 1684.5,1542.5C 1687.08,1540.11 1688.08,1537.11 1687.5,1533.5 Z"/></g>
<g><path style="opacity:0.954" fill="#ffc000" d="M 1724.5,1707.5 C 1720.82,1704.16 1716.49,1702.16 1711.5,1701.5C 1707.19,1687.81 1712.19,1680.14 1726.5,1678.5C 1738.54,1679.29 1744.04,1685.63 1743,1697.5C 1739.36,1705.4 1733.2,1708.74 1724.5,1707.5 Z"/></g>
<g><path style="opacity:1" fill="#fec013" d="M 1047.5,1812.5 C 1047.5,1817.5 1047.5,1822.5 1047.5,1827.5C 1041.83,1827.5 1036.17,1827.5 1030.5,1827.5C 1029.5,1786.67 1029.17,1745.67 1029.5,1704.5C 1026.17,1704.5 1022.83,1704.5 1019.5,1704.5C 1019.5,1697.17 1019.5,1689.83 1019.5,1682.5C 1028.57,1681.17 1037.74,1681.17 1047,1682.5C 1047.5,1725.83 1047.67,1769.17 1047.5,1812.5 Z"/></g>
<g><path style="opacity:0.982" fill="#fdbf00" d="M 650.5,1692.5 C 654.5,1694.83 658.5,1697.17 662.5,1699.5C 672.729,1708.63 678.729,1719.96 680.5,1733.5C 678.435,1733.52 676.435,1733.85 674.5,1734.5C 668.833,1734.5 663.167,1734.5 657.5,1734.5C 652.031,1728.2 646.031,1722.36 639.5,1717C 619.068,1707.25 598.068,1705.92 576.5,1713C 571.306,1715.09 566.639,1717.92 562.5,1721.5C 570.054,1703.89 583.054,1692.56 601.5,1687.5C 612.148,1686.49 622.814,1686.32 633.5,1687C 639.334,1688.37 645.001,1690.21 650.5,1692.5 Z"/></g>
<g><path style="opacity:1" fill="#fec005" d="M 1247.5,1797.5 C 1243.97,1804.04 1239.63,1810.04 1234.5,1815.5C 1238.5,1822.15 1242.83,1828.48 1247.5,1834.5C 1248.82,1836.47 1250.16,1838.47 1251.5,1840.5C 1241.85,1841.67 1232.18,1841.83 1222.5,1841C 1221.94,1840.62 1221.61,1840.12 1221.5,1839.5C 1220.83,1838.17 1220.17,1836.83 1219.5,1835.5C 1230.59,1822.63 1236.76,1807.63 1238,1790.5C 1240.52,1769.59 1236.18,1750.25 1225,1732.5C 1205.98,1711.61 1182.48,1704.11 1154.5,1710C 1146.31,1712.43 1138.64,1715.93 1131.5,1720.5C 1134.76,1713.06 1139.43,1706.56 1145.5,1701C 1161.68,1688.37 1180.01,1683.71 1200.5,1687C 1224.33,1690.51 1240.83,1703.34 1250,1725.5C 1257.88,1749.83 1257.04,1773.83 1247.5,1797.5 Z"/></g>
<g><path style="opacity:0.949" fill="#ffc000" d="M 1672.5,1745.5 C 1665.17,1745.5 1657.83,1745.5 1650.5,1745.5C 1650.5,1736.83 1650.5,1728.17 1650.5,1719.5C 1646.4,1719.76 1642.4,1719.43 1638.5,1718.5C 1638.5,1711.17 1638.5,1703.83 1638.5,1696.5C 1648.17,1696.5 1657.83,1696.5 1667.5,1696.5C 1667.5,1705.17 1667.5,1713.83 1667.5,1722.5C 1674.83,1722.5 1682.17,1722.5 1689.5,1722.5C 1689.5,1730.17 1689.5,1737.83 1689.5,1745.5C 1683.83,1745.5 1678.17,1745.5 1672.5,1745.5 Z"/></g>
<g><path style="opacity:0.969" fill="#ff8800" d="M 1711.5,1701.5 C 1716.49,1702.16 1720.82,1704.16 1724.5,1707.5C 1726.65,1712.02 1726.98,1716.69 1725.5,1721.5C 1723.37,1723.13 1721.37,1724.96 1719.5,1727C 1717.19,1727.99 1714.86,1728.82 1712.5,1729.5C 1700.93,1731.23 1694.26,1726.4 1692.5,1715C 1694.6,1704.38 1700.93,1699.88 1711.5,1701.5 Z"/></g>
<g><path style="opacity:1" fill="#f8c785" d="M 1019.5,1682.5 C 1019.5,1689.83 1019.5,1697.17 1019.5,1704.5C 1013.83,1704.5 1008.17,1704.5 1002.5,1704.5C 1007.64,1703.51 1012.97,1703.18 1018.5,1703.5C 1018.18,1696.31 1018.51,1689.31 1019.5,1682.5 Z"/></g>
<g><path style="opacity:1" fill="#f6cb9e" d="M 1002.5,1704.5 C 1002.5,1710.83 1002.5,1717.17 1002.5,1723.5C 1001.51,1723.67 1000.84,1723.34 1000.5,1722.5C 1001.17,1716.5 1001.83,1710.5 1002.5,1704.5 Z"/></g>
<g><path style="opacity:0.996" fill="#fe8901" d="M 1002.5,1704.5 C 1008.17,1704.5 1013.83,1704.5 1019.5,1704.5C 1022.83,1704.5 1026.17,1704.5 1029.5,1704.5C 1029.17,1745.67 1029.5,1786.67 1030.5,1827.5C 1030.5,1833.83 1030.5,1840.17 1030.5,1846.5C 1030.5,1847.5 1030.5,1848.5 1030.5,1849.5C 1021.17,1849.5 1011.83,1849.5 1002.5,1849.5C 1002.5,1847.83 1002.5,1846.17 1002.5,1844.5C 1002.5,1843.83 1002.5,1843.17 1002.5,1842.5C 1003.81,1839.31 1003.81,1835.98 1002.5,1832.5C 1001.89,1832.62 1001.56,1832.96 1001.5,1833.5C 999.179,1836.8 996.846,1840.13 994.5,1843.5C 978.523,1853.55 962.189,1854.05 945.5,1845C 941.259,1841.66 937.592,1837.82 934.5,1833.5C 932.98,1828.78 931.146,1824.12 929,1819.5C 927.421,1813.26 926.588,1806.93 926.5,1800.5C 926.334,1794.82 926.501,1789.16 927,1783.5C 928.831,1768.15 935.998,1756.15 948.5,1747.5C 960.975,1741.18 973.642,1740.85 986.5,1746.5C 988.95,1747.78 991.283,1749.28 993.5,1751C 996.008,1754.34 998.675,1757.5 1001.5,1760.5C 1002.49,1755.21 1002.83,1749.87 1002.5,1744.5C 1002.5,1737.5 1002.5,1730.5 1002.5,1723.5C 1002.5,1717.17 1002.5,1710.83 1002.5,1704.5 Z"/></g>
<g><path style="opacity:0.927" fill="#090302" d="M 662.5,1699.5 C 680.677,1710.42 699.011,1721.09 717.5,1731.5C 714.882,1735.29 712.049,1738.96 709,1742.5C 707.589,1744.65 706.755,1746.98 706.5,1749.5C 705.609,1750.11 704.609,1750.44 703.5,1750.5C 693.638,1745.4 683.971,1740.07 674.5,1734.5C 676.435,1733.85 678.435,1733.52 680.5,1733.5C 678.729,1719.96 672.729,1708.63 662.5,1699.5 Z"/></g>
<g><path style="opacity:0.983" fill="#ff8900" d="M 657.5,1734.5 C 660.681,1740.53 663.014,1746.86 664.5,1753.5C 655.09,1755.6 645.423,1756.1 635.5,1755C 634.956,1754.28 634.289,1753.78 633.5,1753.5C 631.144,1745.64 626.144,1740.14 618.5,1737C 608.085,1733.55 597.752,1733.71 587.5,1737.5C 576.168,1745.15 569.668,1755.82 568,1769.5C 565.919,1785.62 568.919,1800.62 577,1814.5C 590.384,1828.52 605.884,1831.35 623.5,1823C 631.248,1818.34 635.582,1811.5 636.5,1802.5C 636.5,1800.83 636.5,1799.17 636.5,1797.5C 626.5,1797.5 616.5,1797.5 606.5,1797.5C 606.5,1790.17 606.5,1782.83 606.5,1775.5C 612.167,1775.5 617.833,1775.5 623.5,1775.5C 637.5,1775.5 651.5,1775.5 665.5,1775.5C 666.695,1790.56 665.028,1805.23 660.5,1819.5C 653.277,1837.64 639.944,1848.47 620.5,1852C 567.683,1857.85 540.016,1834.19 537.5,1781C 537.065,1761.56 542.565,1744.06 554,1728.5C 556.436,1725.55 559.269,1723.22 562.5,1721.5C 566.639,1717.92 571.306,1715.09 576.5,1713C 598.068,1705.92 619.068,1707.25 639.5,1717C 646.031,1722.36 652.031,1728.2 657.5,1734.5 Z"/></g>
<g><path style="opacity:0.995" fill="#fe8901" d="M 1219.5,1835.5 C 1216.83,1836.83 1216.83,1838.17 1219.5,1839.5C 1224.24,1847.31 1229.24,1854.98 1234.5,1862.5C 1224.85,1863.67 1215.18,1863.83 1205.5,1863C 1202.96,1860.09 1200.8,1856.93 1199,1853.5C 1197.94,1852.1 1196.61,1851.1 1195,1850.5C 1176.82,1855.17 1158.98,1854.17 1141.5,1847.5C 1127.64,1839.64 1117.64,1828.3 1111.5,1813.5C 1106.29,1795.8 1105.12,1777.8 1108,1759.5C 1111.59,1743.79 1119.42,1730.79 1131.5,1720.5C 1138.64,1715.93 1146.31,1712.43 1154.5,1710C 1182.48,1704.11 1205.98,1711.61 1225,1732.5C 1236.18,1750.25 1240.52,1769.59 1238,1790.5C 1236.76,1807.63 1230.59,1822.63 1219.5,1835.5 Z"/></g>
<g><path style="opacity:0.956" fill="#ffc000" d="M 1605.5,1744.5 C 1605.5,1746.83 1605.5,1749.17 1605.5,1751.5C 1596.83,1751.5 1588.17,1751.5 1579.5,1751.5C 1578.48,1747.64 1576.14,1744.8 1572.5,1743C 1566.95,1740.74 1561.28,1740.24 1555.5,1741.5C 1548.21,1742.26 1540.88,1742.76 1533.5,1743C 1528.2,1743.6 1523.2,1745.1 1518.5,1747.5C 1522.47,1732.71 1532.13,1723.87 1547.5,1721C 1562.74,1717.83 1577.41,1719.49 1591.5,1726C 1598.47,1730.45 1603.14,1736.62 1605.5,1744.5 Z"/></g>
<g><path style="opacity:0.97" fill="#ff8900" d="M 1638.5,1718.5 C 1642.4,1719.43 1646.4,1719.76 1650.5,1719.5C 1650.5,1728.17 1650.5,1736.83 1650.5,1745.5C 1657.83,1745.5 1665.17,1745.5 1672.5,1745.5C 1672.5,1752.83 1672.5,1760.17 1672.5,1767.5C 1670.83,1767.5 1669.17,1767.5 1667.5,1767.5C 1661.83,1767.5 1656.17,1767.5 1650.5,1767.5C 1650.04,1785.9 1650.54,1804.24 1652,1822.5C 1653.01,1824.26 1654.51,1825.43 1656.5,1826C 1661.96,1826.94 1667.29,1827.78 1672.5,1828.5C 1672.5,1835.5 1672.5,1842.5 1672.5,1849.5C 1662.47,1851 1652.47,1850.83 1642.5,1849C 1628.67,1846.17 1621.84,1837.67 1622,1823.5C 1621.5,1804.84 1621.33,1786.17 1621.5,1767.5C 1616.17,1767.5 1610.83,1767.5 1605.5,1767.5C 1605.5,1762.17 1605.5,1756.83 1605.5,1751.5C 1605.5,1749.17 1605.5,1746.83 1605.5,1744.5C 1610.83,1744.5 1616.17,1744.5 1621.5,1744.5C 1621.5,1735.83 1621.5,1727.17 1621.5,1718.5C 1627.17,1718.5 1632.83,1718.5 1638.5,1718.5 Z"/></g>
<g><path style="opacity:0.968" fill="#ffc000" d="M 1846.5,1821.5 C 1846.06,1821.57 1845.73,1821.4 1845.5,1821C 1847.84,1816.84 1849,1812.34 1849,1807.5C 1852.84,1786.21 1847.34,1767.88 1832.5,1752.5C 1832.5,1751.83 1832.17,1751.5 1831.5,1751.5C 1831.5,1750.83 1831.17,1750.5 1830.5,1750.5C 1830.5,1749.83 1830.17,1749.5 1829.5,1749.5C 1826.11,1745.64 1821.78,1743.64 1816.5,1743.5C 1805.86,1742.46 1795.19,1742.29 1784.5,1743C 1778.63,1744.68 1772.96,1746.85 1767.5,1749.5C 1776.46,1729.08 1792.29,1719.08 1815,1719.5C 1849.75,1721.42 1867.25,1739.92 1867.5,1775C 1867.78,1790.15 1863.28,1803.65 1854,1815.5C 1851.91,1818.09 1849.41,1820.09 1846.5,1821.5 Z M 1816.5,1743.5 C 1821.78,1743.64 1826.11,1745.64 1829.5,1749.5C 1825.12,1747.49 1820.79,1745.49 1816.5,1743.5 Z"/></g>
<g><path style="opacity:0.969" fill="#ffc000" d="M 1968.5,1827.5 C 1968.88,1807.8 1968.38,1788.14 1967,1768.5C 1964.45,1756.28 1957.28,1748.11 1945.5,1744C 1925.99,1737.99 1910.99,1743.49 1900.5,1760.5C 1899.51,1755.21 1899.17,1749.87 1899.5,1744.5C 1895.73,1744.76 1892.06,1744.42 1888.5,1743.5C 1888.5,1736.17 1888.5,1728.83 1888.5,1721.5C 1897.83,1721.5 1907.17,1721.5 1916.5,1721.5C 1916.33,1727.18 1916.5,1732.84 1917,1738.5C 1923.75,1725.78 1934.42,1719.45 1949,1719.5C 1969.49,1719.32 1981.49,1729.32 1985,1749.5C 1985.5,1775.5 1985.67,1801.5 1985.5,1827.5C 1979.83,1827.5 1974.17,1827.5 1968.5,1827.5 Z"/></g>
<g><path style="opacity:0.995" fill="#fdbf05" d="M 760.5,1719.5 C 764.329,1720.74 768.329,1721.74 772.5,1722.5C 777.73,1724.79 782.73,1727.62 787.5,1731C 802.28,1746.18 807.947,1764.35 804.5,1785.5C 803.833,1789.17 803.167,1792.83 802.5,1796.5C 799.169,1806.86 793.169,1815.19 784.5,1821.5C 784.062,1821.57 783.728,1821.4 783.5,1821C 785.837,1816.84 787.004,1812.34 787,1807.5C 790.82,1786.14 785.32,1767.81 770.5,1752.5C 769.073,1749.24 766.739,1746.74 763.5,1745C 758.637,1743.33 753.637,1742.49 748.5,1742.5C 739.827,1742.33 731.16,1742.5 722.5,1743C 716.785,1744.36 711.451,1746.53 706.5,1749.5C 706.755,1746.98 707.589,1744.65 709,1742.5C 712.049,1738.96 714.882,1735.29 717.5,1731.5C 730.226,1722.07 744.559,1718.07 760.5,1719.5 Z"/></g>
<g><path style="opacity:1" fill="#fec007" d="M 921.5,1800.5 C 917.975,1808.68 912.641,1815.35 905.5,1820.5C 908.314,1808.02 909.147,1795.36 908,1782.5C 905.313,1770.78 899.813,1760.78 891.5,1752.5C 887.814,1745.74 881.98,1742.41 874,1742.5C 872.615,1742.51 871.449,1742.85 870.5,1743.5C 861.578,1742.36 852.578,1742.2 843.5,1743C 838.039,1744.57 832.706,1746.4 827.5,1748.5C 834.912,1731.62 847.912,1722.12 866.5,1720C 884.483,1717.99 899.983,1723.16 913,1735.5C 924.848,1750.9 928.848,1768.23 925,1787.5C 924.4,1792.02 923.233,1796.35 921.5,1800.5 Z"/></g>
<g><path style="opacity:1" fill="#fec109" d="M 1000.5,1722.5 C 1000.84,1723.34 1001.51,1723.67 1002.5,1723.5C 1002.5,1730.5 1002.5,1737.5 1002.5,1744.5C 997.821,1744.33 993.155,1744.5 988.5,1745C 987.584,1745.28 986.918,1745.78 986.5,1746.5C 973.642,1740.85 960.975,1741.18 948.5,1747.5C 949.596,1742.64 951.762,1738.31 955,1734.5C 967.573,1721.06 982.739,1717.06 1000.5,1722.5 Z"/></g>
<g><path style="opacity:0.993" fill="#fec005" d="M 1478.5,1727.5 C 1483.85,1731.89 1488.52,1736.89 1492.5,1742.5C 1497.74,1755.29 1499.74,1768.62 1498.5,1782.5C 1492.5,1782.5 1486.5,1782.5 1480.5,1782.5C 1478.39,1772.62 1474.39,1763.62 1468.5,1755.5C 1466.98,1747.81 1462.31,1743.31 1454.5,1742C 1450.85,1741.5 1447.18,1741.33 1443.5,1741.5C 1435.58,1742.3 1427.58,1742.8 1419.5,1743C 1414.04,1744.57 1408.71,1746.4 1403.5,1748.5C 1406.08,1741.74 1410.08,1735.91 1415.5,1731C 1435.7,1717.03 1456.7,1715.87 1478.5,1727.5 Z"/></g>
<g><path style="opacity:0.988" fill="#ffc000" d="M 1725.5,1721.5 C 1730.5,1721.5 1735.5,1721.5 1740.5,1721.5C 1740.5,1756.83 1740.5,1792.17 1740.5,1827.5C 1734.83,1827.5 1729.17,1827.5 1723.5,1827.5C 1723.5,1799.83 1723.5,1772.17 1723.5,1744.5C 1719.63,1744.81 1715.96,1744.48 1712.5,1743.5C 1712.5,1738.83 1712.5,1734.17 1712.5,1729.5C 1714.86,1728.82 1717.19,1727.99 1719.5,1727C 1721.37,1724.96 1723.37,1723.13 1725.5,1721.5 Z"/></g>
<g><path style="opacity:1" fill="#fec002" d="M 1307.5,1782.5 C 1306.9,1798.57 1314.57,1806.23 1330.5,1805.5C 1329.4,1822.42 1320.4,1829.58 1303.5,1827C 1296.02,1824.52 1291.86,1819.36 1291,1811.5C 1290.5,1789.17 1290.33,1766.84 1290.5,1744.5C 1286.83,1744.5 1283.17,1744.5 1279.5,1744.5C 1279.5,1737.17 1279.5,1729.83 1279.5,1722.5C 1288.83,1722.5 1298.17,1722.5 1307.5,1722.5C 1307.5,1742.5 1307.5,1762.5 1307.5,1782.5 Z"/></g>
<g><path style="opacity:0.988" fill="#fec002" d="M 1375.5,1762.5 C 1375.19,1774.25 1375.52,1785.91 1376.5,1797.5C 1376.5,1807.5 1376.5,1817.5 1376.5,1827.5C 1370.83,1827.5 1365.17,1827.5 1359.5,1827.5C 1358.5,1800.01 1358.17,1772.34 1358.5,1744.5C 1354.83,1744.5 1351.17,1744.5 1347.5,1744.5C 1347.5,1737.17 1347.5,1729.83 1347.5,1722.5C 1356.83,1722.5 1366.17,1722.5 1375.5,1722.5C 1375.5,1735.83 1375.5,1749.17 1375.5,1762.5 Z"/></g>
<g><path style="opacity:1" fill="#f3e9e8" d="M 1208.5,1781.5 C 1200.47,1781.17 1192.47,1781.5 1184.5,1782.5C 1189.31,1789.8 1194.31,1796.97 1199.5,1804C 1197.75,1804.35 1196.09,1804.85 1194.5,1805.5C 1194.39,1804.88 1194.06,1804.38 1193.5,1804C 1187.51,1803.5 1181.51,1803.33 1175.5,1803.5C 1165.55,1798.38 1159.05,1790.38 1156,1779.5C 1151.99,1765.8 1151.82,1752.13 1155.5,1738.5C 1160.3,1735.03 1165.8,1733.36 1172,1733.5C 1187.87,1734.26 1198.87,1741.93 1205,1756.5C 1207.92,1764.79 1209.09,1773.13 1208.5,1781.5 Z"/></g>
<g><path style="opacity:0.978" fill="#ffc000" d="M 587.5,1737.5 C 584.426,1752.3 584.926,1766.97 589,1781.5C 598.504,1802.51 614.338,1809.51 636.5,1802.5C 635.582,1811.5 631.248,1818.34 623.5,1823C 605.884,1831.35 590.384,1828.52 577,1814.5C 568.919,1800.62 565.919,1785.62 568,1769.5C 569.668,1755.82 576.168,1745.15 587.5,1737.5 Z"/></g>
<g><path style="opacity:1" fill="#fec004" d="M 1155.5,1738.5 C 1151.82,1752.13 1151.99,1765.8 1156,1779.5C 1159.05,1790.38 1165.55,1798.38 1175.5,1803.5C 1172.75,1803.19 1170.09,1803.52 1167.5,1804.5C 1172.31,1811.8 1177.31,1818.97 1182.5,1826C 1176.92,1827.52 1171.25,1827.85 1165.5,1827C 1150.97,1823.14 1141.81,1813.97 1138,1799.5C 1132.45,1780.14 1135.12,1762.14 1146,1745.5C 1148.5,1742.15 1151.67,1739.82 1155.5,1738.5 Z"/></g>
<g><path style="opacity:0.987" fill="#190c01" d="M 1443.5,1741.5 C 1447.18,1741.33 1450.85,1741.5 1454.5,1742C 1462.31,1743.31 1466.98,1747.81 1468.5,1755.5C 1465.76,1754.26 1463.42,1752.43 1461.5,1750C 1455.33,1747.03 1449.33,1744.19 1443.5,1741.5 Z"/></g>
<g><path style="opacity:0.987" fill="#fe8900" d="M 748.5,1742.5 C 756.291,1744.73 763.625,1748.06 770.5,1752.5C 785.32,1767.81 790.82,1786.14 787,1807.5C 787.004,1812.34 785.837,1816.84 783.5,1821C 783.728,1821.4 784.062,1821.57 784.5,1821.5C 775.403,1842.49 759.236,1852.82 736,1852.5C 701.701,1850.16 684.201,1831.66 683.5,1797C 683.315,1778.34 689.982,1762.84 703.5,1750.5C 704.609,1750.44 705.609,1750.11 706.5,1749.5C 711.451,1746.53 716.785,1744.36 722.5,1743C 731.16,1742.5 739.827,1742.33 748.5,1742.5 Z M 731.5,1765.5 C 732.167,1765.5 732.833,1765.5 733.5,1765.5C 739.861,1769.01 746.528,1772.01 753.5,1774.5C 755.887,1778.49 757.387,1782.83 758,1787.5C 758.5,1793.82 758.666,1800.16 758.5,1806.5C 741.917,1807.75 732.75,1800.09 731,1783.5C 730.212,1777.42 730.379,1771.42 731.5,1765.5 Z M 720.5,1821.5 C 725.418,1824.13 730.418,1826.46 735.5,1828.5C 729.408,1828.26 724.408,1825.93 720.5,1821.5 Z"/></g>
<g><path style="opacity:0.991" fill="#fe8900" d="M 870.5,1743.5 C 878.131,1745.15 885.131,1748.15 891.5,1752.5C 899.813,1760.78 905.313,1770.78 908,1782.5C 909.147,1795.36 908.314,1808.02 905.5,1820.5C 904.27,1822.3 903.604,1824.3 903.5,1826.5C 893.268,1844.04 877.768,1852.71 857,1852.5C 822.543,1850.01 805.043,1831.34 804.5,1796.5C 805.482,1793.04 805.815,1789.37 805.5,1785.5C 807.069,1778.3 809.569,1771.3 813,1764.5C 816.989,1758.35 821.822,1753.01 827.5,1748.5C 832.706,1746.4 838.039,1744.57 843.5,1743C 852.578,1742.2 861.578,1742.36 870.5,1743.5 Z M 841.5,1821.5 C 846.418,1824.13 851.418,1826.46 856.5,1828.5C 850.408,1828.26 845.408,1825.93 841.5,1821.5 Z"/></g>
<g><path style="opacity:0.985" fill="#fe8800" d="M 1443.5,1741.5 C 1449.33,1744.19 1455.33,1747.03 1461.5,1750C 1463.42,1752.43 1465.76,1754.26 1468.5,1755.5C 1474.39,1763.62 1478.39,1772.62 1480.5,1782.5C 1481.39,1787.44 1481.73,1792.44 1481.5,1797.5C 1481.5,1799.5 1481.5,1801.5 1481.5,1803.5C 1475.44,1803.25 1469.44,1803.59 1463.5,1804.5C 1455.17,1804.5 1446.83,1804.5 1438.5,1804.5C 1428.89,1803.55 1419.22,1803.22 1409.5,1803.5C 1408.91,1808.56 1409.91,1813.23 1412.5,1817.5C 1412.5,1818.17 1412.83,1818.5 1413.5,1818.5C 1418.45,1827.31 1425.78,1830.64 1435.5,1828.5C 1443.71,1830.06 1450.05,1827.23 1454.5,1820C 1463.17,1819.33 1471.83,1819.33 1480.5,1820C 1479.75,1820.67 1479.41,1821.5 1479.5,1822.5C 1474.08,1838.75 1462.75,1848.25 1445.5,1851C 1403.91,1856.58 1382.25,1838.41 1380.5,1796.5C 1380.83,1781.84 1385.5,1768.84 1394.5,1757.5C 1397.31,1754.27 1400.31,1751.27 1403.5,1748.5C 1408.71,1746.4 1414.04,1744.57 1419.5,1743C 1427.58,1742.8 1435.58,1742.3 1443.5,1741.5 Z M 1453.5,1782.5 C 1453.5,1783.5 1453.5,1784.5 1453.5,1785.5C 1444.5,1785.5 1435.5,1785.5 1426.5,1785.5C 1426.5,1784.5 1426.5,1783.5 1426.5,1782.5C 1435.5,1782.5 1444.5,1782.5 1453.5,1782.5 Z"/></g>
<g><path style="opacity:0.977" fill="#ff8900" d="M 1555.5,1741.5 C 1564.19,1743.07 1572.19,1746.4 1579.5,1751.5C 1584.33,1756.16 1587.33,1761.83 1588.5,1768.5C 1588.5,1770.17 1588.5,1771.83 1588.5,1773.5C 1580.16,1773.67 1571.83,1773.5 1563.5,1773C 1561.43,1767.93 1557.77,1764.6 1552.5,1763C 1545.1,1761.62 1538.1,1762.62 1531.5,1766C 1526.77,1769.66 1526.44,1773.49 1530.5,1777.5C 1530.5,1778.17 1530.83,1778.5 1531.5,1778.5C 1532.91,1780.54 1534.91,1781.54 1537.5,1781.5C 1538.21,1782.4 1539.21,1782.74 1540.5,1782.5C 1541.5,1783.83 1542.5,1783.83 1543.5,1782.5C 1544.17,1782.5 1544.5,1782.83 1544.5,1783.5C 1545.21,1784.4 1546.21,1784.74 1547.5,1784.5C 1548.17,1784.5 1548.83,1784.5 1549.5,1784.5C 1550.21,1785.4 1551.21,1785.74 1552.5,1785.5C 1553.17,1785.5 1553.83,1785.5 1554.5,1785.5C 1554.84,1786.34 1555.51,1786.67 1556.5,1786.5C 1557.17,1786.5 1557.83,1786.5 1558.5,1786.5C 1559.21,1787.4 1560.21,1787.74 1561.5,1787.5C 1562.17,1787.5 1562.83,1787.5 1563.5,1787.5C 1563.84,1788.34 1564.51,1788.67 1565.5,1788.5C 1565.83,1788.5 1566.17,1788.5 1566.5,1788.5C 1567.21,1789.4 1568.21,1789.74 1569.5,1789.5C 1569.83,1789.5 1570.17,1789.5 1570.5,1789.5C 1570.84,1790.34 1571.51,1790.67 1572.5,1790.5C 1573.21,1791.4 1574.21,1791.74 1575.5,1791.5C 1575.5,1792.17 1575.83,1792.5 1576.5,1792.5C 1587.64,1799.45 1592.98,1809.45 1592.5,1822.5C 1587.62,1836.54 1577.95,1845.71 1563.5,1850C 1545.41,1854.29 1528.07,1852.29 1511.5,1844C 1503.1,1838.04 1498.77,1829.87 1498.5,1819.5C 1507.35,1819.83 1516.02,1819.49 1524.5,1818.5C 1525.5,1818.83 1526.17,1819.5 1526.5,1820.5C 1530.28,1828.23 1536.61,1831.56 1545.5,1830.5C 1548.36,1830.5 1551.02,1830.16 1553.5,1829.5C 1561.44,1828.72 1564.61,1824.39 1563,1816.5C 1561.83,1815.33 1560.67,1814.17 1559.5,1813C 1544.67,1809.36 1530.01,1805.2 1515.5,1800.5C 1505.69,1795.23 1500.69,1786.9 1500.5,1775.5C 1500.99,1762.5 1506.99,1753.17 1518.5,1747.5C 1523.2,1745.1 1528.2,1743.6 1533.5,1743C 1540.88,1742.76 1548.21,1742.26 1555.5,1741.5 Z M 1526.5,1820.5 C 1534.6,1826.09 1543.6,1829.09 1553.5,1829.5C 1551.02,1830.16 1548.36,1830.5 1545.5,1830.5C 1536.61,1831.56 1530.28,1828.23 1526.5,1820.5 Z"/></g>
<g><path style="opacity:0.984" fill="#ff8900" d="M 1816.5,1743.5 C 1820.79,1745.49 1825.12,1747.49 1829.5,1749.5C 1830.17,1749.5 1830.5,1749.83 1830.5,1750.5C 1831.17,1750.5 1831.5,1750.83 1831.5,1751.5C 1832.17,1751.5 1832.5,1751.83 1832.5,1752.5C 1847.34,1767.88 1852.84,1786.21 1849,1807.5C 1849,1812.34 1847.84,1816.84 1845.5,1821C 1845.73,1821.4 1846.06,1821.57 1846.5,1821.5C 1837.4,1842.49 1821.24,1852.82 1798,1852.5C 1766.32,1851.34 1748.99,1835 1746,1803.5C 1744.16,1785.51 1748.83,1769.51 1760,1755.5C 1762.66,1753.67 1765.16,1751.67 1767.5,1749.5C 1772.96,1746.85 1778.63,1744.68 1784.5,1743C 1795.19,1742.29 1805.86,1742.46 1816.5,1743.5 Z M 1793.5,1765.5 C 1809.1,1764.59 1817.93,1771.93 1820,1787.5C 1820.5,1793.82 1820.67,1800.16 1820.5,1806.5C 1803.92,1807.75 1794.75,1800.09 1793,1783.5C 1792.21,1777.42 1792.38,1771.42 1793.5,1765.5 Z M 1782.5,1821.5 C 1787.42,1824.13 1792.42,1826.46 1797.5,1828.5C 1791.41,1828.26 1786.41,1825.93 1782.5,1821.5 Z"/></g>
<g><path style="opacity:0.986" fill="#ff8900" d="M 1968.5,1827.5 C 1968.5,1834.83 1968.5,1842.17 1968.5,1849.5C 1958.83,1849.5 1949.17,1849.5 1939.5,1849.5C 1939.96,1825.11 1939.46,1800.78 1938,1776.5C 1933.57,1768.54 1926.74,1765.2 1917.5,1766.5C 1908.83,1767.93 1903.33,1772.93 1901,1781.5C 1900.5,1796.83 1900.33,1812.16 1900.5,1827.5C 1900.5,1834.83 1900.5,1842.17 1900.5,1849.5C 1890.83,1849.5 1881.17,1849.5 1871.5,1849.5C 1871.5,1814.17 1871.5,1778.83 1871.5,1743.5C 1877.17,1743.5 1882.83,1743.5 1888.5,1743.5C 1892.06,1744.42 1895.73,1744.76 1899.5,1744.5C 1899.17,1749.87 1899.51,1755.21 1900.5,1760.5C 1910.99,1743.49 1925.99,1737.99 1945.5,1744C 1957.28,1748.11 1964.45,1756.28 1967,1768.5C 1968.38,1788.14 1968.88,1807.8 1968.5,1827.5 Z"/></g>
<g><path style="opacity:1" fill="#edd8c4" d="M 748.5,1742.5 C 753.637,1742.49 758.637,1743.33 763.5,1745C 766.739,1746.74 769.073,1749.24 770.5,1752.5C 763.625,1748.06 756.291,1744.73 748.5,1742.5 Z"/></g>
<g><path style="opacity:1" fill="#f6e1ca" d="M 870.5,1743.5 C 871.449,1742.85 872.615,1742.51 874,1742.5C 881.98,1742.41 887.814,1745.74 891.5,1752.5C 885.131,1748.15 878.131,1745.15 870.5,1743.5 Z"/></g>
<g><path style="opacity:0.99" fill="#ff8900" d="M 1712.5,1743.5 C 1715.96,1744.48 1719.63,1744.81 1723.5,1744.5C 1723.5,1772.17 1723.5,1799.83 1723.5,1827.5C 1723.5,1834.83 1723.5,1842.17 1723.5,1849.5C 1714.17,1849.5 1704.83,1849.5 1695.5,1849.5C 1695.5,1814.17 1695.5,1778.83 1695.5,1743.5C 1701.17,1743.5 1706.83,1743.5 1712.5,1743.5 Z"/></g>
<g><path style="opacity:1" fill="#f4e5de" d="M 1002.5,1744.5 C 1002.83,1749.87 1002.49,1755.21 1001.5,1760.5C 998.675,1757.5 996.008,1754.34 993.5,1751C 991.283,1749.28 988.95,1747.78 986.5,1746.5C 986.918,1745.78 987.584,1745.28 988.5,1745C 993.155,1744.5 997.821,1744.33 1002.5,1744.5 Z"/></g>
<g><path style="opacity:0.992" fill="#fe8801" d="M 1279.5,1744.5 C 1283.17,1744.5 1286.83,1744.5 1290.5,1744.5C 1290.33,1766.84 1290.5,1789.17 1291,1811.5C 1291.86,1819.36 1296.02,1824.52 1303.5,1827C 1320.4,1829.58 1329.4,1822.42 1330.5,1805.5C 1330.5,1795.83 1330.5,1786.17 1330.5,1776.5C 1330.5,1765.83 1330.5,1755.17 1330.5,1744.5C 1336.17,1744.5 1341.83,1744.5 1347.5,1744.5C 1351.17,1744.5 1354.83,1744.5 1358.5,1744.5C 1358.17,1772.34 1358.5,1800.01 1359.5,1827.5C 1359.5,1834.83 1359.5,1842.17 1359.5,1849.5C 1350.17,1849.5 1340.83,1849.5 1331.5,1849.5C 1331.67,1844.16 1331.5,1838.82 1331,1833.5C 1324.49,1845.93 1314.15,1852.26 1300,1852.5C 1283.89,1852.71 1272.39,1845.71 1265.5,1831.5C 1262.72,1819.42 1261.72,1807.08 1262.5,1794.5C 1262.5,1777.83 1262.5,1761.17 1262.5,1744.5C 1268.17,1744.5 1273.83,1744.5 1279.5,1744.5 Z"/></g>
<g><path style="opacity:0.976" fill="#ffc000" d="M 633.5,1753.5 C 634.289,1753.78 634.956,1754.28 635.5,1755C 645.423,1756.1 655.09,1755.6 664.5,1753.5C 670.5,1753.5 676.5,1753.5 682.5,1753.5C 685.498,1774.01 681.665,1793.01 671,1810.5C 667.902,1814.11 664.402,1817.11 660.5,1819.5C 665.028,1805.23 666.695,1790.56 665.5,1775.5C 651.5,1775.5 637.5,1775.5 623.5,1775.5C 623.5,1768.17 623.5,1760.83 623.5,1753.5C 626.833,1753.5 630.167,1753.5 633.5,1753.5 Z"/></g>
<g><path style="opacity:0.969" fill="#130903" d="M 1394.5,1757.5 C 1385.5,1768.84 1380.83,1781.84 1380.5,1796.5C 1379.29,1797.23 1377.96,1797.57 1376.5,1797.5C 1375.52,1785.91 1375.19,1774.25 1375.5,1762.5C 1381.9,1761.13 1388.24,1759.47 1394.5,1757.5 Z"/></g>
<g><path style="opacity:0.974" fill="#ffc000" d="M 1588.5,1768.5 C 1606.1,1775.37 1612.26,1788.03 1607,1806.5C 1604.06,1813.6 1599.23,1818.94 1592.5,1822.5C 1592.98,1809.45 1587.64,1799.45 1576.5,1792.5C 1575.83,1792.5 1575.5,1792.17 1575.5,1791.5C 1574.79,1790.6 1573.79,1790.26 1572.5,1790.5C 1572.16,1789.66 1571.49,1789.33 1570.5,1789.5C 1570.17,1789.5 1569.83,1789.5 1569.5,1789.5C 1568.79,1788.6 1567.79,1788.26 1566.5,1788.5C 1566.17,1788.5 1565.83,1788.5 1565.5,1788.5C 1565.16,1787.66 1564.49,1787.33 1563.5,1787.5C 1562.83,1787.5 1562.17,1787.5 1561.5,1787.5C 1560.79,1786.6 1559.79,1786.26 1558.5,1786.5C 1557.83,1786.5 1557.17,1786.5 1556.5,1786.5C 1556.16,1785.66 1555.49,1785.33 1554.5,1785.5C 1553.83,1785.5 1553.17,1785.5 1552.5,1785.5C 1551.79,1784.6 1550.79,1784.26 1549.5,1784.5C 1548.83,1784.5 1548.17,1784.5 1547.5,1784.5C 1546.79,1783.6 1545.79,1783.26 1544.5,1783.5C 1544.5,1782.83 1544.17,1782.5 1543.5,1782.5C 1542.5,1782.5 1541.5,1782.5 1540.5,1782.5C 1539.79,1781.6 1538.79,1781.26 1537.5,1781.5C 1535.82,1779.99 1533.82,1778.99 1531.5,1778.5C 1530.83,1778.5 1530.5,1778.17 1530.5,1777.5C 1526.44,1773.49 1526.77,1769.66 1531.5,1766C 1538.1,1762.62 1545.1,1761.62 1552.5,1763C 1557.77,1764.6 1561.43,1767.93 1563.5,1773C 1571.83,1773.5 1580.16,1773.67 1588.5,1773.5C 1588.5,1771.83 1588.5,1770.17 1588.5,1768.5 Z"/></g>
<g><path style="opacity:0.997" fill="#fdbe00" d="M 1453.5,1782.5 C 1444.5,1782.5 1435.5,1782.5 1426.5,1782.5C 1426.5,1783.5 1426.5,1784.5 1426.5,1785.5C 1420.83,1785.5 1415.17,1785.5 1409.5,1785.5C 1410.56,1771.61 1418.06,1764.28 1432,1763.5C 1444.67,1763.67 1451.84,1770 1453.5,1782.5 Z"/></g>
<g><path style="opacity:0.975" fill="#ffc000" d="M 731.5,1765.5 C 730.379,1771.42 730.212,1777.42 731,1783.5C 732.75,1800.09 741.917,1807.75 758.5,1806.5C 757.268,1820.73 749.602,1828.07 735.5,1828.5C 730.418,1826.46 725.418,1824.13 720.5,1821.5C 716.761,1818.02 714.594,1813.69 714,1808.5C 713.333,1800.83 713.333,1793.17 714,1785.5C 715.47,1774.83 721.303,1768.16 731.5,1765.5 Z"/></g>
<g><path style="opacity:0.323" fill="#0e0400" d="M 733.5,1765.5 C 742.247,1764.21 748.914,1767.21 753.5,1774.5C 746.528,1772.01 739.861,1769.01 733.5,1765.5 Z"/></g>
<g><path style="opacity:1" fill="#f1e6e5" d="M 880.5,1797.5 C 872.113,1797.42 863.78,1796.75 855.5,1795.5C 854.067,1792.72 852.9,1789.72 852,1786.5C 851.5,1779.51 851.334,1772.51 851.5,1765.5C 865.944,1763.31 875.111,1769.31 879,1783.5C 880.122,1788.1 880.622,1792.77 880.5,1797.5 Z"/></g>
<g><path style="opacity:0.975" fill="#ffc000" d="M 1793.5,1765.5 C 1792.38,1771.42 1792.21,1777.42 1793,1783.5C 1794.75,1800.09 1803.92,1807.75 1820.5,1806.5C 1819.27,1820.73 1811.6,1828.07 1797.5,1828.5C 1792.42,1826.46 1787.42,1824.13 1782.5,1821.5C 1778.76,1818.02 1776.59,1813.69 1776,1808.5C 1775.33,1800.83 1775.33,1793.17 1776,1785.5C 1777.47,1774.83 1783.3,1768.16 1793.5,1765.5 Z"/></g>
<g><path style="opacity:0.992" fill="#fdc004" d="M 851.5,1765.5 C 851.334,1772.51 851.5,1779.51 852,1786.5C 852.9,1789.72 854.067,1792.72 855.5,1795.5C 860.591,1805.04 868.591,1808.71 879.5,1806.5C 878.268,1820.73 870.602,1828.07 856.5,1828.5C 851.418,1826.46 846.418,1824.13 841.5,1821.5C 837.761,1818.02 835.594,1813.69 835,1808.5C 834.333,1800.83 834.333,1793.17 835,1785.5C 836.526,1775.4 842.026,1768.73 851.5,1765.5 Z"/></g>
<g><path style="opacity:1" fill="#f2e7e6" d="M 972.5,1766.5 C 989.298,1764.48 999.131,1771.82 1002,1788.5C 1002.78,1794.25 1002.62,1799.92 1001.5,1805.5C 985.323,1807.48 975.823,1800.48 973,1784.5C 972.501,1778.51 972.334,1772.51 972.5,1766.5 Z"/></g>
<g><path style="opacity:0.982" fill="#ffc000" d="M 1917.5,1766.5 C 1917.5,1786.83 1917.5,1807.17 1917.5,1827.5C 1911.83,1827.5 1906.17,1827.5 1900.5,1827.5C 1900.33,1812.16 1900.5,1796.83 1901,1781.5C 1903.33,1772.93 1908.83,1767.93 1917.5,1766.5 Z"/></g>
<g><path style="opacity:1" fill="#fec004" d="M 972.5,1766.5 C 972.334,1772.51 972.501,1778.51 973,1784.5C 975.823,1800.48 985.323,1807.48 1001.5,1805.5C 998.948,1821.56 989.615,1828.72 973.5,1827C 963.001,1824.17 957.167,1817.33 956,1806.5C 955.333,1799.17 955.333,1791.83 956,1784.5C 958.59,1775.75 964.09,1769.75 972.5,1766.5 Z"/></g>
<g><path style="opacity:0.972" fill="#ffc000" d="M 1667.5,1767.5 C 1667.07,1778.24 1667.57,1788.91 1669,1799.5C 1669.83,1801.67 1671.33,1803.17 1673.5,1804C 1678.68,1805.63 1683.84,1805.79 1689,1804.5C 1689.5,1812.16 1689.67,1819.83 1689.5,1827.5C 1683.85,1828.03 1678.18,1828.37 1672.5,1828.5C 1667.29,1827.78 1661.96,1826.94 1656.5,1826C 1654.51,1825.43 1653.01,1824.26 1652,1822.5C 1650.54,1804.24 1650.04,1785.9 1650.5,1767.5C 1656.17,1767.5 1661.83,1767.5 1667.5,1767.5 Z"/></g>
<g><path style="opacity:1" fill="#0a0302" d="M 1330.5,1776.5 C 1330.5,1786.17 1330.5,1795.83 1330.5,1805.5C 1314.57,1806.23 1306.9,1798.57 1307.5,1782.5C 1315.15,1780.51 1322.82,1778.51 1330.5,1776.5 Z"/></g>
<g><path style="opacity:1" fill="#fec108" d="M 1208.5,1781.5 C 1209.61,1792.56 1206.61,1802.23 1199.5,1810.5C 1197.48,1809.15 1195.81,1807.48 1194.5,1805.5C 1196.09,1804.85 1197.75,1804.35 1199.5,1804C 1194.31,1796.97 1189.31,1789.8 1184.5,1782.5C 1192.47,1781.5 1200.47,1781.17 1208.5,1781.5 Z"/></g>
<g><path style="opacity:0.742" fill="#150a03" d="M 804.5,1785.5 C 804.833,1785.5 805.167,1785.5 805.5,1785.5C 805.815,1789.37 805.482,1793.04 804.5,1796.5C 803.833,1796.5 803.167,1796.5 802.5,1796.5C 803.167,1792.83 803.833,1789.17 804.5,1785.5 Z"/></g>
<g><path style="opacity:0.955" fill="#090200" d="M 1262.5,1794.5 C 1261.72,1807.08 1262.72,1819.42 1265.5,1831.5C 1259.5,1832.5 1253.5,1833.5 1247.5,1834.5C 1242.83,1828.48 1238.5,1822.15 1234.5,1815.5C 1239.63,1810.04 1243.97,1804.04 1247.5,1797.5C 1252.53,1796.63 1257.53,1795.63 1262.5,1794.5 Z"/></g>
<g><path style="opacity:1" fill="#110601" d="M 855.5,1795.5 C 863.78,1796.75 872.113,1797.42 880.5,1797.5C 880.736,1800.61 880.403,1803.61 879.5,1806.5C 868.591,1808.71 860.591,1805.04 855.5,1795.5 Z"/></g>
<g><path style="opacity:0.973" fill="#ffc000" d="M 1481.5,1797.5 C 1486.83,1797.5 1492.17,1797.5 1497.5,1797.5C 1495.31,1808.67 1489.31,1817.01 1479.5,1822.5C 1479.41,1821.5 1479.75,1820.67 1480.5,1820C 1471.83,1819.33 1463.17,1819.33 1454.5,1820C 1450.05,1827.23 1443.71,1830.06 1435.5,1828.5C 1427.16,1827.28 1419.83,1823.95 1413.5,1818.5C 1412.83,1818.5 1412.5,1818.17 1412.5,1817.5C 1409.91,1813.23 1408.91,1808.56 1409.5,1803.5C 1419.22,1803.22 1428.89,1803.55 1438.5,1804.5C 1442.02,1806.91 1446.02,1807.91 1450.5,1807.5C 1455.27,1807.87 1459.6,1806.87 1463.5,1804.5C 1469.44,1803.59 1475.44,1803.25 1481.5,1803.5C 1481.5,1801.5 1481.5,1799.5 1481.5,1797.5 Z M 1438.5,1804.5 C 1446.83,1804.5 1455.17,1804.5 1463.5,1804.5C 1459.6,1806.87 1455.27,1807.87 1450.5,1807.5C 1446.02,1807.91 1442.02,1806.91 1438.5,1804.5 Z"/></g>
<g><path style="opacity:0.968" fill="#ffc000" d="M 1515.5,1800.5 C 1530.01,1805.2 1544.67,1809.36 1559.5,1813C 1560.67,1814.17 1561.83,1815.33 1563,1816.5C 1564.61,1824.39 1561.44,1828.72 1553.5,1829.5C 1543.6,1829.09 1534.6,1826.09 1526.5,1820.5C 1526.17,1819.5 1525.5,1818.83 1524.5,1818.5C 1519.4,1813.63 1516.4,1807.63 1515.5,1800.5 Z"/></g>
<g><path style="opacity:0.868" fill="#090200" d="M 921.5,1800.5 C 923.167,1800.5 924.833,1800.5 926.5,1800.5C 926.588,1806.93 927.421,1813.26 929,1819.5C 931.146,1824.12 932.98,1828.78 934.5,1833.5C 924.059,1831.55 913.726,1829.21 903.5,1826.5C 903.604,1824.3 904.27,1822.3 905.5,1820.5C 912.641,1815.35 917.975,1808.68 921.5,1800.5 Z"/></g>
<g><path style="opacity:0.926" fill="#060000" d="M 1047.5,1812.5 C 1056.43,1814.04 1065.43,1815.04 1074.5,1815.5C 1086.84,1814.83 1099.17,1814.17 1111.5,1813.5C 1117.64,1828.3 1127.64,1839.64 1141.5,1847.5C 1104.62,1850.23 1067.62,1849.89 1030.5,1846.5C 1030.5,1840.17 1030.5,1833.83 1030.5,1827.5C 1036.17,1827.5 1041.83,1827.5 1047.5,1827.5C 1047.5,1822.5 1047.5,1817.5 1047.5,1812.5 Z"/></g>
<g><path style="opacity:0.661" fill="#0e0400" d="M 1001.5,1833.5 C 1002.48,1836.29 1002.81,1839.29 1002.5,1842.5C 1002.5,1843.17 1002.5,1843.83 1002.5,1844.5C 999.946,1843.61 997.279,1843.28 994.5,1843.5C 996.846,1840.13 999.179,1836.8 1001.5,1833.5 Z"/></g>
<g><path style="opacity:0.999" fill="#844500" d="M 1001.5,1833.5 C 1001.56,1832.96 1001.89,1832.62 1002.5,1832.5C 1003.81,1835.98 1003.81,1839.31 1002.5,1842.5C 1002.81,1839.29 1002.48,1836.29 1001.5,1833.5 Z"/></g>
<g><path style="opacity:0.413" fill="#1a0a00" d="M 1219.5,1835.5 C 1220.17,1836.83 1220.83,1838.17 1221.5,1839.5C 1220.83,1839.5 1220.17,1839.5 1219.5,1839.5C 1216.83,1838.17 1216.83,1836.83 1219.5,1835.5 Z"/></g>
</svg>
